<svg width="12" height="12" viewBox="0 0 12 12" fill="none" xmlns="http://www.w3.org/2000/svg">
<path d="M0.191807 8.95152L0.584883 9.34733C0.708591 9.47094 0.873178 9.53904 1.04908 9.53904C1.22489 9.53904 1.38967 9.47094 1.51338 9.34733L5.99732 4.86319L10.4864 9.3523C10.6099 9.47591 10.7747 9.54391 10.9505 9.54391C11.1263 9.54391 11.2912 9.47591 11.4148 9.3523L11.808 8.95893C12.064 8.70313 12.064 8.28644 11.808 8.03063L6.46317 2.66659C6.33966 2.54308 6.17507 2.45605 5.99771 2.45605H5.99566C5.81975 2.45605 5.65517 2.54318 5.53165 2.66659L0.191807 8.0161C0.0680981 8.13961 0.00019455 8.30917 0 8.48498C0 8.66088 0.0680981 8.8281 0.191807 8.95152Z" fill="currentColor"/>
</svg>
