<svg width="12" height="12" viewBox="0 0 12 12" fill="none" xmlns="http://www.w3.org/2000/svg">
<path d="M11.8082 3.04848L11.4151 2.65267C11.2914 2.52906 11.1268 2.46096 10.9509 2.46096C10.7751 2.46096 10.6103 2.52906 10.4866 2.65267L6.00268 7.13681L1.51357 2.6477C1.39006 2.52409 1.22528 2.45609 1.04947 2.45609C0.873666 2.45609 0.708786 2.52409 0.585176 2.6477L0.192002 3.04107C-0.0640005 3.29687 -0.0640005 3.71356 0.192002 3.96937L5.53683 9.33341C5.66034 9.45692 5.82493 9.54395 6.00229 9.54395H6.00434C6.18025 9.54395 6.34483 9.45682 6.46835 9.33341L11.8082 3.9839C11.9319 3.86039 11.9998 3.69083 12 3.51502C12 3.33912 11.9319 3.1719 11.8082 3.04848Z" fill="currentColor"/>
</svg>
