<svg width="40" height="35" viewBox="0 0 40 35" fill="none" xmlns="http://www.w3.org/2000/svg">
<rect width="40" height="35" rx="4" fill="#E0F0E0"/>
<path d="M25.3744 23.7314L12.4107 10.7678C12.0855 10.4425 12.0855 9.91453 12.4107 9.58926C12.736 9.26399 13.264 9.26399 13.5893 9.58926L26.5529 22.5529C26.8781 22.8781 26.8781 23.4061 26.5529 23.7314C26.2276 24.0567 25.6996 24.0567 25.3744 23.7314Z" fill="#4DA54B"/>
<path d="M26.7314 10.6256L13.7678 23.5893C13.4425 23.9145 12.9145 23.9145 12.5893 23.5893C12.264 23.264 12.264 22.736 12.5893 22.4107L25.5529 9.44712C25.8781 9.12185 26.4061 9.12185 26.7314 9.44712C27.0567 9.77239 27.0567 10.3004 26.7314 10.6256Z" fill="#4DA54B"/>
</svg>
