<svg width="18" height="18" viewBox="0 0 18 18" fill="none" xmlns="http://www.w3.org/2000/svg">
<path d="M17.2169 9.7639C16.6949 9.11079 16.0279 8.68746 15.2152 8.49367C15.4716 8.1062 15.5995 7.67493 15.5995 7.19995C15.5995 6.53742 15.3651 5.97185 14.8965 5.50305C14.4279 5.03441 13.8622 4.79999 13.1997 4.79999C12.6059 4.79999 12.0873 4.99376 11.6436 5.38129C11.275 4.48125 10.6857 3.75941 9.87646 3.21574C9.06718 2.67191 8.17496 2.40003 7.19986 2.40003C5.87495 2.40003 4.74364 2.8689 3.80614 3.8064C2.86857 4.74368 2.39993 5.87505 2.39993 7.20005C2.39993 7.28129 2.4062 7.41569 2.41868 7.60312C1.68121 7.94688 1.09377 8.46247 0.656165 9.1499C0.218722 9.83752 0 10.5874 0 11.4C0 12.5563 0.41101 13.5452 1.2328 14.367C2.05462 15.1892 3.04372 15.6 4.19994 15.6H14.4C15.3936 15.6 16.242 15.2483 16.9452 14.5453C17.6484 13.8423 18 12.9939 18 11.9999C17.9999 11.1625 17.7389 10.4172 17.2169 9.7639ZM11.9062 10.1248L8.61555 13.4157C8.55937 13.4718 8.48746 13.5 8.39992 13.5C8.31244 13.5 8.24053 13.4718 8.18428 13.4157L4.88438 10.1156C4.82813 10.0594 4.80006 9.98751 4.80006 9.89997C4.80006 9.81874 4.82961 9.7484 4.88898 9.68907C4.94848 9.6297 5.01865 9.60005 5.09988 9.60005H7.19989V6.30011C7.19989 6.21887 7.22961 6.14854 7.28894 6.08907C7.34834 6.0298 7.41861 6.00015 7.49985 6.00015H9.30002C9.38139 6.00015 9.45137 6.02971 9.51106 6.08907C9.5703 6.14854 9.59995 6.21887 9.59995 6.30011V9.60005H11.7C11.7875 9.60005 11.8594 9.62812 11.9155 9.6843C11.9717 9.74049 11.9996 9.8124 11.9996 9.89994C11.9996 9.97527 11.9686 10.05 11.9062 10.1248Z" fill="currentColor"/>
</svg>
