<svg width="64" height="64" viewBox="0 0 64 64" fill="none" xmlns="http://www.w3.org/2000/svg">
<circle cx="32" cy="32" r="32" fill="#D0DCD4"/>
<g clip-path="url(#clip0)">
<path d="M40.3252 25.5962C40.2542 25.6572 40.1682 25.6972 40.0752 25.7112C38.0652 26.0172 36.6162 25.5402 35.4542 25.1562C34.7392 24.9212 34.1232 24.7172 33.5002 24.7172C32.4493 24.7172 31.6352 25.2522 30.8482 25.7692C30.6652 25.8892 30.4873 26.0062 30.3112 26.1132L27.7052 28.7192C27.3482 29.0762 27.2602 29.6192 27.4862 30.0702C27.6852 30.4692 28.0862 30.7172 28.5322 30.7172H28.9322C29.2042 30.7172 29.4592 30.6272 29.6692 30.4572C29.8603 30.3012 30.0802 30.1182 30.3152 29.9212C31.5962 28.8502 32.6312 28.0092 33.3242 27.7492C33.3822 27.7272 33.4402 27.7172 33.5002 27.7172C33.6182 27.7172 33.7352 27.7592 33.8272 27.8392L41.0542 34.1022L44.0002 32.9342V23.3042L40.3252 25.5962Z" fill="#455E4D"/>
<path d="M24.523 33.7173C24.196 33.7173 23.891 33.8803 23.71 34.1523L23.164 34.9713C23.057 35.1313 23 35.3203 23 35.5133V35.7403C23 36.2803 23.437 36.7173 23.977 36.7173C24.304 36.7173 24.609 36.5543 24.79 36.2823L25.336 35.4633C25.443 35.3033 25.5 35.1143 25.5 34.9213V34.6943C25.5 34.1543 25.063 33.7173 24.523 33.7173Z" fill="#455E4D"/>
<path d="M26.523 34.7173H26.489C26.181 34.7173 25.892 34.8623 25.707 35.1083L24.696 36.4573C24.569 36.6263 24.5 36.8313 24.5 37.0433V37.2403C24.5 37.7803 24.937 38.2173 25.477 38.2173H25.511C25.819 38.2173 26.108 38.0724 26.293 37.8264L27.304 36.4773C27.431 36.3084 27.5 36.1033 27.5 35.8914V35.6943C27.5 35.1543 27.063 34.7173 26.523 34.7173Z" fill="#455E4D"/>
<path d="M28.5221 35.7173H28.4881C28.1801 35.7173 27.8911 35.8623 27.7061 36.1083L26.6951 37.4573C26.5681 37.6263 26.4991 37.8313 26.4991 38.0433V38.2403C26.4991 38.7803 26.9362 39.2173 27.4762 39.2173H27.5101C27.8182 39.2173 28.1071 39.0723 28.2922 38.8263L29.3032 37.4773C29.4301 37.3083 29.4991 37.1033 29.4991 36.8913V36.6943C29.4991 36.1543 29.0621 35.7173 28.5221 35.7173Z" fill="#455E4D"/>
<path d="M30.523 36.7173H30.489C30.181 36.7173 29.892 36.8623 29.707 37.1083L28.696 38.4573C28.569 38.6263 28.5 38.8313 28.5 39.0433V39.2403C28.5 39.7803 28.937 40.2173 29.477 40.2173H29.511C29.819 40.2173 30.108 40.0723 30.293 39.8263L31.304 38.4773C31.431 38.3083 31.499 38.1023 31.499 37.8913V37.6943H31.5C31.5 37.1543 31.063 36.7173 30.523 36.7173Z" fill="#455E4D"/>
<path d="M33.0851 39.7012L32.1801 38.9302C32.1501 38.9772 32.1361 39.0332 32.1031 39.0782L31.4601 39.9352L32.1331 40.5592C32.3471 40.7722 32.6631 40.7602 32.8521 40.5712C33.1011 40.3222 33.2001 39.8452 33.0851 39.7012Z" fill="#455E4D"/>
<path d="M40.699 35.1842L33.417 28.8082C32.776 29.1662 31.74 30.0322 30.957 30.6872C30.719 30.8872 30.496 31.0732 30.302 31.2312C29.911 31.5502 29.438 31.7172 28.933 31.7172H28.533C27.705 31.7172 26.962 31.2572 26.592 30.5172C26.172 29.6812 26.335 28.6752 26.998 28.0122L29.79 25.2592C29.933 25.1722 30.078 25.0771 30.225 24.9811C28.657 24.6611 26.875 24.6391 24.884 24.9521C23.877 25.1151 22.8581 24.8321 22.083 24.1871L20 23.2842V32.9332L22.6 34.0141L22.878 33.5971C23.244 33.0472 23.859 32.7172 24.523 32.7172C25.268 32.7172 25.91 33.1362 26.247 33.7462C26.327 33.7351 26.406 33.7171 26.488 33.7171C27.257 33.7171 27.906 34.1362 28.245 34.7461C28.327 34.7351 28.406 34.7171 28.488 34.7171C29.257 34.7171 29.906 35.1361 30.245 35.7461C30.326 35.7361 30.405 35.7171 30.488 35.7171H30.5231C31.613 35.7171 32.5001 36.6041 32.5001 37.6941V37.8891L33.755 38.9561C33.756 38.9581 33.758 38.9591 33.7601 38.9611L34.238 39.3671C34.5161 39.5891 34.88 39.7171 35.2511 39.7171C35.6641 39.7171 36.0001 39.3811 36.0001 38.9681C36.0001 38.7451 35.9011 38.5361 35.7301 38.3931L31.1791 34.6011C30.9671 34.4241 30.9381 34.1091 31.1151 33.8971C31.2921 33.6861 31.6071 33.6561 31.8201 33.8341L37.4421 38.5191C37.5971 38.6471 37.7911 38.7171 37.9921 38.7171H38.1391C38.6141 38.7171 38.9991 38.3311 38.9991 37.8571C38.9991 37.6071 38.8941 37.3731 38.7081 37.2091L33.1791 32.6021C32.9671 32.4251 32.9381 32.1101 33.1161 31.8971C33.2941 31.6841 33.6091 31.6581 33.8201 31.8331L39.3311 36.4251C39.3401 36.4321 39.3491 36.4401 39.3571 36.4471L39.4391 36.5151C39.5951 36.6461 39.7931 36.7171 39.9961 36.7171H40.1301C40.6092 36.7171 41.0001 36.3261 41.0001 35.8471C41 35.5902 40.891 35.3512 40.699 35.1842Z" fill="#455E4D"/>
</g>
<defs>
<clipPath id="clip0">
<rect width="24" height="24" fill="white" transform="translate(20 20)"/>
</clipPath>
</defs>
</svg>
