<svg width="142" height="124" viewBox="0 0 142 124" fill="none" xmlns="http://www.w3.org/2000/svg">
<g clip-path="url(#clip0)">
<path opacity="0.24" d="M141.914 68.1632C140.991 80.2618 132.37 91.3179 133.196 103.246C133.231 103.747 133.278 104.248 133.346 104.732C133.501 105.915 133.757 107.083 134.007 108.24C134.345 109.816 134.67 111.393 134.723 113.002C134.783 114.914 134.347 116.963 133.298 118.515C132.812 119.238 132.166 119.838 131.408 120.269C131.233 120.365 131.052 120.453 130.868 120.532C129.835 120.929 128.751 121.173 127.649 121.258C111.678 122.942 95.7952 117.219 79.7296 117.409C66.2122 117.57 52.9451 121.92 39.5705 123.454C37.5679 123.689 35.5653 123.86 33.5627 123.935C31.7104 124.022 29.8555 124.022 27.9981 123.935C27.2972 123.897 26.6088 123.85 25.9204 123.794C24.9917 123.717 24.068 123.604 23.1393 123.461C17.9427 122.709 12.8511 121.003 8.77087 117.74C0.647927 111.235 -1.91787 99.1814 1.42643 89.3056C3.59922 82.883 7.96733 77.0542 8.30527 70.2933C8.68325 62.7354 3.95968 55.9344 2.40268 48.5269C1.72932 45.387 1.65172 42.1494 1.73933 38.9468C1.89703 33.8749 2.74062 28.3518 6.43537 24.8887C7.43922 23.9844 8.55372 23.2114 9.75213 22.5882C10.413 22.2299 11.0738 21.8991 11.7547 21.5683C14.3806 20.2703 17.0365 18.9948 19.6924 17.7644C29.2046 13.2888 38.8495 9.12648 48.6271 5.2774C54.4671 2.97948 60.4373 0.75674 66.6903 0.162839C78.1525 -0.917209 89.3795 3.52828 99.7753 8.51254C105.322 11.1813 110.802 14.0255 116.499 16.4037C117.964 17.0076 119.438 17.5864 120.933 18.1052C122.227 18.5713 123.541 19.0048 124.863 19.3807C126.552 19.8819 128.833 20.0272 130.62 20.6787L130.988 20.8191C131.474 21.0139 131.923 21.2892 132.317 21.6335L132.392 21.7011C135.914 25.029 137.256 34.128 138.28 38.7188C139.584 44.5425 140.385 50.474 141.171 56.388C141.687 60.2947 142.21 64.2365 141.914 68.1632Z" fill="#64B663"/>
<path d="M102.477 84.5143L104.319 76.127L103.921 74.2626L93.4704 75.3552C93.4704 75.3552 92.2188 82.8053 88.6667 80.3169C85.1147 77.8285 88.2412 74.9918 88.2412 74.9918L87.8432 73.1274L77.4974 73.9945L75.6776 84.1058C75.6776 84.1058 71.2469 81.2115 69.1442 83.5495C67.6572 85.2034 68.8112 89.0976 71.4696 89.6038C72.5472 89.8283 73.6566 89.8555 74.7438 89.684L72.1856 99.6224L72.5836 101.487L98.5244 104.882L102.477 84.5143Z" fill="#64B663"/>
<path d="M102.477 84.5143L104.319 76.127L103.921 74.2626L93.4704 75.3552C93.4704 75.3552 92.2188 82.8053 88.6667 80.3169C85.1147 77.8285 88.2412 74.9918 88.2412 74.9918L87.8432 73.1274L77.4974 73.9945L75.6776 84.1058C75.6776 84.1058 71.2469 81.2115 69.1442 83.5495C67.6572 85.2034 68.8112 89.0976 71.4696 89.6038C72.5472 89.8283 73.6566 89.8555 74.7438 89.684L72.1856 99.6224L72.5836 101.487L98.5244 104.882L102.477 84.5143Z" fill="url(#paint0_linear)"/>
<path d="M41.8158 100.016L50.0263 102.497L52.5971 101.076L51.6234 91.7239C51.6234 91.7239 44.3015 89.9021 47.05 86.5517C49.7985 83.2013 52.3869 86.5342 52.3869 86.5342L54.9677 85.1133L54.2167 75.8866L44.2689 73.2955C44.2689 73.2955 48.0237 67.8501 45.866 65.5722C44.3315 63.9609 39.8232 66.0734 39.1073 68.6771C38.8047 69.7347 38.6945 70.8381 38.7819 71.9348L29.7703 67.4542L27.1995 68.8851L21.8301 94.513L41.8158 100.016Z" fill="#64B663"/>
<path d="M41.8158 100.016L50.0263 102.497L52.5971 101.076L51.6234 91.7239C51.6234 91.7239 44.3015 89.9021 47.05 86.5517C49.7985 83.2013 52.3869 86.5342 52.3869 86.5342L54.9677 85.1133L54.2167 75.8866L44.2689 73.2955C44.2689 73.2955 48.0237 67.8501 45.866 65.5722C44.3315 63.9609 39.8232 66.0734 39.1073 68.6771C38.8047 69.7347 38.6945 70.8381 38.7819 71.9348L29.7703 67.4542L27.1995 68.8851L21.8301 94.513L41.8158 100.016Z" fill="url(#paint1_linear)"/>
<path d="M32.9021 47.1362L28.8393 51.5942L28.3062 54.3908L38.2389 58.8313C38.2389 58.8313 41.9637 52.2608 44.4469 55.8116C45.6985 57.5883 44.4744 58.7285 43.5608 58.1647L43.0276 60.9613L52.7901 65.5772L57.5788 57.2325C57.5788 57.2325 61.659 59.1846 63.609 58.1196C64.6354 57.5582 65.2286 56.4556 65.4614 55.5886C65.4614 55.5886 65.9445 53.1153 65.8269 52.792C65.6116 52.2081 64.4902 53.406 63.7868 52.9699C61.4813 51.5491 60.5952 52.2608 60.5952 52.2608L66.8006 41.4302L67.3338 38.6336L44.6321 32.1959L32.9021 47.1362Z" fill="url(#paint2_linear)"/>
<path d="M33.4398 44.3395L28.8389 51.5942L38.7691 56.0346C38.7691 56.0346 41.6078 50.7948 44.9771 53.0275C48.0511 55.0523 43.5603 58.1772 43.5603 58.1772L53.3228 62.7931L58.1115 54.4484C58.1115 54.4484 62.1892 56.4005 64.1417 55.3355C66.0942 54.2705 66.6249 51.6067 64.317 50.1858C62.009 48.765 61.1254 49.4767 61.1254 49.4767L67.3333 38.6461L45.1548 29.3943L33.4398 44.3395Z" fill="#64B663"/>
<path d="M33.4398 44.3395L28.8389 51.5942L38.7691 56.0346C38.7691 56.0346 41.6078 50.7948 44.9771 53.0275C48.0511 55.0523 43.5603 58.1772 43.5603 58.1772L53.3228 62.7931L58.1115 54.4484C58.1115 54.4484 62.1892 56.4005 64.1417 55.3355C66.0942 54.2705 66.6249 51.6067 64.317 50.1858C62.009 48.765 61.1254 49.4767 61.1254 49.4767L67.3333 38.6461L45.1548 29.3943L33.4398 44.3395Z" fill="url(#paint3_linear)"/>
<path d="M83.66 64.3318L93.0346 62.1992C93.0346 62.1992 94.3663 66.5269 96.4715 67.2411C97.5779 67.6145 98.7895 67.3038 99.583 66.8878C99.583 66.8878 101.728 65.5647 101.886 65.2615C102.169 64.7051 100.532 64.6926 100.372 63.8807C99.8508 61.2194 98.7294 61.049 98.7294 61.049L110.89 58.275L113.306 56.7714L102.642 35.6992L83.7201 37.2028L77.6948 37.2303L75.2817 38.7339L78.7487 49.0557C78.7487 49.0557 86.0982 47.3442 85.172 51.5767C84.7114 53.6942 83.0492 53.5814 82.844 52.5189L80.4284 54.0224" fill="url(#paint4_linear)"/>
<path d="M86.1352 35.6992L77.6943 37.2328L81.1688 47.5522C81.1688 47.5522 86.9387 46.0887 87.5946 50.0731C88.1903 53.7092 82.851 52.5189 82.851 52.5189L86.0726 62.8282L95.4471 60.6957C95.4471 60.6957 96.7789 65.0209 98.8841 65.7351C100.989 66.4493 103.305 65.0359 102.779 62.3696C102.253 59.7033 101.134 59.5405 101.134 59.5405L113.298 56.7664L105.057 34.1957L86.1352 35.6992Z" fill="#64B663"/>
<path d="M102.78 62.3696C103.301 65.0284 100.985 66.4467 98.8776 65.7276C96.7699 65.0084 95.4382 60.6957 95.4382 60.6957L86.0636 62.8232L82.842 52.5139C82.842 52.5139 88.1813 53.7042 87.5856 50.0731C86.9347 46.0812 81.1598 47.5472 81.1598 47.5472L77.6929 37.2278L86.1312 35.6942L96.0214 34.9149L105.056 34.1957L109.203 45.5475L109.571 46.5498L111.073 50.6645L113.294 56.7739L101.133 59.5455C101.133 59.5455 102.279 59.7159 102.78 62.3696Z" fill="url(#paint5_linear)"/>
<path d="M97.4804 48.4342L96.1087 50.4389C97.0048 50.281 97.9485 50.5367 98.8297 50.3111C99.2544 50.1776 99.6645 50.0013 100.054 49.7849C101.043 49.3377 102.063 48.9649 103.108 48.6698L107.443 47.3341C108.167 47.1111 109.098 46.9457 109.561 47.5446L108.45 42.7232C108.421 42.5057 108.334 42.2998 108.199 42.1268C108.006 41.9704 107.767 41.8823 107.518 41.8762C105.623 41.6407 103.423 42.0742 102.011 40.7812C101.32 40.1446 100.912 39.1473 100.029 38.829C99.2778 38.5609 98.4392 38.8967 97.8309 39.4054C97.2226 39.9141 96.7695 40.5857 96.2113 41.147C94.1412 43.2219 90.7243 43.7156 89.0571 46.1288C91.9208 46.7828 94.5166 43.9837 97.4529 43.9311C96.6093 43.9461 94.9973 45.5248 94.3439 46.036C93.6305 46.5999 92.3413 47.3366 92.2888 48.3465C92.1436 51.0278 96.4166 48.9228 97.4804 48.4342Z" fill="url(#paint6_linear)"/>
<path d="M44.3866 98.5951L52.5971 101.076L54.1967 90.3005C54.1967 90.3005 46.8748 88.4762 49.6208 85.1258C52.3668 81.7754 54.9576 85.1082 54.9576 85.1082L56.775 74.4606L46.8397 71.8695C46.8397 71.8695 48.8548 68.3136 46.687 66.0358C45.155 64.4245 42.394 64.635 41.6806 67.2511C41.378 68.3087 41.2686 69.4123 41.3577 70.5088L29.7678 67.4491L24.4009 93.0921L44.3866 98.5951Z" fill="#64B663"/>
<path d="M44.3866 98.5951L52.5971 101.076L54.1967 90.3005C54.1967 90.3005 46.8748 88.4762 49.6208 85.1258C52.3668 81.7754 54.9576 85.1082 54.9576 85.1082L56.775 74.4606L46.8397 71.8695C46.8397 71.8695 48.8548 68.3136 46.687 66.0358C45.155 64.4245 42.394 64.635 41.6806 67.2511C41.378 68.3087 41.2686 69.4123 41.3577 70.5088L29.7678 67.4491L24.4009 93.0921L44.3866 98.5951Z" fill="url(#paint7_linear)"/>
<path d="M28.1179 93.478C30.1505 89.7717 31.7876 85.7422 34.7489 82.7251C35.1719 82.2941 35.8603 81.8706 36.3234 82.2615C36.7089 82.5873 36.5737 83.2012 36.4185 83.6773L34.9417 88.0226L37.9455 83.0934C38.4462 82.289 38.9944 81.4295 39.8805 81.1088C40.0122 81.0523 40.154 81.0232 40.2973 81.0232C40.4406 81.0232 40.5824 81.0523 40.7141 81.1088C41.1546 81.3343 41.2147 81.9232 41.2147 82.4168C41.2073 83.7568 41.0443 85.0914 40.7291 86.3937C41.5522 85.0075 42.5878 83.7594 43.798 82.695C44.2436 83.0233 44.3137 83.6548 44.2987 84.1985C44.2411 86.1431 43.5878 88.0151 42.9394 89.8494C42.589 90.8518 42.2285 91.8541 41.5802 92.6911C40.4112 94.1946 38.4937 94.8712 36.6363 95.2622C34.7789 95.6531 32.8515 95.8335 31.1293 96.6354C30.4459 96.9562 29.7925 97.3746 29.0491 97.5049C28.238 97.6453 26.3982 97.2118 26.1879 96.2044C26.0953 95.6631 27.7124 94.2147 28.1179 93.478Z" fill="url(#paint8_linear)"/>
<path d="M102.079 82.6499L103.922 74.2627L93.0701 73.4908C93.0701 73.4908 91.8185 80.9409 88.2689 78.4525C84.7194 75.9642 87.8434 73.1275 87.8434 73.1275L77.0996 72.1251L75.2772 82.2365C75.2772 82.2365 71.5825 80.4974 69.4798 82.8354C67.9929 84.4893 68.4109 87.2282 71.0718 87.7344C72.1481 87.9567 73.2557 87.9821 74.341 87.8096L72.1807 99.6125L98.1266 103.013L102.079 82.6499Z" fill="#64B663"/>
<path d="M93.3679 79.2671C92.7696 79.004 91.866 78.7434 91.6156 79.3473C91.488 79.648 91.6357 79.9863 91.7783 80.277L93.3804 83.4996L89.5129 82.0486C89.2645 81.9207 88.9786 81.886 88.7069 81.9509C88.0861 82.184 88.2914 83.1061 88.6068 83.6875L90.9673 88.0403C89.921 88.1931 88.9197 86.8675 87.9634 87.3436C87.2125 87.7195 87.3376 88.8196 87.653 89.599C89.0423 92.9418 91.8885 95.4477 93.9136 98.4548C94.6145 99.4923 95.2353 100.79 94.7672 101.948C94.5619 102.449 94.1739 103.078 94.5469 103.482C94.7239 103.631 94.9443 103.719 95.1752 103.732C97.1597 104.072 99.1816 104.133 101.183 103.915C101.402 97.0808 101.735 90.253 102.184 83.4319C102.224 82.8255 102.257 82.179 101.954 81.6552C101.67 81.2421 101.291 80.9041 100.848 80.6704C99.8888 80.064 98.9451 79.4174 97.9613 78.8461C96.8849 78.2221 96.6096 78.5078 96.6596 79.7106C95.6083 79.9687 94.3391 79.6956 93.3679 79.2671Z" fill="url(#paint9_linear)"/>
<path d="M54.6825 47.3343C54.7 47.8154 54.1819 48.1662 53.7087 48.1487C53.2358 48.0862 52.7885 47.8965 52.4146 47.5999C51.0153 46.6827 49.616 45.7631 48.2292 44.8434C47.1328 44.1242 45.9763 43.3875 44.6947 43.207C47.283 45.3371 49.8162 47.5598 52.2619 49.8477C52.5648 50.1234 52.8877 50.5293 52.6874 50.8877C52.5794 51.0516 52.4143 51.1695 52.2243 51.2184C51.0353 51.5893 49.8162 50.8225 48.7674 50.1685C46.6704 48.8554 44.4241 47.7979 42.0763 47.0185C44.21 48.3912 46.2239 49.9421 48.0965 51.6545C48.3469 51.89 48.6447 52.2409 48.502 52.5616C48.4368 52.698 48.3274 52.8084 48.1917 52.8749C47.3105 53.3384 46.2717 52.7521 45.4381 52.2233C41.9883 49.9982 38.2584 48.2421 34.3464 47.001C34.1286 46.9333 33.7982 46.783 33.4953 46.6878C33.3057 46.6122 33.097 46.5991 32.8995 46.6502L30.0834 49.9905L29.0646 47.6525C27.2222 42.9991 26.1809 37.8795 23.1395 34.0329C22.8639 33.6839 22.5707 33.3494 22.2608 33.0305C21.3616 32.1302 20.4014 31.2929 19.3871 30.5246C16.5335 28.2442 12.8012 25.0743 9.75977 22.5959C10.4206 22.2376 11.0815 21.9068 11.7623 21.576C14.3807 20.2704 17.0366 18.9949 19.6925 17.7645C22.2433 20.5636 25.9381 24.4879 28.4538 26.7106C29.8331 27.9235 31.3075 29.0862 33.0272 29.7378C33.5929 29.9558 34.1786 30.1162 34.7569 30.2866C38.1762 31.3309 41.4068 32.9154 44.3267 34.9801C47.4657 37.2029 50.7424 39.16 53.4459 41.904C53.7923 42.1896 54.0523 42.5662 54.1969 42.9915C54.312 43.4251 54.1043 43.9739 53.6587 44.0691C53.3383 44.1367 53.0154 43.9363 52.7425 43.7583L47.0827 39.9995C49.1128 42.6582 52.5898 43.9739 54.4347 46.7654C54.5661 46.9298 54.6516 47.1261 54.6825 47.3343Z" fill="#775339"/>
<path d="M132.55 21.4356C132.468 21.5007 132.39 21.5684 132.3 21.6335C129.182 24.1228 126.062 26.6103 122.938 29.0962C121.924 29.8692 120.964 30.7106 120.064 31.6146C115.198 36.7417 114.867 44.7606 111.068 50.6746L109.566 46.5598C109.607 46.4158 109.615 46.2641 109.589 46.1164C109.563 45.9688 109.504 45.829 109.415 45.7078C109.354 45.6409 109.28 45.5864 109.198 45.5475C108.857 45.367 108.377 45.4623 107.979 45.5951C104.068 46.8368 100.339 48.5893 96.8868 50.8074C96.0532 51.3461 95.0044 51.9325 94.1333 51.4589C93.9925 51.4013 93.8782 51.2932 93.8128 51.1557C93.6702 50.8349 93.953 50.4841 94.2184 50.2486C96.091 48.5362 98.1049 46.9853 100.239 45.6126C97.8927 46.3922 95.6468 47.4461 93.5475 48.7525C92.4987 49.4166 91.2796 50.1734 90.0981 49.8025C90.0022 49.7831 89.9112 49.7448 89.8304 49.6897C89.7496 49.6346 89.6806 49.5639 89.6275 49.4817C89.4372 49.1234 89.7501 48.7149 90.0505 48.4418C92.4987 46.1447 95.0252 43.9311 97.6302 41.8011C96.3261 41.9815 95.1821 42.7183 94.0857 43.4375L89.9103 46.194C89.5048 46.4596 89.0868 46.7252 88.6062 46.7428C88.1255 46.7603 87.6049 46.4045 87.6324 45.9309C87.6592 45.7127 87.7459 45.5063 87.8827 45.3345C89.7251 42.5429 93.2021 41.2198 95.2347 38.5685L89.5749 42.3274C89.2995 42.5078 88.9791 42.7058 88.6587 42.6306C88.2232 42.5354 88.0154 41.9966 88.1205 41.5631C88.2257 41.1295 88.5536 40.7862 88.8715 40.4655C91.0142 38.3129 93.5175 36.6264 96.0207 34.9149C96.684 34.4713 97.3349 34.0153 97.9857 33.5517C100.907 31.4881 104.138 29.9045 107.558 28.8606C108.136 28.6902 108.722 28.5298 109.288 28.3118C111.007 27.6603 112.482 26.495 113.861 25.2847C116.384 23.0619 118.67 20.5936 120.92 18.1052C122.214 18.5688 123.529 19.0048 124.85 19.3832C126.542 19.8844 128.818 20.0273 130.608 20.6788L130.976 20.8216L132.55 21.4356Z" fill="#D9A677"/>
<path d="M48.1448 87.8096C47.3938 91.586 45.7166 95.0291 44.3173 98.6126C43.0113 101.942 41.1799 105.041 38.8929 107.789C38.5049 108.253 38.0994 108.706 37.7489 109.198C36.6725 110.701 36.0692 112.47 35.5861 114.239C34.9904 116.435 34.2169 120.359 33.5836 123.935C31.7312 124.02 29.8763 124.02 28.0189 123.935C27.318 123.897 26.6296 123.85 25.9387 123.794C25.0125 123.716 24.0863 123.605 23.1602 123.461C24.2015 120.775 25.2579 118.071 25.9137 116.046C26.338 114.845 26.6785 113.616 26.9325 112.368C27.9738 106.604 25.3279 100.908 24.3492 95.1294C24.3492 95.1294 26.4469 95.9664 27.8111 95.6306C28.3118 95.5078 29.0402 94.4277 29.3606 94.0293C31.9534 90.8455 34.1118 87.3306 35.7789 83.5771C36.1744 82.67 36.7326 81.61 37.7139 81.5148C37.8645 81.4937 38.0178 81.5237 38.1494 81.6C38.4523 81.7904 38.3997 82.234 38.3096 82.5848C37.6864 85.0443 36.8548 87.4462 35.8239 89.7642C37.3605 87.8273 38.6613 85.7141 39.6989 83.4694C40.2196 82.3342 40.8153 81.0286 42.0044 80.6878C42.0973 80.6527 42.1962 80.6364 42.2955 80.6399C42.3948 80.6433 42.4923 80.6664 42.5826 80.7079C42.9406 80.8958 42.893 81.417 42.7979 81.8029C42.0035 85.0673 41.1066 88.3058 40.1069 91.5184C41.1082 90.6588 41.6464 89.4084 42.1646 88.2081C42.8321 86.6744 43.4938 85.1417 44.1496 83.6097C44.3399 83.1662 44.5476 82.7126 44.9331 82.4369C45.3186 82.1613 45.9544 82.1738 46.1847 82.5798C46.2843 82.7755 46.3293 82.9946 46.3149 83.2138C46.2974 86.5617 44.1246 89.5688 43.8768 92.9091C44.7654 90.8192 45.6541 88.7368 46.5427 86.6444C46.6654 86.3412 46.8256 86.0003 47.1385 85.8926C47.554 85.7322 48.0271 86.073 48.1773 86.489C48.2875 86.9239 48.2763 87.3807 48.1448 87.8096Z" fill="#F1B475"/>
<path d="M134.723 113.019C134.783 114.931 134.348 116.981 133.299 118.532C132.813 119.255 132.166 119.856 131.409 120.286C131.233 120.383 131.053 120.471 130.868 120.549C127.416 117.793 123.749 114.869 121.549 113.195C120.375 112.259 119.138 111.406 117.847 110.641C110.087 106.291 100.074 108.842 91.9058 105.313C91.5679 105.173 91.1874 104.955 91.1323 104.594C91.0772 104.233 91.32 103.943 91.5954 103.725C93.0973 102.497 95.2901 102.855 97.2351 102.973C97.7358 103.011 98.3516 102.973 98.6445 102.557C98.9949 102.056 98.682 101.394 98.3616 100.883C95.8087 96.7597 92.7203 92.9938 89.1773 89.6841C88.3162 88.8797 87.3549 87.8598 87.6278 86.7121C87.6549 86.536 87.7436 86.3752 87.8781 86.2585C88.211 86.0079 88.6816 86.231 89.0321 86.459C91.5338 88.1044 93.8927 89.9578 96.0837 91.9996C94.5107 89.5399 92.6511 87.2762 90.544 85.2562C89.4777 84.2363 88.2586 83.071 88.3312 81.595C88.3291 81.478 88.3501 81.3618 88.3931 81.253C88.4361 81.1442 88.5001 81.045 88.5815 80.961C88.9295 80.6303 89.4877 80.8884 89.8932 81.1415C93.2175 83.2782 96.48 85.5235 99.6808 87.8773C99.095 86.4465 97.9285 85.3489 96.772 84.3014C95.3177 82.9783 93.8733 81.6426 92.4139 80.3095C91.9984 79.9286 91.5654 79.5226 91.4127 78.9864C91.26 78.4501 91.4978 77.7459 92.046 77.6206C92.302 77.594 92.5606 77.6337 92.7969 77.7359C96.5167 79.034 99.0425 82.6275 102.66 84.1861C100.675 82.3886 98.6945 80.591 96.717 78.7934C96.4241 78.5428 96.1112 78.2271 96.0937 77.8312C96.0737 77.2999 96.6319 76.904 97.16 76.8939C97.6882 76.8839 98.1738 77.1671 98.6269 77.4327C102.537 79.7231 105.731 82.9207 109.18 85.8601C112.391 88.6081 115.14 91.8535 117.323 95.4728C117.691 96.0767 118.042 96.7032 118.45 97.2896C119.701 99.0662 121.454 100.419 123.241 101.647C125.904 103.469 130.31 106.145 134.005 108.255C134.345 109.834 134.671 111.41 134.723 113.019Z" fill="url(#paint10_linear)"/>
<path d="M33.6684 46.5297L33.4881 46.7001L30.0762 50.0029L29.0574 47.6649C27.2151 43.0114 26.1737 37.8919 23.1323 34.0453C23.255 34.1104 23.633 34.3285 24.8846 35.0276C26.7094 36.05 29.9386 43.2019 30.9123 44.8007C31.2156 45.2747 31.6201 45.6757 32.0966 45.9746C32.5732 46.2736 33.1099 46.4632 33.6684 46.5297Z" fill="url(#paint11_linear)"/>
</g>
<defs>
<linearGradient id="paint0_linear" x1="82.9819" y1="66.6973" x2="96.8454" y2="124.397" gradientUnits="userSpaceOnUse">
<stop stop-color="#010101" stop-opacity="0"/>
<stop offset="0.95" stop-color="#010101"/>
</linearGradient>
<linearGradient id="paint1_linear" x1="8444.41" y1="9053.02" x2="5000.31" y2="18302.1" gradientUnits="userSpaceOnUse">
<stop stop-color="#010101" stop-opacity="0"/>
<stop offset="0.95" stop-color="#010101"/>
</linearGradient>
<linearGradient id="paint2_linear" x1="10365.2" y1="4786.35" x2="9615.35" y2="8860.85" gradientUnits="userSpaceOnUse">
<stop stop-color="#010101" stop-opacity="0"/>
<stop offset="0.95" stop-color="#010101"/>
</linearGradient>
<linearGradient id="paint3_linear" x1="41.2148" y1="34.2056" x2="66.0824" y2="73.5995" gradientUnits="userSpaceOnUse">
<stop stop-color="white" stop-opacity="0"/>
<stop offset="0.95" stop-color="white"/>
</linearGradient>
<linearGradient id="paint4_linear" x1="16657.1" y1="817.178" x2="13337.2" y2="2931.12" gradientUnits="userSpaceOnUse">
<stop stop-color="#010101" stop-opacity="0"/>
<stop offset="0.95" stop-color="#010101"/>
</linearGradient>
<linearGradient id="paint5_linear" x1="13046.3" y1="9353.86" x2="25361.4" y2="-8345.06" gradientUnits="userSpaceOnUse">
<stop stop-color="#010101" stop-opacity="0"/>
<stop offset="0.95" stop-color="#010101"/>
</linearGradient>
<linearGradient id="paint6_linear" x1="9459.92" y1="2703.63" x2="9413.73" y2="-258.529" gradientUnits="userSpaceOnUse">
<stop stop-color="#010101" stop-opacity="0"/>
<stop offset="0.95" stop-color="#010101"/>
</linearGradient>
<linearGradient id="paint7_linear" x1="7406.34" y1="11052" x2="3276.21" y2="33805" gradientUnits="userSpaceOnUse">
<stop stop-color="#010101" stop-opacity="0"/>
<stop offset="0.95" stop-color="#010101"/>
</linearGradient>
<linearGradient id="paint8_linear" x1="3643.49" y1="5395.28" x2="3686.06" y2="8898.44" gradientUnits="userSpaceOnUse">
<stop stop-color="#010101" stop-opacity="0"/>
<stop offset="0.95" stop-color="#010101"/>
</linearGradient>
<linearGradient id="paint9_linear" x1="5912.04" y1="8745.5" x2="9826.6" y2="10195.5" gradientUnits="userSpaceOnUse">
<stop stop-color="#010101" stop-opacity="0"/>
<stop offset="0.95" stop-color="#010101"/>
</linearGradient>
<linearGradient id="paint10_linear" x1="115.176" y1="81.0613" x2="102.87" y2="138.188" gradientUnits="userSpaceOnUse">
<stop stop-color="#F1B475"/>
<stop offset="0.42" stop-color="#D9A677"/>
<stop offset="1" stop-color="#D9A677"/>
</linearGradient>
<linearGradient id="paint11_linear" x1="1963.98" y1="2750.83" x2="1103.6" y2="2921.44" gradientUnits="userSpaceOnUse">
<stop stop-color="#010101" stop-opacity="0"/>
<stop offset="0.95" stop-color="#010101"/>
</linearGradient>
<clipPath id="clip0">
<rect width="142" height="124" fill="white"/>
</clipPath>
</defs>
</svg>
