<svg width="64" height="64" viewBox="0 0 64 64" fill="none" xmlns="http://www.w3.org/2000/svg">
<circle cx="32" cy="32" r="32" fill="#D0DCD4"/>
<path d="M35.115 25.6922C34.1627 25.2005 33.1679 24.9702 32.0007 24.9702C28.1245 24.9702 24.9709 28.1238 24.9709 32C24.9709 35.8762 28.1245 39.0298 32.0007 39.0298C35.8769 39.0298 39.0304 35.8762 39.0304 32C39.0304 30.889 38.8226 29.9414 38.3789 29.0326L36.5409 28.5394L35.6067 29.4674C36.1119 30.1844 36.4089 31.0582 36.4089 32C36.4089 34.4307 34.4314 36.4081 32.0007 36.4081C29.5701 36.4081 27.5925 34.4307 27.5925 32C27.5925 29.5693 29.57 27.5918 32.0007 27.5918C32.951 27.5918 33.8321 27.8941 34.5528 28.4076L35.5004 27.4661L35.115 25.6922Z" fill="#455E4D"/>
<path d="M33.467 29.4847C33.0357 29.232 32.5343 29.0864 31.9993 29.0864C30.3928 29.0864 29.0858 30.3934 29.0858 31.9999C29.0858 33.6064 30.3928 34.9134 31.9993 34.9134C33.6058 34.9134 34.9128 33.6064 34.9128 31.9999C34.9128 31.4698 34.7698 30.9728 34.5214 30.5441L32.5 32.5523C32.3542 32.6971 32.1637 32.7694 31.9733 32.7694C31.7812 32.7694 31.5891 32.6958 31.4431 32.5488C31.1522 32.256 31.1538 31.7828 31.4465 31.4919L33.467 29.4847Z" fill="#455E4D"/>
<path d="M42.523 24.2508L41.3648 23.7471L37.9418 27.1476C37.8644 27.2245 37.8994 27.3564 38.0048 27.3847L39.2329 27.7142C39.2817 27.7274 39.3339 27.7134 39.3696 27.6776L42.5666 24.4806C42.6371 24.41 42.6145 24.2906 42.523 24.2508Z" fill="#455E4D"/>
<path d="M40.0629 29.0976C40.0553 29.1051 40.0471 29.1117 40.0392 29.119C40.3681 30.0114 40.5245 30.9476 40.5245 32C40.5245 36.7004 36.7004 40.5245 32 40.5245C27.2996 40.5245 23.4755 36.7004 23.4755 32C23.4755 27.2996 27.2996 23.4755 32 23.4755C33.1192 23.4755 34.1418 23.663 35.1006 24.0453C35.1026 24.0433 35.1043 24.0411 35.1063 24.0392L37.7011 21.4444C36.0093 20.5464 34.0273 20 32 20C25.3726 20 20 25.3726 20 32C20 38.6274 25.3726 44 32 44C38.6274 44 44 38.6274 44 32C44 30.016 43.5174 28.1444 42.6646 26.4958L40.0629 29.0976Z" fill="#455E4D"/>
<path d="M36.9402 26.0344L40.3366 22.6602L39.9634 21.5825C39.9292 21.4838 39.8035 21.455 39.7296 21.5288L36.5055 24.7529C36.4715 24.7869 36.4571 24.8359 36.4673 24.883L36.7022 25.9639C36.7259 26.0732 36.8609 26.1131 36.9402 26.0344Z" fill="#455E4D"/>
</svg>
