<svg width="12" height="12" viewBox="0 0 12 12" fill="none" xmlns="http://www.w3.org/2000/svg">
<path d="M1.51739 0.927052C1.34377 0.753554 1.13425 0.666646 0.888945 0.666646C0.643547 0.666646 0.43405 0.753627 0.260406 0.927052C0.0868587 1.1007 0 1.31022 0 1.55559C0 1.8889 0.148081 2.14356 0.444412 2.31947V11.1111C0.444412 11.1713 0.466352 11.2234 0.510426 11.2674C0.554378 11.3114 0.606478 11.3333 0.666654 11.3333H1.11107C1.17124 11.3333 1.22332 11.3115 1.2673 11.2674C1.3113 11.2234 1.33326 11.1713 1.33326 11.1111V2.31947C1.62964 2.14346 1.77767 1.88887 1.77767 1.55559C1.77767 1.31029 1.69091 1.10079 1.51739 0.927052Z" fill="#333333"/>
<path d="M11.8681 1.68766C11.7801 1.59968 11.6758 1.55568 11.5555 1.55568C11.4954 1.55568 11.3692 1.60426 11.177 1.70152C10.985 1.79879 10.7812 1.90754 10.5659 2.0279C10.3508 2.14827 10.096 2.257 9.80213 2.35427C9.50813 2.45154 9.2361 2.50011 8.98623 2.50011C8.75465 2.50011 8.55096 2.45611 8.37491 2.36818C7.79159 2.095 7.28483 1.89127 6.85417 1.75701C6.42364 1.62277 5.96072 1.55568 5.46533 1.55568C4.6088 1.55568 3.63429 1.83341 2.54173 2.38895C2.27313 2.52322 2.09029 2.62277 1.99307 2.68757C1.84951 2.79411 1.77771 2.92134 1.77771 3.06952V8.22223C1.77771 8.34258 1.82178 8.44688 1.90976 8.53471C1.99762 8.62276 2.10187 8.66674 2.22224 8.66674C2.29628 8.66674 2.37256 8.64594 2.45135 8.6043C3.71061 7.92833 4.78468 7.59038 5.67358 7.59038C6.01151 7.59038 6.34136 7.64131 6.66301 7.74311C6.98478 7.84497 7.25217 7.95613 7.46509 8.07638C7.67819 8.19674 7.92923 8.30797 8.21858 8.40983C8.50808 8.51148 8.79393 8.56249 9.07627 8.56249C9.78929 8.56249 10.6435 8.29405 11.6388 7.75692C11.7639 7.69215 11.8552 7.62857 11.9131 7.56603C11.971 7.50355 11.9999 7.41447 11.9999 7.2986V2C12 1.87967 11.956 1.77559 11.8681 1.68766Z" fill="#333333"/>
</svg>
