<svg width="193" height="140" viewBox="0 0 193 140" fill="none" xmlns="http://www.w3.org/2000/svg">
<g clip-path="url(#clip0)">
<path opacity="0.18" d="M30.7672 29.3132C25.0637 30.5233 19.1353 31.8365 14.5566 35.4502C10.6902 38.4988 4.66567 44.127 2.84028 48.6998C-4.89247 68.0161 3.85022 91.5206 20.8201 103.541C28.8012 109.195 38.7483 111.932 45.9211 118.587C50.4576 122.797 53.6351 128.369 58.4622 132.238C65.5154 137.887 75.0384 139.137 84.0505 139.742C90.3117 140.167 96.8166 140.349 102.626 137.967C106.825 136.246 110.382 133.293 113.873 130.383L137.003 111.053C140.72 107.95 144.195 103.009 149.034 103.042C192.586 103.354 195.522 52.0603 128.68 29.3414C122.789 27.3387 118.749 21.7715 113.215 18.9176C101.782 13.0198 88.6246 14.931 77.0934 19.0114C62.4527 24.2057 45.9609 26.0794 30.7672 29.3132Z" fill="#64B663"/>
<path opacity="0.05" d="M182.556 112.061C184.379 112.091 186.727 112.546 187.008 114.347C187.161 115.285 186.624 116.198 186.043 116.955C182.409 121.709 176.386 124.112 170.444 124.757C164.501 125.402 158.512 124.499 152.579 123.767C144.004 122.708 135.397 122.004 126.756 121.657C120.612 121.408 114.15 121.254 108.858 118.121C107.877 117.541 106.911 116.817 106.44 115.776C105.503 113.705 106.984 111.184 109.018 110.178C111.052 109.172 113.442 109.27 115.71 109.392C137.985 110.593 160.244 112.061 182.556 112.061Z" fill="#000405"/>
<path d="M182.633 29.6415C182.633 29.6415 174.706 39.9011 173.202 41.6201C170.458 44.7437 168.689 48.8405 168.689 48.8405L164.705 65.8047L160.253 64.6157L150.573 62.0362C150.573 62.0362 154.013 52.7638 152.347 49.9497C150.125 46.1976 152.047 43.8526 152.553 42.2415C153.49 39.2563 148.703 33.7993 148.703 33.7993L145.636 20.0502L150.266 19.4311L153.626 30.5772L159.384 35.7199L163.484 35.938C163.484 35.938 166.577 36.5759 168.827 35.5346C170.978 34.5357 178.577 25.9598 178.577 25.9598L181.677 28.7738L182.633 29.6415Z" fill="#64B663"/>
<path d="M144.657 47.0395V108.142C144.657 108.908 144.506 109.666 144.213 110.373C143.92 111.08 143.49 111.723 142.949 112.264C142.408 112.805 141.766 113.234 141.059 113.527C140.352 113.82 139.594 113.97 138.829 113.97H47.5148C45.9698 113.97 44.4881 113.356 43.3957 112.262C42.3032 111.169 41.6895 109.686 41.6895 108.14V108.14V47.0395C41.6888 45.4942 42.3013 44.0118 43.3923 42.9182C44.4834 41.8246 45.9636 41.2092 47.5078 41.2074H138.829C139.595 41.2071 140.353 41.3577 141.06 41.6507C141.767 41.9437 142.409 42.3733 142.951 42.9149C143.492 43.4565 143.921 44.0996 144.214 44.8073C144.507 45.515 144.657 46.2736 144.657 47.0395V47.0395Z" fill="#64B663"/>
<path d="M143.077 43.0717H43.1162L43.927 42.4503C43.9644 42.4178 44.0035 42.3872 44.0441 42.3588L91.5935 5.87908L93.0955 4.72766L141.477 41.8452L143.077 43.0717Z" fill="#64B663"/>
<path d="M144.657 47.0395L143.441 47.9189L134.586 54.3374L91.5938 85.5008L50.247 53.6338L41.6895 47.0395L41.7996 45.9069C42.0078 44.8449 42.5095 43.8626 43.2477 43.0717C43.4549 42.846 43.6806 42.6381 43.9226 42.4502C43.96 42.4178 43.9991 42.3872 44.0397 42.3588C45.0431 41.6089 46.2625 41.2048 47.5148 41.2074H138.829C140.277 41.2087 141.673 41.7488 142.744 42.7227C143.816 43.6966 144.488 45.0347 144.629 46.4767C144.648 46.6643 144.657 46.8519 144.657 47.0395Z" fill="#64B663"/>
<path opacity="0.61" d="M43.9223 42.4456C43.6814 42.6347 43.4558 42.8425 43.2474 43.067H43.1162L43.9223 42.4456Z" fill="url(#paint0_linear)"/>
<path d="M144.657 47.0396L143.441 47.9213L134.586 54.3374L91.5938 85.5009L50.247 53.6362L41.6895 47.0396L41.7996 45.9092C42.0705 44.5377 42.8237 43.3088 43.9226 42.4456L44.0397 42.3565L91.5938 5.87909L93.0958 4.72766L141.477 41.8453C142.35 42.2899 143.096 42.9476 143.647 43.7577C144.198 44.5677 144.535 45.5037 144.629 46.4791C144.648 46.6653 144.657 46.8524 144.657 47.0396V47.0396Z" fill="url(#paint1_linear)"/>
<path d="M134.585 42.5253V54.3397L118.719 65.8305L115.08 68.4757L91.5936 85.5008L69.5038 68.4757L66.0803 65.8399L50.2422 53.6455V42.5253C50.2422 42.0704 50.3317 41.62 50.5056 41.1998C50.6796 40.7796 50.9345 40.3977 51.2559 40.0761C51.5773 39.7545 51.9588 39.4993 52.3787 39.3253C52.7986 39.1512 53.2487 39.0616 53.7032 39.0616H131.127C132.044 39.0629 132.923 39.4283 133.572 40.0776C134.22 40.727 134.585 41.6073 134.585 42.5253V42.5253Z" fill="white"/>
<path d="M122.957 52.8834H60.3921C60.2192 52.8834 60.0479 52.8493 59.8881 52.7831C59.7284 52.7169 59.5832 52.6198 59.4609 52.4974C59.3386 52.375 59.2416 52.2297 59.1754 52.0698C59.1093 51.9099 59.0752 51.7386 59.0752 51.5655V51.5655C59.0752 51.3924 59.1093 51.221 59.1754 51.0611C59.2416 50.9012 59.3386 50.756 59.4609 50.6336C59.5832 50.5112 59.7284 50.4141 59.8881 50.3479C60.0479 50.2817 60.2192 50.2476 60.3921 50.2476H122.957C123.13 50.2476 123.301 50.2817 123.461 50.3479C123.621 50.4141 123.766 50.5112 123.888 50.6336C124.011 50.756 124.108 50.9012 124.174 51.0611C124.24 51.221 124.274 51.3924 124.274 51.5655V51.5655C124.274 51.915 124.135 52.2502 123.888 52.4974C123.641 52.7446 123.306 52.8834 122.957 52.8834V52.8834Z" fill="url(#paint2_linear)" fill-opacity="0.25"/>
<path d="M122.957 60.6807H60.3921C60.2192 60.6807 60.0479 60.6466 59.8881 60.5804C59.7284 60.5142 59.5832 60.4171 59.4609 60.2947C59.3386 60.1723 59.2416 60.027 59.1754 59.8672C59.1093 59.7073 59.0752 59.5359 59.0752 59.3628V59.3628C59.0752 59.1897 59.1093 59.0184 59.1754 58.8585C59.2416 58.6986 59.3386 58.5533 59.4609 58.4309C59.5832 58.3085 59.7284 58.2114 59.8881 58.1452C60.0479 58.079 60.2192 58.0449 60.3921 58.0449H122.957C123.306 58.0449 123.641 58.1837 123.888 58.4309C124.135 58.6781 124.274 59.0133 124.274 59.3628V59.3628C124.274 59.7123 124.135 60.0476 123.888 60.2947C123.641 60.5419 123.306 60.6807 122.957 60.6807V60.6807Z" fill="url(#paint3_linear)" fill-opacity="0.32"/>
<path d="M118.719 65.8399L115.08 68.4757H69.5032L66.082 65.8399H118.719Z" fill="url(#paint4_linear)" fill-opacity="0.56"/>
<path opacity="0.05" d="M91.5929 85.5008L53.4307 113.975H130.543L91.5929 85.5008Z" fill="#000405"/>
<path d="M58.6748 21.1525C56.7534 17.0275 49.5361 17.7052 49.5361 17.7052C53.9883 15.0764 53.1354 8.40003 53.0815 8.00606C55.0287 13.8265 61.7515 12.5414 62.3537 12.4148C57.8898 13.5169 58.6748 21.1525 58.6748 21.1525Z" fill="#64B663"/>
<path d="M46.1619 29.6157C44.941 26.9939 40.3506 27.4254 40.3506 27.4254C43.2562 25.6971 42.5978 21.2486 42.5978 21.2486V21.2744C43.8444 24.9537 48.1091 24.1377 48.4887 24.0579C45.6628 24.7614 46.1619 29.6157 46.1619 29.6157Z" fill="#64B663"/>
<path d="M169.08 21.7387C169.646 21.284 170.362 21.0581 171.086 21.1056C171.616 21.084 172.135 21.2632 172.539 21.6074C172.85 21.9569 173.047 22.3928 173.106 22.8573C173.22 23.433 173.263 24.0205 173.234 24.6067C173.183 25.6831 172.904 26.8228 173.368 27.796C173.478 28.0276 173.627 28.2386 173.809 28.4198C174.018 28.6546 174.31 28.7999 174.624 28.8255C174.78 28.8324 174.933 28.7833 175.056 28.6869C175.179 28.5906 175.264 28.4534 175.294 28.3002C175.16 28.5994 174.968 28.8691 174.729 29.0939C174.491 29.3186 174.21 29.494 173.904 29.6099C173.597 29.7258 173.271 29.78 172.943 29.7693C172.615 29.7587 172.293 29.6834 171.995 29.5478C171.801 29.4588 171.618 29.3462 171.451 29.2124L171.859 30.0402C171.521 29.9535 171.194 29.8293 170.884 29.6697C169.888 29.128 169.331 28.0282 169.066 26.9166C168.832 25.8965 168.785 24.8436 168.564 23.8188C168.403 23.0379 168.445 22.3062 169.08 21.7387Z" fill="#313043"/>
<path d="M168.78 22.8643C168.983 22.8572 169.185 22.8882 169.376 22.9558C169.534 23.0216 169.671 23.1297 169.772 23.2682C169.874 23.4067 169.935 23.5704 169.95 23.7414C169.959 23.9132 169.917 24.084 169.831 24.2327C169.744 24.3814 169.616 24.5016 169.462 24.5785C169.262 24.6604 169.046 24.698 168.83 24.6888C168.633 24.6888 168.434 24.6888 168.237 24.67C168.175 24.6755 168.114 24.6587 168.064 24.6224C168.014 24.5862 167.979 24.5332 167.965 24.473C167.836 24.2177 167.74 23.9475 167.677 23.6687C167.515 22.8057 168.096 22.8573 168.78 22.8643Z" fill="#64B663"/>
<path d="M164.965 31.0978C164.965 31.0978 164.928 31.7755 164.881 32.6573C164.841 33.4006 164.792 34.2988 164.752 35.0445C164.684 36.3061 164.142 37.4955 163.236 38.3745C162.706 38.9162 161.443 39.9269 160.48 39.5681C160.011 39.3946 159.995 38.8037 160.093 38.4496C160.311 37.8041 160.431 37.13 160.452 36.4492C160.467 35.8981 160.418 35.3472 160.304 34.8077C159.702 33.2998 164.965 31.0978 164.965 31.0978Z" fill="url(#paint5_linear)"/>
<path d="M164.965 31.0978C164.965 31.0978 164.928 31.7755 164.881 32.6573C164.841 33.4006 164.792 34.2988 164.752 35.0445C164.684 36.3061 164.142 37.4955 163.236 38.3745C162.706 38.9162 161.443 39.9269 160.48 39.5681C160.011 39.3946 159.995 38.8037 160.093 38.4496C160.311 37.8041 160.431 37.13 160.452 36.4492C160.467 35.8981 160.418 35.3472 160.304 34.8077C159.702 33.2998 164.965 31.0978 164.965 31.0978Z" fill="url(#paint6_linear)"/>
<path d="M164.965 31.0978C164.965 31.0978 164.928 31.7755 164.881 32.6573C164.511 33.4827 164.164 34.1558 163.974 34.4911C163.592 35.1688 162.022 36.2358 160.459 36.4492C160.475 35.8981 160.425 35.3472 160.312 34.8077C159.703 33.2998 164.965 31.0978 164.965 31.0978Z" fill="url(#paint7_linear)"/>
<path d="M164.965 31.0978C164.965 31.0978 164.928 31.7755 164.881 32.6573C164.511 33.4827 164.164 34.1558 163.974 34.4911C163.592 35.1688 162.022 36.2358 160.459 36.4492C160.475 35.8981 160.425 35.3472 160.312 34.8077C159.703 33.2998 164.965 31.0978 164.965 31.0978Z" fill="url(#paint8_linear)"/>
<path d="M160.381 22.1186C159.048 22.1995 157.802 22.807 156.916 23.8075C156.031 24.808 155.579 26.1195 155.66 27.4536C155.66 27.5732 155.678 27.6881 155.695 27.81C155.851 29.8589 156.377 31.8626 157.246 33.7243C158.886 36.5383 163.043 34.2238 163.702 33.0653C164.36 31.9068 166.886 26.6821 165.825 25.2023C165.094 24.2033 163.067 22.0107 160.381 22.1186Z" fill="url(#paint9_linear)"/>
<path d="M160.381 22.1186C159.048 22.1995 157.802 22.807 156.916 23.8075C156.031 24.808 155.579 26.1195 155.66 27.4536C155.66 27.5732 155.678 27.6881 155.695 27.81C155.851 29.8589 156.377 31.8626 157.246 33.7243C158.886 36.5383 163.043 34.2238 163.702 33.0653C164.36 31.9068 166.886 26.6821 165.825 25.2023C165.094 24.2033 163.067 22.0107 160.381 22.1186Z" fill="url(#paint10_linear)"/>
<path d="M158.905 19.26C160.669 18.7447 162.55 18.7997 164.281 19.4171C165.984 20.0643 167.454 21.3963 168.103 23.1012C168.66 24.6812 168.607 26.4129 167.953 27.9554C167.293 29.4853 166.242 30.8142 164.906 31.8084C164.562 30.7531 165.623 29.8151 166.036 28.7856C166.132 28.5955 166.153 28.3761 166.094 28.1712C165.945 27.7889 165.373 27.7467 165.047 27.9953C164.721 28.2439 164.578 28.6637 164.459 29.0553C164.775 27.3786 165.01 25.4087 163.824 24.1799C163.121 23.4529 162.059 23.1809 161.047 23.1715C160.117 23.1688 159.197 23.357 158.343 23.7244C157.489 24.0919 156.719 24.6308 156.082 25.3079C155.709 25.7089 155.18 26.2013 154.706 25.9246C154.559 25.8238 154.444 25.6831 154.374 25.5189C152.975 22.7471 156.649 19.8791 158.905 19.26Z" fill="#313043"/>
<path d="M161.169 22.3578C159.998 21.8419 158.768 21.4197 157.495 21.4197C156.223 21.4197 154.904 21.8512 154.062 22.808C153.623 23.3412 153.303 23.9626 153.125 24.6301C152.984 25.0479 152.928 25.4896 152.961 25.9293C153.012 26.2481 153.09 26.562 153.195 26.8673C153.416 27.6271 153.509 28.5089 153.029 29.1467C152.94 29.2738 152.823 29.379 152.688 29.4545C152.552 29.5301 152.401 29.574 152.246 29.5829C152.091 29.5856 151.94 29.5317 151.822 29.4311C151.704 29.3305 151.626 29.1902 151.604 29.0365C151.398 29.6204 151.735 30.3052 152.272 30.6124C152.549 30.7529 152.852 30.8333 153.161 30.8483C153.471 30.8632 153.781 30.8124 154.069 30.6991C154.312 30.6229 154.538 30.4994 154.732 30.3357C154.925 30.15 155.084 29.9316 155.201 29.6908C155.691 28.802 155.937 27.8147 156.302 26.8556C156.668 25.8965 157.198 24.9795 158.062 24.4402C158.747 24.0656 159.517 23.8742 160.298 23.8844C161.073 23.8586 161.854 23.9219 162.627 23.8516C163.4 23.7812 162.84 23.3216 162.507 23.08C162.087 22.7942 161.639 22.5522 161.169 22.3578V22.3578Z" fill="#313043"/>
<path d="M192.642 13.9508C192.841 14.1055 190.976 15.5595 190.976 15.5595C190.976 15.5595 190.104 17.0627 189.218 17.4801C188.332 17.8975 181.678 28.7715 181.678 28.7715L179.051 26.389L184.717 18.7605C184.717 18.7605 186.591 15.1655 186.383 13.6014C186.383 13.6014 186.495 11.7534 187.06 12.6117C187.458 13.2238 187.203 14.1876 187.674 14.2908C187.726 14.2954 187.778 14.2839 187.824 14.258C188.215 14.0208 188.573 13.7339 188.89 13.4044C189.827 12.5109 190.948 11.268 190.948 11.268C190.948 11.268 191.561 11.0077 191.484 11.268C191.407 11.5283 190.28 13.2848 190.216 13.3786C190.322 13.2824 192.051 11.737 192.325 11.8566C192.6 11.9762 190.985 13.7561 190.891 13.8593C190.992 13.789 192.836 12.5039 192.974 12.6188C193.235 12.8369 191.569 14.2838 191.43 14.394C191.536 14.3377 192.452 13.8007 192.642 13.9508Z" fill="url(#paint11_linear)"/>
<path d="M192.642 13.9508C192.841 14.1055 190.976 15.5595 190.976 15.5595C190.976 15.5595 190.104 17.0627 189.218 17.4801C188.332 17.8975 181.678 28.7715 181.678 28.7715L179.051 26.389L184.717 18.7605C184.717 18.7605 186.591 15.1655 186.383 13.6014C186.383 13.6014 186.495 11.7534 187.06 12.6117C187.458 13.2238 187.203 14.1876 187.674 14.2908C187.726 14.2954 187.778 14.2839 187.824 14.258C188.215 14.0208 188.573 13.7339 188.89 13.4044C189.827 12.5109 190.948 11.268 190.948 11.268C190.948 11.268 191.561 11.0077 191.484 11.268C191.407 11.5283 190.28 13.2848 190.216 13.3786C190.322 13.2824 192.051 11.737 192.325 11.8566C192.6 11.9762 190.985 13.7561 190.891 13.8593C190.992 13.789 192.836 12.5039 192.974 12.6188C193.235 12.8369 191.569 14.2838 191.43 14.394C191.536 14.3377 192.452 13.8007 192.642 13.9508Z" fill="url(#paint12_linear)"/>
<path d="M190.663 15.0647C190.524 15.1103 190.375 15.1223 190.23 15.0999C189.758 15.0639 189.283 15.0561 188.81 15.0764C188.491 15.0905 187.833 15.3109 187.816 14.8161C187.816 14.6848 187.849 14.5558 187.842 14.4245C187.839 14.3676 187.831 14.3112 187.819 14.2556C188.21 14.0185 188.568 13.7316 188.885 13.402C189.029 13.45 189.164 13.5188 189.288 13.6061L190.211 14.204C190.375 14.3119 190.539 14.4198 190.696 14.537C190.766 14.5806 190.821 14.6433 190.856 14.7176C190.87 14.7889 190.859 14.8631 190.824 14.9267C190.788 14.9904 190.732 15.0393 190.663 15.0647V15.0647Z" fill="url(#paint13_linear)"/>
<path d="M190.663 15.0647C190.524 15.1103 190.375 15.1223 190.23 15.0999C189.758 15.0639 189.283 15.0561 188.81 15.0764C188.491 15.0905 187.833 15.3109 187.816 14.8161C187.816 14.6848 187.849 14.5558 187.842 14.4245C187.839 14.3676 187.831 14.3112 187.819 14.2556C188.21 14.0185 188.568 13.7316 188.885 13.402C189.029 13.45 189.164 13.5188 189.288 13.6061L190.211 14.204C190.375 14.3119 190.539 14.4198 190.696 14.537C190.766 14.5806 190.821 14.6433 190.856 14.7176C190.87 14.7889 190.859 14.8631 190.824 14.9267C190.788 14.9904 190.732 15.0393 190.663 15.0647V15.0647Z" fill="url(#paint14_linear)"/>
<path d="M144.907 1.74004C144.654 1.76818 145.474 3.98661 145.474 3.98661C145.474 3.98661 145.422 5.72429 145.943 6.54507C146.463 7.36584 146.411 19.9471 146.411 19.9471L149.898 19.4781L149.106 10.0017C149.106 10.0017 149.408 5.9588 150.409 4.74172C150.409 4.74172 151.285 3.1119 150.355 3.54339C149.694 3.85294 149.401 4.80503 148.949 4.64557C148.901 4.62306 148.862 4.58505 148.839 4.5377C148.626 4.13142 148.468 3.69843 148.37 3.25026C148.04 1.99565 147.749 0.34942 147.749 0.34942C147.749 0.34942 147.374 -0.189943 147.313 0.0703583C147.252 0.33066 147.274 2.41542 147.276 2.53502C147.236 2.40135 146.573 0.168851 146.28 0.128985C145.987 0.0891188 146.418 2.45059 146.446 2.58661C146.395 2.47404 145.509 0.410392 145.326 0.433842C144.991 0.483089 145.657 2.59833 145.706 2.75545C145.64 2.65227 145.146 1.71659 144.907 1.74004Z" fill="url(#paint15_linear)"/>
<path d="M144.907 1.74004C144.654 1.76818 145.474 3.98661 145.474 3.98661C145.474 3.98661 145.422 5.72429 145.943 6.54507C146.463 7.36584 146.411 19.9471 146.411 19.9471L149.898 19.4781L149.106 10.0017C149.106 10.0017 149.408 5.9588 150.409 4.74172C150.409 4.74172 151.285 3.1119 150.355 3.54339C149.694 3.85294 149.401 4.80503 148.949 4.64557C148.901 4.62306 148.862 4.58505 148.839 4.5377C148.626 4.13142 148.468 3.69843 148.37 3.25026C148.04 1.99565 147.749 0.34942 147.749 0.34942C147.749 0.34942 147.374 -0.189943 147.313 0.0703583C147.252 0.33066 147.274 2.41542 147.276 2.53502C147.236 2.40135 146.573 0.168851 146.28 0.128985C145.987 0.0891188 146.418 2.45059 146.446 2.58661C146.395 2.47404 145.509 0.410392 145.326 0.433842C144.991 0.483089 145.657 2.59833 145.706 2.75545C145.64 2.65227 145.146 1.71659 144.907 1.74004Z" fill="url(#paint16_linear)"/>
<path d="M145.985 3.73099C146.083 3.84347 146.206 3.93109 146.344 3.98661C146.764 4.20684 147.17 4.45113 147.562 4.71826C147.827 4.89883 148.265 5.4382 148.544 5.02078C148.619 4.9129 148.654 4.78627 148.729 4.67605C148.763 4.62943 148.8 4.58481 148.839 4.54239C148.626 4.13611 148.469 3.70312 148.371 3.25495C148.223 3.22028 148.072 3.20764 147.921 3.21743L146.822 3.23853C146.625 3.23425 146.427 3.24287 146.231 3.26433C146.148 3.26381 146.066 3.28832 145.997 3.33468C145.948 3.38826 145.919 3.45784 145.917 3.53065C145.915 3.60345 145.939 3.67459 145.985 3.73099V3.73099Z" fill="url(#paint17_linear)"/>
<path d="M132.55 112.378C131.613 114.293 130.931 115.783 130.931 115.783L119.138 116.345C119.138 116.345 121.092 111.17 124.272 112.507C125.347 112.957 129.244 112.11 129.244 112.11L129.366 111.719L132.55 112.378Z" fill="url(#paint18_linear)"/>
<path d="M174.35 112.957L172.544 113.97L157.078 97.6998L155.372 75.9799L141.271 88.7816C141.271 88.7816 141.648 97.5966 136.718 104.493C135.834 105.729 134.037 109.32 132.678 112.124C132.636 112.211 132.593 112.3 132.554 112.387L132.289 112.333L131.368 112.141L129.369 111.728L135.851 85.5102L150.578 62.0455L160.258 64.6251L164.71 65.8141C164.71 65.8141 167.714 71.8385 164.71 87.4308L162.718 96.3561C162.718 96.3561 170.746 100.641 173.221 109.116L174.339 112.952L174.35 112.957Z" fill="#3F3D56"/>
<path d="M174.35 112.957L176.184 114.877L171.526 119.736H165.434C165.434 119.736 166.732 117.591 169.328 117.251C171.924 116.911 172.545 113.968 172.545 113.968L174.35 112.957Z" fill="url(#paint19_linear)"/>
<path d="M174.35 112.957L176.184 114.877L171.526 119.736H165.434C165.434 119.736 166.732 117.591 169.328 117.251C171.924 116.911 172.545 113.968 172.545 113.968L174.35 112.957Z" fill="url(#paint20_linear)"/>
<path opacity="0.22" d="M50.5697 17.3675L49.541 17.7052C53.9932 15.0764 53.1403 8.40003 53.0864 8.00606C53.1567 8.32264 54.1924 12.729 53.6277 14.1759C52.9223 15.9839 50.5697 17.3675 50.5697 17.3675Z" fill="white"/>
<path opacity="0.22" d="M43.2121 25.4298C42.6685 26.1826 40.508 27.3434 40.3604 27.4208C43.266 25.6924 42.6075 21.2439 42.6075 21.2439V21.2697C42.7224 21.5745 43.7417 24.6934 43.2121 25.4298Z" fill="white"/>
<path opacity="0.22" d="M41.8629 50.2476L89.588 86.997L91.5938 85.5008L41.6895 47.0395L41.8629 50.2476Z" fill="white"/>
<path opacity="0.22" d="M93.1721 86.7601L144.656 49.6754V47.145L91.5928 85.604L93.1721 86.7601Z" fill="white"/>
<path opacity="0.22" d="M144.628 46.5822L144.487 46.9762L143.44 48.0244C144.175 46.7534 142.097 43.8033 142.097 43.8033L141.267 43.1819L138.777 41.3058L91.5928 5.98456L93.0948 4.83314L141.476 41.9484C142.348 42.3935 143.094 43.0514 143.645 43.8613C144.196 44.6712 144.534 45.607 144.628 46.5822V46.5822Z" fill="white"/>
<path d="M182.633 29.6416C182.633 29.6416 174.706 39.9012 173.202 41.6201C170.458 44.7437 168.689 48.8405 168.689 48.8405L164.705 65.8047L160.253 64.6157C160.253 64.6157 164.41 49.061 166.081 45.7591C167.751 42.4573 181.673 28.7715 181.673 28.7715L182.633 29.6416Z" fill="url(#paint21_linear)"/>
<path d="M174.338 112.952C174.256 112.718 171.61 105.363 167.639 102.28C163.606 99.1467 161.263 94.8224 161.263 94.8224C160.325 86.5209 160.248 64.6157 160.248 64.6157L164.7 65.8047C164.7 65.8047 167.704 71.8291 164.7 87.4214L162.708 96.3467C162.708 96.3467 170.736 100.641 173.211 109.116L174.338 112.952Z" fill="#25233A"/>
<path d="M141.27 88.7769C141.27 88.7769 141.647 97.592 136.717 104.489C135.833 105.725 134.036 109.315 132.677 112.12L132.288 112.328L131.367 112.136L139.011 88.0077C139.011 88.0077 148.269 77.0305 149.968 75.9799C151.667 74.9293 155.376 75.9799 155.376 75.9799L141.27 88.7769Z" fill="#25233A"/>
</g>
<defs>
<linearGradient id="paint0_linear" x1="43.1467" y1="43.7635" x2="44.0454" y2="41.3227" gradientUnits="userSpaceOnUse">
<stop offset="0.36" stop-color="#00272E"/>
<stop offset="0.75" stop-color="#3F80A1" stop-opacity="0.25"/>
<stop offset="1" stop-color="#69B9EB" stop-opacity="0"/>
</linearGradient>
<linearGradient id="paint1_linear" x1="104.203" y1="7.41275" x2="75.8091" y2="108.239" gradientUnits="userSpaceOnUse">
<stop stop-opacity="0"/>
<stop offset="0.91" stop-opacity="0.8"/>
<stop offset="1"/>
</linearGradient>
<linearGradient id="paint2_linear" x1="139.54" y1="37.521" x2="49.4336" y2="60.4694" gradientUnits="userSpaceOnUse">
<stop stop-opacity="0"/>
<stop offset="1"/>
</linearGradient>
<linearGradient id="paint3_linear" x1="139.54" y1="45.3183" x2="49.4336" y2="68.2667" gradientUnits="userSpaceOnUse">
<stop stop-opacity="0"/>
<stop offset="1"/>
</linearGradient>
<linearGradient id="paint4_linear" x1="131.043" y1="53.1132" x2="56.7217" y2="68.3945" gradientUnits="userSpaceOnUse">
<stop stop-opacity="0"/>
<stop offset="1"/>
</linearGradient>
<linearGradient id="paint5_linear" x1="160.047" y1="35.3705" x2="164.967" y2="35.3705" gradientUnits="userSpaceOnUse">
<stop stop-color="#ECC4D7"/>
<stop offset="0.42" stop-color="#EFD4D1"/>
<stop offset="1" stop-color="#F2EAC9"/>
</linearGradient>
<linearGradient id="paint6_linear" x1="4333.93" y1="-4567.81" x2="4611.44" y2="-4589.17" gradientUnits="userSpaceOnUse">
<stop stop-color="#775339"/>
<stop offset="0.42" stop-color="#775339"/>
<stop offset="1" stop-color="#775339"/>
</linearGradient>
<linearGradient id="paint7_linear" x1="3426.31" y1="2486.6" x2="3400.01" y2="2227.39" gradientUnits="userSpaceOnUse">
<stop stop-color="#ECC4D7"/>
<stop offset="0.42" stop-color="#EFD4D1"/>
<stop offset="1" stop-color="#F2EAC9"/>
</linearGradient>
<linearGradient id="paint8_linear" x1="4149.8" y1="-2848.81" x2="4412.99" y2="-2879.73" gradientUnits="userSpaceOnUse">
<stop stop-color="#6E4D36"/>
<stop offset="0.42"/>
<stop offset="1"/>
</linearGradient>
<linearGradient id="paint9_linear" x1="7088.15" y1="6187" x2="7552.55" y2="6187" gradientUnits="userSpaceOnUse">
<stop stop-color="#ECC4D7"/>
<stop offset="0.42" stop-color="#EFD4D1"/>
<stop offset="1" stop-color="#F2EAC9"/>
</linearGradient>
<linearGradient id="paint10_linear" x1="9004.94" y1="-6946.49" x2="9590" y2="-7009.49" gradientUnits="userSpaceOnUse">
<stop stop-color="#775339"/>
<stop offset="0.42" stop-color="#775339"/>
<stop offset="1" stop-color="#775339"/>
</linearGradient>
<linearGradient id="paint11_linear" x1="10843.9" y1="9047.69" x2="11674.6" y2="9047.69" gradientUnits="userSpaceOnUse">
<stop stop-color="#ECC4D7"/>
<stop offset="0.42" stop-color="#EFD4D1"/>
<stop offset="1" stop-color="#F2EAC9"/>
</linearGradient>
<linearGradient id="paint12_linear" x1="12014.3" y1="-9470.76" x2="12797.1" y2="-9553.62" gradientUnits="userSpaceOnUse">
<stop stop-color="#775339"/>
<stop offset="0.42" stop-color="#775339"/>
<stop offset="1" stop-color="#775339"/>
</linearGradient>
<linearGradient id="paint13_linear" x1="2655.5" y1="915.662" x2="2649.48" y2="997.676" gradientUnits="userSpaceOnUse">
<stop stop-color="#ECC4D7"/>
<stop offset="0.42" stop-color="#EFD4D1"/>
<stop offset="1" stop-color="#F2EAC9"/>
</linearGradient>
<linearGradient id="paint14_linear" x1="2771.39" y1="-920.49" x2="2935.16" y2="-958.913" gradientUnits="userSpaceOnUse">
<stop stop-color="#775339"/>
<stop offset="0.42" stop-color="#775339"/>
<stop offset="1" stop-color="#775339"/>
</linearGradient>
<linearGradient id="paint15_linear" x1="3179.88" y1="-11786.8" x2="2880.42" y2="-11973.3" gradientUnits="userSpaceOnUse">
<stop stop-color="#ECC4D7"/>
<stop offset="0.42" stop-color="#EFD4D1"/>
<stop offset="1" stop-color="#F2EAC9"/>
</linearGradient>
<linearGradient id="paint16_linear" x1="5170.76" y1="-10735" x2="5506.37" y2="-10748.3" gradientUnits="userSpaceOnUse">
<stop stop-color="#775339"/>
<stop offset="0.42" stop-color="#775339"/>
<stop offset="1" stop-color="#775339"/>
</linearGradient>
<linearGradient id="paint17_linear" x1="-950.747" y1="-1894.06" x2="-895.017" y2="-1968.29" gradientUnits="userSpaceOnUse">
<stop stop-color="#ECC4D7"/>
<stop offset="0.42" stop-color="#EFD4D1"/>
<stop offset="1" stop-color="#F2EAC9"/>
</linearGradient>
<linearGradient id="paint18_linear" x1="124.858" y1="110.244" x2="126.667" y2="117.775" gradientUnits="userSpaceOnUse">
<stop stop-color="#68E1FD"/>
<stop offset="0.01" stop-color="#67DDF9"/>
<stop offset="0.12" stop-color="#5CB3CE"/>
<stop offset="0.24" stop-color="#538EA9"/>
<stop offset="0.37" stop-color="#4C718B"/>
<stop offset="0.5" stop-color="#465A73"/>
<stop offset="0.63" stop-color="#424A63"/>
<stop offset="0.79" stop-color="#404059"/>
<stop offset="0.99" stop-color="#3F3D56"/>
</linearGradient>
<linearGradient id="paint19_linear" x1="7940.68" y1="833.286" x2="8009.66" y2="680.218" gradientUnits="userSpaceOnUse">
<stop stop-color="#68E1FD"/>
<stop offset="0.01" stop-color="#67DDF9"/>
<stop offset="0.12" stop-color="#5CB3CE"/>
<stop offset="0.24" stop-color="#538EA9"/>
<stop offset="0.37" stop-color="#4C718B"/>
<stop offset="0.5" stop-color="#465A73"/>
<stop offset="0.63" stop-color="#424A63"/>
<stop offset="0.79" stop-color="#404059"/>
<stop offset="0.99" stop-color="#3F3D56"/>
</linearGradient>
<linearGradient id="paint20_linear" x1="176.213" y1="123.116" x2="167.766" y2="101.311" gradientUnits="userSpaceOnUse">
<stop/>
<stop offset="1" stop-color="white" stop-opacity="0"/>
</linearGradient>
<linearGradient id="paint21_linear" x1="15631.6" y1="4164.26" x2="22400.9" y2="13216.1" gradientUnits="userSpaceOnUse">
<stop stop-opacity="0"/>
<stop offset="0.91" stop-opacity="0.8"/>
<stop offset="1"/>
</linearGradient>
<clipPath id="clip0">
<rect width="193" height="140" fill="white"/>
</clipPath>
</defs>
</svg>
