<svg width="403" height="292" viewBox="0 0 403 292" fill="none" xmlns="http://www.w3.org/2000/svg">
<g clip-path="url(#clip0)">
<path opacity="0.18" d="M64.2204 61.1381C52.3154 63.662 39.9409 66.401 30.3836 73.9382C22.3133 80.2967 9.73822 92.0354 5.92804 101.573C-10.2127 141.861 8.03611 190.885 43.4576 215.957C60.1168 227.749 80.8796 233.457 95.8513 247.338C105.321 256.118 111.953 267.739 122.029 275.81C136.751 287.592 156.628 290.199 175.44 291.461C188.509 292.346 202.087 292.728 214.212 287.759C222.976 284.168 230.401 278.01 237.689 271.941L285.969 231.623C293.727 225.152 300.98 214.847 311.08 214.915C401.987 215.566 408.115 108.582 268.596 61.1968C256.3 57.0198 247.867 45.4083 236.315 39.4558C212.451 27.1546 184.987 31.1409 160.918 39.6514C130.358 50.4853 95.9345 54.3933 64.2204 61.1381Z" fill="#64B663"/>
<path opacity="0.05" d="M381.053 233.725C384.858 233.789 389.759 234.738 390.346 238.494C390.664 240.451 389.544 242.353 388.331 243.933C380.745 253.847 368.174 258.861 355.77 260.206C343.367 261.551 330.865 259.668 318.481 258.142C300.582 255.931 282.616 254.464 264.58 253.74C251.756 253.221 238.266 252.899 227.222 246.364C225.173 245.156 223.157 243.645 222.174 241.473C220.218 237.154 223.309 231.896 227.555 229.798C231.8 227.699 236.789 227.905 241.524 228.159C288.019 230.663 334.479 233.725 381.053 233.725Z" fill="#000405"/>
<path d="M381.214 61.8233C381.214 61.8233 364.667 83.222 361.527 86.8071C355.8 93.3221 352.107 101.867 352.107 101.867L343.792 137.249L334.499 134.77L314.294 129.389C314.294 129.389 321.474 110.05 317.996 104.18C313.36 96.3546 317.37 91.4635 318.427 88.1033C320.383 81.8769 310.391 70.4953 310.391 70.4953L303.988 41.8186L313.653 40.5273L320.667 63.7748L332.684 74.5011L341.244 74.956C341.244 74.956 347.7 76.2863 352.396 74.1147C356.886 72.0311 372.748 54.1442 372.748 54.1442L379.218 60.0136L381.214 61.8233Z" fill="#64B663"/>
<path d="M301.944 98.1095V225.553C301.943 227.149 301.628 228.73 301.016 230.205C300.405 231.68 299.508 233.02 298.379 234.149C297.249 235.278 295.908 236.173 294.433 236.783C292.957 237.394 291.376 237.708 289.779 237.707H99.1773C95.9524 237.707 92.8597 236.426 90.5793 234.146C88.299 231.865 87.018 228.773 87.018 225.548V98.1095C87.0167 94.8864 88.2951 91.7946 90.5724 89.5136C92.8497 87.2327 95.9395 85.9492 99.1626 85.9453H289.779C291.377 85.9447 292.959 86.2589 294.435 86.87C295.911 87.481 297.253 88.377 298.382 89.5067C299.512 90.6364 300.408 91.9776 301.019 93.4537C301.63 94.9298 301.944 96.5119 301.944 98.1095Z" fill="#64B663"/>
<path d="M298.647 89.8341H89.9967L91.689 88.5379C91.7672 88.4702 91.8488 88.4065 91.9335 88.3472L191.184 12.2609L194.319 9.85938L295.306 87.276L298.647 89.8341Z" fill="#64B663"/>
<path d="M301.944 98.1096L299.405 99.9437L280.922 113.331L191.184 178.329L104.88 111.863L87.018 98.1096L87.2478 95.7471C87.6825 93.5321 88.7297 91.4834 90.2706 89.8338C90.703 89.363 91.1742 88.9294 91.6792 88.5376C91.7574 88.4699 91.839 88.4062 91.9238 88.3469C94.0181 86.7827 96.5633 85.94 99.1773 85.9453H289.779C292.801 85.948 295.714 87.0746 297.952 89.1059C300.189 91.1372 301.591 93.928 301.885 96.9357C301.924 97.327 301.944 97.7183 301.944 98.1096Z" fill="#64B663"/>
<path opacity="0.61" d="M91.6792 88.5312C91.1764 88.9257 90.7054 89.3591 90.2706 89.8274H89.9967L91.6792 88.5312Z" fill="url(#paint0_linear)"/>
<path d="M301.944 98.1099L299.405 99.949L280.922 113.331L191.184 178.329L104.88 111.869L87.018 98.1099L87.2478 95.7524C87.8133 92.8918 89.3855 90.3287 91.6792 88.5282L91.9238 88.3423L191.184 12.2609L194.319 9.85938L295.306 87.2761C297.128 88.2034 298.685 89.5753 299.835 91.2648C300.985 92.9542 301.69 94.9066 301.885 96.9409C301.924 97.3294 301.944 97.7195 301.944 98.1099Z" fill="url(#paint1_linear)"/>
<path d="M280.922 88.6968V113.338L247.804 137.305L240.208 142.822L191.184 178.332L145.076 142.822L137.93 137.324L104.871 111.891V88.6968C104.871 87.7481 105.057 86.8087 105.42 85.9323C105.784 85.0558 106.316 84.2594 106.986 83.5886C107.657 82.9177 108.454 82.3856 109.33 82.0226C110.207 81.6595 111.146 81.4727 112.095 81.4727H273.702C275.617 81.4752 277.453 82.2373 278.806 83.5917C280.159 84.9461 280.92 86.7821 280.922 88.6968Z" fill="white"/>
<path d="M256.652 110.298H126.059C125.698 110.298 125.34 110.227 125.007 110.089C124.673 109.951 124.37 109.749 124.115 109.493C123.86 109.238 123.657 108.935 123.519 108.602C123.381 108.268 123.31 107.911 123.31 107.55C123.31 107.189 123.381 106.831 123.519 106.498C123.657 106.164 123.86 105.861 124.115 105.606C124.37 105.351 124.673 105.148 125.007 105.01C125.34 104.872 125.698 104.801 126.059 104.801H256.652C257.013 104.801 257.37 104.872 257.704 105.01C258.037 105.148 258.34 105.351 258.596 105.606C258.851 105.861 259.053 106.164 259.191 106.498C259.33 106.831 259.401 107.189 259.401 107.55C259.401 108.279 259.111 108.978 258.596 109.493C258.08 110.009 257.381 110.298 256.652 110.298Z" fill="url(#paint2_linear)" fill-opacity="0.25"/>
<path d="M256.652 126.564H126.059C125.698 126.564 125.34 126.493 125.007 126.355C124.673 126.217 124.37 126.014 124.115 125.759C123.86 125.504 123.657 125.201 123.519 124.867C123.381 124.534 123.31 124.176 123.31 123.815C123.31 123.454 123.381 123.097 123.519 122.763C123.657 122.43 123.86 122.127 124.115 121.872C124.37 121.616 124.673 121.414 125.007 121.276C125.34 121.138 125.698 121.066 126.059 121.066H256.652C257.381 121.066 258.08 121.356 258.596 121.872C259.111 122.387 259.401 123.086 259.401 123.815C259.401 124.544 259.111 125.243 258.596 125.759C258.08 126.274 257.381 126.564 256.652 126.564Z" fill="url(#paint3_linear)" fill-opacity="0.32"/>
<path d="M247.804 137.324L240.208 142.822H145.076L137.935 137.324H247.804Z" fill="url(#paint4_linear)" fill-opacity="0.56"/>
<path opacity="0.05" d="M191.184 178.332L111.527 237.72H272.484L191.184 178.332Z" fill="#000405"/>
<path d="M122.474 44.1189C118.463 35.5154 103.398 36.9289 103.398 36.9289C112.691 31.446 110.911 17.5209 110.799 16.6992C114.863 28.839 128.896 26.1586 130.153 25.8945C120.835 28.1934 122.474 44.1189 122.474 44.1189Z" fill="#64B663"/>
<path d="M96.3551 61.7718C93.8068 56.3036 84.2251 57.2035 84.2251 57.2035C90.2901 53.5988 88.9157 44.3203 88.9157 44.3203V44.3741C91.5178 52.0483 100.42 50.3462 101.212 50.1799C95.3133 51.6472 96.3551 61.7718 96.3551 61.7718Z" fill="#64B663"/>
<path d="M352.924 45.3414C354.105 44.3929 355.599 43.9217 357.111 44.0208C358.217 43.9758 359.3 44.3495 360.143 45.0675C360.793 45.7964 361.205 46.7056 361.327 47.6744C361.565 48.8751 361.656 50.1005 361.596 51.3232C361.488 53.5682 360.906 55.9453 361.875 57.9751C362.105 58.4581 362.416 58.8982 362.794 59.2762C363.232 59.766 363.841 60.0689 364.496 60.1223C364.822 60.1368 365.142 60.0344 365.398 59.8334C365.655 59.6324 365.831 59.3463 365.895 59.0267C365.615 59.6508 365.214 60.2133 364.716 60.6821C364.218 61.1509 363.632 61.5167 362.992 61.7584C362.352 62.0002 361.671 62.1132 360.987 62.091C360.304 62.0687 359.631 61.9117 359.008 61.6288C358.603 61.4433 358.222 61.2084 357.874 60.9294L358.725 62.6559C358.02 62.4751 357.337 62.2159 356.69 61.8831C354.611 60.7533 353.447 58.4594 352.894 56.141C352.405 54.0133 352.308 51.8172 351.848 49.6798C351.51 48.0511 351.598 46.525 352.924 45.3414Z" fill="#313043"/>
<path d="M352.298 47.6897C352.72 47.6749 353.142 47.7396 353.54 47.8805C353.871 48.0179 354.157 48.2433 354.368 48.5322C354.58 48.8211 354.708 49.1624 354.738 49.519C354.757 49.8775 354.671 50.2337 354.49 50.5439C354.31 50.854 354.042 51.1047 353.721 51.2651C353.303 51.4359 352.852 51.5144 352.4 51.495C351.99 51.495 351.574 51.495 351.163 51.4559C351.035 51.4675 350.907 51.4323 350.802 51.3567C350.698 51.2812 350.625 51.1705 350.596 51.0451C350.327 50.5125 350.125 49.9491 349.994 49.3674C349.657 47.5675 350.87 47.6751 352.298 47.6897Z" fill="#64B663"/>
<path d="M344.335 64.8594C344.335 64.8594 344.257 66.2729 344.159 68.112C344.076 69.6625 343.973 71.5358 343.89 73.0911C343.748 75.7224 342.618 78.2031 340.725 80.0365C339.62 81.1664 336.984 83.2745 334.973 82.5261C333.995 82.1642 333.961 80.9316 334.166 80.1931C334.62 78.8468 334.872 77.4409 334.915 76.0209C334.947 74.8715 334.843 73.7223 334.607 72.5971C333.35 69.4521 344.335 64.8594 344.335 64.8594Z" fill="url(#paint5_linear)"/>
<path d="M344.335 64.8594C344.335 64.8594 344.257 66.2729 344.159 68.112C344.076 69.6625 343.973 71.5358 343.89 73.0911C343.748 75.7224 342.618 78.2031 340.725 80.0365C339.62 81.1664 336.984 83.2745 334.973 82.5261C333.995 82.1642 333.961 80.9316 334.166 80.1931C334.62 78.8468 334.872 77.4409 334.915 76.0209C334.947 74.8715 334.843 73.7223 334.607 72.5971C333.35 69.4521 344.335 64.8594 344.335 64.8594Z" fill="url(#paint6_linear)"/>
<path d="M344.335 64.8594C344.335 64.8594 344.257 66.2729 344.159 68.112C343.386 69.8336 342.662 71.2374 342.266 71.9368C341.469 73.3504 338.192 75.5758 334.929 76.0209C334.962 74.8715 334.858 73.7223 334.621 72.5971C333.35 69.4521 344.335 64.8594 344.335 64.8594Z" fill="url(#paint7_linear)"/>
<path d="M344.335 64.8594C344.335 64.8594 344.257 66.2729 344.159 68.112C343.386 69.8336 342.662 71.2374 342.266 71.9368C341.469 73.3504 338.192 75.5758 334.929 76.0209C334.962 74.8715 334.858 73.7223 334.621 72.5971C333.35 69.4521 344.335 64.8594 344.335 64.8594Z" fill="url(#paint8_linear)"/>
<path d="M334.768 46.133C331.985 46.3017 329.384 47.5688 327.536 49.6556C325.687 51.7423 324.744 54.4778 324.912 57.2603C324.912 57.5098 324.951 57.7494 324.986 58.0038C325.313 62.2771 326.41 66.4562 328.224 70.3392C331.647 76.2085 340.324 71.381 341.699 68.9648C343.073 66.5485 348.346 55.6511 346.13 52.5648C344.604 50.4812 340.373 45.908 334.768 46.133Z" fill="url(#paint9_linear)"/>
<path d="M334.768 46.133C331.985 46.3017 329.384 47.5688 327.536 49.6556C325.687 51.7423 324.744 54.4778 324.912 57.2603C324.912 57.5098 324.951 57.7494 324.986 58.0038C325.313 62.2771 326.41 66.4562 328.224 70.3392C331.647 76.2085 340.324 71.381 341.699 68.9648C343.073 66.5485 348.346 55.6511 346.13 52.5648C344.604 50.4812 340.373 45.908 334.768 46.133Z" fill="url(#paint10_linear)"/>
<path d="M331.687 40.1712C335.368 39.0965 339.294 39.2112 342.907 40.4989C346.463 41.8489 349.529 44.627 350.884 48.1829C352.048 51.4784 351.936 55.0901 350.571 58.3075C349.194 61.4982 347.001 64.27 344.213 66.3436C343.494 64.1426 345.709 62.1861 346.57 60.0389C346.771 59.6424 346.814 59.1848 346.693 58.7575C346.38 57.9602 345.186 57.8722 344.506 58.3906C343.826 58.9091 343.528 59.7846 343.279 60.6014C343.939 57.1043 344.428 52.9957 341.953 50.4328C340.486 48.9165 338.27 48.3492 336.157 48.3296C334.217 48.3239 332.296 48.7163 330.513 49.4828C328.73 50.2492 327.124 51.3733 325.793 52.7854C325.015 53.6218 323.91 54.6489 322.922 54.0718C322.614 53.8616 322.373 53.568 322.227 53.2256C319.307 47.4443 326.976 41.4625 331.687 40.1712Z" fill="#313043"/>
<path d="M336.411 46.6322C333.966 45.5562 331.398 44.6758 328.742 44.6758C326.086 44.6758 323.333 45.5758 321.577 47.5713C320.66 48.6833 319.992 49.9794 319.62 51.3717C319.326 52.243 319.21 53.1644 319.278 54.0814C319.384 54.7464 319.548 55.401 319.767 56.0379C320.227 57.6226 320.422 59.4616 319.42 60.792C319.234 61.057 318.99 61.2765 318.707 61.4341C318.424 61.5916 318.109 61.6831 317.786 61.7018C317.462 61.7075 317.147 61.5949 316.901 61.3851C316.654 61.1753 316.492 60.8827 316.446 60.5621C316.015 61.78 316.72 63.2082 317.84 63.849C318.417 64.1421 319.05 64.3098 319.696 64.3409C320.343 64.3721 320.989 64.2661 321.591 64.0299C322.098 63.8709 322.569 63.6133 322.975 63.2718C323.378 62.8845 323.709 62.4292 323.954 61.9268C324.976 60.073 325.49 58.0139 326.253 56.0134C327.016 54.0129 328.121 52.1005 329.926 50.9755C331.356 50.1943 332.963 49.7951 334.592 49.8163C336.211 49.7625 337.84 49.8946 339.454 49.7479C341.068 49.6011 339.899 48.6425 339.204 48.1387C338.327 47.5425 337.391 47.0377 336.411 46.6322Z" fill="#313043"/>
<path d="M402.104 29.0985C402.52 29.4213 398.626 32.4538 398.626 32.4538C398.626 32.4538 396.807 35.589 394.958 36.4596C393.109 37.3302 379.219 60.0104 379.219 60.0104L373.736 55.041L385.562 39.1301C385.562 39.1301 389.475 31.6321 389.04 28.3697C389.04 28.3697 389.275 24.5155 390.453 26.3056C391.285 27.5822 390.752 29.5925 391.735 29.8077C391.844 29.8172 391.953 29.7933 392.048 29.7392C392.864 29.2446 393.612 28.6461 394.273 27.9588C396.23 26.0953 398.568 23.503 398.568 23.503C398.568 23.503 399.849 22.9601 399.688 23.503C399.526 24.0459 397.174 27.7094 397.042 27.905C397.262 27.7045 400.872 24.4812 401.444 24.7307C402.016 24.9801 398.646 28.6925 398.45 28.9077C398.661 28.761 402.51 26.0806 402.799 26.3203C403.342 26.7752 399.864 29.793 399.575 30.0229C399.795 29.9055 401.708 28.7854 402.104 29.0985Z" fill="url(#paint11_linear)"/>
<path d="M402.104 29.0985C402.52 29.4213 398.626 32.4538 398.626 32.4538C398.626 32.4538 396.807 35.589 394.958 36.4596C393.109 37.3302 379.219 60.0104 379.219 60.0104L373.736 55.041L385.562 39.1301C385.562 39.1301 389.475 31.6321 389.04 28.3697C389.04 28.3697 389.275 24.5155 390.453 26.3056C391.285 27.5822 390.752 29.5925 391.735 29.8077C391.844 29.8172 391.953 29.7933 392.048 29.7392C392.864 29.2446 393.612 28.6461 394.273 27.9588C396.23 26.0953 398.568 23.503 398.568 23.503C398.568 23.503 399.849 22.9601 399.688 23.503C399.526 24.0459 397.174 27.7094 397.042 27.905C397.262 27.7045 400.872 24.4812 401.444 24.7307C402.016 24.9801 398.646 28.6925 398.45 28.9077C398.661 28.761 402.51 26.0806 402.799 26.3203C403.342 26.7752 399.864 29.793 399.575 30.0229C399.795 29.9055 401.708 28.7854 402.104 29.0985Z" fill="url(#paint12_linear)"/>
<path d="M397.976 31.4209C397.684 31.516 397.374 31.5411 397.071 31.4943C396.085 31.4193 395.095 31.403 394.107 31.4454C393.442 31.4747 392.068 31.9345 392.033 30.9025C392.033 30.6286 392.102 30.3596 392.087 30.0857C392.08 29.9671 392.064 29.8493 392.038 29.7335C392.854 29.2389 393.602 28.6404 394.264 27.9531C394.563 28.0532 394.847 28.1966 395.105 28.3787L397.032 29.6259C397.374 29.8509 397.717 30.0759 398.044 30.3204C398.189 30.4112 398.305 30.542 398.377 30.697C398.408 30.8457 398.384 31.0004 398.31 31.1332C398.237 31.2659 398.118 31.368 397.976 31.4209Z" fill="url(#paint13_linear)"/>
<path d="M397.976 31.4209C397.684 31.516 397.374 31.5411 397.071 31.4943C396.085 31.4193 395.095 31.403 394.107 31.4454C393.442 31.4747 392.068 31.9345 392.033 30.9025C392.033 30.6286 392.102 30.3596 392.087 30.0857C392.08 29.9671 392.064 29.8493 392.038 29.7335C392.854 29.2389 393.602 28.6404 394.264 27.9531C394.563 28.0532 394.847 28.1966 395.105 28.3787L397.032 29.6259C397.374 29.8509 397.717 30.0759 398.044 30.3204C398.189 30.4112 398.305 30.542 398.377 30.697C398.408 30.8457 398.384 31.0004 398.31 31.1332C398.237 31.2659 398.118 31.368 397.976 31.4209Z" fill="url(#paint14_linear)"/>
<path d="M302.467 3.63053C301.939 3.68922 303.651 8.31623 303.651 8.31623C303.651 8.31623 303.543 11.9405 304.629 13.6524C305.715 15.3643 305.607 41.6052 305.607 41.6052L312.885 40.627L311.232 20.862C311.232 20.862 311.863 12.4297 313.951 9.89117C313.951 9.89117 315.781 6.49184 313.839 7.3918C312.46 8.03743 311.848 10.0232 310.904 9.69063C310.804 9.6437 310.723 9.56441 310.674 9.46564C310.23 8.61828 309.901 7.71517 309.696 6.78041C309.006 4.16366 308.4 0.730096 308.4 0.730096C308.4 0.730096 307.617 -0.394862 307.49 0.148052C307.363 0.690967 307.407 5.03918 307.412 5.28862C307.329 5.00983 305.945 0.353479 305.333 0.27033C304.722 0.187181 305.622 5.11254 305.68 5.39623C305.573 5.16145 303.724 0.857265 303.343 0.906176C302.643 1.00889 304.032 5.42068 304.135 5.74839C303.998 5.53318 302.966 3.58162 302.467 3.63053Z" fill="url(#paint15_linear)"/>
<path d="M302.467 3.63053C301.939 3.68922 303.651 8.31623 303.651 8.31623C303.651 8.31623 303.543 11.9405 304.629 13.6524C305.715 15.3643 305.607 41.6052 305.607 41.6052L312.885 40.627L311.232 20.862C311.232 20.862 311.863 12.4297 313.951 9.89117C313.951 9.89117 315.781 6.49184 313.839 7.3918C312.46 8.03743 311.848 10.0232 310.904 9.69063C310.804 9.6437 310.723 9.56441 310.674 9.46564C310.23 8.61828 309.901 7.71517 309.696 6.78041C309.006 4.16366 308.4 0.730096 308.4 0.730096C308.4 0.730096 307.617 -0.394862 307.49 0.148052C307.363 0.690967 307.407 5.03918 307.412 5.28862C307.329 5.00983 305.945 0.353479 305.333 0.27033C304.722 0.187181 305.622 5.11254 305.68 5.39623C305.573 5.16145 303.724 0.857265 303.343 0.906176C302.643 1.00889 304.032 5.42068 304.135 5.74839C303.998 5.53318 302.966 3.58162 302.467 3.63053Z" fill="url(#paint16_linear)"/>
<path d="M304.717 7.78097C304.921 8.01557 305.177 8.19832 305.465 8.3141C306.342 8.77345 307.191 9.28297 308.009 9.84013C308.561 10.2168 309.476 11.3417 310.058 10.4711C310.215 10.2461 310.288 9.98198 310.444 9.75209C310.516 9.65486 310.592 9.56178 310.674 9.4733C310.23 8.62594 309.901 7.72283 309.696 6.78807C309.389 6.71577 309.072 6.6894 308.757 6.70982L306.463 6.75384C306.051 6.7449 305.64 6.76288 305.23 6.80764C305.056 6.80656 304.886 6.85767 304.741 6.95437C304.638 7.06613 304.579 7.21126 304.575 7.36311C304.57 7.51496 304.621 7.66333 304.717 7.78097Z" fill="url(#paint17_linear)"/>
<path d="M276.676 234.386C274.72 238.382 273.296 241.488 273.296 241.488L248.679 242.662C248.679 242.662 252.759 231.867 259.396 234.655C261.641 235.594 269.775 233.829 269.775 233.829L270.029 233.012L276.676 234.386Z" fill="url(#paint18_linear)"/>
<path d="M363.924 235.596L360.153 237.709L327.872 203.775L324.311 158.473L294.876 185.174C294.876 185.174 295.663 203.56 285.373 217.944C283.529 220.522 279.777 228.01 276.94 233.86C276.852 234.041 276.764 234.227 276.681 234.408L276.128 234.295L274.206 233.894L270.034 233.033L283.563 178.351L314.304 129.41L334.509 134.79L343.802 137.27C343.802 137.27 350.072 149.835 343.802 182.357L339.644 200.972C339.644 200.972 356.401 209.908 361.566 227.585L363.899 235.587L363.924 235.596Z" fill="#3F3D56"/>
<path d="M363.924 235.594L367.754 239.6L358.03 249.734H345.313C345.313 249.734 348.023 245.259 353.442 244.549C358.862 243.84 360.158 237.702 360.158 237.702L363.924 235.594Z" fill="url(#paint19_linear)"/>
<path d="M363.924 235.594L367.754 239.6L358.03 249.734H345.313C345.313 249.734 348.023 245.259 353.442 244.549C358.862 243.84 360.158 237.702 360.158 237.702L363.924 235.594Z" fill="url(#paint20_linear)"/>
<path opacity="0.22" d="M105.555 36.2246L103.408 36.9289C112.701 31.446 110.921 17.5209 110.808 16.6992C110.955 17.3595 113.117 26.5499 111.938 29.5678C110.466 33.3388 105.555 36.2246 105.555 36.2246Z" fill="white"/>
<path opacity="0.22" d="M90.1972 53.0392C89.0625 54.6093 84.5528 57.0304 84.2447 57.1918C90.3097 53.5871 88.9353 44.3086 88.9353 44.3086V44.3624C89.1749 44.9982 91.3026 51.5034 90.1972 53.0392Z" fill="white"/>
<path opacity="0.22" d="M87.3799 104.8L186.997 181.449L191.184 178.329L87.018 98.1094L87.3799 104.8Z" fill="white"/>
<path opacity="0.22" d="M194.481 180.958L301.944 103.61V98.332L191.184 178.546L194.481 180.958Z" fill="white"/>
<path opacity="0.22" d="M301.885 97.1587L301.591 97.9804L299.405 100.167C300.941 97.5157 296.603 91.3627 296.603 91.3627L294.871 90.0666L289.672 86.1537L191.184 12.4836L194.319 10.082L295.306 87.4938C297.127 88.4223 298.684 89.7945 299.834 91.4837C300.983 93.1729 301.689 95.1247 301.885 97.1587Z" fill="white"/>
<path d="M381.214 61.8224C381.214 61.8224 364.667 83.2211 361.527 86.8063C355.8 93.3212 352.107 101.866 352.107 101.866L343.792 137.248L334.499 134.769C334.499 134.769 343.176 102.326 346.663 95.4391C350.151 88.5524 379.209 60.0078 379.209 60.0078L381.214 61.8224Z" fill="url(#paint21_linear)"/>
<path d="M363.9 235.585C363.728 235.096 358.206 219.758 349.916 213.326C341.498 206.791 336.607 197.772 336.607 197.772C334.651 180.458 334.489 134.77 334.489 134.77L343.782 137.249C343.782 137.249 350.053 149.815 343.782 182.336L339.625 200.951C339.625 200.951 356.382 209.907 361.547 227.583L363.9 235.585Z" fill="#25233A"/>
<path d="M294.876 185.165C294.876 185.165 295.663 203.55 285.373 217.935C283.529 220.513 279.777 228.001 276.94 233.851L276.128 234.286L274.206 233.885L290.161 183.56C290.161 183.56 309.486 160.665 313.032 158.474C316.578 156.283 324.321 158.474 324.321 158.474L294.876 185.165Z" fill="#25233A"/>
</g>
<defs>
<linearGradient id="paint0_linear" x1="90.0602" y1="91.2801" x2="91.9335" y2="86.1884" gradientUnits="userSpaceOnUse">
<stop offset="0.36" stop-color="#00272E"/>
<stop offset="0.75" stop-color="#3F80A1" stop-opacity="0.25"/>
<stop offset="1" stop-color="#69B9EB" stop-opacity="0"/>
</linearGradient>
<linearGradient id="paint1_linear" x1="217.503" y1="15.4597" x2="158.321" y2="225.778" gradientUnits="userSpaceOnUse">
<stop stop-opacity="0"/>
<stop offset="0.91" stop-opacity="0.8"/>
<stop offset="1"/>
</linearGradient>
<linearGradient id="paint2_linear" x1="291.266" y1="78.2567" x2="103.203" y2="126.19" gradientUnits="userSpaceOnUse">
<stop stop-opacity="0"/>
<stop offset="1"/>
</linearGradient>
<linearGradient id="paint3_linear" x1="291.266" y1="94.5223" x2="103.203" y2="142.455" gradientUnits="userSpaceOnUse">
<stop stop-opacity="0"/>
<stop offset="1"/>
</linearGradient>
<linearGradient id="paint4_linear" x1="273.53" y1="110.78" x2="118.406" y2="142.7" gradientUnits="userSpaceOnUse">
<stop stop-opacity="0"/>
<stop offset="1"/>
</linearGradient>
<linearGradient id="paint5_linear" x1="334.069" y1="73.771" x2="344.34" y2="73.771" gradientUnits="userSpaceOnUse">
<stop stop-color="#ECC4D7"/>
<stop offset="0.42" stop-color="#EFD4D1"/>
<stop offset="1" stop-color="#F2EAC9"/>
</linearGradient>
<linearGradient id="paint6_linear" x1="9046.27" y1="-9527.15" x2="9625.51" y2="-9571.77" gradientUnits="userSpaceOnUse">
<stop stop-color="#775339"/>
<stop offset="0.42" stop-color="#775339"/>
<stop offset="1" stop-color="#775339"/>
</linearGradient>
<linearGradient id="paint7_linear" x1="7151.81" y1="5186.33" x2="7096.98" y2="4645.69" gradientUnits="userSpaceOnUse">
<stop stop-color="#ECC4D7"/>
<stop offset="0.42" stop-color="#EFD4D1"/>
<stop offset="1" stop-color="#F2EAC9"/>
</linearGradient>
<linearGradient id="paint8_linear" x1="8661.97" y1="-5941.81" x2="9211.31" y2="-6006.4" gradientUnits="userSpaceOnUse">
<stop stop-color="#6E4D36"/>
<stop offset="0.42"/>
<stop offset="1"/>
</linearGradient>
<linearGradient id="paint9_linear" x1="14795.2" y1="12904.3" x2="15764.6" y2="12904.3" gradientUnits="userSpaceOnUse">
<stop stop-color="#ECC4D7"/>
<stop offset="0.42" stop-color="#EFD4D1"/>
<stop offset="1" stop-color="#F2EAC9"/>
</linearGradient>
<linearGradient id="paint10_linear" x1="18796.2" y1="-14488.4" x2="20017.4" y2="-14620" gradientUnits="userSpaceOnUse">
<stop stop-color="#775339"/>
<stop offset="0.42" stop-color="#775339"/>
<stop offset="1" stop-color="#775339"/>
</linearGradient>
<linearGradient id="paint11_linear" x1="22634.6" y1="18870.9" x2="24368.5" y2="18870.9" gradientUnits="userSpaceOnUse">
<stop stop-color="#ECC4D7"/>
<stop offset="0.42" stop-color="#EFD4D1"/>
<stop offset="1" stop-color="#F2EAC9"/>
</linearGradient>
<linearGradient id="paint12_linear" x1="25077.6" y1="-19753.3" x2="26711.5" y2="-19926.4" gradientUnits="userSpaceOnUse">
<stop stop-color="#775339"/>
<stop offset="0.42" stop-color="#775339"/>
<stop offset="1" stop-color="#775339"/>
</linearGradient>
<linearGradient id="paint13_linear" x1="5542.83" y1="1909.81" x2="5530.29" y2="2080.87" gradientUnits="userSpaceOnUse">
<stop stop-color="#ECC4D7"/>
<stop offset="0.42" stop-color="#EFD4D1"/>
<stop offset="1" stop-color="#F2EAC9"/>
</linearGradient>
<linearGradient id="paint14_linear" x1="5784.72" y1="-1919.88" x2="6126.54" y2="-2000.13" gradientUnits="userSpaceOnUse">
<stop stop-color="#775339"/>
<stop offset="0.42" stop-color="#775339"/>
<stop offset="1" stop-color="#775339"/>
</linearGradient>
<linearGradient id="paint15_linear" x1="6637.42" y1="-24583.9" x2="6012.61" y2="-24973.4" gradientUnits="userSpaceOnUse">
<stop stop-color="#ECC4D7"/>
<stop offset="0.42" stop-color="#EFD4D1"/>
<stop offset="1" stop-color="#F2EAC9"/>
</linearGradient>
<linearGradient id="paint16_linear" x1="10793" y1="-22390.2" x2="11493.5" y2="-22418" gradientUnits="userSpaceOnUse">
<stop stop-color="#775339"/>
<stop offset="0.42" stop-color="#775339"/>
<stop offset="1" stop-color="#775339"/>
</linearGradient>
<linearGradient id="paint17_linear" x1="-1984.51" y1="-3950.47" x2="-1868.3" y2="-4105.38" gradientUnits="userSpaceOnUse">
<stop stop-color="#ECC4D7"/>
<stop offset="0.42" stop-color="#EFD4D1"/>
<stop offset="1" stop-color="#F2EAC9"/>
</linearGradient>
<linearGradient id="paint18_linear" x1="260.619" y1="229.935" x2="264.39" y2="245.645" gradientUnits="userSpaceOnUse">
<stop stop-color="#68E1FD"/>
<stop offset="0.01" stop-color="#67DDF9"/>
<stop offset="0.12" stop-color="#5CB3CE"/>
<stop offset="0.24" stop-color="#538EA9"/>
<stop offset="0.37" stop-color="#4C718B"/>
<stop offset="0.5" stop-color="#465A73"/>
<stop offset="0.63" stop-color="#424A63"/>
<stop offset="0.79" stop-color="#404059"/>
<stop offset="0.99" stop-color="#3F3D56"/>
</linearGradient>
<linearGradient id="paint19_linear" x1="16574.7" y1="1737.99" x2="16718.5" y2="1418.66" gradientUnits="userSpaceOnUse">
<stop stop-color="#68E1FD"/>
<stop offset="0.01" stop-color="#67DDF9"/>
<stop offset="0.12" stop-color="#5CB3CE"/>
<stop offset="0.24" stop-color="#538EA9"/>
<stop offset="0.37" stop-color="#4C718B"/>
<stop offset="0.5" stop-color="#465A73"/>
<stop offset="0.63" stop-color="#424A63"/>
<stop offset="0.79" stop-color="#404059"/>
<stop offset="0.99" stop-color="#3F3D56"/>
</linearGradient>
<linearGradient id="paint20_linear" x1="367.812" y1="256.782" x2="350.204" y2="211.295" gradientUnits="userSpaceOnUse">
<stop/>
<stop offset="1" stop-color="white" stop-opacity="0"/>
</linearGradient>
<linearGradient id="paint21_linear" x1="32628.2" y1="8685.46" x2="46743.8" y2="27575.5" gradientUnits="userSpaceOnUse">
<stop stop-opacity="0"/>
<stop offset="0.91" stop-opacity="0.8"/>
<stop offset="1"/>
</linearGradient>
<clipPath id="clip0">
<rect width="402.852" height="292" fill="white"/>
</clipPath>
</defs>
</svg>
