<svg width="" height="" viewBox="0 0 192 64" fill="none" xmlns="http://www.w3.org/2000/svg">
<rect width="192" height="64" rx="8" fill="#E6EEE6"/>
<path d="M46.168 32.228V42H40.708V22.12H44.964L52.944 32.228V22.12H58.404V42H54.064L46.168 32.228ZM68.4593 42.28C66.7046 42.28 65.2299 41.9253 64.0353 41.216C62.8406 40.488 61.9353 39.5453 61.3193 38.388C60.7033 37.2307 60.3953 35.98 60.3953 34.636C60.3953 33.2733 60.7033 32.0133 61.3193 30.856C61.9353 29.6987 62.8406 28.7653 64.0353 28.056C65.2299 27.3467 66.7046 26.992 68.4593 26.992C70.2139 26.992 71.6886 27.3467 72.8833 28.056C74.0779 28.7653 74.9833 29.6987 75.5993 30.856C76.2153 32.0133 76.5233 33.2733 76.5233 34.636C76.5233 35.98 76.2153 37.2307 75.5993 38.388C74.9833 39.5453 74.0779 40.488 72.8833 41.216C71.6886 41.9253 70.2139 42.28 68.4593 42.28ZM65.8553 34.636C65.8553 35.6067 66.0979 36.3813 66.5833 36.96C67.0873 37.52 67.7126 37.8 68.4593 37.8C69.2246 37.8 69.8499 37.52 70.3353 36.96C70.8206 36.3813 71.0633 35.6067 71.0633 34.636C71.0633 33.6467 70.8206 32.872 70.3353 32.312C69.8499 31.752 69.2246 31.472 68.4593 31.472C67.7126 31.472 67.0873 31.752 66.5833 32.312C66.0979 32.872 65.8553 33.6467 65.8553 34.636Z" fill="#145193"/>
<path d="M85.0596 42V22.12H90.5196V37.24H99.5356V42H85.0596ZM108.326 42.28C106.572 42.28 105.097 41.9253 103.902 41.216C102.708 40.488 101.802 39.5453 101.186 38.388C100.57 37.2307 100.262 35.98 100.262 34.636C100.262 33.2733 100.57 32.0133 101.186 30.856C101.802 29.6987 102.708 28.7653 103.902 28.056C105.097 27.3467 106.572 26.992 108.326 26.992C110.081 26.992 111.556 27.3467 112.75 28.056C113.945 28.7653 114.85 29.6987 115.466 30.856C116.082 32.0133 116.39 33.2733 116.39 34.636C116.39 35.98 116.082 37.2307 115.466 38.388C114.85 39.5453 113.945 40.488 112.75 41.216C111.556 41.9253 110.081 42.28 108.326 42.28ZM105.722 34.636C105.722 35.6067 105.965 36.3813 106.45 36.96C106.954 37.52 107.58 37.8 108.326 37.8C109.092 37.8 109.717 37.52 110.202 36.96C110.688 36.3813 110.93 35.6067 110.93 34.636C110.93 33.6467 110.688 32.872 110.202 32.312C109.717 31.752 109.092 31.472 108.326 31.472C107.58 31.472 106.954 31.752 106.45 32.312C105.965 32.872 105.722 33.6467 105.722 34.636ZM123.93 42C122.66 42 121.54 41.6733 120.57 41.02C119.599 40.3667 118.843 39.48 118.302 38.36C117.779 37.24 117.518 35.9893 117.518 34.608C117.518 33.1333 117.807 31.8267 118.386 30.688C118.964 29.5493 119.767 28.6533 120.794 28C121.839 27.328 123.034 26.992 124.378 26.992C125.423 26.992 126.347 27.2067 127.15 27.636C127.971 28.0467 128.615 28.6533 129.082 29.456V27.272H133.702V40.656C133.702 42.1867 133.328 43.5213 132.582 44.66C131.835 45.7987 130.79 46.676 129.446 47.292C128.102 47.9267 126.534 48.244 124.742 48.244C123.192 48.244 121.83 48.0013 120.654 47.516C119.496 47.0307 118.47 46.3307 117.574 45.416L120.374 42.504C120.915 43.008 121.559 43.428 122.306 43.764C123.071 44.1187 123.883 44.296 124.742 44.296C125.395 44.296 125.992 44.1747 126.534 43.932C127.094 43.6893 127.542 43.2973 127.878 42.756C128.214 42.2333 128.382 41.5333 128.382 40.656V39.704C127.971 40.4693 127.355 41.048 126.534 41.44C125.731 41.8133 124.863 42 123.93 42ZM125.834 37.8C126.375 37.8 126.842 37.6787 127.234 37.436C127.644 37.1747 128.027 36.792 128.382 36.288V33.656C128.12 32.984 127.728 32.452 127.206 32.06C126.702 31.668 126.17 31.472 125.61 31.472C124.863 31.472 124.228 31.7987 123.706 32.452C123.202 33.0867 122.95 33.852 122.95 34.748C122.95 35.6627 123.22 36.4 123.762 36.96C124.303 37.52 124.994 37.8 125.834 37.8ZM143.655 42.28C141.9 42.28 140.425 41.9253 139.231 41.216C138.036 40.488 137.131 39.5453 136.515 38.388C135.899 37.2307 135.591 35.98 135.591 34.636C135.591 33.2733 135.899 32.0133 136.515 30.856C137.131 29.6987 138.036 28.7653 139.231 28.056C140.425 27.3467 141.9 26.992 143.655 26.992C145.409 26.992 146.884 27.3467 148.079 28.056C149.273 28.7653 150.179 29.6987 150.795 30.856C151.411 32.0133 151.719 33.2733 151.719 34.636C151.719 35.98 151.411 37.2307 150.795 38.388C150.179 39.5453 149.273 40.488 148.079 41.216C146.884 41.9253 145.409 42.28 143.655 42.28ZM141.051 34.636C141.051 35.6067 141.293 36.3813 141.779 36.96C142.283 37.52 142.908 37.8 143.655 37.8C144.42 37.8 145.045 37.52 145.531 36.96C146.016 36.3813 146.259 35.6067 146.259 34.636C146.259 33.6467 146.016 32.872 145.531 32.312C145.045 31.752 144.42 31.472 143.655 31.472C142.908 31.472 142.283 31.752 141.779 32.312C141.293 32.872 141.051 33.6467 141.051 34.636Z" fill="#63B761"/>
</svg>
