<svg width="158" height="124" viewBox="0 0 158 124" fill="none" xmlns="http://www.w3.org/2000/svg">
<g clip-path="url(#clip0)">
<path opacity="0.24" d="M157.854 78.0763C157.326 86.1314 155.262 94.6947 149.188 100.039C144.017 104.593 136.863 106.012 130.718 109.135C125.131 111.985 120.103 116.335 114.749 119.591C114.181 119.945 113.6 120.279 113.02 120.604C109.811 122.38 106.449 123.669 102.74 123.941C101.157 124.047 99.5676 123.996 97.9947 123.789C97.7433 123.758 97.4981 123.727 97.2436 123.678C95.3254 123.414 93.4259 123.009 91.5233 122.624C82.7371 120.826 73.8583 119.513 64.9272 118.69C63.9744 118.588 63.0091 118.507 62.0531 118.423C61.6465 118.383 61.2493 118.355 60.8458 118.324C56.2615 117.968 51.3855 118.12 46.6306 117.754C46.045 117.715 45.4563 117.664 44.8645 117.602C42.6358 117.398 40.4315 116.983 38.2814 116.363C25.8664 112.661 15.0032 97.4396 8.34257 87.2406C2.3399 78.0112 -2.29401 66.6131 1.20392 56.1786C3.86695 48.269 10.6331 42.5902 16.1703 36.3505C24.8608 26.5542 31.2545 14.3537 42.2667 7.26514C56.2615 -1.76284 74.3254 -0.46472 90.915 1.168C97.5695 1.81861 104.457 2.54667 110.196 5.95463C116.831 9.88927 120.987 16.7981 125.935 22.728C135.901 34.662 150.172 43.7272 155.538 58.3101C157.854 64.587 158.279 71.4122 157.854 78.0763Z" fill="#64B663"/>
<path opacity="0.24" d="M144.53 84.6598C144.105 91.1659 142.442 98.0716 137.541 102.381C133.366 106.056 127.609 107.202 122.643 109.721C118.127 112.023 114.076 115.533 109.756 118.157C109.3 118.445 108.825 118.715 108.365 118.975C105.774 120.409 103.061 121.453 100.069 121.667C98.7915 121.754 97.5085 121.713 96.239 121.546C96.0342 121.521 95.8387 121.497 95.6338 121.456C94.0819 121.243 92.5518 120.914 91.0185 120.604C83.929 119.155 76.765 118.095 69.5591 117.429C68.7894 117.348 68.0072 117.283 67.2375 117.218C66.9116 117.184 66.5919 117.159 66.2629 117.134C62.5663 116.849 58.6308 116.97 54.7945 116.676C54.3186 116.645 53.8437 116.605 53.3699 116.555C51.5709 116.387 49.7918 116.05 48.0563 115.548C38.0435 112.562 29.2599 100.281 23.8935 92.0581C19.0516 84.6226 15.3116 75.4149 18.1391 66.9942C20.2869 60.6058 25.7464 56.0298 30.2158 51.0016C37.2241 43.0982 42.3888 33.2616 51.2718 27.5362C62.5694 20.2525 77.1354 21.2997 90.5219 22.6164C95.8883 23.1431 101.447 23.7317 106.078 26.4798C111.432 29.6554 114.784 35.2351 118.775 40.0125C126.817 49.6446 138.329 56.9593 142.674 68.726C144.53 73.776 144.875 79.2845 144.53 84.6598Z" fill="#64B663"/>
<path d="M27.3413 34.9873C27.3413 34.9873 27.6517 37.0568 27.9838 37.6981C28.3159 38.3395 32.239 44.6225 32.8101 44.6937C33.3812 44.765 52.727 35.1298 52.727 35.1298L53.1211 33.7015L27.3413 34.9873Z" fill="#64B663"/>
<path opacity="0.26" d="M27.3413 34.9873C27.3413 34.9873 27.6517 37.0568 27.9838 37.6981C28.3159 38.3395 32.239 44.6225 32.8101 44.6937C33.3812 44.765 52.727 35.1298 52.727 35.1298L53.1211 33.7015L27.3413 34.9873Z" fill="url(#paint0_linear)"/>
<path d="M19.0171 63.0379C19.0171 63.0379 20.5193 60.327 21.0904 59.5401C21.6615 58.7531 30.9573 54.7596 30.9573 54.7596C30.9573 54.7596 27.4531 58.8275 26.8106 59.1125C26.1682 59.3976 19.0171 63.0379 19.0171 63.0379Z" fill="#64B663"/>
<path opacity="0.26" d="M114.758 89.524C114.19 91.8042 114.473 94.9488 114.473 94.9488L114.749 119.591C114.181 119.945 113.601 120.279 113.02 120.605C109.811 122.38 106.45 123.669 102.741 123.941C100.909 124.059 99.0695 123.975 97.2562 123.69V102.933C97.2572 101.902 96.9069 100.901 96.2628 100.094C95.6187 99.2882 94.7191 98.7246 93.7117 98.4962C86.9176 96.9471 72.631 93.7684 71.4422 93.8769C69.8686 94.0194 67.2863 97.5946 65.7127 99.5867C64.1391 101.579 64.6419 103.224 64.6419 103.224L64.9368 118.69C63.9839 118.588 63.0186 118.507 62.0627 118.423C61.6561 118.383 61.2588 118.355 60.8553 118.324C56.2711 117.968 51.395 118.12 46.6401 117.754L45.5445 105.799L46.1652 101.399C46.1652 101.399 46.1342 95.8008 45.4141 93.5206C44.694 91.2403 45.1286 90.2334 45.1286 88.6627C45.1286 87.0919 58.723 82.1008 58.723 82.1008L57.6957 77.9555C57.6957 77.9555 46.966 80.8151 45.2496 80.5332C43.5332 80.2512 44.5388 77.5311 44.5388 77.5311L60.846 62.1178L64.2788 74.3865C64.2788 74.3865 62.9876 79.9631 64.704 82.6709C66.4203 85.3787 68.7078 83.3804 69.4186 82.5315C70.1293 81.6826 72.5472 80.2791 72.5472 80.2791L80.7256 51.265C80.7256 51.265 103.321 50.2612 107.443 50.1094C111.565 49.9576 112.474 53.1208 112.614 53.6909C112.753 54.2609 110.186 62.2603 109.609 66.8208C109.032 71.3813 111.471 72.3974 111.471 72.3974C117.48 78.0949 115.339 87.2313 114.758 89.524Z" fill="url(#paint1_linear)"/>
<path d="M108.818 47.5624L79.9027 41.6902C78.2381 41.3522 76.6141 42.4251 76.2755 44.0867L67.3779 87.7406C67.0392 89.4022 68.1141 91.0233 69.7787 91.3613L98.6938 97.2335C100.358 97.5716 101.982 96.4986 102.321 94.837L111.219 51.1832C111.557 49.5215 110.482 47.9005 108.818 47.5624Z" fill="#64B663"/>
<path d="M108.818 47.5624L79.9027 41.6902C78.2381 41.3522 76.6141 42.4251 76.2755 44.0867L67.3779 87.7406C67.0392 89.4022 68.1141 91.0233 69.7787 91.3613L98.6938 97.2335C100.358 97.5716 101.982 96.4986 102.321 94.837L111.219 51.1832C111.557 49.5215 110.482 47.9005 108.818 47.5624Z" fill="url(#paint2_linear)"/>
<path d="M108.104 47.1347L79.1894 41.2625C77.5247 40.9244 75.9007 41.9974 75.5621 43.659L66.6645 87.3129C66.3258 88.9745 67.4007 90.5955 69.0653 90.9336L97.9804 96.8058C99.6451 97.1439 101.269 96.0709 101.608 94.4093L110.505 50.7554C110.844 49.0938 109.769 47.4728 108.104 47.1347Z" fill="#64B663"/>
<path d="M90.9911 41.4407L97.7218 42.8076C98.7334 43.0131 99.6217 43.6112 100.191 44.4704C100.761 45.3296 100.966 46.3796 100.76 47.3893L100.493 48.6978L86.1253 45.7799L86.3914 44.4744C86.4931 43.9734 86.6929 43.4973 86.9793 43.0734C87.2657 42.6496 87.6331 42.2864 88.0604 42.0045C88.4877 41.7227 88.9665 41.5278 89.4694 41.4311C89.9723 41.3343 90.4894 41.3376 90.9911 41.4407Z" fill="#64B663"/>
<path d="M90.9911 41.4407L97.7218 42.8076C98.7334 43.0131 99.6217 43.6112 100.191 44.4704C100.761 45.3296 100.966 46.3796 100.76 47.3893L100.493 48.6978L86.1253 45.7799L86.3914 44.4744C86.4931 43.9734 86.6929 43.4973 86.9793 43.0734C87.2657 42.6496 87.6331 42.2864 88.0604 42.0045C88.4877 41.7227 88.9665 41.5278 89.4694 41.4311C89.9723 41.3343 90.4894 41.3376 90.9911 41.4407Z" fill="url(#paint3_linear)"/>
<path d="M98.2651 94.0442L69.9619 88.3002L79.1397 44.3562L107.443 50.1033L98.2651 94.0442Z" fill="url(#paint4_linear)"/>
<path d="M90.4429 41.3341L97.1736 42.701C98.1851 42.9065 99.0735 43.5046 99.6432 44.3638C100.213 45.223 100.417 46.273 100.212 47.2827L99.9424 48.6033L85.5838 45.6873L85.8529 44.3666C86.0587 43.3569 86.6579 42.4702 87.5187 41.9015C88.3795 41.3328 89.4313 41.1287 90.4429 41.3341Z" fill="white"/>
<path d="M105.789 53.7898L79.9282 48.5385L80.3255 46.5867L106.186 51.8349L105.789 53.7898ZM80.5179 48.1512L105.398 53.2012L105.612 52.2408L80.7321 47.1908L80.5179 48.1512Z" fill="#64B663"/>
<path d="M102.958 67.6757L77.0972 62.4275L79.4622 50.825L105.323 56.0732L102.958 67.6757ZM77.6776 62.0371L102.557 67.0871L104.73 56.4636L79.8502 51.4105L77.6776 62.0371Z" fill="#64B663"/>
<path d="M104.605 59.5958L78.7446 54.3475L79.4616 50.825L105.322 56.0732L104.605 59.5958ZM79.3343 53.9572L104.214 59.0071L104.732 56.4636L79.8496 51.4105L79.3343 53.9572Z" fill="#64B663"/>
<path d="M88.4328 64.4879L82.3867 63.2486L84.7052 51.8754L90.7513 53.1146L88.4328 64.4879ZM82.9764 63.2053L88.0418 64.2339L90.1616 53.505L85.0963 52.4764L82.9764 63.2053Z" fill="#64B663"/>
<path d="M98.6039 66.5511L92.5547 65.3119L94.8732 53.9386L100.919 55.1779L98.6039 66.5511ZM93.1475 64.9432L98.2128 65.9718L100.336 55.5682L95.2705 54.5396L93.1475 64.9432Z" fill="#64B663"/>
<path d="M101.083 74.1942L75.5386 69.0079L76.0848 66.3218L101.632 71.505L101.083 74.1942ZM76.1283 68.6175L100.695 73.6179L101.042 71.9077L76.4759 66.9228L76.1283 68.6175Z" fill="#64B663"/>
<path d="M101.325 77.8377L73.9966 72.2889L74.4373 70.1202L101.766 75.669L101.325 77.8377ZM74.5739 71.9017L100.922 77.249L101.164 76.0655L74.816 70.7151L74.5739 71.9017Z" fill="#64B663"/>
<path d="M79.0839 76.0965L73.6431 74.9781L73.9938 73.2679L79.444 74.374L79.0839 76.0965ZM74.2204 74.6001L78.6929 75.5079L78.8419 74.7767L74.3725 73.869L74.2204 74.6001Z" fill="#64B663"/>
<path d="M98.5713 79.3561L79.9819 75.5809L79.925 75.8602L98.5143 79.6354L98.5713 79.3561Z" fill="#64B663"/>
<path d="M78.5436 78.7331L73.0903 77.627L73.4411 75.9169L78.8913 77.026L78.5436 78.7331ZM73.68 77.2367L78.1526 78.1475L78.3015 77.4133L73.8321 76.5055L73.68 77.2367Z" fill="#64B663"/>
<path d="M98.0313 82.0086L79.4419 78.2334L79.385 78.5127L97.9743 82.2879L98.0313 82.0086Z" fill="#64B663"/>
<path d="M78.0036 81.3851L72.5503 80.279L72.901 78.5688L78.3512 79.6749L78.0036 81.3851ZM73.14 79.8886L77.6125 80.7964L77.7615 80.0652L73.2921 79.1575L73.14 79.8886Z" fill="#64B663"/>
<path d="M97.4892 84.6609L78.8999 80.8857L78.843 81.1651L97.4323 84.9403L97.4892 84.6609Z" fill="#64B663"/>
<path opacity="0.26" d="M97.6658 70.6221C97.4393 71.7126 96.294 72.3601 95.8191 73.367C95.5856 73.9681 95.4727 74.6092 95.487 75.2538L94.8818 89.4185C94.8104 91.0388 94.7483 92.7056 95.2884 94.2361C95.8284 95.7666 97.1165 97.1453 98.7335 97.294C99.2374 97.3477 99.7453 97.2392 100.183 96.9842C101.136 96.3986 101.35 95.1253 101.456 94.0254C102.135 86.8656 102.061 79.6562 101.834 72.4686C101.844 71.8099 101.758 71.1533 101.577 70.5198C101.223 69.5036 99.9875 67.9546 98.9167 67.6107C97.0389 66.9941 97.8521 69.6554 97.6658 70.6221Z" fill="url(#paint5_linear)"/>
<path d="M57.6546 47.2097L40.1603 50.6041C38.9302 50.8428 38.1269 52.0316 38.366 53.2594L42.9504 76.8015C43.1895 78.0293 44.3805 78.8311 45.6105 78.5925L63.1049 75.1981C64.3349 74.9594 65.1382 73.7706 64.8991 72.5428L60.3147 49.0007C60.0756 47.7729 58.8846 46.9711 57.6546 47.2097Z" fill="#64B663"/>
<path d="M58.1863 45.3655L38.5897 49.1678C37.602 49.3594 36.9569 50.314 37.1489 51.3L38.5904 58.7023C38.7824 59.6882 39.7387 60.3321 40.7264 60.1405L60.323 56.3382C61.3108 56.1465 61.9558 55.1919 61.7638 54.206L60.3224 46.8037C60.1304 45.8177 59.174 45.1738 58.1863 45.3655Z" fill="#64B663"/>
<path d="M57.8931 47.3813L39.6858 50.914C39.0295 51.0413 38.601 51.6756 38.7285 52.3306L39.4504 56.0379C39.578 56.6929 40.2134 57.1207 40.8696 56.9934L59.0769 53.4606C59.7332 53.3333 60.1618 52.6991 60.0342 52.044L59.3123 48.3368C59.1847 47.6817 58.5493 47.2539 57.8931 47.3813Z" fill="white"/>
<path d="M45.4012 60.6822L42.26 61.2917C41.9201 61.3577 41.6981 61.6862 41.7642 62.0255L42.1574 64.0448C42.2235 64.3841 42.5526 64.6057 42.8925 64.5397L46.0336 63.9303C46.3735 63.8643 46.5955 63.5358 46.5295 63.1965L46.1362 61.1772C46.0701 60.8379 45.741 60.6163 45.4012 60.6822Z" fill="white"/>
<path d="M50.2757 59.7368L47.1345 60.3463C46.7946 60.4122 46.5726 60.7407 46.6387 61.08L47.0319 63.0994C47.098 63.4387 47.4271 63.6602 47.767 63.5943L50.9082 62.9848C51.2481 62.9189 51.47 62.5904 51.404 62.2511L51.0107 60.2317C50.9447 59.8924 50.6156 59.6709 50.2757 59.7368Z" fill="white"/>
<path d="M55.1516 58.7884L52.0105 59.3979C51.6706 59.4639 51.4486 59.7924 51.5146 60.1317L51.9079 62.151C51.974 62.4903 52.3031 62.7119 52.643 62.6459L55.7841 62.0365C56.124 61.9705 56.346 61.642 56.28 61.3027L55.8867 59.2834C55.8207 58.9441 55.4915 58.7225 55.1516 58.7884Z" fill="white"/>
<path d="M46.1468 64.5069L43.0056 65.1164C42.6657 65.1824 42.4437 65.5109 42.5098 65.8502L42.903 67.8695C42.9691 68.2088 43.2982 68.4304 43.6381 68.3644L46.7793 67.755C47.1191 67.689 47.3411 67.3605 47.2751 67.0212L46.8818 65.0019C46.8158 64.6626 46.4867 64.441 46.1468 64.5069Z" fill="white"/>
<path d="M51.0218 63.5615L47.8806 64.171C47.5407 64.2369 47.3187 64.5654 47.3848 64.9047L47.778 66.9241C47.8441 67.2634 48.1732 67.485 48.5131 67.419L51.6543 66.8095C51.9942 66.7436 52.2161 66.4151 52.1501 66.0758L51.7568 64.0564C51.6908 63.7171 51.3617 63.4956 51.0218 63.5615Z" fill="white"/>
<path d="M55.8973 62.6162L52.7561 63.2257C52.4162 63.2916 52.1942 63.6201 52.2603 63.9594L52.6535 65.9788C52.7196 66.3181 53.0487 66.5397 53.3886 66.4737L56.5297 65.8642C56.8696 65.7983 57.0916 65.4698 57.0256 65.1305L56.6323 63.1111C56.5663 62.7718 56.2372 62.5502 55.8973 62.6162Z" fill="white"/>
<path d="M46.8894 68.3347L43.7483 68.9442C43.4084 69.0101 43.1864 69.3386 43.2524 69.6779L43.6457 71.6973C43.7117 72.0366 44.0408 72.2582 44.3807 72.1922L47.5219 71.5827C47.8618 71.5168 48.0838 71.1883 48.0177 70.849L47.6245 68.8296C47.5584 68.4903 47.2293 68.2688 46.8894 68.3347Z" fill="white"/>
<path d="M51.7674 67.3894L48.6262 67.9989C48.2863 68.0648 48.0643 68.3933 48.1304 68.7326L48.5236 70.752C48.5897 71.0913 48.9188 71.3128 49.2587 71.2469L52.3999 70.6374C52.7398 70.5715 52.9617 70.243 52.8957 69.9037L52.5024 67.8843C52.4364 67.545 52.1073 67.3234 51.7674 67.3894Z" fill="white"/>
<path d="M56.6429 66.4409L53.5017 67.0504C53.1618 67.1163 52.9398 67.4448 53.0059 67.7841L53.3991 69.8035C53.4652 70.1428 53.7943 70.3644 54.1342 70.2984L57.2754 69.6889C57.6153 69.623 57.8372 69.2945 57.7712 68.9552L57.3779 66.9358C57.3119 66.5965 56.9828 66.375 56.6429 66.4409Z" fill="white"/>
<path d="M47.635 72.1595L44.4939 72.769C44.154 72.835 43.932 73.1635 43.998 73.5028L44.3913 75.5221C44.4574 75.8614 44.7865 76.083 45.1264 76.017L48.2675 75.4076C48.6074 75.3416 48.8294 75.0131 48.7633 74.6738L48.3701 72.6545C48.304 72.3152 47.9749 72.0936 47.635 72.1595Z" fill="white"/>
<path d="M52.5096 71.2141L49.3684 71.8236C49.0285 71.8895 48.8065 72.218 48.8726 72.5573L49.2658 74.5767C49.3319 74.916 49.661 75.1375 50.0009 75.0716L53.142 74.4621C53.4819 74.3962 53.7039 74.0677 53.6379 73.7284L53.2446 71.709C53.1786 71.3697 52.8495 71.1482 52.5096 71.2141Z" fill="white"/>
<path d="M57.3885 70.2685L54.2473 70.878C53.9074 70.944 53.6854 71.2725 53.7515 71.6118L54.1447 73.6311C54.2108 73.9704 54.5399 74.192 54.8798 74.1261L58.0209 73.5166C58.3608 73.4506 58.5828 73.1221 58.5168 72.7828L58.1235 70.7635C58.0575 70.4242 57.7283 70.2026 57.3885 70.2685Z" fill="white"/>
<path d="M60.1588 57.8172L57.0481 58.4207C56.7082 58.4867 56.4862 58.8152 56.5522 59.1545L56.7998 60.4257C56.8659 60.765 57.195 60.9866 57.5349 60.9206L60.6456 60.3171C60.9855 60.2511 61.2075 59.9226 61.1414 59.5833L60.8938 58.3121C60.8278 57.9728 60.4987 57.7512 60.1588 57.8172Z" fill="white"/>
<path d="M60.6822 60.512L57.5715 61.1156C57.2316 61.1815 57.0096 61.51 57.0757 61.8493L57.3256 63.1327C57.3917 63.472 57.7208 63.6936 58.0607 63.6276L61.1714 63.0241C61.5113 62.9581 61.7333 62.6296 61.6672 62.2903L61.4173 61.0069C61.3512 60.6676 61.0221 60.4461 60.6822 60.512Z" fill="white"/>
<path d="M61.2242 63.2852L58.1135 63.8888C57.7736 63.9547 57.5516 64.2832 57.6177 64.6225L57.8676 65.9059C57.9337 66.2452 58.2628 66.4668 58.6027 66.4008L61.7134 65.7972C62.0533 65.7313 62.2753 65.4028 62.2092 65.0635L61.9593 63.7801C61.8932 63.4408 61.5641 63.2193 61.2242 63.2852Z" fill="white"/>
<path d="M61.7652 66.0652L58.6545 66.6688C58.3146 66.7347 58.0926 67.0633 58.1587 67.4025L58.4086 68.6859C58.4747 69.0252 58.8038 69.2468 59.1437 69.1808L62.2544 68.5773C62.5943 68.5113 62.8163 68.1828 62.7502 67.8435L62.5003 66.5601C62.4342 66.2209 62.1051 65.9993 61.7652 66.0652Z" fill="white"/>
<path d="M62.3321 68.9762L59.2214 69.5798C58.8815 69.6458 58.6595 69.9743 58.7256 70.3135L59.1846 72.6705C59.2506 73.0098 59.5797 73.2313 59.9196 73.1654L63.0303 72.5618C63.3702 72.4959 63.5922 72.1674 63.5262 71.8281L63.0672 69.4712C63.0011 69.1319 62.672 68.9103 62.3321 68.9762Z" fill="white"/>
<path d="M99.3135 69.8446C99.4501 70.6346 100.148 71.1737 100.819 71.5424C102.529 72.4718 104.519 72.9985 105.825 74.5259C106.458 75.2983 106.861 76.2326 106.988 77.2224C107.115 78.2123 106.96 79.2177 106.542 80.1242C106.396 80.4185 106.182 80.7221 105.869 80.7438C105.599 80.7332 105.344 80.6227 105.152 80.434C103.255 78.8998 101.928 76.7748 101.384 74.3988C101.229 73.7203 101.12 72.9923 100.695 72.4594C100.009 71.5981 98.6804 71.6136 97.9013 72.3076C97.1223 73.0016 100.515 88.7897 100.111 93.976C100.071 94.4841 100.024 95.0356 100.276 95.4817C100.395 95.6798 100.551 95.8533 100.735 95.9929C102.126 97.1206 104.078 97.0834 105.62 96.3616C107.163 95.6397 108.383 94.3385 109.537 93.0342C110.346 92.1679 111.067 91.2235 111.688 90.2149C113.454 87.1694 113.55 83.2254 112.759 79.6378C112.123 76.7906 110.937 74.024 109.103 71.815C107.684 70.0536 105.802 68.7213 103.668 67.9671C102.321 67.5303 98.8976 67.3908 99.3135 69.8446Z" fill="url(#paint6_linear)"/>
<path d="M111.832 94.2919H99.6899V96.6836H111.832V94.2919Z" fill="white"/>
<path d="M113.02 96.6434L114.749 119.591C111.539 121.367 106.449 123.669 102.74 123.929C101.157 124.035 99.5676 123.984 97.9946 123.777V96.6434H113.02Z" fill="#64B663"/>
<path d="M119.355 61.5725C121.777 61.5725 123.741 59.6125 123.741 57.1948C123.741 54.7771 121.777 52.8171 119.355 52.8171C116.933 52.8171 114.97 54.7771 114.97 57.1948C114.97 59.6125 116.933 61.5725 119.355 61.5725Z" fill="#64B663"/>
<path d="M117.965 51.7483C120.387 51.7483 122.351 49.7883 122.351 47.3706C122.351 44.9529 120.387 42.9929 117.965 42.9929C115.543 42.9929 113.58 44.9529 113.58 47.3706C113.58 49.7883 115.543 51.7483 117.965 51.7483Z" fill="#64B663"/>
<path d="M48.406 24.9431C50.3855 27.6248 51.9729 30.5738 53.1206 33.7016C48.0832 36.2699 39.0761 40.567 33.9735 42.996C33.6686 43.1852 33.3098 43.2691 32.9524 43.2345C32.5489 43.1509 32.2727 42.7915 32.0212 42.4538C30.6597 40.5102 29.3562 38.5171 28.1105 36.4744C27.3408 35.2197 26.8256 34.9005 28.1322 34.0548C29.1254 33.4103 30.1962 32.862 31.236 32.3074C35.4664 30.052 43.8466 26.393 48.406 24.9431Z" fill="#64B663"/>
<path opacity="0.26" d="M29.3438 35.6969C29.3438 35.6969 30.309 34.7674 30.4208 33.8752L45.9985 26.7061C45.9985 26.7061 47.926 27.5983 48.705 27.3009L51.188 31.9481C51.188 31.9481 50.6759 33.0325 50.6759 33.6924L35.2471 41.2332C35.2471 41.2332 33.5028 41.0474 32.6151 41.1961L29.3438 35.6969Z" fill="url(#paint7_linear)"/>
<path d="M46.4197 38.008C46.3631 38.1404 46.2575 38.2458 46.1248 38.3023C45.3927 38.7102 44.6198 39.0404 43.8187 39.2875C43.5996 39.3636 43.3673 39.3942 43.1359 39.3773C43.1015 39.3737 43.0679 39.3642 43.0366 39.3495C42.5772 39.2255 42.3041 38.7298 42.1055 38.2837C41.016 36.0004 39.9328 33.7201 38.8527 31.4368C38.7627 31.2447 38.5889 30.9411 38.4058 30.6065L38.3561 30.526C38.1027 30.1028 37.8947 29.6542 37.7354 29.1876C37.7169 29.1599 37.7062 29.1278 37.7043 29.0946C37.689 29.0702 37.6794 29.0427 37.6764 29.0141C37.6176 28.8508 37.6176 28.6723 37.6764 28.5091C37.9092 28.0103 40.1842 27.4836 40.7026 27.3008C40.8559 27.2344 41.0233 27.2068 41.1899 27.2202C41.3887 27.2686 41.5651 27.3834 41.6896 27.5455C42.571 28.475 43.08 29.6833 43.5673 30.8699C44.4923 33.1418 45.4234 35.4138 46.3607 37.6858C46.4119 37.785 46.4324 37.8971 46.4197 38.008Z" fill="white"/>
<path d="M21.1397 61.6128C19.8703 62.2045 18.4456 62.9852 18.1787 64.3608C19.594 63.8992 20.9721 65.1075 21.9529 66.2197L24.9139 69.4634C25.0315 69.6204 25.1905 69.7416 25.3732 69.8135C25.6093 69.8523 25.8516 69.812 26.0623 69.6989C29.166 68.4287 32.2481 67.0965 35.3084 65.7023C35.7056 65.5226 36.1495 65.2902 36.2643 64.8658C36.3156 64.5477 36.2623 64.2216 36.1122 63.9364C35.2153 61.6437 33.7472 53.6722 30.4386 54.9239C29.0977 55.4351 27.9556 57.3807 26.8879 58.2884C25.1622 59.7291 23.1509 60.6771 21.1397 61.6128Z" fill="#64B663"/>
<path d="M136.231 89.8678C132.188 87.1863 127.736 85.1765 123.049 83.9163C122.738 83.8296 122.344 83.7583 122.087 83.9721C121.912 84.1631 121.812 84.4105 121.804 84.6692C121.378 87.662 120.954 90.6568 120.532 93.6538C120.466 93.9165 120.481 94.1928 120.575 94.4469C120.768 94.8373 121.261 94.9488 121.686 95.0324C125.186 95.7164 128.405 97.416 130.942 99.9182C131.873 100.848 133.114 101.963 134.303 101.418C135.253 100.984 135.473 99.7633 135.573 98.7254L136.355 90.3914" fill="#64B663"/>
<path d="M66.3467 82.4074C67.3213 81.0163 68.8297 79.619 70.484 79.9753C70.6177 79.9926 70.7466 80.0367 70.8628 80.1048C70.9791 80.1729 71.0804 80.2638 71.1607 80.3719C71.381 80.7251 71.201 81.1805 71.021 81.5554L67.7031 88.4333C67.3584 89.1916 66.9623 89.9255 66.5174 90.6298C64.6272 93.4677 61.21 95.1686 59.8009 98.2699C58.9163 100.222 58.8139 102.713 57.082 103.977C56.1509 104.664 54.9094 104.807 53.733 104.829C52.76 104.843 51.7872 104.789 50.8217 104.668C50.2688 104.626 49.7307 104.47 49.2419 104.209C48.9078 103.973 48.6237 103.674 48.4058 103.329C48.1879 102.983 48.0407 102.598 47.9725 102.195C47.8424 101.39 47.7729 100.576 47.7645 99.7601C47.4821 95.4753 45.1853 91.5128 44.9184 87.225C44.819 85.6325 45.2287 83.7272 46.6844 83.0983C47.1965 82.8814 47.78 82.8535 48.2673 82.5902C48.8664 82.2803 49.2792 81.6235 49.934 81.4439C50.5889 81.2642 51.3618 81.6081 51.9732 81.292C52.5164 81.0132 52.7274 80.313 53.2582 80.0094C53.8386 79.6748 54.5648 79.9258 55.2322 79.932C56.8678 79.9505 58.1497 78.4603 58.6742 76.9175C59.1988 75.3746 59.2112 73.6985 59.6798 72.137C59.9375 71.2881 60.5272 70.3494 61.4117 70.3897C62.0542 70.4176 62.5632 70.9907 62.7308 71.6103C62.8545 72.24 62.8492 72.8881 62.7153 73.5157C62.2706 76.727 62.0209 79.9622 61.9673 83.2036C61.9487 84.3933 62.0046 86.4814 63.6558 85.521C64.8383 84.8239 65.5739 83.5072 66.3467 82.4074Z" fill="url(#paint8_linear)"/>
<path d="M60.7315 101.405H46.147V104.11H60.7315V101.405Z" fill="white"/>
<path d="M62.0529 103.791V118.423C61.6463 118.383 61.249 118.355 60.8455 118.324C55.6933 117.928 50.1655 118.16 44.8643 117.602V103.791H62.0529Z" fill="#64B663"/>
<path d="M99.5461 66.8486C99.446 66.7748 99.326 66.7327 99.2016 66.7278C99.1078 66.7449 99.02 66.7858 98.9466 66.8465C98.8732 66.9073 98.8167 66.9859 98.7826 67.0748C98.3294 67.9485 98.7112 69.0049 99.093 69.9127L102.305 77.4443C103.323 79.8329 104.354 82.2402 105.85 84.3593C105.94 84.5242 106.061 84.6696 106.208 84.7872C106.354 84.9047 106.523 84.992 106.703 85.044C106.949 85.0691 107.194 85.0017 107.392 84.855C108.013 84.4429 108.268 83.6312 108.218 82.8877C108.125 82.1479 107.916 81.4274 107.597 80.7531C106.598 78.2746 105.633 76.1059 104.416 73.7699C103.128 71.2821 102.069 68.3822 99.5461 66.8486Z" fill="#64B663"/>
<path d="M99.5461 66.8486C99.446 66.7748 99.326 66.7327 99.2016 66.7278C99.1078 66.7449 99.02 66.7858 98.9466 66.8465C98.8732 66.9073 98.8167 66.9859 98.7826 67.0748C98.3294 67.9485 98.7112 69.0049 99.093 69.9127L102.305 77.4443C103.323 79.8329 104.354 82.2402 105.85 84.3593C105.94 84.5242 106.061 84.6696 106.208 84.7872C106.354 84.9047 106.523 84.992 106.703 85.044C106.949 85.0691 107.194 85.0017 107.392 84.855C108.013 84.4429 108.268 83.6312 108.218 82.8877C108.125 82.1479 107.916 81.4274 107.597 80.7531C106.598 78.2746 105.633 76.1059 104.416 73.7699C103.128 71.2821 102.069 68.3822 99.5461 66.8486Z" fill="url(#paint9_linear)"/>
<path d="M100.519 72.1308C100.988 72.7164 101.522 73.2465 102.111 73.7109C103.3 74.7333 104.489 75.83 105.215 77.2862C105.49 77.872 105.735 78.4718 105.947 79.0831C106.044 79.334 106.199 79.6284 106.444 79.6222C106.689 79.3124 106.599 78.8383 106.491 78.4449C106.141 77.1439 105.683 75.8744 105.122 74.6496C104.285 72.9824 103.318 71.384 102.229 69.8692C101.918 69.3763 101.558 68.9155 101.155 68.4936C100.976 68.2819 100.723 68.1458 100.448 68.1125C99.8516 68.1125 99.3488 69.042 99.4046 69.6368C99.4978 70.4826 100.047 71.4864 100.519 72.1308Z" fill="url(#paint10_linear)"/>
<path d="M107.571 84.3721C108.155 83.8762 108.379 83.1827 108.072 82.8232C107.765 82.4636 107.044 82.5742 106.461 83.0701C105.877 83.566 105.653 84.2595 105.96 84.619C106.266 84.9785 106.988 84.868 107.571 84.3721Z" fill="url(#paint11_linear)"/>
<path d="M102.797 67.8679C102.797 67.8679 100.46 67.5116 99.8176 68.2986C99.1751 69.0855 99.7928 71.3193 101.841 72.0814C103.107 72.5561 104.308 73.1869 105.417 73.9589C105.417 73.9589 104.036 68.3512 102.797 67.8679Z" fill="url(#paint12_linear)"/>
<path d="M106.395 83.8418C106.395 83.8418 106.758 83.0889 107.431 83.2005L108.468 85.2143C108.468 85.2143 108.552 87.0298 107.319 85.8339L106.395 83.8418Z" fill="#64B663"/>
<path d="M106.395 83.8418C106.395 83.8418 106.758 83.0889 107.431 83.2005L108.468 85.2143C108.468 85.2143 108.552 87.0298 107.319 85.8339L106.395 83.8418Z" fill="url(#paint13_linear)"/>
<path opacity="0.26" d="M26.6555 59.8714C27.36 59.4997 28.0832 59.1124 28.5767 58.4897C29.0174 57.9258 29.2347 57.2194 29.6227 56.6308C30.0106 56.0421 30.6966 55.5093 31.3949 55.6735C31.8576 55.8317 32.2513 56.1447 32.5092 56.5595C33.8568 58.339 34.7341 60.4282 35.0605 62.635C31.8977 62.2756 28.8529 63.7286 25.9602 65.0794C24.9391 65.5596 23.7876 66.0398 22.7137 65.699C21.9564 65.4574 21.348 64.8409 20.7987 64.2894C19.9296 63.425 20.2803 63.2515 21.2735 62.7403L26.6555 59.8714Z" fill="url(#paint14_linear)"/>
<path opacity="0.26" d="M42.6806 38.6617L46.1382 37.1467C46.2677 37.4498 46.3614 37.7669 46.4175 38.0917C46.3803 38.2435 44.1455 39.3588 43.4131 39.2782C42.6806 39.1977 42.4819 38.8042 42.4819 38.8042L42.6806 38.6617Z" fill="url(#paint15_linear)"/>
<path opacity="0.26" d="M43.0369 39.3495C42.5775 39.2256 42.3044 38.7299 42.1058 38.2838C41.0163 36.0004 39.9331 33.7202 38.853 31.4369C38.763 31.2448 38.5892 30.9412 38.4061 30.6066L38.3564 30.526C37.9902 29.7236 37.7357 29.1969 37.7357 29.1969C37.7282 29.165 37.7178 29.1339 37.7046 29.104C37.6893 29.0796 37.6797 29.052 37.6767 29.0234C37.5929 28.8406 37.5339 28.5773 37.6767 28.5184C37.9188 28.4255 38.4775 29.0451 38.4775 29.0451L42.8227 38.5471L43.0369 39.3495Z" fill="url(#paint16_linear)"/>
<path d="M70.369 8.24719C70.369 8.24719 69.5651 10.1835 69.5062 10.8992C69.4472 11.6149 69.5279 19.0225 69.981 19.3788C70.4342 19.7351 91.9743 21.5475 91.9743 21.5475L93.0544 20.5344L70.369 8.24719Z" fill="#64B663"/>
<path opacity="0.26" d="M70.369 8.24719C70.369 8.24719 69.5651 10.1835 69.5062 10.8992C69.4472 11.6149 69.5279 19.0225 69.981 19.3788C70.4342 19.7351 91.9743 21.5475 91.9743 21.5475L93.0544 20.5344L70.369 8.24719Z" fill="url(#paint17_linear)"/>
<path d="M93.5931 10.6141C93.883 13.9277 93.7012 17.2655 93.0531 20.5282C87.4104 20.1037 77.4815 19.0937 71.8544 18.5237C71.4936 18.5309 71.1404 18.4199 70.8488 18.2077C70.5384 17.9288 70.5011 17.4765 70.4763 17.0676C70.3211 14.6861 70.2435 12.3026 70.2435 9.91706C70.2435 8.44234 69.9673 7.90326 71.5254 7.85989C72.7079 7.82581 73.9091 7.91566 75.0885 7.98072C79.8807 8.24716 88.9375 9.48641 93.5931 10.6141Z" fill="#64B663"/>
<path opacity="0.26" d="M71.7096 9.89233C71.7096 9.89233 73.0163 9.60111 73.5719 8.89783L90.6115 10.8651C90.6115 10.8651 91.794 12.628 92.6134 12.7798L92.303 18.0466C92.303 18.0466 91.3005 18.6973 90.9498 19.2673L73.8605 17.6811C73.8605 17.6811 72.4669 16.6184 71.6289 16.2838L71.7096 9.89233Z" fill="url(#paint18_linear)"/>
<path d="M85.0831 20.7359C84.9671 20.8211 84.822 20.8567 84.6796 20.8351C83.8418 20.8032 83.0096 20.6838 82.1966 20.4788C81.9739 20.4276 81.7631 20.3339 81.5759 20.2031C81.5472 20.181 81.5229 20.1536 81.5045 20.1225C81.1755 19.7817 81.1941 19.2148 81.2624 18.7283C81.5231 16.2158 81.7931 13.7063 82.0539 11.1937C82.0756 10.983 82.088 10.6329 82.1066 10.2642C82.1066 10.227 82.1066 10.2054 82.1066 10.1682C82.1112 9.67504 82.1684 9.18379 82.2773 8.70276C82.2734 8.67019 82.2811 8.63728 82.2991 8.60981C82.2969 8.58106 82.3023 8.55224 82.3146 8.52616C82.3541 8.35671 82.4504 8.20584 82.5877 8.09862C83.0471 7.7888 85.2632 8.52616 85.8001 8.64079C85.9665 8.66087 86.1248 8.72387 86.2595 8.82358C86.4036 8.96803 86.4944 9.15697 86.5171 9.35956C86.7902 10.5988 86.5885 11.9093 86.3867 13.1765C85.9956 15.5868 85.6056 18.0054 85.2166 20.4323C85.205 20.545 85.1583 20.6511 85.0831 20.7359Z" fill="white"/>
<path opacity="0.26" d="M81.5512 19.351L85.2943 19.8529C85.247 20.1797 85.1616 20.5 85.0398 20.8071C84.9281 20.9155 82.4388 20.7079 81.8553 20.2587C81.2718 19.8095 81.3091 19.3726 81.3091 19.3726L81.5512 19.351Z" fill="url(#paint19_linear)"/>
<path opacity="0.26" d="M81.4991 20.1224C81.1701 19.7816 81.1887 19.2147 81.257 18.7283C81.5177 16.2157 81.7878 13.7062 82.0485 11.1936C82.0702 10.9829 82.0826 10.6328 82.1012 10.2641C82.1012 10.227 82.1012 10.2053 82.1012 10.1681C82.2068 9.29442 82.275 8.71816 82.275 8.71816C82.275 8.71816 82.275 8.6655 82.2968 8.62522C82.2946 8.59647 82.3 8.56765 82.3123 8.54157C82.3371 8.34329 82.424 8.08614 82.5854 8.11403C82.8399 8.1605 82.9951 8.97841 82.9951 8.97841L81.7536 19.351L81.4991 20.1224Z" fill="url(#paint20_linear)"/>
<path d="M129.653 64.8998C129.653 64.8998 131.667 65.4823 132.387 65.4637C133.107 65.4451 140.473 64.5343 140.767 64.0572C141.062 63.58 140.51 41.9984 140.51 41.9984L139.38 41.038L129.653 64.8998Z" fill="#64B663"/>
<path opacity="0.26" d="M129.653 64.8998C129.653 64.8998 131.667 65.4823 132.387 65.4637C133.107 65.4451 140.473 64.5343 140.767 64.0572C141.062 63.58 140.51 41.9984 140.51 41.9984L139.38 41.038L129.653 64.8998Z" fill="url(#paint21_linear)"/>
<path d="M129.449 41.5957C132.716 40.9426 136.06 40.7548 139.381 41.0381C139.583 46.6829 139.669 56.6434 139.725 62.2913C139.766 62.6476 139.69 63.0075 139.508 63.3168C139.263 63.6452 138.816 63.7443 138.412 63.8156C136.06 64.2287 133.695 64.5674 131.317 64.8318C129.852 64.996 129.343 65.3275 129.129 63.7877C128.965 62.6197 128.921 61.4176 128.856 60.2403C128.611 55.4599 128.831 46.3545 129.449 41.5957Z" fill="#64B663"/>
<path opacity="0.26" d="M131.143 63.3942C131.143 63.3942 130.709 62.1301 129.948 61.653L130.029 44.5296C130.029 44.5296 131.655 43.1602 131.714 42.3299L136.991 42.048C136.991 42.048 137.748 42.9774 138.356 43.2562L138.667 60.4014C138.667 60.4014 137.76 61.9009 137.518 62.7683L131.143 63.3942Z" fill="url(#paint22_linear)"/>
<path d="M140.467 48.9229C140.564 49.0296 140.615 49.1696 140.61 49.3132C140.672 50.1482 140.644 50.9875 140.526 51.8165C140.504 52.0462 140.434 52.2687 140.321 52.4702C140.304 52.5001 140.28 52.5263 140.253 52.5477C139.943 52.9102 139.381 52.9474 138.891 52.9443C136.358 52.9443 133.831 52.969 131.302 52.9876C131.088 52.9876 130.737 53.0155 130.371 53.0403H130.275C129.783 53.0901 129.288 53.0901 128.797 53.0403C128.766 53.0501 128.732 53.0501 128.701 53.0403C128.672 53.0478 128.642 53.0478 128.614 53.0403C128.441 53.0187 128.281 52.9402 128.158 52.8172C127.807 52.3959 128.291 50.1156 128.344 49.5673C128.349 49.4007 128.394 49.2379 128.477 49.0933C128.606 48.9357 128.784 48.8264 128.983 48.7834C130.194 48.3745 131.513 48.4303 132.798 48.4891C135.241 48.6099 137.693 48.737 140.151 48.8516C140.261 48.8434 140.371 48.8682 140.467 48.9229Z" fill="white"/>
<path opacity="0.26" d="M139.479 52.5816L139.563 48.8112C139.894 48.8224 140.222 48.8723 140.541 48.9599C140.662 49.0559 140.73 51.5499 140.349 52.1788C139.967 52.8078 139.526 52.8202 139.526 52.8202L139.479 52.5816Z" fill="url(#paint23_linear)"/>
<path opacity="0.26" d="M140.253 52.5506C139.942 52.9131 139.38 52.9503 138.89 52.9472C136.357 52.9472 133.831 52.9719 131.301 52.9905C131.087 52.9905 130.736 53.0184 130.37 53.0432H130.274H128.809C128.79 53.0432 128.753 53.0432 128.713 53.0432C128.684 53.0507 128.654 53.0507 128.626 53.0432C128.427 53.0432 128.16 52.9843 128.17 52.8201C128.191 52.5599 128.989 52.3182 128.989 52.3182L139.455 52.405L140.253 52.5506Z" fill="url(#paint24_linear)"/>
<path d="M46.8385 54.8309L46.7733 54.5211L47.1054 54.044C47.9062 52.9131 48.2538 52.3307 48.1451 51.7482C48.1354 51.6436 48.1022 51.5426 48.048 51.4525C47.9938 51.3624 47.9201 51.2857 47.8321 51.228C47.7442 51.1702 47.6444 51.133 47.54 51.119C47.4357 51.105 47.3296 51.1147 47.2295 51.1472C46.9302 51.2175 46.6647 51.3894 46.4784 51.6336L46.2363 51.299C46.4909 50.9795 46.8504 50.7601 47.2513 50.6794C47.402 50.6352 47.5605 50.6236 47.716 50.6453C47.8716 50.6671 48.0208 50.7217 48.1536 50.8056C48.2863 50.8894 48.3997 51.0006 48.486 51.1316C48.5723 51.2626 48.6296 51.4105 48.6542 51.5655C48.7938 52.2749 48.3903 52.9503 47.723 53.8922L47.4716 54.2391L49.2035 53.9014L49.2904 54.3321L46.8385 54.8309Z" fill="#64B663"/>
<path d="M50.1135 53.8053C50.2551 53.786 50.3944 53.7528 50.5294 53.7062C50.8227 53.6097 51.0786 53.4245 51.2619 53.1764C51.4935 52.8491 51.6033 52.4513 51.5723 52.0518H51.5537C51.47 52.2065 51.3522 52.3401 51.2092 52.4427C51.0661 52.5452 50.9016 52.6139 50.7281 52.6435C50.5747 52.6771 50.416 52.6786 50.262 52.648C50.108 52.6174 49.962 52.5553 49.8332 52.4657C49.7044 52.3761 49.5955 52.2609 49.5134 52.1273C49.4313 51.9937 49.3778 51.8446 49.3562 51.6893C49.3148 51.5138 49.3092 51.3318 49.3397 51.154C49.3702 50.9763 49.4362 50.8065 49.5338 50.6547C49.6313 50.503 49.7585 50.3724 49.9077 50.2707C50.0569 50.169 50.225 50.0983 50.4022 50.0628C51.1905 49.9079 51.8051 50.4501 51.9975 51.4353C52.0804 51.7621 52.0957 52.1024 52.0423 52.4354C51.9889 52.7683 51.8681 53.0869 51.6871 53.3716C51.4392 53.7187 51.0836 53.9746 50.6753 54.0997C50.5227 54.157 50.3646 54.1985 50.2035 54.2236L50.1135 53.8053ZM49.8652 51.5561C49.8732 51.6628 49.9039 51.7666 49.9551 51.8606C50.0063 51.9546 50.077 52.0367 50.1624 52.1014C50.2477 52.1662 50.3459 52.212 50.4504 52.2361C50.5549 52.2601 50.6633 52.2617 50.7684 52.2408C50.9203 52.2154 51.0628 52.1509 51.182 52.0536C51.3013 51.9563 51.393 51.8297 51.4481 51.6862C51.4661 51.6213 51.4661 51.5528 51.4481 51.4879C51.3178 50.8311 50.9764 50.3757 50.4301 50.481C49.9956 50.5585 49.7442 51.0015 49.8652 51.5561Z" fill="#64B663"/>
<path d="M54.6702 49.2944L54.7385 49.6383L53.7484 53.48L53.2114 53.5854L54.2108 49.8676L52.3269 50.2363L52.2275 49.7623L54.6702 49.2944Z" fill="#64B663"/>
<path d="M55.9738 52.4174C56.2635 52.5192 56.5746 52.5448 56.877 52.4918C57.5474 52.3585 57.6716 51.8907 57.6033 51.5623C57.4916 51.0232 56.9577 50.89 56.4549 50.9861L56.1631 51.0449L56.0856 50.6546L56.3773 50.5957C56.756 50.5213 57.1998 50.2332 57.1098 49.7778C57.0477 49.468 56.7994 49.2356 56.3183 49.3286C56.0444 49.3925 55.7946 49.5333 55.5983 49.7344L55.3872 49.3812C55.6436 49.131 55.9669 48.9599 56.3183 48.8886C57.0788 48.7399 57.5133 49.121 57.6033 49.5888C57.6411 49.7972 57.6097 50.0123 57.5139 50.2013C57.4181 50.3903 57.2632 50.5429 57.0726 50.636C57.3179 50.6229 57.5598 50.6983 57.7541 50.8485C57.9484 50.9986 58.0821 51.2135 58.1309 51.4539C58.252 52.0735 57.8764 52.6931 56.9515 52.8852C56.6006 52.9599 56.236 52.9385 55.8962 52.8233L55.9738 52.4174Z" fill="#64B663"/>
<g opacity="0.24">
<path opacity="0.24" d="M105.847 37.3388V34.3956C101.812 34.0703 99.4656 31.7745 99.1304 28.6671H102.085C102.523 30.6747 103.966 31.8396 105.847 32.1308V24.2987C101.381 23.0068 99.6394 21.3896 99.6394 18.3813C99.6394 15.1127 102.259 12.944 105.847 12.7179V10.5182H107.759V12.7488C112.225 13.1702 113.656 15.9523 113.87 17.9599H110.984C110.614 16.6339 109.807 15.3389 107.759 14.9826V22.0371C112.899 23.4591 114.376 25.5287 114.376 28.41C114.376 32.0007 111.893 34.1043 107.759 34.3956V37.3388H105.847ZM105.847 21.4856V14.9175C103.429 15.1127 102.557 16.5038 102.557 18.056C102.557 19.6081 103.33 20.6398 105.847 21.4856ZM107.759 24.8502V32.1618C110.077 31.9356 111.319 30.8048 111.319 28.7012C111.319 26.9848 110.546 25.7889 107.759 24.8502Z" fill="#64B663"/>
</g>
<path d="M106.772 37.1158V34.1694C102.737 33.8596 100.394 31.5515 100.059 28.4441H103.013C103.448 30.4517 104.891 31.6166 106.772 31.9078V24.0757C102.309 22.7838 100.565 21.1665 100.565 18.1582C100.565 14.8897 103.184 12.721 106.772 12.4948V10.2952H108.687V12.5258C113.153 12.9472 114.584 15.7293 114.798 17.7369H111.912C111.539 16.4109 110.736 15.1159 108.687 14.7596V21.8141C113.824 23.2361 115.301 25.3057 115.301 28.1869C115.301 31.7777 112.818 33.8813 108.687 34.1694V37.1158H106.772ZM106.772 21.2626V14.6945C104.354 14.8897 103.482 16.2808 103.482 17.8329C103.482 19.3851 104.255 20.4199 106.772 21.2595V21.2626ZM108.687 24.6272V31.9388C111.006 31.7126 112.244 30.5787 112.244 28.4782C112.244 26.7618 111.474 25.5659 108.687 24.6272Z" fill="white"/>
<g opacity="0.24">
<path opacity="0.24" d="M73.419 38.5162V36.614C70.818 36.4033 69.3003 34.9193 69.0737 32.9148H70.9825C71.0963 33.4968 71.3929 34.0275 71.8294 34.4297C72.2658 34.832 72.8194 35.0848 73.4097 35.1516V30.0924C70.5263 29.259 69.3996 28.2118 69.3996 26.2693C69.3996 24.1594 71.0912 22.7591 73.4097 22.6135V21.1914H74.6512V22.6351C77.5377 22.9047 78.4688 24.7016 78.5992 25.9997H76.7369C76.6337 25.5025 76.3775 25.0498 76.0042 24.7049C75.6308 24.36 75.1589 24.1401 74.6543 24.0758V28.63C77.9722 29.5595 78.9282 30.8886 78.9282 32.7475C78.9282 35.068 77.3235 36.425 74.6543 36.614V38.5162H73.419ZM73.419 28.2923V24.0479C71.8671 24.1718 71.2929 25.0703 71.2929 26.0741C71.2929 27.0779 71.7802 27.7316 73.419 28.2769V28.2923ZM74.6605 30.461V35.1702C76.1596 35.0246 76.9604 34.2934 76.9604 32.9365C76.9542 31.8273 76.4545 31.0559 74.6543 30.4487L74.6605 30.461Z" fill="#64B663"/>
</g>
<path d="M74.0181 38.3705V36.4683C71.4172 36.2607 69.8994 34.7767 69.6729 32.7691H71.5786C71.6924 33.3516 71.9895 33.8826 72.4266 34.2849C72.8637 34.6872 73.418 34.9398 74.0088 35.006V29.9498C71.1254 29.1133 69.9956 28.0692 69.9956 26.1267C69.9956 24.0168 71.6872 22.6165 74.0088 22.4678V21.0488H75.2503V22.4988C78.1368 22.7714 79.0679 24.5683 79.1983 25.8633H77.336C77.2314 25.3671 76.9747 24.9156 76.6016 24.5714C76.2284 24.2273 75.7573 24.0075 75.2534 23.9425V28.4968C78.5713 29.4262 79.5273 30.7522 79.5273 32.6111C79.5273 34.9316 77.9227 36.2917 75.2534 36.4776V38.3798L74.0181 38.3705ZM74.0181 28.1467V23.8898C72.4662 24.0168 71.892 24.9153 71.892 25.916C71.892 26.9167 72.4011 27.589 74.0181 28.1312V28.1467ZM75.2596 30.3154V35.0369C76.7556 34.8913 77.5595 34.1602 77.5595 32.8001C77.5533 31.6847 77.0567 30.9102 75.2534 30.3061L75.2596 30.3154Z" fill="white"/>
<g opacity="0.24">
<path opacity="0.24" d="M53.093 24.8161V23.2081C50.8924 23.0284 49.6074 21.7737 49.4243 20.079H51.0383C51.1339 20.5716 51.385 21.0208 51.7546 21.3608C52.1243 21.7009 52.5933 21.9139 53.093 21.9689V17.6903C50.6534 16.984 49.6974 16.101 49.6974 14.4559C49.6974 12.6714 51.1283 11.4848 53.093 11.3577V10.1619H54.1389V11.3794C56.5785 11.6087 57.3668 13.1299 57.4786 14.2266H55.8988C55.8113 13.8065 55.5947 13.4241 55.2793 13.1326C54.9639 12.841 54.5653 12.6549 54.1389 12.6001V16.4542C56.9323 17.2318 57.7517 18.3626 57.7517 19.9365C57.7517 21.8976 56.3954 23.0346 54.1389 23.2081V24.8161H53.093ZM53.093 16.1413V12.566C51.7708 12.6714 51.2959 13.4304 51.2959 14.2793C51.2959 15.1282 51.718 15.6828 53.093 16.1537V16.1413ZM54.1389 17.9785V21.9751C55.4053 21.8512 56.0819 21.2315 56.0819 20.0821C56.0819 19.1589 55.6629 18.5052 54.1389 17.9909V17.9785Z" fill="#64B663"/>
</g>
<path d="M53.5993 24.6923V23.0844C51.3987 22.9078 50.1138 21.653 49.9307 19.9552H51.5446C51.6401 20.4482 51.891 20.8978 52.2607 21.2384C52.6303 21.5789 53.0994 21.7926 53.5993 21.8482V17.5697C51.1598 16.8633 50.2069 15.9772 50.2069 14.3352C50.2069 12.5476 51.6377 11.3641 53.5993 11.2371V10.0381H54.6453V11.2588C57.0848 11.488 57.8732 13.0092 57.9849 14.1028H56.4082C56.3195 13.6831 56.1022 13.3012 55.7863 13.0103C55.4704 12.7194 55.0716 12.5339 54.6453 12.4794V16.3304C57.4387 17.108 58.2612 18.242 58.2612 19.8158C58.2612 21.7769 56.9017 22.914 54.6453 23.0844V24.6923H53.5993ZM53.5993 16.033V12.4422C52.2771 12.5476 51.8022 13.3097 51.8022 14.1586C51.8022 15.0075 52.2274 15.5714 53.5993 16.033ZM54.6453 17.8702V21.8792C55.9116 21.7584 56.5913 21.1387 56.5913 19.9893C56.5913 19.0382 56.1692 18.3814 54.6453 17.8702Z" fill="white"/>
</g>
<defs>
<linearGradient id="paint0_linear" x1="27.3413" y1="39.1976" x2="53.1211" y2="39.1976" gradientUnits="userSpaceOnUse">
<stop stop-color="#010101" stop-opacity="0"/>
<stop offset="0.95" stop-color="#010101"/>
</linearGradient>
<linearGradient id="paint1_linear" x1="18777.5" y1="12905.3" x2="17931.3" y2="50038.2" gradientUnits="userSpaceOnUse">
<stop stop-color="#010101" stop-opacity="0"/>
<stop offset="0.95" stop-color="#010101"/>
</linearGradient>
<linearGradient id="paint2_linear" x1="11044.9" y1="12347.3" x2="16657.3" y2="13067.9" gradientUnits="userSpaceOnUse">
<stop stop-color="#010101" stop-opacity="0"/>
<stop offset="0.95" stop-color="#010101"/>
</linearGradient>
<linearGradient id="paint3_linear" x1="4933.09" y1="823.396" x2="4666.07" y2="1198.46" gradientUnits="userSpaceOnUse">
<stop stop-color="#010101" stop-opacity="0"/>
<stop offset="0.95" stop-color="#010101"/>
</linearGradient>
<linearGradient id="paint4_linear" x1="76.3836" y1="128.012" x2="95.919" y2="34.4032" gradientUnits="userSpaceOnUse">
<stop stop-color="#B0B0B0"/>
<stop offset="0.95" stop-color="white"/>
</linearGradient>
<linearGradient id="paint5_linear" x1="2301.88" y1="8449.07" x2="2467.05" y2="8449.07" gradientUnits="userSpaceOnUse">
<stop stop-color="#010101" stop-opacity="0"/>
<stop offset="0.95" stop-color="#010101"/>
</linearGradient>
<linearGradient id="paint6_linear" x1="97.7927" y1="82.2991" x2="113.246" y2="82.2991" gradientUnits="userSpaceOnUse">
<stop stop-color="#DDA877"/>
<stop offset="0.42" stop-color="#F1B475"/>
<stop offset="1" stop-color="#D9A677"/>
</linearGradient>
<linearGradient id="paint7_linear" x1="2638.86" y1="1434.54" x2="3068.96" y2="2809.3" gradientUnits="userSpaceOnUse">
<stop stop-color="#010101" stop-opacity="0"/>
<stop offset="0.95" stop-color="#010101"/>
</linearGradient>
<linearGradient id="paint8_linear" x1="3929.3" y1="10339.8" x2="6167.63" y2="10339.8" gradientUnits="userSpaceOnUse">
<stop stop-color="#DDA877"/>
<stop offset="0.42" stop-color="#DDA877"/>
<stop offset="1" stop-color="#F0E9CB"/>
</linearGradient>
<linearGradient id="paint9_linear" x1="3305.47" y1="4856.3" x2="3680.12" y2="4767.44" gradientUnits="userSpaceOnUse">
<stop stop-color="#010101" stop-opacity="0"/>
<stop offset="0.95" stop-color="#010101"/>
</linearGradient>
<linearGradient id="paint10_linear" x1="2570.6" y1="2957.86" x2="1866.48" y2="3121.95" gradientUnits="userSpaceOnUse">
<stop stop-color="#010101" stop-opacity="0"/>
<stop offset="0.95" stop-color="#010101"/>
</linearGradient>
<linearGradient id="paint11_linear" x1="1205.95" y1="319.365" x2="1221.63" y2="253.755" gradientUnits="userSpaceOnUse">
<stop stop-color="#010101" stop-opacity="0"/>
<stop offset="0.95" stop-color="#010101"/>
</linearGradient>
<linearGradient id="paint12_linear" x1="2035.07" y1="1569.05" x2="2162.77" y2="1586.95" gradientUnits="userSpaceOnUse">
<stop stop-color="#EBB176"/>
<stop offset="0.42" stop-color="#EAB076"/>
<stop offset="1" stop-color="#F0E9CB"/>
</linearGradient>
<linearGradient id="paint13_linear" x1="837.504" y1="986.366" x2="802.617" y2="935.251" gradientUnits="userSpaceOnUse">
<stop stop-color="#010101" stop-opacity="0"/>
<stop offset="0.95" stop-color="#010101"/>
</linearGradient>
<linearGradient id="paint14_linear" x1="1378.62" y1="2356.85" x2="1372.17" y2="1831.86" gradientUnits="userSpaceOnUse">
<stop stop-color="#010101" stop-opacity="0"/>
<stop offset="0.95" stop-color="#010101"/>
</linearGradient>
<linearGradient id="paint15_linear" x1="610.817" y1="329.564" x2="624.945" y2="355.598" gradientUnits="userSpaceOnUse">
<stop stop-color="#010101" stop-opacity="0"/>
<stop offset="0.95" stop-color="#010101"/>
</linearGradient>
<linearGradient id="paint16_linear" x1="712.092" y1="1382.28" x2="807.679" y2="1382.28" gradientUnits="userSpaceOnUse">
<stop stop-color="#010101" stop-opacity="0"/>
<stop offset="0.95" stop-color="#010101"/>
</linearGradient>
<linearGradient id="paint17_linear" x1="4009.49" y1="3429.86" x2="5679.23" y2="4449.32" gradientUnits="userSpaceOnUse">
<stop stop-color="#010101" stop-opacity="0"/>
<stop offset="0.95" stop-color="#010101"/>
</linearGradient>
<linearGradient id="paint18_linear" x1="4387.41" y1="2887.43" x2="4059.29" y2="3884.28" gradientUnits="userSpaceOnUse">
<stop stop-color="#010101" stop-opacity="0"/>
<stop offset="0.95" stop-color="#010101"/>
</linearGradient>
<linearGradient id="paint19_linear" x1="956.786" y1="662.888" x2="952.643" y2="684.441" gradientUnits="userSpaceOnUse">
<stop stop-color="#010101" stop-opacity="0"/>
<stop offset="0.95" stop-color="#010101"/>
</linearGradient>
<linearGradient id="paint20_linear" x1="158.994" y1="748.098" x2="185.626" y2="764.358" gradientUnits="userSpaceOnUse">
<stop stop-color="#010101" stop-opacity="0"/>
<stop offset="0.95" stop-color="#010101"/>
</linearGradient>
<linearGradient id="paint21_linear" x1="4696.45" y1="-3390.83" x2="5088.87" y2="-4232.74" gradientUnits="userSpaceOnUse">
<stop stop-color="#010101" stop-opacity="0"/>
<stop offset="0.95" stop-color="#010101"/>
</linearGradient>
<linearGradient id="paint22_linear" x1="3150.8" y1="-3146.02" x2="4478.71" y2="-3739.91" gradientUnits="userSpaceOnUse">
<stop stop-color="#010101" stop-opacity="0"/>
<stop offset="0.95" stop-color="#010101"/>
</linearGradient>
<linearGradient id="paint23_linear" x1="776.535" y1="-279.306" x2="788.042" y2="-292.521" gradientUnits="userSpaceOnUse">
<stop stop-color="#010101" stop-opacity="0"/>
<stop offset="0.95" stop-color="#010101"/>
</linearGradient>
<linearGradient id="paint24_linear" x1="2697.5" y1="-5200.93" x2="2786.95" y2="-5392.85" gradientUnits="userSpaceOnUse">
<stop stop-color="#010101" stop-opacity="0"/>
<stop offset="0.95" stop-color="#010101"/>
</linearGradient>
<clipPath id="clip0">
<rect width="158" height="124" fill="white"/>
</clipPath>
</defs>
</svg>
