<svg width="528" height="134" viewBox="0 0 528 134" fill="none" xmlns="http://www.w3.org/2000/svg">
<circle cx="54" cy="34" r="2" fill="#64B663" fill-opacity="0.48"/>
<circle cx="94" cy="18" r="6" fill="#124B88" fill-opacity="0.6"/>
<circle cx="150" cy="2" r="2" fill="#C4C4C4"/>
<circle cx="200" cy="36" r="4" fill="#124B88" fill-opacity="0.6"/>
<circle cx="292" cy="2" r="2" fill="#124B88" fill-opacity="0.6"/>
<circle cx="358" cy="28" r="6" fill="#64B663" fill-opacity="0.48"/>
<circle cx="526" cy="30" r="2" fill="#64B663" fill-opacity="0.48"/>
<circle cx="474" cy="26" r="6" fill="#124B88" fill-opacity="0.6"/>
<circle cx="428" cy="54" r="4" fill="#64B663" fill-opacity="0.48"/>
<g filter="url(#filter0_d)">
<circle cx="478.5" cy="99.5" r="22.5" fill="#8CC68E"/>
</g>
<g filter="url(#filter1_d)">
<circle cx="356" cy="101" r="22" fill="#537CA8"/>
</g>
<circle cx="42" cy="92" r="41" stroke="#828282" stroke-width="2" stroke-dasharray="8 3"/>
<path d="M21.456 106.26C21.568 106.34 21.756 106.428 22.02 106.524C22.284 106.62 22.588 106.668 22.932 106.668C23.268 106.668 23.536 106.612 23.736 106.5C23.936 106.38 24.088 106.2 24.192 105.96C24.296 105.72 24.364 105.424 24.396 105.072C24.428 104.712 24.444 104.292 24.444 103.812V99.48H26.1V103.812C26.1 104.46 26.064 105.052 25.992 105.588C25.928 106.116 25.784 106.568 25.56 106.944C25.344 107.32 25.028 107.612 24.612 107.82C24.196 108.028 23.636 108.132 22.932 108.132C22.212 108.132 21.596 107.956 21.084 107.604L21.456 106.26ZM30.7968 108.12C30.2848 108.12 29.8248 108.032 29.4168 107.856C29.0088 107.68 28.6608 107.444 28.3728 107.148C28.0928 106.844 27.8768 106.496 27.7248 106.104C27.5728 105.712 27.4968 105.3 27.4968 104.868C27.4968 104.428 27.5728 104.012 27.7248 103.62C27.8768 103.228 28.0928 102.884 28.3728 102.588C28.6608 102.284 29.0088 102.044 29.4168 101.868C29.8248 101.692 30.2848 101.604 30.7968 101.604C31.3088 101.604 31.7648 101.692 32.1648 101.868C32.5728 102.044 32.9168 102.284 33.1968 102.588C33.4848 102.884 33.7048 103.228 33.8568 103.62C34.0088 104.012 34.0848 104.428 34.0848 104.868C34.0848 105.3 34.0088 105.712 33.8568 106.104C33.7048 106.496 33.4888 106.844 33.2088 107.148C32.9288 107.444 32.5848 107.68 32.1768 107.856C31.7688 108.032 31.3088 108.12 30.7968 108.12ZM29.1528 104.868C29.1528 105.148 29.1928 105.404 29.2728 105.636C29.3608 105.86 29.4768 106.056 29.6208 106.224C29.7728 106.392 29.9488 106.524 30.1488 106.62C30.3488 106.708 30.5648 106.752 30.7968 106.752C31.0288 106.752 31.2448 106.708 31.4448 106.62C31.6448 106.524 31.8168 106.392 31.9608 106.224C32.1128 106.056 32.2288 105.856 32.3088 105.624C32.3968 105.392 32.4408 105.136 32.4408 104.856C32.4408 104.584 32.3968 104.332 32.3088 104.1C32.2288 103.868 32.1128 103.668 31.9608 103.5C31.8168 103.332 31.6448 103.204 31.4448 103.116C31.2448 103.02 31.0288 102.972 30.7968 102.972C30.5648 102.972 30.3488 103.02 30.1488 103.116C29.9488 103.212 29.7728 103.344 29.6208 103.512C29.4768 103.68 29.3608 103.88 29.2728 104.112C29.1928 104.344 29.1528 104.596 29.1528 104.868ZM35.5301 108V101.712H37.1381V108H35.5301ZM35.5301 100.836V99.24H37.1381V100.836H35.5301ZM44.7927 108H43.1847V104.472C43.1847 103.968 43.0967 103.6 42.9207 103.368C42.7447 103.136 42.5007 103.02 42.1887 103.02C42.0287 103.02 41.8647 103.052 41.6967 103.116C41.5287 103.18 41.3687 103.272 41.2167 103.392C41.0727 103.504 40.9407 103.64 40.8207 103.8C40.7007 103.96 40.6127 104.136 40.5567 104.328V108H38.9487V101.712H40.4007V102.876C40.6327 102.476 40.9687 102.164 41.4087 101.94C41.8487 101.716 42.3447 101.604 42.8967 101.604C43.2887 101.604 43.6087 101.676 43.8567 101.82C44.1047 101.964 44.2967 102.152 44.4327 102.384C44.5687 102.616 44.6607 102.88 44.7087 103.176C44.7647 103.472 44.7927 103.772 44.7927 104.076V108ZM53.5497 106.596C53.9417 106.596 54.2697 106.516 54.5337 106.356C54.8057 106.196 55.0217 105.988 55.1817 105.732C55.3497 105.476 55.4657 105.184 55.5297 104.856C55.6017 104.52 55.6377 104.176 55.6377 103.824V99.48H57.2817V103.824C57.2817 104.408 57.2097 104.956 57.0657 105.468C56.9297 105.98 56.7097 106.428 56.4057 106.812C56.1097 107.196 55.7257 107.5 55.2537 107.724C54.7817 107.948 54.2177 108.06 53.5617 108.06C52.8817 108.06 52.3017 107.944 51.8217 107.712C51.3497 107.472 50.9657 107.16 50.6697 106.776C50.3737 106.384 50.1577 105.932 50.0217 105.42C49.8937 104.908 49.8297 104.376 49.8297 103.824V99.48H51.4857V103.824C51.4857 104.184 51.5177 104.532 51.5817 104.868C51.6537 105.196 51.7697 105.488 51.9297 105.744C52.0977 106 52.3137 106.208 52.5777 106.368C52.8417 106.52 53.1657 106.596 53.5497 106.596ZM61.3891 108.12C60.8611 108.12 60.3451 108.036 59.8411 107.868C59.3371 107.7 58.9051 107.46 58.5451 107.148L59.1451 106.14C59.5291 106.412 59.9011 106.62 60.2611 106.764C60.6291 106.9 60.9931 106.968 61.3531 106.968C61.6731 106.968 61.9251 106.908 62.1091 106.788C62.2931 106.668 62.3851 106.496 62.3851 106.272C62.3851 106.048 62.2771 105.884 62.0611 105.78C61.8451 105.676 61.4931 105.556 61.0051 105.42C60.5971 105.308 60.2491 105.2 59.9611 105.096C59.6731 104.992 59.4411 104.876 59.2651 104.748C59.0891 104.612 58.9611 104.46 58.8811 104.292C58.8011 104.116 58.7611 103.908 58.7611 103.668C58.7611 103.348 58.8211 103.06 58.9411 102.804C59.0691 102.548 59.2451 102.332 59.4691 102.156C59.6931 101.972 59.9531 101.832 60.2491 101.736C60.5531 101.64 60.8811 101.592 61.2331 101.592C61.7051 101.592 62.1451 101.66 62.5531 101.796C62.9691 101.932 63.3491 102.152 63.6931 102.456L63.0451 103.428C62.7251 103.188 62.4131 103.012 62.1091 102.9C61.8131 102.788 61.5171 102.732 61.2211 102.732C60.9491 102.732 60.7211 102.788 60.5371 102.9C60.3531 103.012 60.2611 103.192 60.2611 103.44C60.2611 103.552 60.2811 103.644 60.3211 103.716C60.3691 103.788 60.4411 103.852 60.5371 103.908C60.6331 103.964 60.7571 104.02 60.9091 104.076C61.0691 104.124 61.2651 104.176 61.4971 104.232C61.9291 104.344 62.2971 104.456 62.6011 104.568C62.9131 104.68 63.1651 104.808 63.3571 104.952C63.5571 105.096 63.7011 105.264 63.7891 105.456C63.8851 105.64 63.9331 105.864 63.9331 106.128C63.9331 106.744 63.7051 107.232 63.2491 107.592C62.7931 107.944 62.1731 108.12 61.3891 108.12Z" fill="#828282"/>
<g clip-path="url(#clip0)">
<path d="M48.3488 82.1628H43.8372V77.6512C43.8372 77.4456 43.5581 77 43 77C42.4418 77 42.1628 77.4457 42.1628 77.6512V82.1628H37.6512C37.4457 82.1628 37 82.4418 37 83C37 83.5581 37.4457 83.8372 37.6512 83.8372H42.1628V88.3488C42.1628 88.5543 42.4418 89 43 89C43.5582 89 43.8372 88.5543 43.8372 88.3488V83.8372H48.3488C48.5543 83.8372 49 83.5581 49 83C49 82.4418 48.5543 82.1628 48.3488 82.1628Z" fill="#828282"/>
</g>
<g filter="url(#filter2_d)">
<circle cx="152" cy="88" r="32" fill="#6F91B5"/>
</g>
<g filter="url(#filter3_d)">
<circle cx="259" cy="100" r="17" fill="#8EC98D"/>
</g>
<defs>
<filter id="filter0_d" x="448" y="70" width="61" height="61" filterUnits="userSpaceOnUse" color-interpolation-filters="sRGB">
<feFlood flood-opacity="0" result="BackgroundImageFix"/>
<feColorMatrix in="SourceAlpha" type="matrix" values="0 0 0 0 0 0 0 0 0 0 0 0 0 0 0 0 0 0 127 0"/>
<feOffset dy="1"/>
<feGaussianBlur stdDeviation="4"/>
<feColorMatrix type="matrix" values="0 0 0 0 0.392157 0 0 0 0 0.713726 0 0 0 0 0.388235 0 0 0 0.16 0"/>
<feBlend mode="normal" in2="BackgroundImageFix" result="effect1_dropShadow"/>
<feBlend mode="normal" in="SourceGraphic" in2="effect1_dropShadow" result="shape"/>
</filter>
<filter id="filter1_d" x="326" y="72" width="60" height="60" filterUnits="userSpaceOnUse" color-interpolation-filters="sRGB">
<feFlood flood-opacity="0" result="BackgroundImageFix"/>
<feColorMatrix in="SourceAlpha" type="matrix" values="0 0 0 0 0 0 0 0 0 0 0 0 0 0 0 0 0 0 127 0"/>
<feOffset dy="1"/>
<feGaussianBlur stdDeviation="4"/>
<feColorMatrix type="matrix" values="0 0 0 0 0.392157 0 0 0 0 0.713726 0 0 0 0 0.388235 0 0 0 0.16 0"/>
<feBlend mode="normal" in2="BackgroundImageFix" result="effect1_dropShadow"/>
<feBlend mode="normal" in="SourceGraphic" in2="effect1_dropShadow" result="shape"/>
</filter>
<filter id="filter2_d" x="112" y="49" width="80" height="80" filterUnits="userSpaceOnUse" color-interpolation-filters="sRGB">
<feFlood flood-opacity="0" result="BackgroundImageFix"/>
<feColorMatrix in="SourceAlpha" type="matrix" values="0 0 0 0 0 0 0 0 0 0 0 0 0 0 0 0 0 0 127 0"/>
<feOffset dy="1"/>
<feGaussianBlur stdDeviation="4"/>
<feColorMatrix type="matrix" values="0 0 0 0 0.392157 0 0 0 0 0.713726 0 0 0 0 0.388235 0 0 0 0.16 0"/>
<feBlend mode="normal" in2="BackgroundImageFix" result="effect1_dropShadow"/>
<feBlend mode="normal" in="SourceGraphic" in2="effect1_dropShadow" result="shape"/>
</filter>
<filter id="filter3_d" x="234" y="76" width="50" height="50" filterUnits="userSpaceOnUse" color-interpolation-filters="sRGB">
<feFlood flood-opacity="0" result="BackgroundImageFix"/>
<feColorMatrix in="SourceAlpha" type="matrix" values="0 0 0 0 0 0 0 0 0 0 0 0 0 0 0 0 0 0 127 0"/>
<feOffset dy="1"/>
<feGaussianBlur stdDeviation="4"/>
<feColorMatrix type="matrix" values="0 0 0 0 0.392157 0 0 0 0 0.713726 0 0 0 0 0.388235 0 0 0 0.16 0"/>
<feBlend mode="normal" in2="BackgroundImageFix" result="effect1_dropShadow"/>
<feBlend mode="normal" in="SourceGraphic" in2="effect1_dropShadow" result="shape"/>
</filter>
<clipPath id="clip0">
<rect width="12" height="12" fill="white" transform="translate(37 77)"/>
</clipPath>
</defs>
</svg>
