<svg width="32" height="32" viewBox="0 0 32 32" fill="none" xmlns="http://www.w3.org/2000/svg">
<path d="M15.9999 0C24.837 0 32 7.164 32 16.0001C32 24.8371 24.837 32 15.9999 32C7.1629 32 0 24.837 0 16.0001C0 7.164 7.16301 0 15.9999 0Z" fill="#26A6D1"/>
<path d="M26.003 10.7789C25.3041 11.0808 24.552 11.2838 23.7631 11.3759C24.5691 10.9068 25.1871 10.1658 25.4781 9.28091C24.7241 9.7159 23.8901 10.0309 23.0011 10.1999C22.2901 9.4649 21.2771 9.00586 20.1551 9.00586C18.0031 9.00586 16.2571 10.6989 16.2571 12.7888C16.2571 13.0858 16.2912 13.3748 16.3581 13.6519C13.1181 13.4939 10.2441 11.9868 8.32212 9.69788C7.98611 10.2569 7.7941 10.9059 7.7941 11.5999C7.7941 12.9118 8.48206 14.0718 9.52811 14.7489C8.88816 14.7289 8.28807 14.5599 7.76114 14.2749V14.3229C7.76114 16.1569 9.1051 17.6859 10.8891 18.0339C10.5621 18.1199 10.2181 18.1669 9.86204 18.1669C9.61105 18.1669 9.36708 18.144 9.12905 18.099C9.625 19.603 11.0651 20.6969 12.7721 20.727C11.4371 21.743 9.75604 22.347 7.9291 22.347C7.61406 22.347 7.30408 22.329 6.99805 22.2941C8.72504 23.368 10.7731 23.995 12.976 23.995C20.1481 23.995 24.0701 18.227 24.0701 13.227L24.0591 12.737C24.819 12.2049 25.4801 11.5389 26.003 10.7789Z" fill="white"/>
</svg>
