<svg width="44" height="44" viewBox="0 0 44 44" fill="none" xmlns="http://www.w3.org/2000/svg">
<path d="M21.9999 0C34.1509 0 44 9.85049 44 22.0001C44 34.151 34.1509 44 21.9999 44C9.84898 44 0 34.1509 0 22.0001C0 9.85049 9.84913 0 21.9999 0Z" fill="#26A6D1"/>
<path d="M35.7539 14.8209C34.7929 15.2361 33.7587 15.5153 32.674 15.6418C33.7823 14.9969 34.632 13.978 35.0321 12.7613C33.9954 13.3594 32.8486 13.7925 31.6262 14.0248C30.6486 13.0142 29.2557 12.3831 27.713 12.3831C24.754 12.3831 22.3533 14.711 22.3533 17.5846C22.3533 17.993 22.4001 18.3904 22.4921 18.7713C18.0371 18.5541 14.0854 16.4819 11.4427 13.3346C10.9807 14.1032 10.7166 14.9955 10.7166 15.9498C10.7166 17.7538 11.6626 19.3487 13.1009 20.2797C12.221 20.2522 11.3959 20.0198 10.6713 19.628V19.694C10.6713 22.2157 12.5193 24.3182 14.9723 24.7967C14.5226 24.9149 14.0496 24.9796 13.5601 24.9796C13.2149 24.9796 12.8795 24.948 12.5522 24.8861C13.2341 26.9541 15.2142 28.4582 17.5613 28.4996C15.7258 29.8966 13.4143 30.7271 10.9023 30.7271C10.4691 30.7271 10.0429 30.7024 9.62207 30.6543C11.9967 32.131 14.8128 32.9931 17.8418 32.9931C27.7033 32.9931 33.0961 25.0622 33.0961 18.1871L33.081 17.5133C34.1259 16.7817 35.0348 15.866 35.7539 14.8209Z" fill="white"/>
</svg>
