<svg width="52" height="24" viewBox="0 0 52 24" fill="none" xmlns="http://www.w3.org/2000/svg">
<rect width="52" height="24" rx="12" fill="#E0E0E0"/>
<path d="M13.91 16V14.628H14.736V16H13.91ZM17.3183 16V6.06H21.4343C21.8637 6.06 22.2557 6.15333 22.6103 6.34C22.9743 6.51733 23.287 6.75533 23.5483 7.054C23.8097 7.34333 24.015 7.67467 24.1643 8.048C24.3137 8.42133 24.3883 8.79933 24.3883 9.182C24.3883 9.59267 24.3183 9.98933 24.1783 10.372C24.0383 10.7453 23.8423 11.0767 23.5903 11.366C23.3383 11.6553 23.035 11.8887 22.6803 12.066C22.335 12.2433 21.9477 12.332 21.5183 12.332H18.2983V16H17.3183ZM18.2983 11.464H21.4763C21.7657 11.464 22.027 11.4033 22.2603 11.282C22.503 11.1513 22.7083 10.9833 22.8763 10.778C23.0443 10.5633 23.175 10.3207 23.2683 10.05C23.3617 9.77 23.4083 9.48067 23.4083 9.182C23.4083 8.874 23.3523 8.58467 23.2403 8.314C23.1377 8.034 22.993 7.79133 22.8063 7.586C22.629 7.38067 22.4143 7.222 22.1623 7.11C21.9197 6.98867 21.663 6.928 21.3923 6.928H18.2983V11.464ZM29.138 16.14C28.634 16.14 28.1673 16.0373 27.738 15.832C27.3086 15.6173 26.94 15.3373 26.632 14.992C26.324 14.6467 26.0813 14.25 25.904 13.802C25.736 13.3447 25.652 12.8687 25.652 12.374C25.652 11.8607 25.736 11.3753 25.904 10.918C26.072 10.4513 26.3006 10.0453 26.59 9.7C26.8886 9.35467 27.2386 9.084 27.64 8.888C28.0506 8.68267 28.4986 8.58 28.984 8.58C29.6 8.58 30.146 8.74333 30.622 9.07C31.098 9.38733 31.4713 9.77467 31.742 10.232V5.78H32.694V14.768C32.694 15.0293 32.806 15.16 33.03 15.16V16C32.89 16.028 32.778 16.042 32.694 16.042C32.47 16.042 32.274 15.972 32.106 15.832C31.938 15.6827 31.854 15.5053 31.854 15.3V14.586C31.5646 15.062 31.1726 15.44 30.678 15.72C30.1833 16 29.67 16.14 29.138 16.14ZM29.348 15.3C29.5813 15.3 29.8286 15.2533 30.09 15.16C30.3606 15.0667 30.6126 14.9407 30.846 14.782C31.0793 14.614 31.2753 14.4227 31.434 14.208C31.602 13.984 31.7046 13.746 31.742 13.494V11.24C31.6486 10.988 31.5133 10.7547 31.336 10.54C31.1586 10.316 30.9533 10.12 30.72 9.952C30.496 9.784 30.2533 9.65333 29.992 9.56C29.7306 9.46667 29.474 9.42 29.222 9.42C28.83 9.42 28.4753 9.504 28.158 9.672C27.8406 9.84 27.5653 10.064 27.332 10.344C27.108 10.6147 26.9353 10.9273 26.814 11.282C26.6926 11.6367 26.632 12.0007 26.632 12.374C26.632 12.766 26.702 13.1393 26.842 13.494C26.982 13.8487 27.1733 14.1613 27.416 14.432C27.6586 14.6933 27.9433 14.9033 28.27 15.062C28.606 15.2207 28.9653 15.3 29.348 15.3ZM35.6209 16V9.462H34.6129V8.706H35.6209V8.51C35.6209 7.614 35.8123 6.914 36.1949 6.41C36.5776 5.89667 37.1003 5.64 37.7629 5.64C38.0523 5.64 38.3323 5.682 38.6029 5.766C38.8736 5.85 39.1069 5.962 39.3029 6.102L39.0089 6.788C38.8783 6.68533 38.7149 6.606 38.5189 6.55C38.3323 6.494 38.1409 6.466 37.9449 6.466C37.4969 6.466 37.1563 6.63867 36.9229 6.984C36.6896 7.32933 36.5729 7.82867 36.5729 8.482V8.706H38.5889V9.462H36.5729V16H35.6209Z" fill="black"/>
</svg>
