<svg width="16" height="16" viewBox="0 0 16 16" fill="none" xmlns="http://www.w3.org/2000/svg">
<path d="M15.3039 8.67848C14.8399 8.09793 14.247 7.72164 13.5246 7.54938C13.7526 7.20496 13.8662 6.82161 13.8662 6.39941C13.8662 5.81049 13.6579 5.30776 13.2414 4.89105C12.8248 4.47448 12.322 4.26611 11.7331 4.26611C11.2053 4.26611 10.7442 4.43835 10.3499 4.78282C10.0222 3.98279 9.49844 3.34115 8.77908 2.85789C8.05972 2.37449 7.26663 2.13281 6.39987 2.13281C5.22218 2.13281 4.21657 2.54958 3.38323 3.38292C2.54984 4.21606 2.13327 5.22172 2.13327 6.3995C2.13327 6.47171 2.13885 6.59118 2.14994 6.75778C1.49441 7.06334 0.972242 7.52165 0.583258 8.1327C0.194419 8.74392 0 9.41044 0 10.1328C0 11.1606 0.365342 12.0396 1.09582 12.7702C1.82633 13.5009 2.70552 13.8661 3.73328 13.8661H12.8C13.6832 13.8661 14.4373 13.5535 15.0624 12.9286C15.6874 12.3037 16 11.5496 16 10.6661C15.9999 9.92164 15.7679 9.25919 15.3039 8.67848ZM10.5872 8.45361C10.5343 8.50627 10.472 8.53263 10.3998 8.53263H8.5332V11.466C8.5332 11.5382 8.50684 11.6007 8.45407 11.6534C8.40115 11.7064 8.33881 11.7326 8.26669 11.7326H6.66644C6.59423 11.7326 6.53174 11.7064 6.47897 11.6534C6.42631 11.6007 6.39981 11.5382 6.39981 11.466V8.53263H4.53314C4.45544 8.53263 4.39149 8.50767 4.34158 8.45782C4.29158 8.40779 4.26663 8.34387 4.26663 8.26617C4.26663 8.19945 4.29436 8.13272 4.34987 8.06609L7.27486 5.14119C7.32486 5.09116 7.38878 5.06618 7.46654 5.06618C7.54435 5.06618 7.60827 5.09116 7.65821 5.14119L10.5915 8.07441C10.6416 8.12438 10.6663 8.18827 10.6663 8.2662C10.6663 8.33826 10.6399 8.40099 10.5872 8.45361Z" fill="#858585"/>
</svg>
