<svg width="156" height="116" viewBox="0 0 156 116" fill="none" xmlns="http://www.w3.org/2000/svg">
<g clip-path="url(#clip0)">
<path opacity="0.1" d="M78 116C121.078 116 156 111.604 156 106.182C156 100.76 121.078 96.3638 78 96.3638C34.9218 96.3638 0 100.76 0 106.182C0 111.604 34.9218 116 78 116Z" fill="#389168"/>
<path d="M133.464 110.995C133.464 110.995 137.531 105.634 137.202 100.316C137.05 98.0857 137.601 95.8651 138.772 93.9868C139.335 93.1004 139.975 92.2686 140.683 91.5016" stroke="#535461" stroke-width="2" stroke-miterlimit="10"/>
<path d="M140.496 88.1495C140.209 88.8936 140.679 91.5898 140.679 91.5898C140.679 91.5898 142.813 89.97 143.099 89.2245C143.167 89.0475 143.201 88.8584 143.198 88.6679C143.196 88.4774 143.157 88.2893 143.085 88.1143C143.012 87.9393 142.907 87.7808 142.775 87.6478C142.643 87.5149 142.487 87.4102 142.317 87.3396C142.146 87.269 141.963 87.234 141.779 87.2365C141.595 87.239 141.413 87.2789 141.244 87.3541C141.075 87.4293 140.922 87.5383 140.794 87.6747C140.666 87.8112 140.564 87.9725 140.496 88.1495Z" fill="#389168"/>
<path d="M136.755 91.3846C136.905 92.1706 138.709 94.1689 138.709 94.1689C138.709 94.1689 139.649 91.6085 139.5 90.8211C139.428 90.4434 139.214 90.1109 138.905 89.8967C138.596 89.6825 138.217 89.6041 137.853 89.6789C137.488 89.7536 137.167 89.9753 136.96 90.2952C136.753 90.615 136.678 91.0069 136.75 91.3846H136.755Z" fill="#389168"/>
<path d="M134.134 98.469C134.647 99.0701 137.184 99.8489 137.184 99.8489C137.184 99.8489 136.747 97.1469 136.234 96.5458C135.987 96.2575 135.64 96.0822 135.269 96.0586C134.898 96.0351 134.533 96.1651 134.255 96.4201C133.976 96.6751 133.807 97.0343 133.784 97.4185C133.762 97.8028 133.887 98.1806 134.134 98.469Z" fill="#389168"/>
<path d="M133.317 104.292C133.725 104.974 136.097 106.186 136.097 106.186C136.097 106.186 136.108 103.441 135.7 102.765C135.505 102.437 135.192 102.204 134.83 102.116C134.468 102.028 134.087 102.092 133.771 102.294C133.455 102.497 133.23 102.821 133.145 103.196C133.06 103.57 133.122 103.965 133.317 104.292Z" fill="#389168"/>
<path d="M141.392 95.4433C140.676 95.7482 138.067 95.2988 138.067 95.2988C138.067 95.2988 139.602 93.0708 140.323 92.7659C140.667 92.6191 141.053 92.6197 141.396 92.7675C141.739 92.9154 142.012 93.1983 142.153 93.5541C142.295 93.9099 142.294 94.3095 142.152 94.6648C142.009 95.0202 141.736 95.3023 141.392 95.4491V95.4433Z" fill="#389168"/>
<path d="M140.352 102.24C139.582 102.311 137.224 101.068 137.224 101.068C137.224 101.068 139.337 99.4197 140.108 99.3489C140.478 99.3154 140.846 99.4355 141.131 99.6827C141.415 99.93 141.593 100.284 141.626 100.667C141.658 101.051 141.542 101.431 141.303 101.726C141.065 102.021 140.723 102.205 140.352 102.239V102.24Z" fill="#389168"/>
<path d="M138.467 108.705C137.718 108.908 135.191 108.096 135.191 108.096C135.191 108.096 137.005 106.101 137.754 105.897C138.114 105.799 138.496 105.853 138.817 106.047C139.138 106.241 139.372 106.559 139.467 106.932C139.561 107.304 139.509 107.7 139.322 108.032C139.134 108.365 138.827 108.607 138.467 108.705Z" fill="#389168"/>
<path opacity="0.25" d="M140.496 88.1495C140.209 88.8936 140.679 91.5898 140.679 91.5898C140.679 91.5898 142.813 89.97 143.099 89.2245C143.167 89.0475 143.201 88.8584 143.198 88.6679C143.196 88.4774 143.157 88.2893 143.085 88.1143C143.012 87.9393 142.907 87.7808 142.775 87.6478C142.643 87.5149 142.487 87.4102 142.317 87.3396C142.146 87.269 141.963 87.234 141.779 87.2365C141.595 87.239 141.413 87.2789 141.244 87.3541C141.075 87.4293 140.922 87.5383 140.794 87.6747C140.666 87.8112 140.564 87.9725 140.496 88.1495Z" fill="black"/>
<path opacity="0.25" d="M136.755 91.3846C136.905 92.1706 138.709 94.1689 138.709 94.1689C138.709 94.1689 139.649 91.6085 139.5 90.8211C139.428 90.4434 139.214 90.1109 138.905 89.8967C138.596 89.6825 138.217 89.6041 137.853 89.6789C137.488 89.7536 137.167 89.9753 136.96 90.2952C136.753 90.615 136.678 91.0069 136.75 91.3846H136.755Z" fill="black"/>
<path opacity="0.25" d="M134.134 98.469C134.647 99.0701 137.184 99.8489 137.184 99.8489C137.184 99.8489 136.747 97.1469 136.234 96.5458C135.987 96.2575 135.64 96.0822 135.269 96.0586C134.898 96.0351 134.533 96.1651 134.255 96.4201C133.976 96.6751 133.807 97.0343 133.784 97.4185C133.762 97.8028 133.887 98.1806 134.134 98.469Z" fill="black"/>
<path opacity="0.25" d="M133.317 104.292C133.725 104.974 136.097 106.186 136.097 106.186C136.097 106.186 136.108 103.441 135.7 102.765C135.505 102.437 135.192 102.204 134.83 102.116C134.468 102.028 134.087 102.092 133.771 102.294C133.455 102.497 133.23 102.821 133.145 103.196C133.06 103.57 133.122 103.965 133.317 104.292Z" fill="black"/>
<path opacity="0.25" d="M141.392 95.4433C140.676 95.7482 138.067 95.2988 138.067 95.2988C138.067 95.2988 139.602 93.0708 140.323 92.7659C140.667 92.6191 141.053 92.6197 141.396 92.7675C141.739 92.9154 142.012 93.1983 142.153 93.5541C142.295 93.9099 142.294 94.3095 142.152 94.6648C142.009 95.0202 141.736 95.3023 141.392 95.4491V95.4433Z" fill="black"/>
<path opacity="0.25" d="M140.352 102.24C139.582 102.311 137.224 101.068 137.224 101.068C137.224 101.068 139.337 99.4197 140.108 99.3489C140.478 99.3154 140.846 99.4355 141.131 99.6827C141.415 99.93 141.593 100.284 141.626 100.667C141.658 101.051 141.542 101.431 141.303 101.726C141.065 102.021 140.723 102.205 140.352 102.239V102.24Z" fill="black"/>
<path opacity="0.25" d="M138.467 108.705C137.718 108.908 135.191 108.096 135.191 108.096C135.191 108.096 137.005 106.101 137.754 105.897C138.114 105.799 138.496 105.853 138.817 106.047C139.138 106.241 139.372 106.559 139.467 106.932C139.561 107.304 139.509 107.7 139.322 108.032C139.134 108.365 138.827 108.607 138.467 108.705Z" fill="black"/>
<path d="M133.497 110.771C133.497 110.771 139.314 107.578 141.095 102.578C141.828 100.476 143.199 98.6773 145.002 97.4502C145.864 96.8754 146.774 96.3835 147.723 95.9807" stroke="#535461" stroke-width="2" stroke-miterlimit="10"/>
<path d="M148.867 92.8367C148.309 93.3973 147.688 96.0588 147.688 96.0588C147.688 96.0588 150.272 95.4722 150.826 94.913C150.958 94.7802 151.063 94.6218 151.135 94.4469C151.208 94.272 151.246 94.0841 151.249 93.8937C151.251 93.7034 151.217 93.5145 151.149 93.3377C151.081 93.1609 150.98 92.9997 150.852 92.8634C150.724 92.7271 150.571 92.6182 150.402 92.5431C150.233 92.468 150.051 92.428 149.867 92.4255C149.496 92.4205 149.138 92.5684 148.873 92.8367H148.867Z" fill="#389168"/>
<path d="M144.181 94.2238C144.011 95.0054 144.879 97.5933 144.879 97.5933C144.879 97.5933 146.74 95.6455 146.911 94.8638C146.993 94.4885 146.927 94.0948 146.729 93.7693C146.531 93.4439 146.216 93.2134 145.853 93.1285C145.491 93.0436 145.11 93.1113 144.796 93.3167C144.482 93.5221 144.259 93.8484 144.177 94.2238H144.181Z" fill="#389168"/>
<path d="M139.013 99.6016C139.246 100.366 141.261 102.143 141.261 102.143C141.261 102.143 141.918 99.4889 141.679 98.7246C141.624 98.5429 141.534 98.3743 141.416 98.2285C141.297 98.0827 141.152 97.9625 140.989 97.8748C140.825 97.787 140.647 97.7334 140.463 97.7171C140.28 97.7008 140.095 97.722 139.92 97.7796C139.745 97.8372 139.582 97.93 139.441 98.0528C139.3 98.1755 139.184 98.3257 139.099 98.4949C139.015 98.6641 138.963 98.8489 138.947 99.0388C138.931 99.2287 138.952 99.42 139.007 99.6016H139.013Z" fill="#389168"/>
<path d="M135.987 104.582C136.093 105.377 137.788 107.481 137.788 107.481C137.788 107.481 138.869 104.98 138.765 104.186C138.74 103.998 138.679 103.816 138.586 103.651C138.493 103.487 138.37 103.343 138.223 103.228C138.076 103.113 137.909 103.029 137.731 102.98C137.553 102.932 137.367 102.921 137.185 102.947C137.003 102.973 136.827 103.036 136.668 103.132C136.51 103.228 136.371 103.356 136.259 103.508C136.148 103.66 136.067 103.833 136.02 104.017C135.974 104.201 135.963 104.394 135.988 104.582H135.987Z" fill="#389168"/>
<path d="M146.833 99.8806C146.058 99.8604 143.851 98.349 143.851 98.349C143.851 98.349 146.132 96.959 146.905 96.9792C147.277 96.9892 147.629 97.1516 147.885 97.4307C148.141 97.7098 148.279 98.0827 148.27 98.4675C148.26 98.8522 148.103 99.2172 147.834 99.4823C147.564 99.7473 147.204 99.8905 146.833 99.8806Z" fill="#389168"/>
<path d="M143.223 105.659C142.49 105.4 140.82 103.275 140.82 103.275C140.82 103.275 143.397 102.653 144.13 102.913C144.304 102.975 144.464 103.072 144.602 103.198C144.74 103.324 144.853 103.477 144.934 103.648C145.015 103.819 145.063 104.005 145.074 104.195C145.086 104.385 145.061 104.575 145.002 104.756C144.942 104.936 144.849 105.102 144.727 105.245C144.606 105.388 144.458 105.505 144.293 105.589C144.128 105.673 143.948 105.722 143.765 105.734C143.581 105.746 143.397 105.72 143.223 105.659Z" fill="#389168"/>
<path d="M138.968 110.777C138.205 110.649 136.213 108.846 136.213 108.846C136.213 108.846 138.652 107.784 139.422 107.911C139.789 107.973 140.117 108.182 140.335 108.494C140.552 108.806 140.641 109.195 140.582 109.575C140.523 109.955 140.32 110.295 140.019 110.52C139.718 110.746 139.342 110.838 138.975 110.777H138.968Z" fill="#389168"/>
<path opacity="0.1" d="M88.9033 13.7382C81.1954 13.4607 73.8544 10.8845 66.8456 8.06546C59.8368 5.24644 52.8921 2.12255 45.3684 0.63719C40.5307 -0.323673 34.9968 -0.459494 31.0982 2.22659C27.3488 4.8043 26.1349 9.26617 25.4833 13.4073C24.9921 16.5225 24.7033 19.801 26.0414 22.7168C26.9749 24.7397 28.6312 26.4447 29.7768 28.3837C33.7619 35.1314 30.9447 43.4527 26.6261 50.0429C24.6 53.1335 22.2502 56.0812 20.6861 59.3727C19.1219 62.6641 18.4005 66.4325 19.7679 69.789C21.1242 73.1123 24.3544 75.6148 27.854 77.3719C34.9619 80.9422 43.3423 81.9638 51.5065 82.5417C69.5875 83.8234 87.7647 83.2642 105.893 82.7122C112.603 82.5071 119.341 82.299 125.941 81.2254C129.607 80.6287 133.391 79.6808 136.051 77.395C139.429 74.4936 140.266 69.5795 138.004 65.9412C134.207 59.8379 123.71 58.3222 121.056 51.7724C119.597 48.1674 121.097 44.152 123.219 40.8085C127.772 33.6345 135.405 27.342 135.808 19.1436C136.087 13.5084 132.414 7.87328 126.738 5.20887C120.791 2.41732 112.545 2.76843 108.158 7.39068C103.648 12.1517 95.7084 13.9823 88.9033 13.7382Z" fill="#389168"/>
<path d="M82.7442 45.7357H79.2739C79.2762 45.4585 79.293 45.1816 79.3242 44.9063C79.433 43.9267 79.7679 42.3373 80.806 41.5917C81.7758 40.8952 83.0386 41.9457 82.5432 43.0568L82.5307 43.0872C82.3451 43.4889 82.3395 43.9888 82.4009 44.4468C82.466 44.8889 82.5812 45.3215 82.7442 45.7357Z" fill="#389168"/>
<path opacity="0.1" d="M82.7442 45.7356H79.2739C79.2762 45.4584 79.293 45.1816 79.3242 44.9062C80.3035 44.526 81.3507 44.3693 82.3939 44.4468C82.4613 44.8891 82.5789 45.3217 82.7442 45.7356Z" fill="black"/>
<path d="M84.9948 49.54C84.0948 50.2986 82.8362 50.3101 81.5483 49.985C78.9111 49.3175 76.1581 47.2281 76.1581 47.2281C76.3455 47.0129 76.5469 46.8111 76.7609 46.6242C77.8465 45.659 80.3344 43.9525 83.665 44.8007C84.4796 44.9944 85.1971 45.4911 85.6813 46.1965C86.2325 47.0316 86.5199 48.2555 84.9948 49.54Z" fill="#389168"/>
<path opacity="0.1" d="M83.9344 48.0186C83.9344 48.0186 81.9279 46.2486 79.1637 48.5966L83.9344 48.0186Z" fill="black"/>
<path d="M27.5079 62.93C27.5079 62.93 21.0419 57.7775 20.7168 62.4489C20.3917 67.1202 22.0186 71.5041 23.414 71.8884C24.8093 72.2728 27.5079 62.93 27.5079 62.93Z" fill="#389168"/>
<path opacity="0.2" d="M27.5079 62.93C27.5079 62.93 21.0419 57.7775 20.7168 62.4489C20.3917 67.1202 22.0186 71.5041 23.414 71.8884C24.8093 72.2728 27.5079 62.93 27.5079 62.93Z" fill="black"/>
<path opacity="0.1" d="M23.2744 64.5686C23.2744 64.5686 23.4265 68.8672 24.7172 68.1809C26.0079 67.4946 24.1116 64.7608 23.2744 64.5686Z" fill="black"/>
<path d="M43.3954 99.5627C43.2433 100.225 43.0087 100.863 42.6977 101.463C42.6181 101.619 42.5316 101.779 42.4367 101.942C40.9144 104.564 37.3953 105.652 37.3953 105.074C37.3953 104.496 37.0479 103.002 36.1632 103.435C35.2786 103.869 33.9307 103.773 33.9307 103.773C31.4958 103.581 31.9074 101.096 32.7139 98.9905C32.9822 98.2985 33.2887 97.6231 33.6321 96.9676C33.9363 96.3897 34.1637 96.0111 34.1637 96.0111L43.4665 97.5528C43.4665 97.5528 43.6744 98.3129 43.3954 99.5627Z" fill="#389168"/>
<path opacity="0.1" d="M81.5483 49.9851C78.9111 49.3176 76.1581 47.2282 76.1581 47.2282C76.3455 47.013 76.5469 46.8112 76.7609 46.6243C77.1627 46.8439 77.5665 47.0775 77.972 47.325C79.2435 48.0914 80.441 48.9821 81.5483 49.9851Z" fill="black"/>
<path opacity="0.1" d="M43.3954 99.5627C40.8712 99.3286 37.2154 98.6856 33.6279 96.9748C33.9321 96.3969 34.1596 96.0183 34.1596 96.0183L43.4624 97.56C43.4624 97.56 43.6745 98.3128 43.3954 99.5627Z" fill="black"/>
<path d="M82.5768 87.06C82.5768 87.06 82.4093 90.1477 80.7265 93.6372C79.4308 96.3815 77.432 98.7047 74.9484 100.353C74.9484 100.353 73.4609 101.606 73.3675 98.1381C73.3675 98.1381 72.7158 97.4156 68.2507 100.573C68.2507 100.573 65.5563 102.278 66.2972 95.1645C66.2972 95.1645 66.2972 95.1558 66.2972 95.1515C66.2972 95.1471 66.2302 95.1962 66.1075 95.2728H66.0991C65.7809 95.4751 65.1056 95.8898 64.3019 96.3074C62.8298 97.0732 60.9223 97.852 59.9763 97.3607C59.759 99.1611 59.2226 100.904 58.394 102.503C57.4563 104.27 55.9772 105.998 53.6609 106.779C53.0769 106.973 52.4524 106.996 51.8565 106.845C51.2607 106.695 50.7165 106.377 50.2842 105.926L50.0191 105.652C50.0191 105.652 47.9721 107.097 46.9493 106.614C45.9265 106.131 45.0879 104.785 46.4832 102.279C46.4832 102.279 46.5572 102.071 46.6479 101.766C46.8753 100.993 47.206 99.5989 46.6702 99.3894C46.6702 99.3894 24.9949 100.545 22.1121 80.6056C19.2293 60.6659 38.2981 53.346 43.6925 54.1161C43.6925 54.1161 58.0186 35.4291 77.8326 47.4695C97.6465 59.5099 82.5768 87.06 82.5768 87.06Z" fill="#389168"/>
<path opacity="0.1" d="M43.6925 54.1161C43.6925 54.1161 67.3046 54.0207 65.6846 85.7119" stroke="black" stroke-miterlimit="10"/>
<path opacity="0.2" d="M42.6977 101.463C42.6181 101.619 42.5316 101.779 42.4367 101.943C40.9144 104.564 37.3953 105.652 37.3953 105.074C37.3953 104.496 37.0479 103.002 36.1632 103.435C35.2786 103.869 33.9307 103.773 33.9307 103.773C31.4958 103.581 31.9074 101.096 32.7139 98.9906C34.9967 100.177 39.1256 101.944 42.6977 101.463Z" fill="black"/>
<path opacity="0.2" d="M58.3939 102.503C57.4563 104.27 55.9772 105.998 53.6609 106.779C53.0769 106.972 52.4524 106.995 51.8565 106.845C51.2606 106.695 50.7165 106.377 50.2842 105.926L50.0191 105.651C50.0191 105.651 47.9721 107.096 46.9493 106.614C45.9265 106.131 45.0879 104.785 46.4832 102.279C46.4832 102.279 46.5572 102.071 46.6479 101.766C48.4716 102.432 53.3023 103.85 58.3939 102.503Z" fill="black"/>
<path opacity="0.1" d="M66.2972 95.1515C74.7154 90.6246 76.1581 87.0123 76.1581 87.0123L66.2972 95.1515Z" fill="black"/>
<path opacity="0.2" d="M80.7266 93.6371C79.4308 96.3814 77.4321 98.7046 74.9484 100.353C74.9484 100.353 73.461 101.606 73.3675 98.138C73.3675 98.138 72.7159 97.4155 68.2508 100.573C68.2508 100.573 65.5563 102.278 66.2973 95.1644L68.5298 93.8827C73.341 96.6526 78.1745 94.9635 80.7266 93.6371Z" fill="black"/>
<path d="M46.2056 56.9105C46.2056 56.9105 50.9497 49.397 54.5302 51.7566C58.1107 54.1161 53.88 62.93 53.88 62.93C53.88 62.93 46.8558 62.7855 46.2056 56.9105Z" fill="#389168"/>
<path opacity="0.2" d="M46.2056 56.9105C46.2056 56.9105 50.9497 49.397 54.5302 51.7566C58.1107 54.1161 53.88 62.93 53.88 62.93C53.88 62.93 46.8558 62.7855 46.2056 56.9105Z" fill="black"/>
<path opacity="0.1" d="M53.926 54.8385C53.926 54.8385 47.693 57.9696 49.6004 59.8003C51.5079 61.631 53.926 54.8385 53.926 54.8385Z" fill="black"/>
<path opacity="0.1" d="M38.9025 85.3287C43.5873 84.2087 46.6589 80.0439 45.7631 76.0263C44.8674 72.0088 40.3436 69.6598 35.6588 70.7797C30.9741 71.8997 27.9025 76.0645 28.7982 80.0821C29.694 84.0997 34.2178 86.4487 38.9025 85.3287Z" fill="black"/>
<path d="M38.9024 85.0398C43.5871 83.9198 46.6587 79.755 45.763 75.7374C44.8673 71.7198 40.3435 69.3708 35.6587 70.4908C30.974 71.6108 27.9024 75.7756 28.7981 79.7932C29.6938 83.8108 34.2177 86.1598 38.9024 85.0398Z" fill="#389168"/>
<path opacity="0.2" d="M38.9024 85.0398C43.5871 83.9198 46.6587 79.755 45.763 75.7374C44.8673 71.7198 40.3435 69.3708 35.6587 70.4908C30.974 71.6108 27.9024 75.7756 28.7981 79.7932C29.6938 83.8108 34.2177 86.1598 38.9024 85.0398Z" fill="black"/>
<path opacity="0.1" d="M33.6 77.7634C33.6 77.7634 33.6935 80.5579 34.4846 79.7401C35.2758 78.9223 34.5307 77.7605 33.6 77.7634Z" fill="black"/>
<path opacity="0.1" d="M38.1125 75.6365C38.1125 75.6365 38.2046 78.431 38.9958 77.6132C39.787 76.7953 39.0419 75.6279 38.1125 75.6365Z" fill="black"/>
<path opacity="0.1" d="M45.7479 91.636C45.7479 91.636 47.693 93.6112 50.0651 90.8658L45.7479 91.636Z" fill="black"/>
<path opacity="0.15" d="M54.2972 49.2511C55.3675 48.9621 59.3205 50.696 59.3205 50.696C61.0242 48.9318 63.5065 47.8741 65.6847 47.2456L66.1396 45.11C57.501 45.2126 54.2972 49.2511 54.2972 49.2511Z" fill="black"/>
<path opacity="0.3" d="M66.1577 45.11L65.7279 47.2326C67.2685 46.7938 68.845 46.5036 70.4372 46.3656C68.3902 45.3022 66.1577 45.11 66.1577 45.11Z" fill="black"/>
<path opacity="0.15" d="M66.1396 45.11L65.6875 47.2456L65.7308 47.2326L66.1605 45.11H66.1396Z" fill="black"/>
<g opacity="0.1">
<path opacity="0.1" d="M47.4599 103.184C47.4599 103.184 47.5339 102.976 47.6246 102.671C47.852 101.898 48.1827 100.503 47.6469 100.294C47.6469 100.294 47.3985 100.307 46.9492 100.305C46.9003 100.815 46.7988 101.317 46.6464 101.804C46.5557 102.109 46.4818 102.317 46.4818 102.317C45.0864 104.822 45.9236 106.17 46.9478 106.651L47.0022 106.672C46.5906 105.942 46.5571 104.805 47.4599 103.184Z" fill="white"/>
<path opacity="0.1" d="M23.0888 81.5101C20.2046 61.5704 39.8888 53.4674 45.2832 54.2433L43.6925 54.1595C38.2981 53.3894 19.2279 60.7092 22.1121 80.649C23.019 86.9184 25.7846 91.1014 29.1488 93.8915C26.2325 91.1173 23.9065 87.1612 23.0888 81.5101Z" fill="white"/>
<path opacity="0.1" d="M67.2726 96.0691C67.2726 96.0691 67.2726 96.0604 67.2726 96.0561C67.2726 96.0517 67.2056 96.1008 67.0828 96.1774H67.0745C66.8861 96.2959 66.5721 96.491 66.1814 96.7164C66.0419 100.004 66.8638 100.716 67.5098 100.778C67.1819 100.011 67.0103 98.602 67.2726 96.0691Z" fill="white"/>
<path opacity="0.1" d="M74.3441 99.0426C74.3441 99.0426 74.1767 98.8591 73.4371 99.086C73.6297 100.519 74.1627 100.675 74.5422 100.59C74.4121 100.085 74.3455 99.5651 74.3441 99.0426Z" fill="white"/>
</g>
<path opacity="0.1" d="M46.6703 99.3893C46.6703 99.3893 58.7638 98.6192 59.9721 97.3665L46.6703 99.3893Z" fill="black"/>
<path d="M75.706 101.779C78.6005 101.779 80.947 99.2 80.947 96.0184C80.947 92.8368 78.6005 90.2576 75.706 90.2576C72.8115 90.2576 70.4651 92.8368 70.4651 96.0184C70.4651 99.2 72.8115 101.779 75.706 101.779Z" fill="#FBD56F"/>
<path opacity="0.1" d="M75.706 101.779C78.6005 101.779 80.947 99.2 80.947 96.0184C80.947 92.8368 78.6005 90.2576 75.706 90.2576C72.8115 90.2576 70.4651 92.8368 70.4651 96.0184C70.4651 99.2 72.8115 101.779 75.706 101.779Z" fill="black"/>
<path d="M76.6102 101.779C79.5047 101.779 81.8511 99.2576 81.8511 96.147C81.8511 93.0364 79.5047 90.5148 76.6102 90.5148C73.7157 90.5148 71.3693 93.0364 71.3693 96.147C71.3693 99.2576 73.7157 101.779 76.6102 101.779Z" fill="#FBD56F"/>
<path d="M78.7339 101.25L78.1884 100.937C78.1884 100.937 77.933 102.038 78.0167 102.824C78.0246 102.903 78.0556 102.978 78.1054 103.038C78.1553 103.098 78.2217 103.142 78.2958 103.162C79.5516 103.484 85.5265 104.858 89.6372 102.922C89.6968 102.894 89.7483 102.851 89.7865 102.796C89.8247 102.741 89.8483 102.676 89.8549 102.609C89.9065 102.126 89.7279 101.131 89.6567 100.937C89.5074 100.519 78.7339 101.25 78.7339 101.25Z" fill="#FBD56F"/>
<path opacity="0.1" d="M78.7339 101.25L78.1884 100.937C78.1884 100.937 77.933 102.038 78.0167 102.824C78.0246 102.903 78.0556 102.978 78.1054 103.038C78.1553 103.098 78.2217 103.142 78.2958 103.162C79.5516 103.484 85.5265 104.858 89.6372 102.922C89.6968 102.894 89.7483 102.851 89.7865 102.796C89.8247 102.741 89.8483 102.676 89.8549 102.609C89.9065 102.126 89.7279 101.131 89.6567 100.937C89.5074 100.519 78.7339 101.25 78.7339 101.25Z" fill="black"/>
<path d="M83.9246 102.276C87.0927 102.276 89.6609 101.677 89.6609 100.937C89.6609 100.197 87.0927 99.5974 83.9246 99.5974C80.7566 99.5974 78.1884 100.197 78.1884 100.937C78.1884 101.677 80.7566 102.276 83.9246 102.276Z" fill="#FBD56F"/>
<path d="M80.9302 99.2751L80.386 98.9616C80.386 98.9616 80.1306 100.063 80.2144 100.849C80.2222 100.928 80.2531 101.002 80.303 101.062C80.3528 101.122 80.4193 101.165 80.4934 101.185C81.7493 101.509 87.7242 102.883 91.8349 100.947C91.8943 100.919 91.9456 100.875 91.9838 100.82C92.0219 100.765 92.0456 100.701 92.0525 100.633C92.1028 100.151 91.9242 99.1552 91.853 98.9616C91.6981 98.544 80.9302 99.2751 80.9302 99.2751Z" fill="#FBD56F"/>
<path opacity="0.1" d="M80.9302 99.2751L80.386 98.9616C80.386 98.9616 80.1306 100.063 80.2144 100.849C80.2222 100.928 80.2531 101.002 80.303 101.062C80.3528 101.122 80.4193 101.165 80.4934 101.185C81.7493 101.509 87.7242 102.883 91.8349 100.947C91.8943 100.919 91.9456 100.875 91.9838 100.82C92.0219 100.765 92.0456 100.701 92.0525 100.633C92.1028 100.151 91.9242 99.1552 91.853 98.9616C91.6981 98.544 80.9302 99.2751 80.9302 99.2751Z" fill="black"/>
<path d="M86.1153 100.301C89.2834 100.301 91.8516 99.7014 91.8516 98.9616C91.8516 98.2219 89.2834 97.6222 86.1153 97.6222C82.9472 97.6222 80.379 98.2219 80.379 98.9616C80.379 99.7014 82.9472 100.301 86.1153 100.301Z" fill="#FBD56F"/>
<path d="M82.8628 96.6787L82.3173 96.3652C82.3173 96.3652 82.0619 97.4662 82.1456 98.2522C82.1535 98.3312 82.1845 98.4059 82.2343 98.4663C82.2842 98.5267 82.3506 98.5699 82.4247 98.5903C83.6805 98.9125 89.6568 100.287 93.7661 98.3505C93.8257 98.3223 93.8772 98.2787 93.9156 98.2237C93.954 98.1687 93.978 98.1044 93.9851 98.0369C94.0354 97.5543 93.8568 96.5588 93.7856 96.3652C93.6363 95.9476 82.8628 96.6787 82.8628 96.6787Z" fill="#FBD56F"/>
<path opacity="0.1" d="M82.8628 96.6787L82.3173 96.3652C82.3173 96.3652 82.0619 97.4662 82.1456 98.2522C82.1535 98.3312 82.1845 98.4059 82.2343 98.4663C82.2842 98.5267 82.3506 98.5699 82.4247 98.5903C83.6805 98.9125 89.6568 100.287 93.7661 98.3505C93.8257 98.3223 93.8772 98.2787 93.9156 98.2237C93.954 98.1687 93.978 98.1044 93.9851 98.0369C94.0354 97.5543 93.8568 96.5588 93.7856 96.3652C93.6363 95.9476 82.8628 96.6787 82.8628 96.6787Z" fill="black"/>
<path d="M88.0535 97.7046C91.2216 97.7046 93.7898 97.1049 93.7898 96.3652C93.7898 95.6254 91.2216 95.0258 88.0535 95.0258C84.8855 95.0258 82.3173 95.6254 82.3173 96.3652C82.3173 97.1049 84.8855 97.7046 88.0535 97.7046Z" fill="#FBD56F"/>
<path d="M80.7168 93.9782L80.1712 93.6632C80.1712 93.6632 79.9173 94.7656 79.9996 95.5502C80.0077 95.6292 80.0387 95.7037 80.0885 95.7641C80.1383 95.8244 80.2046 95.8677 80.2786 95.8883C81.5345 96.2105 87.5093 97.5846 91.6186 95.6499C91.6783 95.6219 91.73 95.5782 91.7684 95.5233C91.8068 95.4683 91.8307 95.4039 91.8377 95.3364C91.8879 94.8538 91.7093 93.8582 91.6382 93.6632C91.4903 93.2442 80.7168 93.9782 80.7168 93.9782Z" fill="#FBD56F"/>
<path opacity="0.1" d="M80.7168 93.9782L80.1712 93.6632C80.1712 93.6632 79.9173 94.7656 79.9996 95.5502C80.0077 95.6292 80.0387 95.7037 80.0885 95.7641C80.1383 95.8244 80.2046 95.8677 80.2786 95.8883C81.5345 96.2105 87.5093 97.5846 91.6186 95.6499C91.6783 95.6219 91.73 95.5782 91.7684 95.5233C91.8068 95.4683 91.8307 95.4039 91.8377 95.3364C91.8879 94.8538 91.7093 93.8582 91.6382 93.6632C91.4903 93.2442 80.7168 93.9782 80.7168 93.9782Z" fill="black"/>
<path d="M85.9074 95.0012C89.0755 95.0012 91.6437 94.4016 91.6437 93.6618C91.6437 92.9221 89.0755 92.3224 85.9074 92.3224C82.7394 92.3224 80.1711 92.9221 80.1711 93.6618C80.1711 94.4016 82.7394 95.0012 85.9074 95.0012Z" fill="#FBD56F"/>
<path d="M85.5432 91.8108L84.999 91.4958C84.999 91.4958 84.7437 92.5982 84.8274 93.3828C84.8351 93.4619 84.866 93.5367 84.9158 93.5971C84.9657 93.6575 85.0322 93.7007 85.1065 93.7209C86.3623 94.0431 92.3372 95.4173 96.4465 93.4825C96.506 93.4543 96.5575 93.4106 96.5959 93.3556C96.6343 93.3007 96.6583 93.2364 96.6656 93.169C96.7158 92.6864 96.5372 91.6894 96.466 91.4958C96.3167 91.0753 85.5432 91.8108 85.5432 91.8108Z" fill="#FBD56F"/>
<path opacity="0.1" d="M85.5432 91.8108L84.999 91.4958C84.999 91.4958 84.7437 92.5982 84.8274 93.3828C84.8351 93.4619 84.866 93.5367 84.9158 93.5971C84.9657 93.6575 85.0322 93.7007 85.1065 93.7209C86.3623 94.0431 92.3372 95.4173 96.4465 93.4825C96.506 93.4543 96.5575 93.4106 96.5959 93.3556C96.6343 93.3007 96.6583 93.2364 96.6656 93.169C96.7158 92.6864 96.5372 91.6894 96.466 91.4958C96.3167 91.0753 85.5432 91.8108 85.5432 91.8108Z" fill="black"/>
<path d="M90.734 92.8324C93.902 92.8324 96.4702 92.2327 96.4702 91.493C96.4702 90.7533 93.902 90.1536 90.734 90.1536C87.5659 90.1536 84.9977 90.7533 84.9977 91.493C84.9977 92.2327 87.5659 92.8324 90.734 92.8324Z" fill="#FBD56F"/>
<path d="M82.2823 90.35L81.7368 90.035C81.7368 90.035 81.4828 91.1375 81.5651 91.9221C81.5732 92.001 81.6042 92.0756 81.654 92.1359C81.7038 92.1963 81.7701 92.2396 81.8442 92.2602C83.1 92.5824 89.0749 93.9565 93.1842 92.0218C93.2439 91.9938 93.2955 91.9501 93.3339 91.8951C93.3724 91.8401 93.3963 91.7757 93.4033 91.7082C93.4535 91.2256 93.2749 90.2286 93.2037 90.035C93.0558 89.6174 82.2823 90.35 82.2823 90.35Z" fill="#FBD56F"/>
<path opacity="0.1" d="M82.2823 90.35L81.7368 90.035C81.7368 90.035 81.4828 91.1375 81.5651 91.9221C81.5732 92.001 81.6042 92.0756 81.654 92.1359C81.7038 92.1963 81.7701 92.2396 81.8442 92.2602C83.1 92.5824 89.0749 93.9565 93.1842 92.0218C93.2439 91.9938 93.2955 91.9501 93.3339 91.8951C93.3724 91.8401 93.3963 91.7757 93.4033 91.7082C93.4535 91.2256 93.2749 90.2286 93.2037 90.035C93.0558 89.6174 82.2823 90.35 82.2823 90.35Z" fill="black"/>
<path d="M87.4729 91.3744C90.641 91.3744 93.2092 90.7747 93.2092 90.035C93.2092 89.2952 90.641 88.6956 87.4729 88.6956C84.3049 88.6956 81.7367 89.2952 81.7367 90.035C81.7367 90.7747 84.3049 91.3744 87.4729 91.3744Z" fill="#FBD56F"/>
<path d="M84.4591 87.5354L83.9149 87.2205C83.9149 87.2205 83.6596 88.3229 83.7433 89.1075C83.751 89.1866 83.7819 89.2614 83.8318 89.3218C83.8816 89.3822 83.9481 89.4254 84.0224 89.4456C85.2782 89.7678 91.2531 91.1419 95.3638 89.2072C95.4233 89.1791 95.4747 89.1354 95.5129 89.0804C95.5511 89.0254 95.5747 88.961 95.5814 88.8937C95.6317 88.4111 95.4531 87.4155 95.3819 87.2205C95.234 86.8029 84.4591 87.5354 84.4591 87.5354Z" fill="#FBD56F"/>
<path opacity="0.1" d="M84.4591 87.5354L83.9149 87.2205C83.9149 87.2205 83.6596 88.3229 83.7433 89.1075C83.751 89.1866 83.7819 89.2614 83.8318 89.3218C83.8816 89.3822 83.9481 89.4254 84.0224 89.4456C85.2782 89.7678 91.2531 91.1419 95.3638 89.2072C95.4233 89.1791 95.4747 89.1354 95.5129 89.0804C95.5511 89.0254 95.5747 88.961 95.5814 88.8937C95.6317 88.4111 95.4531 87.4155 95.3819 87.2205C95.234 86.8029 84.4591 87.5354 84.4591 87.5354Z" fill="black"/>
<path d="M89.6512 88.5597C92.8193 88.5597 95.3875 87.96 95.3875 87.2203C95.3875 86.4805 92.8193 85.8809 89.6512 85.8809C86.4831 85.8809 83.9149 86.4805 83.9149 87.2203C83.9149 87.96 86.4831 88.5597 89.6512 88.5597Z" fill="#FBD56F"/>
<path d="M85.5349 84.1946L84.9893 83.8796C84.9893 83.8796 84.7354 84.9821 84.8177 85.7667C84.8258 85.8456 84.8568 85.9202 84.9066 85.9806C84.9564 86.0409 85.0227 86.0842 85.0968 86.1048C86.3526 86.427 92.3274 87.8011 96.4367 85.8664C96.4964 85.8384 96.548 85.7947 96.5864 85.7397C96.6249 85.6847 96.6488 85.6203 96.6558 85.5528C96.706 85.0702 96.5274 84.0747 96.4563 83.8796C96.307 83.4621 85.5349 84.1946 85.5349 84.1946Z" fill="#FBD56F"/>
<path opacity="0.1" d="M85.5349 84.1946L84.9893 83.8796C84.9893 83.8796 84.7354 84.9821 84.8177 85.7667C84.8258 85.8456 84.8568 85.9202 84.9066 85.9806C84.9564 86.0409 85.0227 86.0842 85.0968 86.1048C86.3526 86.427 92.3274 87.8011 96.4367 85.8664C96.4964 85.8384 96.548 85.7947 96.5864 85.7397C96.6249 85.6847 96.6488 85.6203 96.6558 85.5528C96.706 85.0702 96.5274 84.0747 96.4563 83.8796C96.307 83.4621 85.5349 84.1946 85.5349 84.1946Z" fill="black"/>
<path d="M90.7242 85.2191C93.8922 85.2191 96.4604 84.6195 96.4604 83.8797C96.4604 83.14 93.8922 82.5403 90.7242 82.5403C87.5561 82.5403 84.9879 83.14 84.9879 83.8797C84.9879 84.6195 87.5561 85.2191 90.7242 85.2191Z" fill="#FBD56F"/>
<path d="M95.2172 102.026L94.6716 101.711C94.6716 101.711 94.4163 102.814 94.5 103.598C94.5079 103.677 94.5388 103.752 94.5887 103.813C94.6385 103.873 94.7049 103.916 94.7791 103.937C96.0349 104.259 102.01 105.633 106.12 103.698C106.18 103.67 106.231 103.626 106.27 103.57C106.308 103.515 106.331 103.451 106.338 103.383C106.39 102.901 106.211 101.905 106.14 101.711C105.991 101.294 95.2172 102.026 95.2172 102.026Z" fill="#FBD56F"/>
<path opacity="0.1" d="M95.2172 102.026L94.6716 101.711C94.6716 101.711 94.4163 102.814 94.5 103.598C94.5079 103.677 94.5388 103.752 94.5887 103.813C94.6385 103.873 94.7049 103.916 94.7791 103.937C96.0349 104.259 102.01 105.633 106.12 103.698C106.18 103.67 106.231 103.626 106.27 103.57C106.308 103.515 106.331 103.451 106.338 103.383C106.39 102.901 106.211 101.905 106.14 101.711C105.991 101.294 95.2172 102.026 95.2172 102.026Z" fill="black"/>
<path d="M100.408 103.051C103.576 103.051 106.144 102.451 106.144 101.711C106.144 100.972 103.576 100.372 100.408 100.372C97.2399 100.372 94.6716 100.972 94.6716 101.711C94.6716 102.451 97.2399 103.051 100.408 103.051Z" fill="#FBD56F"/>
<path d="M97.1539 99.4299L96.6083 99.1149C96.6083 99.1149 96.3544 100.217 96.4367 101.002C96.4448 101.081 96.4758 101.155 96.5256 101.216C96.5754 101.276 96.6417 101.319 96.7158 101.34C97.9716 101.662 103.946 103.036 108.056 101.102C108.115 101.074 108.167 101.03 108.205 100.975C108.244 100.92 108.268 100.856 108.275 100.788C108.325 100.305 108.146 99.3085 108.075 99.1149C107.927 98.6973 97.1539 99.4299 97.1539 99.4299Z" fill="#FBD56F"/>
<path opacity="0.1" d="M97.1539 99.4299L96.6083 99.1149C96.6083 99.1149 96.3544 100.217 96.4367 101.002C96.4448 101.081 96.4758 101.155 96.5256 101.216C96.5754 101.276 96.6417 101.319 96.7158 101.34C97.9716 101.662 103.946 103.036 108.056 101.102C108.115 101.074 108.167 101.03 108.205 100.975C108.244 100.92 108.268 100.856 108.275 100.788C108.325 100.305 108.146 99.3085 108.075 99.1149C107.927 98.6973 97.1539 99.4299 97.1539 99.4299Z" fill="black"/>
<path d="M102.345 100.454C105.513 100.454 108.081 99.8546 108.081 99.1148C108.081 98.3751 105.513 97.7754 102.345 97.7754C99.1765 97.7754 96.6083 98.3751 96.6083 99.1148C96.6083 99.8546 99.1765 100.454 102.345 100.454Z" fill="#FBD56F"/>
<path d="M95.0079 96.7234L94.4638 96.4099C94.4638 96.4099 94.2084 97.5109 94.2921 98.297C94.2999 98.3758 94.3308 98.4504 94.3807 98.5106C94.4306 98.5707 94.4971 98.6137 94.5712 98.6336C95.827 98.9573 101.802 100.331 105.913 98.3952C105.972 98.3672 106.024 98.3236 106.062 98.2685C106.1 98.2135 106.124 98.1491 106.13 98.0817C106.181 97.5991 106.002 96.6035 105.931 96.4099C105.783 96.001 95.0079 96.7234 95.0079 96.7234Z" fill="#FBD56F"/>
<path opacity="0.1" d="M95.0079 96.7234L94.4638 96.4099C94.4638 96.4099 94.2084 97.5109 94.2921 98.297C94.2999 98.3758 94.3308 98.4504 94.3807 98.5106C94.4306 98.5707 94.4971 98.6137 94.5712 98.6336C95.827 98.9573 101.802 100.331 105.913 98.3952C105.972 98.3672 106.024 98.3236 106.062 98.2685C106.1 98.2135 106.124 98.1491 106.13 98.0817C106.181 97.5991 106.002 96.6035 105.931 96.4099C105.783 96.001 95.0079 96.7234 95.0079 96.7234Z" fill="black"/>
<path d="M100.2 97.7522C103.368 97.7522 105.936 97.1525 105.936 96.4128C105.936 95.673 103.368 95.0734 100.2 95.0734C97.032 95.0734 94.4637 95.673 94.4637 96.4128C94.4637 97.1525 97.032 97.7522 100.2 97.7522Z" fill="#FBD56F"/>
<path d="M99.8359 94.5562L99.2903 94.2427C99.2903 94.2427 99.0349 95.3437 99.1187 96.1211C99.1264 96.2002 99.1572 96.2749 99.2071 96.3353C99.257 96.3958 99.3235 96.439 99.3977 96.4592C100.654 96.7828 106.628 98.1555 110.739 96.2208C110.799 96.1928 110.85 96.1491 110.888 96.0941C110.927 96.0391 110.95 95.9746 110.957 95.9072C111.007 95.4246 110.83 94.4291 110.759 94.2355C110.609 93.8338 99.8359 94.5562 99.8359 94.5562Z" fill="#FBD56F"/>
<path opacity="0.1" d="M99.8359 94.5562L99.2903 94.2427C99.2903 94.2427 99.0349 95.3437 99.1187 96.1211C99.1264 96.2002 99.1572 96.2749 99.2071 96.3353C99.257 96.3958 99.3235 96.439 99.3977 96.4592C100.654 96.7828 106.628 98.1555 110.739 96.2208C110.799 96.1928 110.85 96.1491 110.888 96.0941C110.927 96.0391 110.95 95.9746 110.957 95.9072C111.007 95.4246 110.83 94.4291 110.759 94.2355C110.609 93.8338 99.8359 94.5562 99.8359 94.5562Z" fill="black"/>
<path d="M105.027 95.5834C108.195 95.5834 110.763 94.9837 110.763 94.244C110.763 93.5042 108.195 92.9045 105.027 92.9045C101.858 92.9045 99.2903 93.5042 99.2903 94.244C99.2903 94.9837 101.858 95.5834 105.027 95.5834Z" fill="#FBD56F"/>
<path d="M96.5735 93.0996L96.0293 92.7861C96.0293 92.7861 95.774 93.8871 95.8577 94.6731C95.8657 94.7519 95.8966 94.8264 95.9465 94.8865C95.9964 94.9466 96.0627 94.9896 96.1367 95.0098C97.3926 95.3334 103.367 96.706 107.478 94.7713C107.538 94.7434 107.589 94.6997 107.627 94.6447C107.666 94.5897 107.689 94.5252 107.696 94.4578C107.746 93.9752 107.567 92.9797 107.496 92.7861C107.348 92.3685 96.5735 93.0996 96.5735 93.0996Z" fill="#FBD56F"/>
<path opacity="0.1" d="M96.5735 93.0996L96.0293 92.7861C96.0293 92.7861 95.774 93.8871 95.8577 94.6731C95.8657 94.7519 95.8966 94.8264 95.9465 94.8865C95.9964 94.9466 96.0627 94.9896 96.1367 95.0098C97.3926 95.3334 103.367 96.706 107.478 94.7713C107.538 94.7434 107.589 94.6997 107.627 94.6447C107.666 94.5897 107.689 94.5252 107.696 94.4578C107.746 93.9752 107.567 92.9797 107.496 92.7861C107.348 92.3685 96.5735 93.0996 96.5735 93.0996Z" fill="black"/>
<path d="M101.766 94.1255C104.934 94.1255 107.502 93.5258 107.502 92.7861C107.502 92.0463 104.934 91.4467 101.766 91.4467C98.5975 91.4467 96.0293 92.0463 96.0293 92.7861C96.0293 93.5258 98.5975 94.1255 101.766 94.1255Z" fill="#FBD56F"/>
<path d="M98.7516 90.285L98.2061 89.9715C98.2061 89.9715 97.9507 91.0725 98.0344 91.8585C98.0423 91.9376 98.0733 92.0122 98.1231 92.0726C98.173 92.133 98.2394 92.1763 98.3135 92.1967C99.5693 92.5189 105.544 93.893 109.653 91.9568C109.713 91.9287 109.765 91.885 109.803 91.83C109.841 91.775 109.865 91.7107 109.873 91.6433C109.923 91.1607 109.744 90.1651 109.673 89.9715C109.525 89.5539 98.7516 90.285 98.7516 90.285Z" fill="#FBD56F"/>
<path opacity="0.1" d="M98.7516 90.285L98.2061 89.9715C98.2061 89.9715 97.9507 91.0725 98.0344 91.8585C98.0423 91.9376 98.0733 92.0122 98.1231 92.0726C98.173 92.133 98.2394 92.1763 98.3135 92.1967C99.5693 92.5189 105.544 93.893 109.653 91.9568C109.713 91.9287 109.765 91.885 109.803 91.83C109.841 91.775 109.865 91.7107 109.873 91.6433C109.923 91.1607 109.744 90.1651 109.673 89.9715C109.525 89.5539 98.7516 90.285 98.7516 90.285Z" fill="black"/>
<path d="M103.942 91.3109C107.11 91.3109 109.679 90.7113 109.679 89.9715C109.679 89.2318 107.11 88.6321 103.942 88.6321C100.774 88.6321 98.2061 89.2318 98.2061 89.9715C98.2061 90.7113 100.774 91.3109 103.942 91.3109Z" fill="#FBD56F"/>
<path d="M99.8247 86.9443L99.2805 86.6308C99.2805 86.6308 99.0252 87.7318 99.1089 88.5178C99.1168 88.5968 99.1477 88.6715 99.1976 88.7319C99.2474 88.7923 99.3138 88.8355 99.388 88.8559C100.644 89.1781 106.619 90.5522 110.729 88.6161C110.789 88.5881 110.84 88.5444 110.879 88.4894C110.917 88.4344 110.94 88.3699 110.947 88.3025C110.997 87.8199 110.819 86.8244 110.748 86.6308C110.6 86.2132 99.8247 86.9443 99.8247 86.9443Z" fill="#FBD56F"/>
<path opacity="0.1" d="M99.8247 86.9443L99.2805 86.6308C99.2805 86.6308 99.0252 87.7318 99.1089 88.5178C99.1168 88.5968 99.1477 88.6715 99.1976 88.7319C99.2474 88.7923 99.3138 88.8355 99.388 88.8559C100.644 89.1781 106.619 90.5522 110.729 88.6161C110.789 88.5881 110.84 88.5444 110.879 88.4894C110.917 88.4344 110.94 88.3699 110.947 88.3025C110.997 87.8199 110.819 86.8244 110.748 86.6308C110.6 86.2132 99.8247 86.9443 99.8247 86.9443Z" fill="black"/>
<path d="M105.017 87.9702C108.185 87.9702 110.753 87.3706 110.753 86.6308C110.753 85.8911 108.185 85.2914 105.017 85.2914C101.849 85.2914 99.2804 85.8911 99.2804 86.6308C99.2804 87.3706 101.849 87.9702 105.017 87.9702Z" fill="#FBD56F"/>
<path d="M57.0139 45.4293C57.0139 42.3199 59.3595 39.7942 62.2549 39.7942C62.5387 39.7945 62.822 39.8191 63.1018 39.8679C62.5417 39.6489 61.948 39.5368 61.3493 39.537C58.4553 39.537 56.1097 42.1161 56.1097 45.2978C56.1097 47.6877 57.4339 49.7366 59.319 50.6093C59.4097 50.527 59.5228 50.4287 59.6567 50.3203C58.8447 49.8121 58.1742 49.094 57.7109 48.2366C57.2476 47.3792 57.0074 46.4118 57.0139 45.4293Z" fill="#FBD56F"/>
<path opacity="0.1" d="M57.0139 45.4293C57.0139 42.3199 59.3595 39.7942 62.2549 39.7942C62.5387 39.7945 62.822 39.8191 63.1018 39.8679C62.5417 39.6489 61.948 39.5368 61.3493 39.537C58.4553 39.537 56.1097 42.1161 56.1097 45.2978C56.1097 47.6877 57.4339 49.7366 59.319 50.6093C59.4097 50.527 59.5228 50.4287 59.6567 50.3203C58.8447 49.8121 58.1742 49.094 57.7109 48.2366C57.2476 47.3792 57.0074 46.4118 57.0139 45.4293Z" fill="black"/>
<path d="M66.5902 45.3066C66.5898 45.9348 66.4957 46.5591 66.3111 47.1575C66.6292 47.0781 66.9613 47.013 67.3032 46.9379C67.4301 46.4458 67.4944 45.9387 67.4944 45.4294C67.4944 42.6292 65.5925 40.3087 63.1018 39.8723C65.1348 40.6699 66.5902 42.7997 66.5902 45.3066Z" fill="#FBD56F"/>
<path d="M57.0139 45.4294C57.0073 46.4123 57.2476 47.38 57.7112 48.2377C58.1747 49.0954 58.8456 49.8136 59.6581 50.3218C60.6446 49.5098 62.82 48.0172 66.3125 47.1532C66.4971 46.5548 66.5912 45.9304 66.5916 45.3022C66.5916 42.7953 65.1362 40.6655 63.1032 39.8723C62.8233 39.8235 62.5401 39.7989 62.2563 39.7986C59.3595 39.8029 57.0139 42.3243 57.0139 45.4294Z" fill="#FBD56F"/>
<path d="M134.399 109.905C133.6 109.876 133.571 109.556 132.546 109.002C131.965 108.69 131.086 107.783 130.43 107.053L130.277 106.881H130.556C130.556 106.881 130.299 104.551 130.528 103.991C130.757 103.432 130.585 100.145 130.585 100.145C130.585 100.145 130.725 97.6381 130.471 97.0558C130.217 96.4735 130.556 92.7442 130.556 92.7442C130.556 92.7442 130.785 90.5292 130.835 86.0124C130.885 81.4956 128.323 81.3511 128.323 81.3511C128.323 81.3511 127.981 81.3237 127.462 81.2717L127.306 81.2558C127.642 80.5333 127.839 79.9814 127.839 79.9814C127.839 79.9814 127.411 75.7565 127.296 75.0282C127.182 74.3 126.5 71.2932 126.5 71.2932C126.5 71.2932 126.015 70.0115 125.729 69.1085C125.443 68.2054 124.589 67.1564 124.589 67.1564C124.589 67.1564 123.054 64.0094 122.622 63.5441C122.424 63.3288 122.145 63.0557 121.903 62.8217L121.778 62.7032C121.843 62.3751 121.878 62.0412 121.881 61.7062C121.881 61.7062 120.283 60.0734 120.169 59.666C120.054 59.2585 118.545 57.7428 118.545 57.7428C118.545 57.7428 117.688 56.1115 116.72 56.0826C116.261 56.0552 115.801 56.0692 115.345 56.1245C115.545 55.3616 115.781 54.5626 115.991 53.8762C116.015 53.7997 116.039 53.7318 116.061 53.6523C116.836 53.1093 117.444 52.3476 117.814 51.4575C117.833 51.4098 117.851 51.3621 117.869 51.313H117.9C117.94 51.3121 117.98 51.3082 118.02 51.3014C118.34 51.2451 118.61 50.8679 118.462 50.579C118.472 50.5956 118.486 50.6094 118.502 50.6188C118.519 50.6282 118.537 50.6329 118.556 50.6324C118.662 50.6324 118.792 50.4692 118.817 50.329C118.817 50.3044 118.824 50.2799 118.827 50.2553C118.829 50.2307 118.836 50.1946 118.84 50.1643C118.845 50.1339 118.84 50.1065 118.84 50.0776C118.84 50.0487 118.84 50.0183 118.84 49.9894C118.84 49.9605 118.84 49.9331 118.84 49.9056C118.84 49.8782 118.84 49.8406 118.84 49.8088C118.84 49.777 118.84 49.7583 118.84 49.7323C118.84 49.7062 118.84 49.6542 118.832 49.6152C118.832 49.5993 118.832 49.5834 118.832 49.5675C118.815 49.4084 118.785 49.2512 118.74 49.0979C118.584 48.5561 118.253 48.0186 118.38 47.4695V47.4522C118.486 47.0187 118.843 46.7153 119.061 46.3338C119.082 46.2977 119.1 46.2601 119.118 46.2226C119.118 46.2153 119.125 46.2081 119.128 46.2023C119.142 46.1734 119.153 46.1445 119.164 46.1156L119.187 46.0593C119.196 46.0347 119.203 46.0087 119.212 45.9827C119.22 45.9567 119.227 45.9365 119.233 45.9119C119.238 45.8874 119.244 45.8657 119.249 45.8426C119.255 45.8194 119.262 45.7877 119.267 45.7588C119.273 45.7299 119.267 45.7183 119.277 45.6981C119.287 45.6778 119.286 45.6345 119.288 45.6027C119.291 45.5709 119.288 45.568 119.288 45.5507C119.288 45.5334 119.288 45.4799 119.288 45.4438V45.4004C119.288 45.3614 119.288 45.321 119.288 45.2819C119.288 45.2704 119.288 45.2588 119.288 45.2473C119.288 45.2054 119.288 45.1635 119.277 45.1216C119.277 45.1216 119.277 45.11 119.277 45.1042C119.229 44.738 119.088 44.3915 118.868 44.1C118.619 43.792 118.303 43.5485 117.947 43.3887C117.591 43.229 117.204 43.1574 116.816 43.1796C116.602 43.2048 116.386 43.2092 116.171 43.1926C115.813 43.1377 115.51 42.9036 115.225 42.6753L112.836 40.7695C112.57 40.5305 112.264 40.3426 111.934 40.2146C111.596 40.1077 111.191 40.1438 110.941 40.3996C110.494 40.8562 110.778 41.6422 110.6 42.2621C110.443 42.7996 109.942 43.1637 109.425 43.3443C108.907 43.5249 108.352 43.5654 107.819 43.6969C107.661 43.7231 107.512 43.7935 107.39 43.9006C107.253 44.0743 107.186 44.2966 107.203 44.5205C107.2 45.0696 107.327 45.6111 107.574 46.0969C107.675 46.2934 107.796 46.4942 107.904 46.6965L107.93 46.7471L107.965 46.8164C107.983 46.8554 108.001 46.893 108.018 46.9306L108.039 46.9797L108.071 47.0621C108.071 47.0794 108.084 47.0967 108.089 47.1126C108.095 47.1285 108.109 47.1777 108.119 47.2094C108.175 47.397 108.18 47.5969 108.134 47.7874C108.052 48.101 107.816 48.3423 107.607 48.5864C107.437 48.7782 107.316 49.0106 107.255 49.2627C107.245 49.3219 107.245 49.3826 107.255 49.4418C107.255 49.449 107.255 49.4563 107.255 49.4635C107.258 49.4767 107.262 49.4897 107.266 49.5025C107.269 49.5119 107.273 49.5211 107.277 49.53C107.281 49.5403 107.286 49.5505 107.291 49.5603C107.302 49.576 107.314 49.5906 107.327 49.6037L107.348 49.6195C107.36 49.6284 107.372 49.6361 107.385 49.6427L107.408 49.6542L107.467 49.6701H107.484C107.514 49.6724 107.545 49.6724 107.576 49.6701H107.604C107.633 49.6681 107.662 49.6643 107.69 49.6586H107.722C107.77 49.6494 107.816 49.6373 107.862 49.6224C108.022 49.5727 108.178 49.5089 108.328 49.4317C108.328 49.449 108.328 49.4678 108.328 49.4852C108.328 49.5025 108.328 49.5473 108.328 49.5776C108.336 50.1492 108.44 50.715 108.636 51.2494C108.942 52.082 109.455 52.8162 110.122 53.3778C110.114 53.4269 110.106 53.4774 110.096 53.5295C109.956 54.2274 109.67 54.9281 109.493 54.8747C109.32 54.8341 109.142 54.8137 108.964 54.814H108.809C108.648 54.795 108.485 54.795 108.324 54.814C108.252 54.8195 108.18 54.8092 108.112 54.7836C107.651 54.6331 107.161 54.6048 106.687 54.7013C105.702 54.9108 104.202 55.2937 103.79 55.7517C103.162 56.4511 102.255 57.1215 101.224 60.0344C101.224 60.0344 100.711 61.8117 100.312 62.0457C100.4 61.9982 100.49 61.9558 100.582 61.9186C100.529 62.0148 100.456 62.0976 100.369 62.1613C100.513 62.085 100.663 62.0203 100.817 61.9677C100.506 63.8663 100.967 69.2963 100.967 69.2963C100.967 69.2963 100.596 70.2326 101.081 70.7874C101.369 71.1154 101.526 71.6284 101.607 71.9925L101.535 72.1052C101.279 72.517 100.935 73.0545 100.711 73.3507C100.312 73.8752 100.425 75.5368 100.425 75.5368C100.425 75.5368 100.34 76.3229 100.055 76.6147C99.7703 76.9066 99.8261 77.9845 99.8261 77.9845L99.0963 80.8295C99.0963 80.8295 98.4112 81.4696 98.4112 81.7615C98.4112 82.0534 97.8698 82.8683 97.8698 82.8683C97.8698 82.8683 97.0424 84.267 97.8698 84.0632C98.172 83.9727 98.4558 83.8258 98.707 83.6298V83.6514C98.707 83.702 98.707 83.754 98.707 83.8075C98.6833 85.3304 98.8466 87.4747 99.9294 87.4747C101.604 87.4747 105.946 89.5423 105.946 89.5423C106.829 90.2417 108.027 90.009 108.027 90.009C108.027 90.009 105.907 92.1894 105.968 93.0939C106.03 93.9984 104.771 95.4823 104.771 95.4823L100.892 103.321C100.914 103.867 101.008 104.408 101.171 104.928L101.115 104.977C99.6252 106.387 99.4954 109.177 99.4954 109.177L99.1535 110.605L104.343 112.966C104.343 112.966 111.073 113.11 112.242 112.791C113.411 112.472 113.154 111.129 111.614 110.868C110.074 110.606 109.704 109.905 109.19 109.586C108.844 109.369 107.615 107.972 106.852 107.086C106.841 107.072 106.829 107.06 106.818 107.047L106.995 106.036C107.337 105.861 107.851 104.113 107.851 104.113C107.851 104.113 107.851 103.413 108.193 103.21C108.534 103.006 109.247 100.908 109.247 100.908C109.247 100.908 110.782 98.2566 110.703 97.9069C110.623 97.5572 111.819 95.78 111.819 95.78C111.819 95.78 113.844 93.7398 113.757 93.3757C113.671 93.0115 115.383 91.1462 115.383 91.1462C116.001 90.6579 116.516 90.0437 116.897 89.3415L117.391 89.2577C119.63 88.8777 123.35 88.1913 123.766 87.9992C124.337 87.7376 124.222 88.9037 123.995 89.8934C123.767 90.8832 123.596 95.634 123.855 96.251C124.115 96.868 123.995 97.8549 123.995 97.8549L123.653 103.187L123.88 104.324C123.88 104.324 123.11 104.964 123.424 105.342C123.738 105.721 123.454 107.354 123.454 107.354C123.48 107.344 123.512 107.333 123.547 107.323C123.52 107.387 123.494 107.453 123.47 107.521C123.028 108.822 123.282 110.966 123.282 110.966V112.657C123.282 112.657 131.181 112.801 132.92 112.801C134.658 112.801 137.055 111.927 137.198 111.227C137.34 110.528 135.197 109.936 134.399 109.905ZM111.934 79.5725L111.417 79.6173C111.588 79.591 111.76 79.5761 111.932 79.5725H111.934ZM115.088 57.2068C115.161 56.8686 115.249 56.5074 115.347 56.1346L115.088 57.2068ZM116.065 80.3888C115.572 80.5901 115.023 80.5901 114.53 80.3888C114.53 80.3888 114.558 78.3501 114.787 77.499C115.016 76.648 115.328 75.1091 115.328 75.1091C115.328 75.1091 115.585 72.9823 115.842 72.0199C116.099 71.0576 117.098 65.697 117.61 65.3474C118.122 64.9977 118.408 65.6103 118.408 65.6103C118.408 65.6103 118.485 65.6103 118.613 65.5944C118.638 65.6493 118.665 65.71 118.695 65.7722C119.304 67.0451 121.088 69.6604 121.088 69.6604C121.618 69.9987 122.067 70.4572 122.4 71.0013C122.886 71.8451 123.028 73.8275 123.028 73.8275C123.028 73.8275 124.112 78.2273 124.624 78.8385C124.881 79.1448 124.764 79.3268 124.589 79.4323C124.225 79.6401 123.916 79.9379 123.689 80.2993C123.617 80.4192 123.539 80.5507 123.46 80.6923C123.264 80.6446 123.089 80.5955 122.943 80.5478C121.535 80.058 116.833 80.0392 116.064 80.3961L116.065 80.3888Z" fill="url(#paint0_linear)"/>
<path d="M123.091 110.972V112.648C123.091 112.648 130.82 112.792 132.522 112.792C134.224 112.792 136.568 111.925 136.708 111.232C136.848 110.538 134.754 109.96 133.973 109.931C133.192 109.902 133.164 109.585 132.159 109.035C131.593 108.726 130.732 107.826 130.09 107.102C129.594 106.543 129.229 106.091 129.229 106.091C129.229 106.091 125.072 106.004 123.872 106.698C123.593 106.857 123.405 107.17 123.275 107.565C122.842 108.851 123.091 110.972 123.091 110.972Z" fill="#434175"/>
<path opacity="0.1" d="M123.275 107.56C124.147 107.247 129.25 107.127 130.09 107.107C129.594 106.547 129.229 106.095 129.229 106.095C129.229 106.095 125.072 106.008 123.872 106.702C123.596 106.855 123.405 107.169 123.275 107.56Z" fill="black"/>
<path d="M100.852 80.8295L101.302 81.1185L101.471 81.224L102.127 81.6343C105.635 83.8219 115.2 89.7547 115.725 89.707C115.864 89.6955 116.274 89.6304 116.841 89.5351L117.325 89.4527C119.516 89.0756 123.156 88.395 123.564 88.2043C124.122 87.9442 124.01 89.1002 123.787 90.0827C123.564 91.0652 123.396 95.7756 123.648 96.3825C123.899 96.9894 123.787 97.9719 123.787 97.9719L123.452 103.26L123.675 104.387C123.675 104.387 122.922 105.023 123.229 105.399C123.536 105.774 123.257 107.393 123.257 107.393C124.15 107.046 130.204 106.93 130.204 106.93C130.204 106.93 129.953 104.618 130.176 104.069C130.4 103.52 130.232 100.255 130.232 100.255C130.232 100.255 130.372 97.7696 130.121 97.1916C129.869 96.6137 130.204 92.9162 130.204 92.9162C130.204 92.9162 130.428 90.7199 130.483 86.2421C130.539 81.7644 128.028 81.6184 128.028 81.6184C128.028 81.6184 127.693 81.591 127.19 81.5404C126.195 81.4421 124.539 81.2514 123.431 81.0029C123.204 80.955 122.98 80.8938 122.76 80.8194C121.393 80.3368 116.788 80.318 116.036 80.6648C115.553 80.8647 115.015 80.8647 114.532 80.6648L113.946 79.6823L108.349 80.1764L107.756 80.2284L102.246 80.7154L101.866 80.7486L100.852 80.8295Z" fill="#565387"/>
<path opacity="0.1" d="M123.286 85.2682C124.912 86.0889 126.463 83.1789 127.193 81.5375C126.198 81.4393 124.542 81.2485 123.434 81C122.699 82.2657 121.727 84.4808 123.286 85.2682Z" fill="black"/>
<path d="M118.402 65.6074C118.437 65.8062 118.503 65.9977 118.599 66.1738C119.195 67.4352 120.942 70.0288 120.942 70.0288C121.461 70.3655 121.9 70.8201 122.226 71.3581C122.7 72.1962 122.84 74.1613 122.84 74.1613C122.84 74.1613 123.9 78.5234 124.402 79.1303C124.653 79.4337 124.542 79.6143 124.367 79.7198C124.011 79.9251 123.709 80.2178 123.487 80.5723C122.754 81.7918 121.587 84.2077 123.23 85.0371C125.463 86.1641 127.556 80.2573 127.556 80.2573C127.556 80.2573 127.137 76.0671 127.026 75.3446C126.914 74.6222 126.246 71.6457 126.246 71.6457C126.246 71.6457 125.771 70.3742 125.492 69.4783C125.213 68.5825 124.376 67.5421 124.376 67.5421C124.376 67.5421 122.869 64.4226 122.45 63.9602C122.256 63.7449 121.984 63.4747 121.753 63.2464C121.473 62.982 121.256 62.7754 121.256 62.7754C121.256 62.7754 118.374 64.9153 118.402 65.6074Z" fill="#A1616A"/>
<path d="M99.4884 110.625L104.567 112.966C104.567 112.966 111.152 113.11 112.296 112.792C113.441 112.474 113.189 111.145 111.682 110.885C110.175 110.625 109.813 109.931 109.31 109.614C108.971 109.4 107.768 108.014 107.022 107.136C106.662 106.712 106.408 106.413 106.408 106.413C106.408 106.413 105.431 103.726 102.726 104.332C102.231 104.444 101.776 104.694 101.408 105.055C99.9503 106.452 99.8233 109.219 99.8233 109.219L99.4884 110.625Z" fill="#434175"/>
<path opacity="0.1" d="M101.471 81.2225L102.127 81.6329C105.635 83.8204 115.2 89.7532 115.725 89.7055C115.864 89.694 116.274 89.6289 116.841 89.5336L117.325 89.4512L117.343 89.418C117.625 88.9101 117.84 88.3653 117.982 87.7983C118.57 85.4879 115.674 83.7193 115.674 83.7193L115.061 83.2251C114.363 82.0085 109.34 80.8584 109.34 80.8584L108.692 80.4076L108.347 80.1677L108.255 80.1042L107.47 79.558L103.536 79.847L102.367 80.6243L102.244 80.7067L101.81 80.9957L101.471 81.2225Z" fill="black"/>
<path opacity="0.1" d="M101.404 105.045C102.472 108.869 106.934 107.621 106.934 107.621L107.018 107.136C106.658 106.712 106.404 106.413 106.404 106.413C106.404 106.413 105.427 103.726 102.721 104.332C102.228 104.441 101.772 104.688 101.404 105.045Z" fill="black"/>
<path d="M100.238 87.6827C101.884 87.6827 106.125 89.7345 106.125 89.7345C106.99 90.428 108.162 90.1969 108.162 90.1969C108.162 90.1969 106.097 92.3642 106.153 93.2601C106.208 94.1559 104.982 95.6297 104.982 95.6297L101.187 103.402C101.466 108.92 106.934 107.39 106.934 107.39L107.157 106.089C107.492 105.916 107.994 104.182 107.994 104.182C107.994 104.182 107.994 103.489 108.329 103.286C108.664 103.084 109.362 101.003 109.362 101.003C109.362 101.003 110.869 98.3736 110.785 98.0268C110.701 97.68 111.874 95.9187 111.874 95.9187C111.874 95.9187 113.855 93.8958 113.771 93.5346C113.688 93.1734 115.362 91.3239 115.362 91.3239C115.968 90.8374 116.471 90.2283 116.842 89.5336C117.127 89.0248 117.345 88.4785 117.488 87.9096C117.961 86.0485 116.171 84.5429 115.455 84.0285C115.282 83.9028 115.176 83.8364 115.176 83.8364L114.562 83.3422C114.246 82.7888 113.028 82.2484 111.805 81.8251C110.921 81.5202 110.028 81.2745 109.457 81.1272C109.069 81.0347 108.837 80.974 108.837 80.974L108.19 80.5232L107.962 80.3657L107.754 80.2212L106.962 79.6736L105.212 79.8022L103.028 79.9626L101.861 80.7457L101.302 81.1185L99.1215 82.5634C99.1215 82.5634 99.0643 83.1197 99.0461 83.8638C99.0461 83.9216 99.0461 83.9794 99.0461 84.0401C99.0196 85.5572 99.1759 87.6827 100.238 87.6827Z" fill="#565387"/>
<path d="M108.636 55.3212L109.222 57.4885C109.222 57.4885 110.255 61.2164 110.366 61.4765C110.478 61.7366 113.185 64.3663 113.297 64.4241C113.408 64.4819 114.882 65.3474 114.882 65.3474C114.882 65.3474 114.999 60.5792 114.882 59.1935C114.872 58.8887 114.896 58.5837 114.954 58.2847C115.132 57.1981 115.582 55.6044 115.956 54.3762C116.269 53.3489 116.527 52.5773 116.527 52.5773C116.527 52.5773 109.998 52.2883 110.221 52.953C110.305 53.2044 110.279 53.6234 110.196 54.0453C110.057 54.7374 109.778 55.4339 109.607 55.379C109.437 55.3396 109.264 55.3197 109.09 55.3197C108.855 55.3125 108.636 55.3212 108.636 55.3212Z" fill="#A1616A"/>
<path opacity="0.1" d="M110.202 54.0453C111 54.7349 111.991 55.1396 113.029 55.1992C114.067 55.2588 115.095 54.9702 115.962 54.3762C116.274 53.3489 116.533 52.5773 116.533 52.5773C116.533 52.5773 110.004 52.2883 110.227 52.953C110.311 53.2044 110.284 53.6234 110.202 54.0453Z" fill="black"/>
<path d="M118.125 50.0357C118.125 50.5658 118.043 51.0926 117.883 51.5962C117.843 51.7261 117.796 51.8539 117.744 51.9791C117.368 52.9009 116.734 53.6847 115.923 54.2291C115.112 54.7735 114.162 55.0535 113.196 55.0328C112.23 55.0121 111.292 54.6917 110.504 54.113C109.716 53.5343 109.113 52.724 108.774 51.7869C108.583 51.2565 108.481 50.6959 108.473 50.1296C108.473 50.0993 108.473 50.0675 108.473 50.0371C108.462 49.3735 108.579 48.7143 108.817 48.098C109.054 47.4817 109.408 46.9205 109.857 46.4472C110.307 45.974 110.843 45.5981 111.434 45.3415C112.025 45.0849 112.659 44.9528 113.3 44.9528C113.941 44.9528 114.576 45.0849 115.167 45.3415C115.758 45.5981 116.294 45.974 116.743 46.4472C117.192 46.9205 117.546 47.4817 117.784 48.098C118.022 48.7143 118.138 49.3735 118.127 50.0371L118.125 50.0357Z" fill="#A1616A"/>
<path opacity="0.1" d="M108.636 55.3212L109.222 57.4886C109.222 57.4886 110.255 61.2165 110.366 61.4765C110.478 61.7366 113.185 64.3663 113.297 64.4241C113.408 64.4819 114.882 65.3474 114.882 65.3474C114.882 65.3474 114.999 60.5793 114.882 59.1936C114.872 58.8888 114.896 58.5838 114.954 58.2847L114.575 59.8871L114.603 63.0948L114.826 63.2682L114.324 64.0485V63.4705C114.324 63.4705 112.538 61.6788 112.259 60.9275C111.979 60.1761 110.975 58.815 110.975 58.815C110.975 58.815 109.831 56.8239 109.803 56.4772C109.782 56.207 109.3 55.5813 109.09 55.3212C108.855 55.3126 108.636 55.3212 108.636 55.3212Z" fill="black"/>
<path opacity="0.1" d="M118.402 65.6074C118.437 65.8062 118.503 65.9977 118.599 66.1738C119.21 66.1088 121.288 65.7071 121.746 63.2479C121.467 62.9835 121.249 62.7769 121.249 62.7769C121.249 62.7769 118.374 64.9153 118.402 65.6074Z" fill="black"/>
<path opacity="0.1" d="M99.0419 84.0473C99.6 83.6341 100.141 83.072 100.461 82.916C100.935 82.6848 101.661 81.9334 101.661 81.9334C101.661 81.9334 101.845 81.8034 102.127 81.6329C102.645 81.3179 103.494 80.8627 104.145 80.8064C104.727 80.7558 106.656 80.6272 108.191 80.529L110.178 80.4018C110.178 80.4018 111.992 79.7372 112.774 80.1706C113.333 80.4609 113.923 80.6839 114.532 80.8353C114.532 80.8353 114.532 80.7717 114.532 80.6633L113.946 79.6808L107.756 80.227L106.962 79.6736L103.028 79.9626L101.86 80.7457L100.853 80.8353L101.304 81.1243L99.1228 82.5692C99.1228 82.5692 99.0544 83.2151 99.0419 84.0473Z" fill="black"/>
<path d="M98.2325 84.2974C98.5284 84.2058 98.8055 84.0589 99.0502 83.8639C99.6083 83.4521 100.146 82.89 100.465 82.7354C100.939 82.5042 101.665 81.7529 101.665 81.7529C101.665 81.7529 103.144 80.7125 104.149 80.6258C104.428 80.6027 104.994 80.5608 105.684 80.5146C106.373 80.4684 107.219 80.412 107.961 80.3701L109.144 80.2935L110.175 80.2271C110.175 80.2271 111.989 79.5624 112.771 79.9959C113.33 80.2862 113.92 80.5092 114.529 80.6605C114.529 80.6605 114.557 78.6377 114.78 77.7996C115.003 76.9616 115.31 75.4314 115.31 75.4314C115.31 75.4314 115.561 73.3218 115.813 72.3682C116.064 71.4146 117.039 66.0973 117.541 65.7505C118.044 65.4038 118.323 66.0106 118.323 66.0106C118.323 66.0106 121.672 65.9528 121.727 62.1397C121.727 62.1397 120.165 60.5214 120.053 60.1168C119.941 59.7123 118.462 58.2096 118.462 58.2096C118.462 58.2096 117.625 56.5913 116.676 56.5624C116.228 56.5356 115.778 56.5502 115.333 56.6057L114.529 60.0013L114.557 63.2089L114.78 63.3823L114.278 64.1626V63.5846C114.278 63.5846 112.492 61.7929 112.213 61.0416C111.933 60.2902 110.929 58.9291 110.929 58.9291C110.929 58.9291 109.785 56.9381 109.757 56.5913C109.729 56.2445 108.947 55.3154 108.947 55.3154C108.79 55.2965 108.631 55.2965 108.473 55.3154C108.402 55.3209 108.331 55.3106 108.265 55.2851C107.814 55.1355 107.334 55.1076 106.87 55.2042C105.906 55.4108 104.438 55.7908 104.036 56.2445C103.422 56.9381 102.529 57.6027 101.524 60.4925L106.937 62.5154L106.465 63.4286L102.158 71.9073C102.158 71.9073 102.018 72.1486 101.821 72.4636C101.57 72.8725 101.234 73.4057 101.013 73.699C100.623 74.2191 100.734 75.8663 100.734 75.8663C100.734 75.8663 100.651 76.6466 100.372 76.9356C100.093 77.2245 100.148 78.2938 100.148 78.2938L99.4227 81.0969C99.4227 81.0969 98.753 81.7326 98.753 82.0216C98.753 82.3106 98.2227 83.1197 98.2227 83.1197C98.2227 83.1197 97.419 84.5054 98.2325 84.2974Z" fill="#A6A5CC"/>
<path opacity="0.1" d="M126.801 86.3838C126.801 86.3838 125.044 86.9892 124.568 87.8561C124.093 88.7231 126.801 86.3838 126.801 86.3838Z" fill="black"/>
<path opacity="0.1" d="M125.909 84.4766C125.853 84.5633 123.501 87.0066 123.649 87.5961C123.797 88.1856 125.909 84.4766 125.909 84.4766Z" fill="black"/>
<path opacity="0.1" d="M112.99 86.2104C112.99 86.2104 110.372 87.4906 110.143 88.0542C109.914 88.6177 112.99 86.2104 112.99 86.2104Z" fill="black"/>
<path opacity="0.1" d="M112.822 87.8561C112.822 87.8561 110.45 88.8964 110.132 89.1565C109.814 89.4166 112.822 87.8561 112.822 87.8561Z" fill="black"/>
<path opacity="0.1" d="M111.734 90.0769C111.734 90.0769 110.686 90.8861 110.107 90.2503C109.528 89.6145 111.734 90.0769 111.734 90.0769Z" fill="black"/>
<path opacity="0.1" d="M115.674 68.9885C115.619 69.0752 112.13 75.5773 111.209 76.0686C110.288 76.5598 115.674 68.9885 115.674 68.9885Z" fill="black"/>
<path opacity="0.1" d="M115.501 71.4448C115.501 71.5893 112.097 79.1303 111.539 79.217C110.98 79.3037 115.501 71.4448 115.501 71.4448Z" fill="black"/>
<path opacity="0.1" d="M102.558 76.2982C102.558 76.2982 100.914 79.935 100.27 80.1417C99.6251 80.3483 102.558 76.2982 102.558 76.2982Z" fill="black"/>
<path opacity="0.1" d="M102.279 74.6814C102.279 74.6814 101.713 75.9515 101.368 75.9515C101.023 75.9515 102.279 74.6814 102.279 74.6814Z" fill="black"/>
<path opacity="0.1" d="M118.125 50.0357C118.125 50.5658 118.043 51.0926 117.883 51.5962C117.843 51.7261 117.796 51.8539 117.744 51.9791C117.497 51.9397 117.264 51.8335 117.07 51.6713C116.863 51.526 116.69 51.3344 116.563 51.1107C116.468 50.8723 116.386 50.6287 116.316 50.381C116.205 50.1014 116.023 49.8577 115.791 49.675C115.558 49.4924 115.282 49.3774 114.992 49.3421C115.153 49.6311 114.897 50.014 114.583 50.0646C114.269 50.1151 113.964 49.9201 113.746 49.6788C113.528 49.4375 113.373 49.1442 113.159 48.9029C112.944 48.6616 112.637 48.4694 112.321 48.5171C112.042 48.5604 111.829 48.78 111.596 48.9433C111.363 49.1066 111.038 49.2164 110.814 49.0416C110.689 48.9448 110.627 48.78 110.507 48.6746C110.199 48.4072 109.719 48.6832 109.492 49.0286C109.141 49.5632 108.933 49.8868 108.473 50.1281C108.473 50.0978 108.473 50.066 108.473 50.0357C108.462 49.3721 108.579 48.7129 108.817 48.0965C109.054 47.4802 109.408 46.919 109.857 46.4458C110.307 45.9725 110.843 45.5966 111.434 45.34C112.025 45.0834 112.659 44.9513 113.3 44.9513C113.941 44.9513 114.576 45.0834 115.167 45.34C115.758 45.5966 116.294 45.9725 116.743 46.4458C117.192 46.919 117.546 47.4802 117.784 48.0965C118.022 48.7129 118.138 49.3721 118.127 50.0357H118.125Z" fill="black"/>
<path d="M109.492 48.8841C109.719 48.5373 110.199 48.2613 110.507 48.5301C110.627 48.6341 110.689 48.7989 110.814 48.8971C111.038 49.0719 111.364 48.9621 111.596 48.7989C111.827 48.6356 112.044 48.416 112.321 48.3726C112.635 48.322 112.941 48.5171 113.159 48.7584C113.376 48.9997 113.53 49.293 113.746 49.5343C113.962 49.7756 114.268 49.9678 114.583 49.9187C114.899 49.8695 115.152 49.4852 114.992 49.1962C115.282 49.2315 115.557 49.3464 115.79 49.5291C116.023 49.7117 116.204 49.9555 116.315 50.2351C116.385 50.4826 116.467 50.7262 116.562 50.9648C116.689 51.1881 116.862 51.3792 117.07 51.5239C117.325 51.719 117.636 51.8823 117.949 51.8259C118.261 51.7696 118.526 51.3925 118.381 51.1035C118.48 51.261 118.695 51.0413 118.727 50.8564C118.798 50.4503 118.776 50.0326 118.663 49.6369C118.51 49.0994 118.186 48.5677 118.31 48.0215C118.409 47.588 118.765 47.2803 118.981 46.8974C119.365 46.2183 119.26 45.308 118.797 44.6838C118.555 44.3792 118.247 44.138 117.898 43.9797C117.548 43.8213 117.168 43.7502 116.788 43.772C116.578 43.7961 116.367 43.7999 116.157 43.7836C115.807 43.7301 115.51 43.4946 115.231 43.2706L112.891 41.3836C112.631 41.1459 112.332 40.9589 112.007 40.8317C111.678 40.7262 111.282 40.7623 111.031 41.0152C110.592 41.4689 110.87 42.2491 110.694 42.8632C110.542 43.3949 110.052 43.7561 109.546 43.9353C109.039 44.1145 108.497 44.1549 107.975 44.285C107.82 44.3116 107.675 44.3815 107.556 44.4873C107.421 44.6605 107.356 44.8809 107.373 45.1028C107.37 45.6462 107.494 46.1824 107.736 46.6647C108.007 47.2037 108.434 47.7571 108.285 48.3452C108.204 48.6558 107.972 48.8942 107.768 49.137C107.327 49.6629 107.178 50.4374 108.01 50.1686C108.815 49.9085 109.039 49.5719 109.492 48.8841Z" fill="black"/>
<g opacity="0.1">
<path opacity="0.1" d="M118.726 50.2915C118.693 50.4765 118.479 50.6961 118.379 50.5386C118.518 50.8276 118.259 51.2018 117.946 51.2611C117.634 51.3203 117.324 51.1527 117.067 50.9591C116.86 50.8137 116.687 50.6222 116.561 50.3985C116.443 50.1716 116.406 49.9086 116.314 49.6688C116.202 49.3893 116.02 49.1458 115.788 48.9632C115.555 48.7805 115.279 48.6655 114.989 48.6299C115.151 48.9189 114.894 49.3032 114.581 49.3523C114.267 49.4015 113.961 49.2078 113.743 48.9665C113.526 48.7252 113.371 48.4334 113.156 48.1906C112.941 47.9479 112.634 47.7572 112.319 47.8048C112.04 47.8496 111.826 48.0678 111.593 48.2311C111.36 48.3944 111.035 48.5056 110.812 48.3308C110.686 48.2325 110.626 48.0678 110.506 47.9638C110.196 47.695 109.716 47.971 109.489 48.3163C109.038 49.0041 108.814 49.3437 108.013 49.6052C107.75 49.6904 107.586 49.6717 107.496 49.5893C107.322 50.0069 107.401 50.3739 108.013 50.1745C108.814 49.913 109.038 49.5749 109.489 48.8871C109.716 48.5403 110.196 48.2643 110.506 48.5331C110.626 48.6371 110.686 48.8018 110.812 48.9001C111.036 49.0749 111.361 48.9651 111.593 48.8018C111.825 48.6385 112.041 48.4189 112.319 48.3756C112.633 48.325 112.938 48.5201 113.156 48.7614C113.374 49.0027 113.527 49.296 113.743 49.5373C113.96 49.7786 114.265 49.9708 114.581 49.9216C114.896 49.8725 115.151 49.4882 114.989 49.1992C115.28 49.2342 115.555 49.349 115.788 49.5317C116.021 49.7144 116.202 49.9583 116.314 50.2381C116.383 50.4858 116.465 50.7294 116.561 50.9677C116.687 51.1909 116.86 51.382 117.067 51.5269C117.324 51.722 117.634 51.8853 117.946 51.8289C118.259 51.7726 118.524 51.3954 118.379 51.1065C118.479 51.264 118.693 51.0443 118.726 50.8594C118.769 50.61 118.778 50.3555 118.751 50.1037C118.747 50.1663 118.738 50.2289 118.726 50.2915Z" fill="black"/>
<path opacity="0.1" d="M108.279 47.8005C108.279 47.7918 108.279 47.786 108.286 47.7774C108.438 47.1907 108.007 46.6373 107.738 46.0984C107.548 45.7181 107.431 45.3036 107.392 44.8774C107.381 44.9531 107.376 45.0293 107.375 45.1057C107.372 45.6491 107.496 46.1851 107.738 46.6677C107.927 47.0361 108.186 47.4118 108.279 47.8005Z" fill="black"/>
<path opacity="0.1" d="M118.979 46.3326C118.762 46.7155 118.406 47.0247 118.307 47.4567C118.268 47.6389 118.268 47.8279 118.307 48.0101C118.411 47.5868 118.76 47.2804 118.973 46.9019C119.176 46.5323 119.252 46.1023 119.188 45.6824C119.16 45.9113 119.089 46.1323 118.979 46.3326Z" fill="black"/>
</g>
<path opacity="0.1" d="M101.827 72.4636C101.864 72.6232 101.892 72.7848 101.912 72.9476C101.912 72.9476 104.117 78.2938 104.396 78.6102C104.481 78.7085 104.805 79.1882 105.212 79.808L105.68 80.5218C106.517 81.8222 107.464 83.2917 107.464 83.2917L109.535 85.1643C109.535 85.1643 114.027 85.5356 115.454 84.0272C115.281 83.9015 115.175 83.835 115.175 83.835L114.561 83.3408C114.244 82.7874 113.026 82.247 111.804 81.8237C110.674 81.8323 109.748 81.9277 109.748 81.9277L109.455 81.1258L109.148 80.2892L107.581 76.0383C107.581 76.0383 106.574 70.6647 106.239 70.4031C105.904 70.1416 105.989 69.3339 105.989 69.3339C105.989 69.3339 106.602 67.051 106.379 66.7331C106.155 66.4152 106.741 64.0759 106.741 64.0759C106.684 63.847 106.594 63.6283 106.474 63.4271L102.166 71.9058C102.166 71.9058 102.02 72.1486 101.827 72.4636Z" fill="black"/>
<path d="M106.794 63.9039C106.794 63.9039 106.208 66.2432 106.432 66.5611C106.655 66.8789 106.041 69.1619 106.041 69.1619C106.041 69.1619 105.959 69.971 106.292 70.2311C106.626 70.4912 107.634 75.8663 107.634 75.8663L109.796 81.7615C109.796 81.7615 116.561 81.0679 115.864 83.2642C115.168 85.4604 109.585 84.9981 109.585 84.9981L107.52 83.1197C107.52 83.1197 104.729 78.7561 104.45 78.4382C104.171 78.1203 101.967 72.7756 101.967 72.7756C101.967 72.7756 101.855 71.7064 101.38 71.1573C100.906 70.6082 101.269 69.6792 101.269 69.6792C101.269 69.6792 100.683 62.6916 101.297 61.8535C101.911 61.0155 106.153 61.3897 106.794 63.9039Z" fill="#A1616A"/>
<path opacity="0.1" d="M103.335 59.5113L101.577 60.6094C101.577 60.6094 101.075 62.3722 100.684 62.6034C100.684 62.6034 104.2 60.5805 106.85 65.2317C106.85 65.2317 106.767 64.6263 107.129 64.3373C107.492 64.0483 107.408 62.8057 107.408 62.8057C107.505 62.6094 107.589 62.4066 107.66 62.1988C107.911 61.5631 106.605 57.9219 103.335 59.5113Z" fill="black"/>
<path d="M103.28 59.3958L101.521 60.494C101.521 60.494 101.019 62.2567 100.628 62.4879C100.628 62.4879 104.145 60.4651 106.794 65.1162C106.794 65.1162 106.711 64.5108 107.074 64.2218C107.436 63.9328 107.353 62.6902 107.353 62.6902C107.449 62.4939 107.533 62.2912 107.604 62.0834C107.861 61.4476 106.543 57.8064 103.28 59.3958Z" fill="#A6A5CC"/>
<path d="M87.6112 109.998C90.5057 109.998 92.8521 107.419 92.8521 104.237C92.8521 101.055 90.5057 98.4761 87.6112 98.4761C84.7167 98.4761 82.3702 101.055 82.3702 104.237C82.3702 107.419 84.7167 109.998 87.6112 109.998Z" fill="#FBD56F"/>
<path opacity="0.1" d="M87.6112 109.998C90.5057 109.998 92.8521 107.419 92.8521 104.237C92.8521 101.055 90.5057 98.4761 87.6112 98.4761C84.7167 98.4761 82.3702 101.055 82.3702 104.237C82.3702 107.419 84.7167 109.998 87.6112 109.998Z" fill="black"/>
<path d="M88.5153 109.998C91.4098 109.998 93.7563 107.476 93.7563 104.366C93.7563 101.255 91.4098 98.7333 88.5153 98.7333C85.6209 98.7333 83.2744 101.255 83.2744 104.366C83.2744 107.476 85.6209 109.998 88.5153 109.998Z" fill="#FBD56F"/>
<path d="M12.5776 107.403C16.1526 107.403 19.0507 106.896 19.0507 106.27C19.0507 105.644 16.1526 105.137 12.5776 105.137C9.00269 105.137 6.10461 105.644 6.10461 106.27C6.10461 106.896 9.00269 107.403 12.5776 107.403Z" fill="#389168"/>
<path d="M15.254 104.416C15.533 104.149 15.7912 103.838 15.8721 103.451C15.953 103.064 15.794 102.61 15.4409 102.47C15.0447 102.312 14.6205 102.597 14.2995 102.885C13.9786 103.172 13.6116 103.499 13.1916 103.438C13.4077 103.235 13.5693 102.978 13.6608 102.691C13.7522 102.405 13.7704 102.098 13.7135 101.802C13.6969 101.68 13.6487 101.566 13.574 101.47C13.3549 101.227 12.9558 101.325 12.6921 101.523C11.8549 102.133 11.6219 103.311 11.6177 104.37C11.5326 103.987 11.6037 103.59 11.6023 103.197C11.6009 102.804 11.4963 102.37 11.1837 102.159C10.9845 102.049 10.7608 101.994 10.5349 102.002C10.1581 101.987 9.73954 102.026 9.48279 102.311C9.16326 102.666 9.24558 103.26 9.52326 103.65C9.80093 104.04 10.2209 104.283 10.613 104.553C10.9248 104.746 11.1908 105.009 11.3916 105.322C11.4156 105.368 11.4347 105.416 11.4488 105.467H13.8084C14.3338 105.186 14.82 104.832 15.254 104.416Z" fill="#389168"/>
<path d="M59.2089 43.2865L64.5 40.5411L66.4535 42.395L66.9182 43.7199L67.4066 45.9465L66.9768 46.9218L63.5931 47.5605C63.5931 47.5605 61.7903 47.4521 61.5112 47.5966C61.2321 47.7411 60.0935 47.9911 60.0935 47.9911L59.2089 45.7356V43.2865Z" fill="#FBD56F"/>
</g>
<defs>
<linearGradient id="paint0_linear" x1="117.352" y1="112.999" x2="117.352" y2="40.1699" gradientUnits="userSpaceOnUse">
<stop stop-color="#808080" stop-opacity="0.25"/>
<stop offset="0.54" stop-color="#808080" stop-opacity="0.12"/>
<stop offset="1" stop-color="#808080" stop-opacity="0.1"/>
</linearGradient>
<clipPath id="clip0">
<rect width="156" height="116" fill="white"/>
</clipPath>
</defs>
</svg>
