<svg width="156" height="116" viewBox="0 0 156 116" fill="none" xmlns="http://www.w3.org/2000/svg">
<path d="M113.189 108.828L112.378 97.1942L110.062 109.497C110.062 109.497 110.093 112.6 110.17 116H113.137C113.237 112.114 113.189 108.828 113.189 108.828Z" fill="#F2F2F2"/>
<path d="M71.5121 112.965C71.284 111.877 71.1229 110.772 71.0302 109.658L70.706 105.634C70.5697 104.531 70.4296 103.56 70.2888 102.703C69.2564 96.5915 68.1906 96.3705 68.1906 96.3705C68.1448 96.411 68.1002 96.4558 68.0544 96.5021C67.9292 96.6337 67.8126 96.7758 67.7055 96.9273C66.008 99.4187 64.8565 105.881 64.2515 110.167C63.9174 112.535 63.751 114.239 63.751 114.239C63.751 114.239 63.9023 114.965 64.1085 116H71.8545C71.8251 114.978 71.7104 113.962 71.5121 112.965Z" fill="#F2F2F2"/>
<path d="M132.42 0H23.5795C10.6108 0 0 12.2531 0 27.2292V88.7708C0 103.747 10.6108 116 23.5795 116H58.0762L57.631 113.58C57.631 113.58 56.486 105.047 57.631 98.3951C58.0008 96.308 58.2545 94.1956 58.3906 92.0711C58.5338 89.6725 58.8733 87.2951 59.4046 84.9704C59.4348 84.8362 59.4688 84.7032 59.5004 84.5694C59.2212 84.4817 59.0929 84.4116 59.1577 84.3674C59.3367 84.2454 59.4351 83.8717 59.4841 83.3975C59.789 80.2584 60.3706 77.1635 61.2199 74.1607C60.0629 74.9995 59.2947 75.0886 58.7918 74.7635C57.0247 74.2063 57.7583 69.6165 57.7583 69.6165C57.7583 69.6165 58.8565 59.6893 59.2214 56.0949C59.4311 54.0288 62.1184 52.858 64.4973 52.2223C64.7479 51.6014 64.9285 50.9759 64.8139 50.3195C64.8061 50.2753 64.795 50.2326 64.7849 50.1894C64.4824 49.4136 63.8676 48.7753 63.6368 47.9719C63.5346 47.7557 63.4625 47.5222 63.4234 47.28C63.2191 45.9025 64.3344 44.7127 64.656 43.3879C64.3279 43.0221 64.083 42.5685 63.9428 42.0673C63.4527 40.9067 63.6917 39.5135 65.2653 38.438C65.5795 38.2232 65.9124 38.0337 66.2505 37.8519C66.3744 37.7594 66.5091 37.6881 66.6506 37.64C67.7765 37.0519 68.9083 36.4828 69.5821 35.3377C69.7556 35.0428 69.9079 34.7007 70.1886 34.5457C70.3209 34.4803 70.4625 34.4437 70.6062 34.4377C72.7758 34.2454 74.7403 36.3939 76.8996 36.0859C77.5537 35.9927 78.2214 35.6751 78.8493 35.9037C79.2619 36.0539 79.5839 36.4198 79.8612 36.7982C80.6158 37.8385 81.1623 39.0583 81.4615 40.3707C81.7608 41.683 81.8055 43.0554 81.5925 44.39C81.3187 46.0326 80.653 47.7256 81.1327 49.306C81.4852 50.4673 82.429 51.4097 82.4357 52.6381C82.4412 53.6489 81.8199 54.4554 81.2196 55.2419C81.2976 55.3341 81.3737 55.4288 81.4478 55.526C82.9148 57.4562 82.6376 59.1035 82.4307 59.7631L82.4308 59.7635L81.6763 68.1704L81.0402 73.8104C81.0402 73.8104 80.8829 76.125 79.4013 76.6327C78.9697 76.8632 78.4043 76.924 77.6611 76.6628C77.1788 76.4933 76.7725 76.3239 76.4276 76.1592C76.7535 77.3614 77.3146 79.8159 77.2235 82.1981C77.0962 85.5243 77.4779 85.8135 77.4779 85.8135C77.454 85.8477 77.4268 85.8787 77.397 85.9059C78.9082 89.7616 78.9221 93.7175 77.3507 97.6721C75.5696 102.155 77.4779 112.568 77.4779 112.568C77.4779 112.568 77.6137 114.192 77.6748 116H104.998C104.563 111.213 104.041 106.422 103.809 105.886C103.427 105.003 103.912 90.4555 104.094 85.4025C104.013 85.379 103.934 85.3551 103.86 85.3305C103.731 85.2877 103.615 85.2431 103.508 85.1975C103.502 85.4546 103.526 85.7115 103.578 85.9617C103.738 86.395 103.353 86.7135 102.697 86.9308C103.079 89.0791 103.549 93.0767 101.956 93.8512C100.318 94.6479 100.285 89.8081 100.375 87.2854C100.168 87.2943 99.9611 87.2989 99.7563 87.2989C97.7877 87.2989 100.335 60.9558 100.22 59.2174C100.104 57.4791 101.146 50.3918 101.146 50.3918C101.146 50.3918 101.493 48.9209 102.535 48.6535C103.578 48.386 108.557 45.043 108.557 45.043C108.837 44.5887 109.191 44.2017 109.599 43.9036V43.7058C109.729 43.5661 109.867 43.4371 110.012 43.3195C109.952 42.1511 109.815 40.6438 109.715 39.6254C109.155 38.9668 108.777 38.1314 108.629 37.2247C108.415 37.0324 108.213 36.8246 108.022 36.6026C107.544 35.9695 107.27 35.1653 107.246 34.3257C107.224 33.4918 107.329 32.66 107.554 31.8675C107.613 31.6041 107.704 31.3515 107.823 31.1168C107.986 30.8447 108.192 30.6095 108.429 30.4227C108.499 30.3625 108.572 30.3061 108.644 30.2493C108.798 29.9049 109.023 29.6098 109.299 29.3905C109.89 28.9425 110.651 28.9791 111.358 28.9994C111.368 28.9997 111.379 28.9996 111.39 28.9997C111.521 28.9753 111.652 28.9552 111.784 28.9393C111.862 28.9216 111.933 28.8783 111.989 28.8147C112.045 28.7511 112.084 28.6699 112.101 28.5811C112.197 28.6873 112.292 28.7934 112.388 28.8995C112.532 28.8971 112.675 28.9 112.818 28.908C112.882 28.7402 112.956 28.5784 113.042 28.4238C113.094 28.5966 113.146 28.7693 113.199 28.9421C113.343 28.9598 113.486 28.9821 113.629 29.0107C113.742 28.9074 113.854 28.8042 113.967 28.7009C113.992 28.6779 114.081 29.0164 114.127 29.1325C114.204 29.1555 114.281 29.1799 114.358 29.2073C114.478 29.201 114.61 29.1751 114.684 29.1765C115.092 29.1606 115.495 29.2767 115.848 29.5116C116.156 29.7707 116.41 30.1079 116.588 30.4974C117.043 31.3286 117.325 32.2699 117.413 33.2479C117.634 33.6016 117.79 34.0039 117.871 34.4299C118.062 35.7723 116.958 36.894 116.739 38.2307C116.622 38.9438 116.755 39.7336 116.441 40.3619C116.303 40.6149 116.123 40.8334 115.91 41.0042C115.785 41.1123 115.654 41.2118 115.518 41.3023C115.526 42.1109 115.606 42.9164 115.758 43.7058L115.907 44.3655C116.139 44.5584 116.388 44.7813 116.663 45.043C116.663 45.043 119.905 46.6477 121.063 47.45C122.081 48.1553 123.188 48.2414 123.519 49.1603L123.611 49.1884C123.611 49.1884 124.769 64.0314 124.884 66.5721C125 69.1128 126.39 84.7582 126.158 85.4268C126.072 85.6742 125.526 85.9582 124.867 86.184C125.252 88.2148 125.873 92.6315 124.19 93.45C122.483 94.2798 122.518 88.9958 122.62 86.5829C122.392 86.5592 122.243 86.4904 122.221 86.3628C122.202 86.2542 122.142 85.7632 122.055 85.0145C121.91 85.0405 121.761 85.0672 121.602 85.0951C121.57 85.1007 121.536 85.1065 121.503 85.1121C122.972 90.4451 119.72 104.589 119.095 107.357C118.768 108.804 118.415 112.38 118.098 116H132.42C145.389 116 156 103.747 156 88.7708V27.2292C156 12.2531 145.389 0 132.42 0Z" fill="#F2F2F2"/>
<path d="M34.9254 49.06C43.6513 49.06 50.725 41.6266 50.725 32.457C50.725 23.2874 43.6513 15.854 34.9254 15.854C26.1996 15.854 19.1259 23.2874 19.1259 32.457C19.1259 41.6266 26.1996 49.06 34.9254 49.06Z" fill="#3F3D56"/>
<path d="M60.9531 86.7118C60.9531 86.7118 66.275 82.4867 66.275 80.5661C66.275 78.6456 69.9339 66.1622 71.9296 71.7317C73.9254 77.3012 69.1023 85.1754 69.1023 85.1754C69.1023 85.1754 63.7804 96.3145 60.6205 98.235C57.4605 100.156 54.7996 99.0032 54.7996 99.0032V93.8178L57.84 88.6214C58.1841 88.0334 58.6478 87.5518 59.1906 87.2188C59.7333 86.8859 60.3385 86.7118 60.9531 86.7118Z" fill="#A1616A"/>
<path d="M45.826 57.2964C45.826 57.2964 53.8017 60.2086 54.6333 61.553C55.4648 62.8974 55.7975 60.5927 58.1258 69.4272C60.4542 78.2616 61.0363 86.8079 61.0363 86.8079C61.0363 86.8079 55.2985 89.0166 55.9638 97.6589C56.629 106.301 54.9659 115.712 54.9659 115.712H52.8896L48.3135 99.3874L53.8017 74.6126C53.8017 74.6126 45.9996 59.3775 45.826 57.2964Z" fill="#6D709A"/>
<path d="M43.1578 49.2616C48.6688 49.2616 53.1364 44.1025 53.1364 37.7384C53.1364 31.3743 48.6688 26.2152 43.1578 26.2152C37.6467 26.2152 33.1791 31.3743 33.1791 37.7384C33.1791 44.1025 37.6467 49.2616 43.1578 49.2616Z" fill="#A1616A"/>
<path d="M46.983 46.3807C46.983 46.3807 44.1557 57.1357 46.6504 58.6721C49.145 60.2086 51.9723 67.1225 51.9723 67.1225L47.6482 72.692H37.6696L33.1792 66.9304L31.3497 57.1357L33.8444 54.8311C33.8444 54.8311 36.5054 47.149 36.5054 43.1158C36.5054 39.0827 46.983 46.3807 46.983 46.3807Z" fill="#A1616A"/>
<path d="M47.8144 58.2881C47.8144 58.2881 45.8187 57.7119 46.9829 60.0166C48.1471 62.3212 49.3113 66.5464 45.1535 66.7384C40.9957 66.9305 36.8379 64.4338 35.5074 59.2483C34.1769 54.0629 33.678 54.447 33.1791 54.6391C32.6801 54.8311 27.3582 61.1689 27.3582 61.1689L29.1876 73.0762L29.8528 115.712H54.1343C54.1343 115.712 55.1321 103.421 53.469 100.54C51.8059 97.6589 54.9658 90.3609 54.9658 90.3609C54.9658 90.3609 57.7931 85.3675 55.6311 75.7649C53.469 66.1623 48.646 58.2881 47.8144 58.2881Z" fill="#54A680"/>
<path d="M34.3433 54.6391C34.3433 54.6391 31.8486 53.2947 29.6865 55.5993C27.5245 57.904 22.7015 59.8245 22.7015 60.9768C22.7015 62.1291 26.8592 94.9702 24.032 100.732C21.2047 106.493 18.2111 115.712 18.2111 115.712H32.0836C32.0836 115.712 34.3433 106.109 36.6716 100.924C39 95.7384 38.8337 81.1424 38.1684 76.7251C37.5032 72.3079 34.3433 54.6391 34.3433 54.6391Z" fill="#6D709A"/>
<path d="M19.7079 105.533L20.5178 115.712H29.5064L28.6887 103.036L19.7079 105.533Z" fill="#A1616A"/>
<path d="M60.6205 100.156L62.7825 115.712H110.846L115.004 84.4072L60.6205 100.156Z" fill="#3F3D56"/>
<path d="M116.834 82.2947L117.333 85.1755L55.1322 102.46V99.9636L116.834 82.2947Z" fill="#3F3D56"/>
<path d="M90.5565 87.4801L90.2239 90.745L93.8827 90.1688L92.3859 86.9039L90.5565 87.4801Z" fill="#3F3D56"/>
<path d="M70.4329 54.447C70.4329 54.447 77.7506 53.8709 79.7463 60.4007C81.742 66.9305 86.3987 78.6457 88.2282 80.3742C90.0576 82.1027 92.0533 86.7119 91.7207 88.2483" stroke="#3F3D56" stroke-width="5" stroke-miterlimit="10"/>
<path d="M71.5139 54.351C71.5139 55.2525 70.6837 55.9834 69.3518 55.9834C68.02 55.9834 67.3561 55.2525 67.3561 54.351C67.3561 53.4494 68.02 52.7185 69.3518 52.7185C70.6837 52.7185 71.5139 53.4494 71.5139 54.351Z" fill="#389168"/>
<path d="M59.2068 84.3113C59.2068 84.3113 60.4542 78.2616 58.1258 69.4272C55.7975 60.5927 55.4648 62.8974 54.6333 61.553C53.8017 60.2086 45.826 57.2964 45.826 57.2964C45.8831 57.9802 46.7638 60.0844 47.9207 62.6016C47.7125 61.6942 47.3969 60.8244 46.983 60.0166C45.8188 57.7119 47.8145 58.2881 47.8145 58.2881C48.6461 58.2881 53.4691 66.1623 55.6312 75.7649C57.7932 85.3676 54.9659 90.361 54.9659 90.361L59.2068 84.3113Z" fill="#6D709A"/>
<path d="M45.902 57.2318C45.902 57.2318 46.8866 61.5449 47.7248 62.1731C48.563 62.8013 53.534 68.7653 53.534 68.7653L52.887 63.9537L50.2261 59.3444L49.5183 58.7513L45.902 57.2318Z" fill="#6D709A"/>
<path opacity="0.1" d="M23.7825 70.4835L24.0144 60.5928C24.0144 60.5928 18.5437 63.2815 18.0448 74.8047C17.5459 86.3279 18.8764 108.03 20.7058 108.222C22.5352 108.414 31.1834 106.109 31.1834 106.109C31.1834 106.109 32.5139 78.2616 32.0149 74.6126C31.516 70.9636 23.7825 70.4835 23.7825 70.4835Z" fill="black"/>
<path d="M24.1983 60.5928H22.8502C22.8502 60.5928 17.3795 63.2815 16.8806 74.8047C16.3817 86.3279 17.7122 108.03 19.5416 108.222C21.371 108.414 30.0192 106.109 30.0192 106.109C30.0192 106.109 31.3497 78.2616 30.8508 74.6126C30.3518 70.9636 24.1983 60.5928 24.1983 60.5928Z" fill="#6D709A"/>
<path d="M31.2665 48.0132C36.9613 48.0132 41.5778 42.0373 41.5778 34.6656C41.5778 27.2938 36.9613 21.3179 31.2665 21.3179C25.5717 21.3179 20.9552 27.2938 20.9552 34.6656C20.9552 42.0373 25.5717 48.0132 31.2665 48.0132Z" fill="#3F3D56"/>
<path d="M38.6674 45.5166C39.8155 45.5166 40.7463 43.9259 40.7463 41.9636C40.7463 40.0014 39.8155 38.4106 38.6674 38.4106C37.5193 38.4106 36.5885 40.0014 36.5885 41.9636C36.5885 43.9259 37.5193 45.5166 38.6674 45.5166Z" fill="#A1616A"/>
<path d="M20.9553 31.1126C25.6397 31.1126 29.4371 26.7274 29.4371 21.3179C29.4371 15.9084 25.6397 11.5232 20.9553 11.5232C16.2709 11.5232 12.4734 15.9084 12.4734 21.3179C12.4734 26.7274 16.2709 31.1126 20.9553 31.1126Z" fill="#3F3D56"/>
<path d="M22.0515 29.1646C20.8193 29.8886 19.4526 30.2538 18.0702 30.2284C16.6879 30.2029 15.3319 29.7876 14.1203 29.0186C12.9087 28.2496 11.8783 27.1503 11.1187 25.8163C10.3592 24.4823 9.89356 22.9541 9.76241 21.3647C9.58128 22.7367 9.65471 24.1373 9.97782 25.474C10.3009 26.8107 10.8663 28.0528 11.6366 29.118C12.4069 30.1832 13.3644 31.0473 14.4457 31.6528C15.527 32.2584 16.7074 32.5917 17.9086 32.6306C19.1099 32.6695 20.3046 32.4132 21.4136 31.8786C22.5226 31.344 23.5206 30.5433 24.3414 29.5296C25.1621 28.516 25.787 27.3124 26.1745 25.9988C26.562 24.6851 26.7033 23.2914 26.5891 21.9099C26.3873 23.4489 25.8703 24.91 25.0811 26.1718C24.2919 27.4336 23.2532 28.4596 22.0515 29.1646Z" fill="#3F3D56"/>
<path d="M16.302 22.9369C15.4503 21.6793 14.8777 20.2003 14.6341 18.6288C14.3905 17.0573 14.4833 15.4408 14.9044 13.9201C15.3255 12.3995 16.0621 11.0207 17.0502 9.904C18.0382 8.78726 19.2476 7.96638 20.5732 7.51282C19.3725 7.57075 18.1962 7.9227 17.1222 8.54533C16.0482 9.16796 15.101 10.0471 14.3435 11.1244C13.5859 12.2017 13.0353 13.4526 12.7281 14.7943C12.4209 16.1359 12.3641 17.5377 12.5615 18.9066C12.7589 20.2755 13.2059 21.5803 13.8731 22.7346C14.5402 23.8889 15.4121 24.8663 16.4311 25.602C17.4501 26.3377 18.5928 26.815 19.7836 27.0021C20.9743 27.1892 22.1859 27.082 23.3381 26.6875C21.9915 26.7541 20.6505 26.4485 19.4267 25.7961C18.2029 25.1438 17.1317 24.1635 16.302 22.9369Z" fill="#3F3D56"/>
<path d="M43.7399 33.8013C47.0465 33.8013 49.7271 31.5657 49.7271 28.8079C49.7271 26.0502 47.0465 23.8146 43.7399 23.8146C40.4332 23.8146 37.7527 26.0502 37.7527 28.8079C37.7527 31.5657 40.4332 33.8013 43.7399 33.8013Z" fill="#3F3D56"/>
</svg>
