<svg width="156" height="116" viewBox="0 0 156 116" fill="none" xmlns="http://www.w3.org/2000/svg">
<g clip-path="url(#clip0)">
<path opacity="0.1" d="M80.2473 116.001C119.182 116.001 150.745 90.0336 150.745 58.0007C150.745 25.9678 119.182 0 80.2473 0C41.3123 0 9.74927 25.9678 9.74927 58.0007C9.74927 90.0336 41.3123 116.001 80.2473 116.001Z" fill="#389168"/>
<path opacity="0.1" d="M25.994 91.384C40.35 91.384 51.9879 89.7211 51.9879 87.6698C51.9879 85.6185 40.35 83.9556 25.994 83.9556C11.6379 83.9556 0 85.6185 0 87.6698C0 89.7211 11.6379 91.384 25.994 91.384Z" fill="#389168"/>
<path opacity="0.1" d="M38.4876 109.079C44.0715 109.079 48.5981 108.217 48.5981 107.153C48.5981 106.09 44.0715 105.228 38.4876 105.228C32.9038 105.228 28.3772 106.09 28.3772 107.153C28.3772 108.217 32.9038 109.079 38.4876 109.079Z" fill="#389168"/>
<path opacity="0.1" d="M107.573 101.671C113.156 101.671 117.683 100.809 117.683 99.7458C117.683 98.6825 113.156 97.8204 107.573 97.8204C101.989 97.8204 97.4622 98.6825 97.4622 99.7458C97.4622 100.809 101.989 101.671 107.573 101.671Z" fill="#389168"/>
<path opacity="0.1" d="M73.2652 100.055C82.3454 100.055 89.7063 98.9055 89.7063 97.4874C89.7063 96.0694 82.3454 94.9198 73.2652 94.9198C64.1849 94.9198 56.824 96.0694 56.824 97.4874C56.824 98.9055 64.1849 100.055 73.2652 100.055Z" fill="#389168"/>
<path opacity="0.1" d="M121.709 89.7289C140.648 89.7289 156.001 87.5121 156.001 84.7775C156.001 82.043 140.648 79.8262 121.709 79.8262C102.77 79.8262 87.4167 82.043 87.4167 84.7775C87.4167 87.5121 102.77 89.7289 121.709 89.7289Z" fill="#389168"/>
<path d="M7.10758 76.1356C6.33727 77.5171 5.9775 79.0619 6.06483 80.6131C6.15216 82.1643 6.68349 83.6665 7.60479 84.967C7.90704 85.3849 8.18512 85.6859 8.40728 85.7653C9.47273 86.1512 11.6066 87.0999 11.6066 87.0999L16.745 85.2386C16.745 85.2386 17.5792 81.1706 18.3681 77.6779C18.9061 75.2955 19.426 73.1821 19.6391 72.8115C20.1711 71.899 19.6391 61.9643 19.6391 61.9643C19.6391 61.9643 14.5007 61.6466 13.0877 65.2981L12.4696 66.4127L7.10758 76.1356Z" fill="#A8A8A8"/>
<path opacity="0.1" d="M13.9294 77.2335C17.0532 80.5339 18.371 77.6793 18.371 77.6793C18.909 75.2969 19.4289 73.1835 19.642 72.8129C20.174 71.9004 19.642 61.9657 19.642 61.9657C19.642 61.9657 14.5037 61.648 13.0906 65.2995L12.4725 66.4141C12.0766 69.3356 11.6851 74.8581 13.9294 77.2335Z" fill="white"/>
<path d="M14.6156 86.4326L32.7509 84.5017L35.9866 64.8746L33.5398 59.777C32.5061 57.6061 31.0747 55.6154 29.3082 53.8922C28.0765 52.6955 26.5879 51.5447 25.0223 50.9665C24.8083 50.887 24.5899 50.8182 24.3679 50.7604C24.1127 50.6889 23.8428 50.674 23.5802 50.7168C23.3176 50.7597 23.0697 50.8591 22.8566 51.0069C20.6199 52.4684 19.8204 58.6819 19.562 61.6731C19.4557 62.9022 19.2756 64.125 19.0225 65.3358L14.6156 86.4326Z" fill="#A8A8A8"/>
<path opacity="0.1" d="M26.6892 64.6629L22.911 73.2309C24.8908 71.8962 27.8242 64.628 27.8242 64.628L30.4523 72.9146L28.3576 64.1808C28.6643 62.2842 28.7534 60.3631 28.6236 58.4493C28.4574 56.2564 26.2252 52.7373 25.0132 50.9651C24.7992 50.8856 24.5808 50.8168 24.3588 50.7589C24.1036 50.6875 23.8338 50.6726 23.5711 50.7154C23.3085 50.7583 23.0606 50.8577 22.8475 51.0055C23.7996 52.7679 26.1799 57.1745 26.9053 58.4841C27.8257 60.1336 26.6892 64.6629 26.6892 64.6629Z" fill="white"/>
<path d="M29.7737 87.1H39.6136C40.0184 87.1001 40.4189 87.0243 40.7909 86.8772C41.1629 86.7301 41.4986 86.5148 41.7775 86.2444C42.0564 85.974 42.2727 85.6542 42.4133 85.3043C42.5539 84.9544 42.6159 84.5818 42.5954 84.2091C42.3777 80.3194 41.8261 73.3841 40.5143 68.9817C39.8055 66.6063 38.9819 65.3595 38.2263 64.7451C37.8719 64.4298 37.4144 64.2314 36.925 64.1808C36.5538 64.1513 36.1823 64.2344 35.8672 64.4177C34.04 66.0324 31.9061 74.5293 31.9061 74.5293L29.7737 87.1Z" fill="#A8A8A8"/>
<path opacity="0.1" d="M38.8579 79.5643C39.2629 80.5994 39.4231 81.7934 38.8579 82.9567L36.665 83.9556C36.665 83.9556 30.771 81.6526 31.4874 76.9326C31.4874 76.9326 31.6808 75.9574 33.7105 76.0326C34.8519 76.0834 35.9511 76.4465 36.8678 77.0755C37.7846 77.7045 38.4774 78.5709 38.8579 79.5643Z" fill="white"/>
<path opacity="0.1" d="M36.5154 67.1567C36.4474 65.5016 37.4222 64.9276 38.2277 64.7451C37.8734 64.4298 37.4159 64.2315 36.9265 64.1808C36.3658 64.6134 35.9684 65.1987 35.7915 65.8527L33.7362 75.088C33.7362 75.088 36.6303 69.9305 36.5154 67.1567Z" fill="white"/>
<path d="M27.1849 74.4597L32.0572 80.6036L32.902 85.6748L29.7707 87.1L25.2565 88.0195C24.8217 88.1085 24.3747 88.1353 23.9311 88.0989L11.6127 87.1L13.2887 83.5181L19.0769 76.027L27.1849 74.4597Z" fill="#A8A8A8"/>
<path opacity="0.1" d="M25.2987 72.3504C25.2987 72.3504 28.6235 72.5608 27.3752 77.827C26.1269 83.0932 13.2826 83.5153 13.2826 83.5153C13.2826 83.5153 16.012 79.0571 20.2103 75.8626C20.6818 75.5045 21.1367 75.1312 21.5704 74.7327C22.5361 73.8425 24.3829 72.2779 25.2987 72.3504Z" fill="white"/>
<path opacity="0.1" d="M28.2896 76.3209C28.2896 76.3209 32.7947 80.1006 32.37 85.9171L28.2896 76.3209Z" fill="black"/>
<path opacity="0.1" d="M35.8686 64.4177C35.8686 64.4177 31.1413 70.2133 30.6108 79.131L35.8686 64.4177Z" fill="black"/>
<path opacity="0.1" d="M19.6435 61.9615C19.6435 61.9615 21.9316 71.5396 16.219 78.759L19.6435 61.9615Z" fill="black"/>
<path d="M61.317 97.4345H85.972C86.2103 97.4334 86.4443 97.3754 86.6511 97.2662C86.8579 97.157 87.0305 97.0003 87.1522 96.8114C87.2739 96.6225 87.3405 96.4078 87.3456 96.1882C87.3506 95.9685 87.2939 95.7514 87.181 95.5579L74.8596 74.4541C74.7415 74.2518 74.5662 74.0827 74.3522 73.9649C74.1383 73.8471 73.8937 73.7849 73.6445 73.7849C73.3953 73.7849 73.1507 73.8471 72.9368 73.9649C72.7229 74.0827 72.5475 74.2518 72.4295 74.4541L60.102 95.5579C59.9888 95.7518 59.9322 95.9695 59.9375 96.1896C59.9428 96.4097 60.0099 96.6248 60.1323 96.8138C60.2548 97.0029 60.4282 97.1594 60.6359 97.2682C60.8435 97.377 61.0782 97.4343 61.317 97.4345ZM75.2132 93.5782H72.0758V90.6874H75.2132V93.5782ZM75.2132 88.7592H72.0758V82.9762H75.2132V88.7592Z" fill="#464353"/>
<path opacity="0.1" d="M61.317 97.4345H85.972C86.2103 97.4334 86.4443 97.3754 86.6511 97.2662C86.8579 97.157 87.0305 97.0003 87.1522 96.8114C87.2739 96.6225 87.3405 96.4078 87.3456 96.1882C87.3506 95.9685 87.2939 95.7514 87.181 95.5579L74.8596 74.4541C74.7415 74.2518 74.5662 74.0827 74.3522 73.9649C74.1383 73.8471 73.8937 73.7849 73.6445 73.7849C73.3953 73.7849 73.1507 73.8471 72.9368 73.9649C72.7229 74.0827 72.5475 74.2518 72.4295 74.4541L60.102 95.5579C59.9888 95.7518 59.9322 95.9695 59.9375 96.1896C59.9428 96.4097 60.0099 96.6248 60.1323 96.8138C60.2548 97.0029 60.4282 97.1594 60.6359 97.2682C60.8435 97.377 61.0782 97.4343 61.317 97.4345ZM75.2132 93.5782H72.0758V90.6874H75.2132V93.5782ZM75.2132 88.7592H72.0758V82.9762H75.2132V88.7592Z" fill="black"/>
<path d="M61.317 98.1311H85.972C86.2103 98.13 86.4443 98.072 86.6511 97.9628C86.8579 97.8536 87.0305 97.6969 87.1522 97.508C87.2739 97.3191 87.3405 97.1044 87.3456 96.8848C87.3506 96.6651 87.2939 96.448 87.181 96.2545L74.8596 75.1507C74.7415 74.9484 74.5662 74.7793 74.3522 74.6615C74.1383 74.5437 73.8937 74.4814 73.6445 74.4814C73.3953 74.4814 73.1507 74.5437 72.9368 74.6615C72.7229 74.7793 72.5475 74.9484 72.4295 75.1507L60.102 96.2545C59.9888 96.4484 59.9322 96.6661 59.9375 96.8862C59.9428 97.1063 60.0099 97.3214 60.1323 97.5104C60.2548 97.6995 60.4282 97.856 60.6359 97.9648C60.8435 98.0736 61.0782 98.1309 61.317 98.1311ZM75.2132 94.2748H72.0758V91.384H75.2132V94.2748ZM75.2132 89.4558H72.0758V83.6728H75.2132V89.4558Z" fill="#464353"/>
<path d="M35.3351 32.9792C35.3185 33.2704 35.4757 33.5365 35.5679 33.8151C35.7204 34.3533 35.7052 34.9202 35.524 35.4507C35.3548 36.008 35.0707 36.5973 35.2868 37.1421C35.3366 37.2702 35.4122 37.3873 35.4575 37.5154C35.6449 38.0448 35.2973 38.6021 34.9165 39.0354L36.4112 40.0009C36.6294 40.1676 36.889 40.282 37.1668 40.3338C37.4464 40.3645 37.7713 40.2266 37.8287 39.973C37.8484 39.8866 37.8287 39.7961 37.8469 39.7083C37.8653 39.5948 37.9129 39.487 37.9857 39.3939C38.0585 39.3009 38.1545 39.2252 38.2655 39.1733C38.49 39.0718 38.7403 39.0289 38.9894 39.0493C39.9067 39.0953 40.6866 39.6512 41.5208 40.0078C42.0708 40.2274 42.6407 40.4017 43.224 40.5289C43.555 40.6083 43.9222 40.6807 44.2214 40.5289C44.5207 40.377 44.6582 40.0245 44.6355 39.7055C44.5891 39.3882 44.4816 39.0811 44.3182 38.7985C44.1532 38.5164 44.0539 38.2056 44.0265 37.886C44.0265 37.4179 44.3046 36.9916 44.3983 36.5318C44.5297 35.8784 44.2622 35.2139 43.9358 34.6204C43.6094 34.0269 43.2134 33.4557 43.0547 32.8093C43.0232 32.6133 42.968 32.4213 42.89 32.2367C42.8144 32.0965 42.712 31.97 42.5877 31.8633C42.0271 31.352 41.2276 31.1096 40.4448 31.0567C39.6619 31.0037 38.8715 31.1221 38.0947 31.2461C37.7983 31.2851 37.5065 31.349 37.2227 31.437C36.8172 31.5855 36.4322 31.7777 36.0757 32.0096C35.722 32.2353 35.3578 32.5655 35.3351 32.9792Z" fill="#464353"/>
<g opacity="0.1">
<path opacity="0.1" d="M44.0219 37.6005C44.0219 37.6423 44.0219 37.6841 44.031 37.7245C44.0779 37.3163 44.3106 36.9332 44.3937 36.525C44.4258 36.3614 44.4355 36.1948 44.4224 36.029C44.4224 36.1014 44.4073 36.1683 44.3937 36.2463C44.2985 36.7061 44.0159 37.1324 44.0219 37.6005Z" fill="black"/>
<path opacity="0.1" d="M35.6692 34.3725C35.687 34.0905 35.6528 33.8079 35.5679 33.5365C35.4785 33.3251 35.4053 33.1082 35.3488 32.8873C35.3488 32.9166 35.3367 32.9444 35.3352 32.9737C35.3186 33.2649 35.4758 33.531 35.5679 33.8096C35.6263 33.9927 35.6603 34.1817 35.6692 34.3725Z" fill="black"/>
<path opacity="0.1" d="M44.622 39.6289C44.6114 39.7534 44.5692 39.8739 44.4989 39.9806C44.4285 40.0873 44.3319 40.1773 44.2169 40.2433C43.9147 40.3951 43.5505 40.3227 43.2195 40.2433C42.636 40.1163 42.066 39.9415 41.5163 39.7208C40.682 39.3656 39.9022 38.8097 38.9849 38.7637C38.7358 38.7434 38.4855 38.7862 38.261 38.8877C38.1499 38.9396 38.054 39.0153 37.9812 39.1083C37.9083 39.2014 37.8607 39.3092 37.8424 39.4227C37.8318 39.5105 37.8424 39.601 37.8242 39.6874C37.7653 39.941 37.4419 40.0789 37.1623 40.0482C36.8845 39.9964 36.6249 39.882 36.4066 39.7153L35.0631 38.8459C35.0132 38.9086 34.9634 38.9699 34.912 39.027L36.4066 39.9939C36.6249 40.1606 36.8845 40.275 37.1623 40.3269C37.4419 40.3575 37.7668 40.2196 37.8242 39.966C37.8439 39.8797 37.8242 39.7891 37.8424 39.7013C37.8607 39.5878 37.9083 39.48 37.9812 39.387C38.054 39.2939 38.1499 39.2182 38.261 39.1664C38.4855 39.0649 38.7358 39.022 38.9849 39.0424C39.9022 39.0883 40.682 39.6442 41.5163 39.9995C42.066 40.2201 42.636 40.3949 43.2195 40.5219C43.5505 40.6013 43.9177 40.6738 44.2169 40.5219C44.5162 40.3701 44.6537 40.0176 44.631 39.6985C44.6295 39.6749 44.625 39.6526 44.622 39.6289Z" fill="black"/>
<path opacity="0.1" d="M35.4575 37.5085C35.4762 37.5645 35.4898 37.6218 35.4983 37.6799C35.5218 37.529 35.5078 37.3751 35.4575 37.2299C35.4122 37.1017 35.3366 36.9847 35.2868 36.8565C35.2504 36.7635 35.227 36.6666 35.2172 36.5681C35.1949 36.7595 35.2187 36.9531 35.2868 37.1351C35.3366 37.2633 35.4122 37.3817 35.4575 37.5085Z" fill="black"/>
</g>
<path d="M37.2318 90.3724C37.2214 90.4121 37.197 90.4474 37.1623 90.4727C37.1255 90.4904 37.0843 90.4985 37.0429 90.4964C36.5049 90.5076 35.9669 90.4964 35.4304 90.5312C34.9226 90.5717 34.4133 90.6706 33.907 90.6176C33.745 90.6229 33.5853 90.5816 33.4499 90.4995C33.3145 90.4174 33.2102 90.2985 33.1514 90.1593C33.1194 90.0985 33.0912 90.0362 33.0667 89.9726C32.9273 89.6442 32.857 89.2943 32.8597 88.9417C32.8597 88.8483 32.8597 88.7578 32.8597 88.663C32.8531 88.5609 32.8384 88.4594 32.8159 88.3593C32.77 88.2446 32.7755 88.1178 32.831 88.0068C33.0456 87.646 33.564 87.5736 33.9629 87.5457C34.8872 87.4815 35.8168 87.5444 36.721 87.7324C36.792 88.0528 36.8721 88.3705 36.9568 88.6881C37.0192 88.9212 37.0857 89.1534 37.1562 89.3847C37.2036 89.5279 37.2419 89.6735 37.2711 89.8207C37.3085 90.0048 37.295 90.1945 37.2318 90.3724Z" fill="#464353"/>
<path opacity="0.06" d="M37.2318 90.3725C37.2215 90.4121 37.197 90.4475 37.1623 90.4728C37.1256 90.4904 37.0843 90.4986 37.0429 90.4965C36.5049 90.5076 35.9669 90.4965 35.4304 90.5313C34.9226 90.5717 34.4133 90.6706 33.907 90.6177C33.7451 90.623 33.5853 90.5817 33.45 90.4996C33.3146 90.4174 33.2102 90.2985 33.1514 90.1593C33.1195 90.0986 33.0912 90.0363 33.0668 89.9726H33.2602C33.8965 89.9726 34.5342 89.9517 35.1705 89.9517C35.3624 89.9517 35.5558 89.9434 35.7463 89.9225C35.9367 89.9016 36.0923 89.8723 36.2661 89.8528C36.5263 89.8298 36.7876 89.8201 37.049 89.8236H37.2636C37.3029 90.0061 37.292 90.1948 37.2318 90.3725Z" fill="black"/>
<path d="M48.3624 87.7855C48.1939 87.9668 47.9788 88.1062 47.7367 88.1909C46.6607 88.6088 45.4169 88.4207 44.3061 88.0808C44.0576 87.9957 43.8025 87.9282 43.5429 87.8788C43.3061 87.8482 43.0672 87.8328 42.828 87.8328C42.6573 87.8328 42.4865 87.8203 42.3157 87.8105C41.8835 87.7855 41.4528 87.7464 41.0236 87.7074C40.7244 87.6872 40.4273 87.6458 40.135 87.5835C40.0518 87.5638 39.972 87.5338 39.8977 87.4943C39.8343 87.4686 39.7801 87.4268 39.7416 87.3737C39.703 87.3207 39.6817 87.2586 39.6801 87.1948C39.6921 87.0178 39.8916 86.9161 40.0669 86.8395C41.622 86.2195 43.3117 85.9507 44.9892 85.7347C45.1598 85.7085 45.326 85.6616 45.4834 85.5954C45.6723 85.5258 45.6919 85.64 45.7856 85.7682C45.8299 85.8275 45.8805 85.8826 45.9367 85.9326C46.1189 86.0842 46.3329 86.1999 46.5654 86.2725C46.9735 86.4118 47.4102 86.4494 47.8183 86.5818C47.9417 86.6212 48.0599 86.6736 48.1704 86.7378C48.268 86.7868 48.3521 86.8557 48.4164 86.9393C48.4806 87.0229 48.5233 87.1189 48.5411 87.22C48.5589 87.3211 48.5513 87.4246 48.519 87.5226C48.4868 87.6206 48.4306 87.7105 48.3548 87.7855H48.3624Z" fill="#464353"/>
<path opacity="0.06" d="M48.3624 87.7854C48.194 87.9667 47.9788 88.1061 47.7367 88.1908C46.6607 88.6087 45.4169 88.4207 44.3061 88.0807C44.0577 87.9956 43.8025 87.9281 43.5429 87.8787C43.3061 87.8481 43.0673 87.8327 42.8281 87.8327C42.6573 87.8327 42.4866 87.8202 42.3158 87.8104C42.4548 87.6892 42.5969 87.5708 42.742 87.4566C42.8471 87.3659 42.9683 87.2924 43.1001 87.2392C43.2644 87.1896 43.4394 87.1786 43.6094 87.2072C44.4739 87.3172 45.2507 87.8759 46.1227 87.8272C46.529 87.7841 46.9219 87.6671 47.2788 87.483C47.5691 87.3741 47.8278 87.2042 48.0345 86.9871C48.0968 86.9122 48.1444 86.8278 48.175 86.7377C48.2726 86.7867 48.3567 86.8556 48.421 86.9392C48.4852 87.0227 48.5278 87.1188 48.5456 87.2199C48.5634 87.321 48.5559 87.4245 48.5236 87.5225C48.4913 87.6205 48.4352 87.7104 48.3594 87.7854H48.3624Z" fill="black"/>
<path d="M48.0586 63.5734C47.9075 63.852 47.7141 64.1544 47.3876 64.2407C46.9131 64.3661 46.4567 63.9733 46.2496 63.5609C45.9674 62.9556 45.9142 62.2804 46.0985 61.6439C46.1846 61.322 46.3161 61.0128 46.3902 60.6895C46.4436 60.4176 46.4759 60.1424 46.4869 59.8662C46.5316 59.4542 46.5209 59.0387 46.4552 58.629C46.2118 57.4323 45.095 56.5393 44.7232 55.3634C44.5358 54.7769 44.5449 54.1528 44.5555 53.5412C44.552 53.3866 44.5692 53.2321 44.6069 53.0814C44.6181 53.0403 44.6333 53.0002 44.6522 52.9616C44.9016 52.4517 45.6406 52.3821 46.1544 52.0853C46.4385 51.9223 47.0839 51.3971 47.3226 51.8763C47.3742 51.9831 47.4127 52.0947 47.4375 52.2093C47.5357 52.6356 47.4964 53.1358 47.5206 53.5384C47.6128 55.0597 48.0239 56.5783 47.8334 58.0913C47.788 58.3492 47.7658 58.6102 47.767 58.8715C47.8078 59.5262 48.2521 60.0933 48.4561 60.7202C48.7704 61.6634 48.5181 62.6901 48.0586 63.5734Z" fill="#A1616A"/>
<path opacity="0.1" d="M47.445 52.2121C47.3327 52.1745 47.2097 52.1745 47.0974 52.2121L46.0743 52.4907C45.7157 52.5789 45.3663 52.6959 45.03 52.8404C44.8832 52.9068 44.7439 52.9867 44.6144 53.0787C44.6256 53.0376 44.6408 52.9975 44.6597 52.9588C44.9091 52.4489 45.6481 52.3793 46.1619 52.0825C46.446 51.9195 47.0913 51.3943 47.3301 51.8735C47.3821 51.982 47.4206 52.0956 47.445 52.2121Z" fill="black"/>
<path d="M47.5115 52.1062C47.4498 52.0717 47.3803 52.0509 47.3084 52.0456C47.2365 52.0403 47.1642 52.0505 47.0974 52.0755L46.0742 52.3542C45.7157 52.4423 45.3663 52.5593 45.0299 52.7039C44.8515 52.7839 44.6845 52.884 44.5327 53.002C44.0552 52.2371 43.9282 51.3302 43.8406 50.4525C43.7922 49.9412 43.7559 49.4285 43.7348 48.92C43.7111 48.5541 43.7192 48.1869 43.759 47.8222C43.8164 47.4042 43.9479 46.996 44.0295 46.5809C44.0781 46.3378 44.1094 46.0921 44.1232 45.8453C44.1624 45.306 44.1355 44.7643 44.0431 44.2306C43.9552 43.6632 43.8147 43.1039 43.6229 42.5588C43.5262 42.3094 43.4099 42.0684 43.3041 41.8232L43.2678 41.7368C43.0767 41.2874 42.9207 40.826 42.8008 40.3562C42.7525 40.1639 42.7494 39.9619 42.5892 39.8309C42.7396 39.8142 42.8912 39.8087 43.0426 39.8142C43.0728 39.8142 43.1031 39.8142 43.1333 39.8142C43.7541 39.8502 44.3523 40.043 44.8622 40.3715C45.5189 40.8083 46.0181 41.417 46.2949 42.1185C46.6138 42.9029 46.6667 43.7555 46.7075 44.5928C46.7891 46.2386 46.8395 47.8853 46.8586 49.533C46.8586 49.8492 46.8737 50.1864 47.0702 50.4469C47.1253 50.5111 47.1758 50.5786 47.2213 50.6489C47.2923 50.7882 47.2818 50.9429 47.3392 51.0836C47.3814 51.1681 47.4293 51.2499 47.4828 51.3288C47.5504 51.4481 47.5881 51.5799 47.5931 51.7145C47.5981 51.849 47.5702 51.9829 47.5115 52.1062Z" fill="#464353"/>
<path d="M37.4525 35.7531C37.3014 35.7071 37.1503 35.6584 36.9991 35.6138L37.3135 35.6361C37.3659 35.6685 37.4127 35.7079 37.4525 35.7531Z" fill="#FBBEBE"/>
<path d="M43.6411 40.781C43.6109 40.8758 43.5807 40.9705 43.5474 41.0597C43.4707 41.2886 43.3773 41.5125 43.2678 41.7298C43.0965 42.0868 42.8541 42.411 42.553 42.6855C42.4536 42.782 42.3316 42.8564 42.1963 42.9029C42.0819 42.9298 41.9636 42.9402 41.8457 42.9335C41.4427 42.9335 41.0397 42.9279 40.6367 42.9168C40.3229 42.92 40.0097 42.8915 39.7027 42.8318C39.3648 42.7468 39.0435 42.6133 38.7506 42.4361C37.6217 41.7925 36.6938 40.8117 36.2963 39.6498C36.2464 39.5021 36.2117 39.3252 36.322 39.2095C36.4306 39.1279 36.5673 39.0849 36.7074 39.0883H36.7255C37.0504 39.0494 37.3635 38.9503 37.6459 38.7972C37.8288 38.7108 37.9763 38.572 38.066 38.4015C38.1272 38.1995 38.1225 37.9853 38.0524 37.7857L37.7169 36.3814C37.682 36.1565 37.5903 35.9422 37.4494 35.7559C37.5476 35.7879 37.6459 35.8172 37.7517 35.8422C38.6856 36.0749 39.7073 35.9342 40.6231 36.2393C40.9737 36.3577 41.3243 36.5709 41.4301 36.9024C41.6069 37.4597 41.016 38.0379 41.1853 38.5952C41.2986 38.9741 41.7172 39.1928 42.092 39.3698L42.3444 39.4882L43.0442 39.8156L43.1409 39.8602L43.156 39.8671C43.3766 39.9702 43.6094 40.0984 43.6864 40.3171C43.7193 40.4726 43.7036 40.6335 43.6411 40.781Z" fill="#A1616A"/>
<path opacity="0.1" d="M45.4849 44.0522C45.4593 44.4083 45.3651 44.7574 45.2068 45.0831C44.9034 45.6465 44.7407 46.2654 44.7307 46.8943C44.6144 48.7751 43.8391 51.0139 44.9499 52.5938C44.9771 52.6328 45.0043 52.6718 45.03 52.7122C44.8515 52.7922 44.6845 52.8924 44.5328 53.0103C44.0552 52.2455 43.9282 51.3385 43.8406 50.4608C43.7922 49.9495 43.756 49.4368 43.7348 48.9283C43.7111 48.5624 43.7192 48.1952 43.759 47.8305C43.8164 47.4125 43.9479 47.0043 44.0295 46.5892C44.0781 46.3461 44.1094 46.1004 44.1232 45.8536C44.1624 45.3143 44.1355 44.7726 44.0431 44.2389C43.9552 43.6715 43.8147 43.1122 43.623 42.5671C43.5262 42.3177 43.4099 42.0767 43.3041 41.8315L43.2678 41.7451C43.0965 42.1021 42.8541 42.4263 42.553 42.7008C42.4536 42.7973 42.3316 42.8717 42.1963 42.9181C42.0819 42.9451 41.9636 42.9555 41.8457 42.9488C41.4427 42.9488 41.0397 42.9432 40.6367 42.9321C40.3229 42.9353 40.0097 42.9068 39.7027 42.8471C39.3648 42.7621 39.0435 42.6286 38.7506 42.4514C37.6217 41.8078 36.6938 40.827 36.2963 39.6651C36.2464 39.5174 36.2117 39.3405 36.322 39.2248C36.4306 39.1432 36.5673 39.1002 36.7074 39.1036H36.7255L38.0857 40.6542C38.2416 40.8184 38.3737 41.0005 38.4786 41.1962C38.4989 41.2618 38.5412 41.3199 38.5995 41.362C38.6468 41.3819 38.6988 41.3905 38.7506 41.387C40.0276 41.387 41.7293 41.387 43.0064 41.387C43.0105 41.1785 42.9451 40.9737 42.819 40.8005C42.7797 40.8089 42.7268 40.8117 42.8084 40.7894C42.7345 40.3371 42.576 39.9001 42.3399 39.4979C42.3258 39.4703 42.3101 39.4433 42.293 39.4171C42.1916 39.2793 42.1159 39.1267 42.0694 38.9657C42.2306 38.9183 42.4038 38.9183 42.5651 38.9657C42.751 39.0395 42.8477 39.2248 42.9293 39.3962C42.9988 39.5355 43.0683 39.6846 43.1303 39.8309C43.1303 39.8462 43.1454 39.8629 43.1514 39.8782C43.2832 40.1665 43.3678 40.4712 43.4023 40.7824C43.4114 40.8967 43.4416 41.0415 43.5444 41.0792C43.5605 41.086 43.578 41.0898 43.5958 41.0903C43.7022 41.0544 43.8177 41.0485 43.9278 41.0733C44.0379 41.0981 44.1374 41.1525 44.2139 41.2296C44.3625 41.3866 44.4664 41.5752 44.5161 41.7785C44.5653 41.9818 44.6372 42.1797 44.7307 42.3692C44.9257 42.712 44.628 42.8652 44.9801 43.0756C45.1448 43.1591 45.2864 43.2763 45.3942 43.4183C45.4938 43.6161 45.5254 43.8373 45.4849 44.0522Z" fill="black"/>
<path opacity="0.1" d="M36.7073 87.738C36.7784 88.0585 36.8585 88.3761 36.9431 88.6938L36.934 88.7133C36.2434 88.4346 35.5361 88.1434 34.782 88.0821C34.0823 88.0264 33.3221 88.2006 32.846 88.6687C32.8394 88.5666 32.8248 88.4651 32.8022 88.365C32.7564 88.2503 32.7618 88.1235 32.8173 88.0125C33.0319 87.6516 33.5503 87.5792 33.9493 87.5513C34.8736 87.4871 35.8031 87.5501 36.7073 87.738Z" fill="black"/>
<path opacity="0.1" d="M42.6603 41.0555C42.7313 41.0555 42.7056 41.0555 42.6709 41.0666C42.6361 41.0778 42.5787 41.0778 42.6603 41.0555Z" fill="black"/>
<path opacity="0.1" d="M45.9443 85.9325C45.2703 86.3285 44.637 86.7804 44.0522 87.2825C43.8824 87.4501 43.6799 87.5867 43.4552 87.6851C43.2232 87.754 42.9782 87.7772 42.7359 87.7534C41.7851 87.7179 40.8375 87.6314 39.8977 87.4943C39.8343 87.4686 39.7801 87.4268 39.7416 87.3737C39.703 87.3207 39.6817 87.2586 39.6801 87.1947C39.6921 87.0178 39.8916 86.9161 40.0669 86.8395C41.622 86.2195 43.3117 85.9507 44.9892 85.7347C45.1598 85.7085 45.326 85.6616 45.4834 85.5954C45.6723 85.5258 45.6919 85.64 45.7856 85.7682C45.8323 85.8278 45.8854 85.8829 45.9443 85.9325Z" fill="black"/>
<path d="M34.8561 39.4394C35.0782 39.6219 35.3321 39.7696 35.5573 39.9465C36.1618 40.4188 36.5426 41.0791 36.9174 41.7228C36.6952 41.7969 36.4548 41.8118 36.2238 41.766C36.1049 42.384 36.125 43.018 36.2827 43.6287C35.9803 43.8199 35.7454 44.0887 35.6072 44.4019C35.4997 44.7196 35.4258 45.0462 35.3865 45.3771C35.1689 46.8269 34.9503 48.2767 34.7306 49.7266C34.7262 49.8685 34.6733 50.0055 34.5795 50.1181C34.5376 50.1493 34.4991 50.1843 34.4646 50.2226C34.4184 50.3163 34.4001 50.4197 34.4117 50.5221C34.4027 50.6238 34.3301 50.745 34.2198 50.7311C34.1662 50.7192 34.1187 50.6907 34.0853 50.6503C33.975 50.5425 33.8739 50.427 33.7831 50.3048C32.8914 51.8818 32.4622 53.5815 31.9907 55.3063C31.6537 56.535 31.3167 57.7777 31.3 59.0455C31.3046 59.6453 31.3454 60.2444 31.4224 60.8399L31.5554 62.0632C31.6627 63.0467 31.77 64.0317 31.8864 65.0153C31.962 65.6394 32.0375 66.2692 32.2808 66.8571C32.6436 67.7501 32.2416 68.7574 32.3957 69.7019C32.5166 70.4417 32.7569 71.2066 32.5151 71.9199C32.4184 72.2055 32.2491 72.466 32.1222 72.7419C31.8108 73.4273 31.7791 74.1894 31.7519 74.9319C31.703 75.5828 31.7293 76.2366 31.8305 76.8824C31.9605 77.5497 32.2521 78.2031 32.1947 78.8774C32.1146 79.8373 31.3469 80.6579 31.2532 81.6164C31.1791 82.3812 31.5433 83.1196 31.9348 83.7981C32.2234 84.2982 31.8214 84.9447 31.6688 85.495C31.3665 86.5733 31.8698 87.7018 32.4864 88.6589C32.5021 88.6917 32.5299 88.7184 32.565 88.7341C32.636 88.7578 32.6995 88.6937 32.7463 88.6394C33.2103 88.0905 34.0324 87.8829 34.7865 87.9428C35.5407 88.0027 36.2464 88.2897 36.9386 88.5739L37.9194 86.5608C38.0857 86.2194 38.2549 85.8502 38.1718 85.4838C38.1129 85.2219 37.93 85.0004 37.8 84.7608C37.4978 84.1952 37.4827 83.5362 37.4796 82.9023L37.4615 79.3218C38.2262 78.4358 38.6932 77.3825 38.9879 76.2819C39.44 77.83 39.4712 79.4569 39.0786 81.0187C39.0059 81.2548 38.9554 81.4963 38.9274 81.7404C38.8685 82.7337 39.7133 83.5738 39.9385 84.5462C39.9603 84.6206 39.9665 84.6982 39.9566 84.7747C39.9313 84.8688 39.8889 84.9583 39.8312 85.0394C39.4262 85.7165 39.47 86.5371 39.5289 87.3089C40.5887 87.479 41.6595 87.5846 42.7343 87.6252C42.9767 87.6475 43.2214 87.6242 43.4537 87.5569C43.6784 87.4579 43.8809 87.3209 44.0507 87.1529C44.7369 86.5579 45.4902 86.0325 46.2979 85.5855C45.8469 84.8957 45.2156 84.3209 44.4617 83.9137C44.7051 83.5835 45.2597 83.61 45.5831 83.3453C45.7455 83.1972 45.8515 83.0047 45.8854 82.7964C46.0063 82.2503 45.8566 81.6819 45.707 81.1455C45.4169 80.0895 45.1252 79.0293 44.6491 78.0317C44.4338 77.6218 44.2441 77.2008 44.0809 76.7709C43.6849 75.57 43.9615 74.2632 43.6623 73.0358C43.5656 72.6429 43.4099 72.2375 43.5187 71.846C43.6849 71.2428 44.4255 70.8847 44.5887 70.2801C45.1735 68.1277 45.2778 65.8972 45.6103 63.7001C45.6847 63.2804 45.7246 62.8562 45.7297 62.431C45.7297 61.9865 45.6436 61.5463 45.6088 61.1033C45.4728 59.3297 46.0879 57.5604 45.9307 55.7883C45.8301 54.6962 45.4398 53.6437 44.7942 52.7233C43.6834 51.142 44.4587 48.9046 44.5751 47.0238C44.5838 46.3949 44.746 45.7759 45.0496 45.2127C45.2093 44.8873 45.304 44.5381 45.3292 44.1817C45.3758 43.9621 45.3462 43.7344 45.2446 43.5311C45.1382 43.3885 44.9969 43.2711 44.832 43.1884C44.4799 42.9766 44.7776 42.8234 44.5826 42.4807C44.4889 42.2912 44.4169 42.0933 44.368 41.89C44.3186 41.687 44.2147 41.4988 44.0658 41.3424C43.9894 41.2653 43.8898 41.2109 43.7797 41.1861C43.6697 41.1613 43.5541 41.1672 43.4477 41.2031C43.3041 41.2031 43.2648 41.0276 43.2527 40.8952C43.2119 40.4104 42.9943 39.9548 42.7812 39.509C42.6996 39.3377 42.6029 39.1524 42.417 39.0785C42.2551 39.0319 42.0816 39.0319 41.9198 39.0785C41.9666 39.2401 42.0427 39.3932 42.1449 39.5313C42.4069 39.955 42.5811 40.4198 42.6588 40.9022C42.5077 40.944 42.8099 40.9022 42.6588 40.9022C42.7941 41.076 42.8637 41.286 42.8568 41.4999C41.5812 41.4999 39.8795 41.4999 38.6025 41.4999C38.5506 41.5037 38.4986 41.495 38.4514 41.4748C38.3931 41.4324 38.3504 41.3745 38.329 41.309C38.2251 41.1133 38.0929 40.9315 37.936 40.7685L36.4399 39.0674C36.4067 39.0229 36.3627 38.9862 36.3114 38.9601C36.2497 38.944 36.1843 38.944 36.1225 38.9601C35.6374 39.0256 35.2792 39.2123 34.8561 39.4394Z" fill="#54A680"/>
<path opacity="0.1" d="M40.2257 62.4881C40.4836 62.4849 40.7378 62.5455 40.9617 62.6636C41.0728 62.7239 41.1649 62.8098 41.2291 62.9129C41.2932 63.016 41.3271 63.1327 41.3274 63.2516C41.3108 63.5149 41.0916 63.7239 40.9329 63.9482C40.8347 64.0848 40.7565 64.2329 40.7002 64.3884C40.6829 64.4238 40.6786 64.4634 40.6881 64.5012C40.7063 64.5542 40.7682 64.5807 40.8211 64.6043C41.0134 64.6845 41.1776 64.8125 41.2953 64.9739C41.4131 65.1354 41.4796 65.3239 41.4876 65.5183C41.474 66.0616 40.8982 66.5019 40.9299 67.0508C40.9443 67.1651 40.9655 67.2785 40.9934 67.3907C41.0625 67.8585 40.992 68.3349 40.7894 68.7685C40.6065 69.206 40.3571 69.617 40.1607 70.0503C39.6302 71.2275 39.5154 72.5315 39.5562 73.8119C39.5879 74.6812 39.2539 75.5087 38.9517 76.3363C39.1225 74.6694 39.1679 72.9936 39.0877 71.3208C39.0665 70.8667 39.0046 70.4376 39.0272 69.982C39.0635 69.2589 39.5018 68.6014 39.6136 67.8922C39.6771 67.4868 39.6348 67.0744 39.6453 66.6648C39.6665 65.8289 39.9128 65.0042 39.9295 64.1655C39.9506 63.5734 39.8917 62.9632 40.2257 62.4881Z" fill="black"/>
<path d="M33.9191 39.7375C33.6187 39.8756 33.3375 40.0468 33.0819 40.2474C32.8148 40.4921 32.5913 40.7742 32.42 41.0833C32.2112 41.4338 32.0241 41.7947 31.8593 42.1644C31.6462 42.6437 31.4694 43.1745 31.6159 43.6747C31.7489 44.1274 32.1253 44.4799 32.3852 44.8825C32.6451 45.2852 32.7978 45.7575 32.9973 46.1991C33.2632 46.7884 33.6275 47.3373 33.8904 47.928C34.1534 48.5187 34.3121 49.1819 34.1458 49.7963C34.0975 49.9774 33.7786 50.1181 33.7786 50.3034C33.7786 50.6099 34.2592 50.9429 34.5781 51.032C34.9453 51.1365 35.3458 50.9805 35.6465 50.7534C36.1981 50.3508 36.5336 49.7475 36.7815 49.1401C37.1805 48.1649 37.3936 47.1297 37.5855 46.1016C37.7245 45.3465 37.8545 44.59 37.9286 43.8293C37.9966 43.1439 38.0177 42.4361 37.8213 41.7785C37.6379 41.175 37.2813 40.6282 36.7891 40.1959C36.3961 39.8476 35.7523 39.3795 35.1811 39.367C34.7292 39.3656 34.306 39.5411 33.9191 39.7375Z" fill="#464353"/>
<path d="M38.2156 56.5323C38.1992 56.6275 38.1606 56.7183 38.1024 56.7984C38.0442 56.8785 37.9678 56.946 37.8786 56.9963C37.7002 57.0962 37.5059 57.1695 37.3028 57.2136C36.8978 57.3223 36.4686 57.4226 36.059 57.3264C35.7371 57.2298 35.4399 57.0739 35.1855 56.8681L30.6093 53.6387C30.2417 53.3985 29.9037 53.1219 29.6013 52.814C29.4277 52.6151 29.2682 52.4062 29.1238 52.1884C28.9325 51.9391 28.7828 51.6649 28.6794 51.3748C28.6425 51.2471 28.6242 51.1155 28.625 50.9833C28.6238 50.8583 28.6571 50.7351 28.7218 50.6253C28.8321 50.4553 29.0678 50.4205 29.2613 50.3731C29.9105 50.2184 30.5845 50.1712 31.2516 50.2338C31.3102 50.2312 31.3682 50.2462 31.4167 50.2766C31.4652 50.3071 31.5017 50.3512 31.5206 50.4024C31.6219 50.5737 31.7095 50.7521 31.8002 50.9304C31.9394 51.2344 32.1207 51.5206 32.3397 51.7816C32.5507 51.9931 32.7753 52.1926 33.0123 52.3793C33.4959 52.7972 33.8918 53.2988 34.4072 53.6833C35.0041 54.1277 35.7295 54.3938 36.4096 54.7212C37.0897 55.0486 37.7607 55.4735 38.1022 56.1074C38.1815 56.2368 38.2207 56.3838 38.2156 56.5323Z" fill="#A1616A"/>
<path opacity="0.1" d="M43.5126 34.0019C43.5128 34.8814 43.1485 35.7279 42.4942 36.368C41.8398 37.0082 40.945 37.3938 39.9925 37.4459C39.04 37.4981 38.1019 37.2128 37.37 36.6485C36.6381 36.0842 36.1677 35.2834 36.055 34.41C35.9423 33.5366 36.1958 32.6564 36.7636 31.9496C37.3315 31.2427 38.1708 30.7625 39.1099 30.6072C40.0491 30.4519 41.0171 30.6331 41.8161 31.1139C42.6151 31.5947 43.1847 32.3387 43.4084 33.1938C43.4777 33.4584 43.5127 33.7297 43.5126 34.0019Z" fill="black"/>
<path d="M43.5126 33.8625C43.5128 34.7421 43.1485 35.5885 42.4942 36.2287C41.8398 36.8689 40.945 37.2544 39.9925 37.3066C39.04 37.3587 38.1019 37.0734 37.37 36.5091C36.6381 35.9448 36.1677 35.1441 36.055 34.2706C35.9423 33.3972 36.1958 32.5171 36.7636 31.8102C37.3315 31.1034 38.1708 30.6232 39.1099 30.4679C40.0491 30.3125 41.0171 30.4938 41.8161 30.9746C42.6151 31.4554 43.1847 32.1994 43.4084 33.0545C43.4777 33.3191 43.5127 33.5903 43.5126 33.8625Z" fill="#A1616A"/>
<path opacity="0.1" d="M31.8002 50.9248C31.6279 51.0265 31.3725 50.9931 31.1594 50.9485C30.3192 50.7757 29.3912 50.6517 28.625 50.9833C28.6238 50.8583 28.6571 50.7351 28.7218 50.6253C28.8321 50.4553 29.0678 50.4205 29.2613 50.3731C29.9105 50.2184 30.5845 50.1712 31.2516 50.2338C31.3102 50.2312 31.3682 50.2462 31.4167 50.2766C31.4652 50.3071 31.5017 50.3512 31.5206 50.4024C31.6219 50.5682 31.7095 50.7465 31.8002 50.9248Z" fill="black"/>
<path d="M30.2209 46.234C30.0351 46.7913 29.8824 47.3638 29.5182 47.8361C29.3978 47.9603 29.3071 48.1065 29.2522 48.2652C29.2481 48.3824 29.2272 48.4986 29.1902 48.6107C29.1389 48.7055 29.0301 48.7682 28.9862 48.8657C28.9212 49.005 29.0059 49.1847 28.9197 49.3157C28.8794 49.3683 28.831 49.4152 28.7762 49.455C28.5706 49.6305 28.5192 49.9106 28.5147 50.1697C28.5102 50.4288 28.5374 50.6935 28.4452 50.9373C29.2431 50.4985 30.2587 50.6295 31.1655 50.8161C31.4179 50.8677 31.7307 50.9067 31.8939 50.72C32.0571 50.5333 31.9634 50.2881 31.9861 50.0638C32.0163 49.7713 32.234 49.5288 32.3685 49.2627C32.5196 48.9632 32.571 48.6289 32.6873 48.3168C32.9276 47.6606 33.443 47.1256 33.774 46.5056C33.8965 46.2924 33.9696 46.0581 33.9886 45.8174C33.9771 45.5055 33.8888 45.2001 33.7301 44.9244C33.4156 44.2824 33.0414 43.6666 32.6118 43.084C32.4199 42.8235 32.0889 42.3414 31.7912 42.758C31.5494 43.0938 31.3982 43.5215 31.2199 43.8893C30.8356 44.6514 30.502 45.4344 30.2209 46.234Z" fill="#464353"/>
<path d="M43.8573 40.8256C43.4035 40.8545 42.9485 40.7895 42.5254 40.6355C42.1024 40.4815 41.722 40.2423 41.412 39.9354C41.3598 39.8916 41.3221 39.8351 41.3032 39.7724C41.2946 39.6909 41.3194 39.6094 41.3727 39.5439C41.5541 39.2862 41.8669 39.1162 42.012 38.839C42.1571 38.5617 42.1072 38.2427 42.1208 37.939C42.145 37.3942 42.3777 36.8551 42.3974 36.3187C42.4044 36.1814 42.3932 36.0439 42.3641 35.9091C42.2946 35.709 42.2519 35.5017 42.2372 35.2919C42.2568 34.8837 42.6558 34.5661 42.7223 34.1635C42.8084 33.6508 42.3475 33.205 41.8835 32.9096C41.5297 32.6834 41.1457 32.5003 40.741 32.3649C40.4924 32.2828 40.2351 32.2254 39.9733 32.1935C39.4852 32.1327 38.9884 32.1839 38.527 32.3426C38.336 32.409 38.1552 32.498 37.989 32.6073C37.89 32.665 37.8076 32.7439 37.7487 32.8372C37.7002 32.9422 37.6785 33.0561 37.6852 33.1701C37.6761 33.7399 37.7457 34.346 37.451 34.8419C37.2998 35.108 37.0429 35.324 36.9175 35.6054C36.8662 35.7225 36.8341 35.846 36.8223 35.9718C36.8072 36.1023 36.7996 36.2335 36.7996 36.3647C36.7905 37.0989 36.7996 37.8735 37.2046 38.5102C37.3476 38.7027 37.4773 38.9032 37.593 39.1106C37.6492 39.2156 37.6752 39.332 37.6685 39.4489C37.6619 39.5657 37.6229 39.679 37.5552 39.778C37.4734 39.8683 37.3699 39.9398 37.253 39.987C36.9529 40.1197 36.6264 40.1939 36.2938 40.2049C35.9612 40.2159 35.6297 40.1636 35.3201 40.051C35.6822 39.7347 35.9309 39.3241 36.0329 38.874C36.135 38.4238 36.0856 37.9557 35.8913 37.5322C35.7822 37.3611 35.7112 37.1716 35.6828 36.9749C35.6979 36.7977 35.7492 36.6247 35.8339 36.465C36.0411 35.9415 36.0732 35.3727 35.9261 34.8322C35.8339 34.5006 35.6737 34.1802 35.645 33.8389C35.621 33.5812 35.6332 33.3218 35.6813 33.067C35.7641 32.6112 35.9819 32.1854 36.3108 31.8365C36.6396 31.4877 37.0666 31.2294 37.5447 31.0901C37.6217 31.0664 37.6958 31.0441 37.7804 31.0246C38.1471 30.9496 38.5217 30.9127 38.8973 30.9146C39.736 30.8895 40.5869 30.8672 41.3954 31.0692C41.8701 31.1838 42.3117 31.3931 42.6891 31.6822C42.9569 31.8898 43.1707 32.1503 43.3147 32.4443C43.3934 32.6137 43.4526 32.7902 43.4915 32.9709C43.5263 33.12 43.552 33.2704 43.5777 33.4209C43.7605 34.4923 43.9434 35.5845 43.7485 36.6545C43.6714 37.0724 43.5369 37.4904 43.4764 37.9167C43.3298 38.8989 43.5943 39.8755 43.8573 40.8256Z" fill="#464353"/>
<path d="M38.4876 42.2021C38.6429 42.2021 38.7687 42.0861 38.7687 41.943C38.7687 41.7999 38.6429 41.6838 38.4876 41.6838C38.3324 41.6838 38.2065 41.7999 38.2065 41.943C38.2065 42.0861 38.3324 42.2021 38.4876 42.2021Z" fill="white"/>
<path d="M43.2315 42.0795C43.3868 42.0795 43.5126 41.9635 43.5126 41.8203C43.5126 41.6772 43.3868 41.5612 43.2315 41.5612C43.0763 41.5612 42.9504 41.6772 42.9504 41.8203C42.9504 41.9635 43.0763 42.0795 43.2315 42.0795Z" fill="white"/>
<path opacity="0.1" d="M38.4877 28.8471L37.8832 27.7953C37.9215 27.7532 37.9634 27.7141 38.0086 27.6783C38.0959 27.6287 38.1981 27.6062 38.3003 27.6142L38.4877 28.8471Z" fill="black"/>
<path opacity="0.1" d="M40.1546 27.5653L39.47 28.4988L39.0801 27.4748C39.2465 27.4089 39.4265 27.3775 39.6075 27.3828C39.7996 27.4152 39.9845 27.4768 40.1546 27.5653Z" fill="black"/>
<g opacity="0.1">
<path opacity="0.1" d="M37.5552 39.5021C37.4734 39.5924 37.3699 39.664 37.253 39.7111C36.7171 39.9475 36.1057 39.9946 35.5347 39.8434C35.4683 39.9179 35.3966 39.9881 35.3201 40.0538C35.6297 40.1663 35.9612 40.2187 36.2938 40.2077C36.6264 40.1967 36.9529 40.1224 37.253 39.9897C37.3699 39.9426 37.4734 39.871 37.5552 39.7807C37.6072 39.7112 37.6427 39.6323 37.6594 39.5492C37.6761 39.4662 37.6735 39.3808 37.652 39.2987C37.6369 39.3724 37.6038 39.4419 37.5552 39.5021Z" fill="black"/>
<path opacity="0.1" d="M35.9155 34.8364C35.9648 35.019 35.9937 35.2057 36.0016 35.3937C36.019 35.1126 35.99 34.8308 35.9155 34.5578C35.8233 34.2262 35.6631 33.9058 35.6344 33.5644C35.6344 33.5212 35.6344 33.4781 35.6268 33.4335C35.6196 33.57 35.6221 33.7068 35.6344 33.8431C35.6631 34.1844 35.8233 34.5048 35.9155 34.8364Z" fill="black"/>
<path opacity="0.1" d="M43.7379 36.6587C43.802 36.2902 43.8293 35.9172 43.8195 35.5441C43.8142 35.8242 43.7869 36.1036 43.7379 36.38C43.6608 36.798 43.5263 37.2159 43.4658 37.6422C43.4346 37.8709 43.423 38.1015 43.4311 38.3319C43.4352 38.1944 43.4468 38.0572 43.4658 37.9209C43.5263 37.4946 43.6608 37.0808 43.7379 36.6587Z" fill="black"/>
<path opacity="0.1" d="M35.8853 37.2564C35.8061 37.1192 35.7423 36.9749 35.6948 36.8259C35.682 36.8761 35.6759 36.9275 35.6767 36.9791C35.7052 37.1758 35.7761 37.3653 35.8853 37.5364C35.9962 37.7699 36.0602 38.0201 36.0742 38.2748C36.1015 37.9262 36.0367 37.5767 35.8853 37.2564Z" fill="black"/>
<path opacity="0.1" d="M42.3641 35.9036C42.3774 35.9672 42.387 36.0313 42.3928 36.0958C42.3928 36.0749 42.3928 36.0554 42.3928 36.0345C42.3998 35.8973 42.3887 35.7597 42.3596 35.6249C42.3264 35.4787 42.272 35.3338 42.2463 35.1861C42.2388 35.2191 42.2342 35.2527 42.2327 35.2864C42.2489 35.4963 42.293 35.7036 42.3641 35.9036Z" fill="black"/>
<path opacity="0.1" d="M41.412 39.6513C41.3887 39.6289 41.367 39.6051 41.347 39.5802C41.3098 39.636 41.2944 39.7019 41.3032 39.7669C41.3221 39.8296 41.3598 39.8861 41.412 39.9299C41.722 40.2368 42.1024 40.4759 42.5254 40.63C42.9485 40.784 43.4035 40.849 43.8573 40.8201C43.8316 40.7282 43.8059 40.6376 43.7817 40.5415C43.3403 40.5602 42.8998 40.4903 42.4907 40.3366C42.0815 40.1829 41.7135 39.949 41.412 39.6513Z" fill="black"/>
<path opacity="0.1" d="M42.7193 33.8988C42.7186 33.8937 42.7186 33.8885 42.7193 33.8835C42.8054 33.3708 42.3445 32.925 41.8805 32.6296C41.5267 32.4034 41.1427 32.2203 40.738 32.0849C40.4894 32.0028 40.2321 31.9453 39.9703 31.9135C39.4822 31.8527 38.9854 31.9039 38.524 32.0626C38.333 32.129 38.1522 32.218 37.986 32.3273C37.887 32.385 37.8046 32.4638 37.7457 32.5572C37.6972 32.6622 37.6755 32.7761 37.6822 32.8901C37.6822 32.9863 37.6822 33.0824 37.6822 33.1799V33.1688C37.6755 33.0548 37.6972 32.9409 37.7457 32.8358C37.8046 32.7425 37.887 32.6636 37.986 32.6059C38.1522 32.4966 38.333 32.4076 38.524 32.3412C38.9854 32.1826 39.4822 32.1314 39.9703 32.1921C40.2321 32.224 40.4894 32.2814 40.738 32.3635C41.1427 32.499 41.5267 32.6821 41.8805 32.9082C42.2659 33.1479 42.6452 33.4934 42.7193 33.8988Z" fill="black"/>
<path opacity="0.1" d="M37.4509 34.5661C37.2998 34.8322 37.0429 35.0482 36.9174 35.3296C36.8661 35.4467 36.834 35.5702 36.8222 35.696C36.8071 35.8265 36.7995 35.9576 36.7996 36.0889C36.7996 36.2073 36.7996 36.3271 36.7996 36.4469C36.7996 36.4204 36.7996 36.394 36.7996 36.3675C36.7995 36.2363 36.8071 36.1051 36.8222 35.9746C36.834 35.8488 36.8661 35.7253 36.9174 35.6082C37.0429 35.3296 37.2938 35.1109 37.4509 34.8448C37.6942 34.4268 37.6897 33.9462 37.6852 33.4683C37.7052 33.8464 37.6248 34.2232 37.4509 34.5661Z" fill="black"/>
</g>
<path opacity="0.1" d="M43.4809 32.9807C43.4601 33.008 43.4358 33.0328 43.4084 33.0545C43.355 33.095 43.2955 33.1279 43.2316 33.1521C42.7918 33.3276 42.8099 32.755 42.5802 32.5586C42.4329 32.4584 42.2521 32.4091 42.0694 32.4192C41.6271 32.3988 41.1843 32.3807 40.741 32.3649C40.002 32.3398 39.2645 32.3273 38.527 32.3426C38.1733 32.3482 37.8207 32.3617 37.4691 32.383C37.061 32.4081 36.6228 32.4569 36.2752 32.6352C36.1562 32.6955 36.0485 32.7732 35.9563 32.8651C35.8732 32.9487 35.7855 33.0545 35.6707 33.074C35.7535 32.6182 35.9713 32.1924 36.3002 31.8435C36.629 31.4947 37.056 31.2364 37.5341 31.0971C38.308 30.5657 39.2748 30.3306 40.2323 30.4409C41.1899 30.5513 42.0642 30.9985 42.6724 31.6892C42.9403 31.8968 43.1541 32.1573 43.2981 32.4513C43.379 32.6214 43.4403 32.7988 43.4809 32.9807Z" fill="black"/>
<path d="M43.2315 32.8734C42.7917 33.0489 42.8099 32.4763 42.5802 32.2799C42.4328 32.1797 42.2521 32.1304 42.0693 32.1406C40.5379 32.0477 39.002 32.0356 37.469 32.1044C36.9234 32.1378 36.325 32.213 35.9577 32.5864C35.864 32.6811 35.7658 32.8037 35.6253 32.7996C35.5784 32.5209 35.5452 32.2311 35.5225 31.9455C35.5088 31.8386 35.5149 31.7302 35.5406 31.6251C35.5784 31.5053 35.6646 31.4036 35.7084 31.2866C35.7515 31.1377 35.7669 30.9832 35.7537 30.8296C35.7603 30.2612 35.926 29.704 36.2347 29.212C36.5435 28.7199 36.9847 28.3097 37.5159 28.021C37.6492 27.9609 37.7728 27.884 37.8831 27.7925C37.9214 27.7504 37.9634 27.7113 38.0085 27.6755C38.0958 27.6259 38.1981 27.6034 38.3002 27.6114C38.3728 27.6114 38.4513 27.6114 38.5148 27.6114C38.7103 27.5915 38.9013 27.5445 39.0815 27.472C39.2479 27.4062 39.428 27.3748 39.609 27.3801C39.8011 27.4124 39.986 27.4741 40.1561 27.5626C40.2378 27.5989 40.3234 27.6274 40.4115 27.6476C40.549 27.6768 40.6911 27.6754 40.8286 27.7005C41.0513 27.7528 41.2629 27.8395 41.4542 27.9569C41.6826 28.0704 41.894 28.2109 42.0829 28.3748C42.2884 28.5913 42.4529 28.8381 42.5696 29.1048C42.7697 29.4734 42.9219 29.8625 43.023 30.264C43.1454 30.8407 43.0849 31.4649 43.3751 31.9887C43.5519 32.3175 43.7136 32.6825 43.2315 32.8734Z" fill="#FED253"/>
<path opacity="0.1" d="M35.5709 32.4359C35.5709 32.4359 38.7038 29.8084 43.3691 31.9873C43.3691 31.9873 38.1023 30.8825 35.5709 32.4359Z" fill="black"/>
<path d="M1.43415 45.8619C1.00797 45.2183 0.367188 44.629 0.466932 43.899C1.63968 44.023 2.75198 43.7596 3.8265 43.3013C4.90102 42.8429 5.89846 42.248 6.90497 41.6643C7.30092 41.4344 7.69537 41.2087 8.0883 40.9998C8.71094 40.671 9.32906 40.3032 9.96228 39.9814C10.869 39.5216 11.7939 39.1455 12.8125 39.073C12.9971 39.0597 13.1822 39.0555 13.3672 39.0605C14.6215 39.0828 15.9212 39.3934 17.0245 38.8752L17.0925 38.8417C17.7182 38.5255 18.173 37.9877 18.7095 37.5517C19.0953 37.2441 19.5152 36.9752 19.9624 36.7492C20.777 36.3312 21.6596 35.9969 22.4923 35.6026C22.7054 35.5014 22.9078 35.382 23.0968 35.246L23.2388 35.1415L23.2706 35.1164C23.3053 35.0899 23.3401 35.0634 23.3733 35.0356L23.4383 34.9826L23.5048 34.9269L23.5562 34.8823L23.6393 34.8099L23.6484 34.8001L23.7799 34.6803L23.8328 34.6316L23.925 34.5438L23.9794 34.4936C24.0716 34.4059 24.1637 34.3167 24.2574 34.2303C24.3511 34.1439 24.4781 34.0269 24.5914 33.9308L24.7003 33.8416L24.732 33.8166L24.8196 33.7497L24.8604 33.7176L24.9466 33.6563L24.9889 33.6257C25.0312 33.5964 25.075 33.5686 25.1189 33.5407C25.1592 33.5149 25.2016 33.4921 25.2458 33.4724L24.9632 32.8413L25.7763 32.532L36.99 57.6162L36.1754 57.9255L29.7615 43.5757L29.7162 43.6175C28.2304 44.9691 26.4104 45.9674 24.4131 46.5265H24.401C23.2842 46.8372 22.0344 47.0573 21.0943 47.6341C20.761 47.8338 20.4714 48.0895 20.2405 48.3878C20.0198 48.6776 19.8657 49.0077 19.636 49.2864C19.5921 49.3379 19.5438 49.3881 19.4954 49.4354C19.2206 49.6866 18.9165 49.909 18.5886 50.0986L18.4451 50.1892C17.4714 50.8207 16.457 51.3972 15.4074 51.9153C14.8018 52.2059 14.1703 52.4483 13.5198 52.6397C13.0468 52.7791 12.5587 52.8808 12.0856 53.0187C11.7674 53.1075 11.4584 53.2222 11.1622 53.3614C10.3613 53.7473 9.74617 54.352 9.16433 54.997C8.65503 55.5626 8.17142 56.1617 7.61225 56.6772C7.26163 56.9976 6.72815 57.3013 6.30499 57.1132L6.21885 57.0673C6.23245 57.0464 6.24303 57.0255 6.25512 57.0032C6.58911 56.3581 6.17805 55.5612 5.62492 55.0444C5.56749 54.99 5.50855 54.9371 5.4481 54.8869C5.38765 54.8368 5.27884 54.7476 5.19269 54.678C4.71966 54.3032 4.21641 53.9549 3.88846 53.4715C3.63816 53.0654 3.46826 52.6215 3.38672 52.1605C3.23559 51.5043 3.13433 50.8286 2.74745 50.27C2.49355 49.9008 2.11573 49.5859 1.84068 49.232C1.66682 49.0226 1.55252 48.7765 1.5082 48.516C1.44624 48.0632 1.67444 47.6201 1.76058 47.1687C1.78621 47.0458 1.79686 46.9205 1.79232 46.7954C1.76075 46.4613 1.6375 46.14 1.43415 45.8619Z" fill="url(#paint0_linear)"/>
<path d="M35.8904 57.7102L36.691 57.406L25.6642 32.7436L24.8636 33.0478L35.8904 57.7102Z" fill="#D6D8E1"/>
<path d="M3.018 50.1822C3.39733 50.7325 3.49858 51.3957 3.64518 52.0407C3.72648 52.4941 3.89377 52.9308 4.13936 53.3308C4.46278 53.8059 4.95696 54.1486 5.42093 54.5164C5.50556 54.5846 5.59019 54.6557 5.6718 54.7226C5.73074 54.7713 5.78968 54.8243 5.84559 54.8758C6.38965 55.3843 6.79317 56.1687 6.46522 56.8026C6.45515 56.8242 6.44354 56.8451 6.43046 56.8653C6.45701 56.8819 6.48478 56.8968 6.51358 56.9098C6.93069 57.0965 7.45511 56.7984 7.79968 56.4821C8.34978 55.975 8.82583 55.3871 9.32606 54.8312C9.89733 54.1959 10.5033 53.6011 11.2907 53.2221C11.5814 53.0849 11.8849 52.972 12.1975 52.885C12.6615 52.7456 13.142 52.6467 13.6075 52.513C14.2469 52.3245 14.8677 52.0863 15.4634 51.8011C16.497 51.2911 17.4963 50.7239 18.4557 50.1028L18.5977 50.0136C18.9199 49.8275 19.2189 49.6093 19.4894 49.363C19.5378 49.3156 19.5846 49.2669 19.6284 49.2153C19.8612 48.9367 20.0138 48.6177 20.2329 48.3321C20.4602 48.0387 20.7452 47.7873 21.0732 47.5909C21.9981 47.0239 23.2253 46.8065 24.324 46.5014H24.3361C26.2994 45.9508 28.0885 44.9694 29.55 43.6412C29.6711 43.548 29.7616 43.4254 29.8114 43.2874C29.8583 43.0909 29.7434 42.8959 29.6331 42.7231C29.5046 42.5197 29.3792 42.3163 29.2553 42.1101C28.6979 41.1751 28.2004 40.2107 27.7652 39.2221C27.6699 39.0048 27.5777 38.7888 27.4886 38.5701C27.2599 38.0128 27.0513 37.4476 26.8629 36.8746C26.801 36.6851 26.7405 36.4943 26.6831 36.3034C26.6725 36.2672 26.6604 36.2282 26.6498 36.1864C26.399 35.2571 26.0635 33.0824 25.0297 33.733C24.7223 33.9356 24.4364 34.1646 24.1759 34.417C23.9749 34.6051 23.7784 34.7988 23.5714 34.9854C23.4027 35.1383 23.2246 35.2821 23.0379 35.4159C22.8484 35.5497 22.646 35.6672 22.4334 35.767C21.6127 36.1543 20.7453 36.4789 19.9458 36.8941C19.5056 37.1159 19.0922 37.3802 18.7126 37.6826C18.1852 38.1117 17.7378 38.6411 17.1227 38.9518L17.0562 38.9853C15.9711 39.4938 14.6941 39.1887 13.4594 39.1664C13.2779 39.1622 13.0964 39.1663 12.9153 39.1789C11.9134 39.2486 10.9975 39.6191 10.1119 40.0719C9.48928 40.3896 8.88175 40.749 8.26968 41.0736C7.8828 41.2784 7.49591 41.4999 7.106 41.727C6.11762 42.301 5.11565 42.9029 4.08345 43.3375C3.02555 43.7806 1.9329 44.0453 0.779797 43.9241C0.681564 44.6415 1.31025 45.2211 1.73039 45.8536C1.93218 46.1255 2.0545 46.4407 2.08554 46.7689C2.09109 46.8917 2.08146 47.0146 2.05682 47.1353C1.97219 47.5798 1.75457 48.0144 1.80898 48.4616C1.85186 48.7166 1.96359 48.9576 2.1339 49.1624C2.39686 49.5093 2.76712 49.82 3.018 50.1822Z" fill="#F86D70"/>
<path d="M33.7437 53.0842C33.7437 53.0842 35.0676 54.1486 36.4096 54.7156C37.7516 55.2826 36.863 57.3166 36.863 57.3166C36.863 57.3166 35.4409 57.6176 34.445 56.3414C33.449 55.0653 33.7437 53.0842 33.7437 53.0842Z" fill="#A1616A"/>
<path d="M105.082 71.2024C105.082 71.2024 101.576 75.4558 98.6667 75.4906C95.7575 75.5255 94.0498 77.2823 95.4311 78.3801C96.8124 79.4779 111.865 77.7532 111.865 77.7532C111.865 77.7532 112.007 72.526 110.702 71.7625C109.398 70.999 105.082 71.2024 105.082 71.2024Z" fill="#444176"/>
<path d="M142.781 76.3084C142.781 76.3084 143.317 79.6771 141.66 81.9745C140.002 84.2718 144.655 85.1579 144.655 85.1579C144.655 85.1579 148.036 86.0258 148.282 82.9469C148.528 79.868 148.448 77.5135 148.131 77.2628C147.813 77.012 147.549 75.2803 147.549 75.2803L142.781 76.3084Z" fill="#444176"/>
<path d="M89.7049 82.671C89.7049 82.671 89.5825 71.775 101.278 67.3461L103.994 62.5828L105.297 59.6572C105.768 58.5975 106.511 57.6585 107.46 56.9197C108.41 56.1809 109.539 55.6642 110.751 55.4136L112.858 54.9775L113.509 52.4475C113.856 51.0951 114.625 49.866 115.721 48.9119C116.817 47.9577 118.192 47.3203 119.677 47.0782C120.958 46.859 122.258 46.7471 123.561 46.7438C124.137 46.7518 124.702 46.8972 125.199 47.1657C125.697 47.4342 126.11 47.8168 126.4 48.2763C126.4 48.2763 137.481 48.1635 137.972 53.725C137.972 53.725 139.081 58.831 140.682 59.7394C140.682 59.7394 143.39 59.1723 146.098 62.8044L149.053 72.1108C149.053 72.1108 156.809 78.8064 154.469 84.928C154.469 84.928 151.268 89.127 135.018 86.2891C135.018 86.2891 117.659 91.1652 108.419 84.478C108.418 84.4863 93.0297 87.21 89.7049 82.671Z" fill="#A8A8A8"/>
<path opacity="0.1" d="M97.4607 80.9686C97.4607 80.9686 99.9241 77.7907 99.8002 75.5199C99.6763 73.249 100.381 67.7181 100.381 67.7181" stroke="black" stroke-miterlimit="10"/>
<path opacity="0.1" d="M106.448 72.4563C106.448 72.4563 108.91 68.2573 108.664 65.9878C108.664 65.9878 111.25 61.6689 113.219 62.0144" stroke="black" stroke-miterlimit="10"/>
<path opacity="0.1" d="M119.991 60.5391C119.991 60.5391 126.761 58.2696 127.132 56.4543" stroke="black" stroke-miterlimit="10"/>
<path opacity="0.1" d="M122.453 65.7607C122.453 65.7607 129.593 62.8099 129.593 62.0144H133.162C133.162 62.0144 138.333 68.2572 137.718 70.9809" stroke="black" stroke-miterlimit="10"/>
<path opacity="0.1" d="M130.825 70.2997C130.825 70.2997 123.931 69.8455 121.467 71.6622C119.004 73.4789 114.573 74.3858 114.573 74.3858C114.573 74.3858 111.987 79.4932 111.002 80.4002C110.016 81.3071 108.416 84.4864 108.416 84.4864" stroke="black" stroke-miterlimit="10"/>
<path opacity="0.1" d="M130.825 76.3154C130.825 76.3154 131.563 78.6977 132.548 80.0602C133.533 81.4228 135.01 86.3017 135.01 86.3017" stroke="black" stroke-miterlimit="10"/>
<path opacity="0.1" d="M142.397 83.2382C142.397 83.2382 143.96 87.2463 145.333 87.2853" stroke="black" stroke-miterlimit="10"/>
<path opacity="0.1" d="M132.161 66.0338C132.161 66.0338 136.22 67.0452 137.918 69.4958C139.615 71.9464 144.798 74.1685 144.798 74.1685" stroke="black" stroke-miterlimit="10"/>
<path opacity="0.1" d="M133.902 53.9605C133.902 53.9605 133.902 59.1807 135.503 59.1807C137.103 59.1807 140.674 59.7478 140.674 59.7478" stroke="black" stroke-miterlimit="10"/>
<path opacity="0.1" d="M126.059 47.7609C126.059 47.7609 125.649 56.7789 123.556 59.1139" stroke="black" stroke-miterlimit="10"/>
<g opacity="0.05">
<path opacity="0.05" d="M148.799 72.0021L145.844 62.6957C143.136 59.0637 140.428 59.6307 140.428 59.6307C138.827 58.7224 137.72 53.615 137.72 53.615C137.227 48.0534 126.146 48.1677 126.146 48.1677C125.856 47.7074 125.441 47.3243 124.942 47.0557C124.444 46.7871 123.878 46.6422 123.301 46.6352C122.778 46.6352 122.243 46.6505 121.708 46.6909C122.01 46.7188 122.3 46.7583 122.577 46.8093L123.438 48.1719C123.438 48.1719 134.517 48.0576 135.01 53.6192C135.01 53.6192 136.119 58.7266 137.72 59.6349C137.72 59.6349 140.428 59.0665 143.136 62.6999L146.091 72.0063C146.091 72.0063 153.846 78.7019 151.507 84.8235C151.507 84.8235 149.928 86.8952 143.358 87.146C152.216 87.4455 154.215 84.8235 154.215 84.8235C156.555 78.6977 148.799 72.0021 148.799 72.0021Z" fill="black"/>
<path opacity="0.05" d="M105.463 84.3721C102.857 84.8045 100.221 85.0703 97.5756 85.1677C100.66 85.2763 103.869 84.9684 105.936 84.7065C105.776 84.5937 105.619 84.485 105.463 84.3721Z" fill="black"/>
<path opacity="0.05" d="M132.055 86.1888C128.265 87.1688 124.364 87.7373 120.431 87.8829C126.105 88.0724 131.481 86.9816 133.697 86.4577C133.162 86.3755 132.619 86.2822 132.055 86.1888Z" fill="black"/>
</g>
<path d="M33.6788 103.89C33.6788 103.89 37.0656 103.794 38.0857 103.124C39.1058 102.454 43.2936 101.654 43.5475 102.729C43.8014 103.803 48.6359 108.071 44.8124 108.101C40.9889 108.13 35.9306 107.552 34.912 106.979C33.8934 106.407 33.6788 103.89 33.6788 103.89Z" fill="#A8A8A8"/>
<path opacity="0.2" d="M44.8819 107.726C41.0584 107.755 35.9986 107.177 34.98 106.611C34.2048 106.175 33.8949 104.612 33.7922 103.892H33.6788C33.6788 103.892 33.8934 106.409 34.912 106.981C35.9306 107.552 40.9904 108.13 44.8124 108.102C45.9172 108.094 46.298 107.732 46.2769 107.195C46.1242 107.518 45.7026 107.72 44.8819 107.726Z" fill="black"/>
<path d="M116.246 96.0608C116.246 96.0608 112.258 95.3252 111.195 94.3444C110.133 93.3636 105.347 91.65 104.815 92.8746C104.283 94.0992 97.6375 98.2662 102.156 99.0046C106.675 99.743 112.79 99.9798 114.12 99.495C115.449 99.0102 116.246 96.0608 116.246 96.0608Z" fill="#A8A8A8"/>
<path opacity="0.2" d="M102.156 98.5421C106.676 99.2763 112.79 99.5173 114.12 99.0311C115.131 98.6577 115.835 96.8647 116.113 96.0302L116.246 96.0566C116.246 96.0566 115.448 98.9962 114.12 99.4866C112.791 99.977 106.676 99.7318 102.156 98.9962C100.852 98.7845 100.479 98.2857 100.619 97.656C100.731 98.0712 101.186 98.3874 102.156 98.5421Z" fill="black"/>
<path opacity="0.1" d="M78.0574 16.0007H77.1083C77.2847 16.0007 77.4538 15.9361 77.5785 15.8211C77.7032 15.7062 77.7733 15.5502 77.7733 15.3877C77.7733 15.2251 77.7032 15.0692 77.5785 14.9542C77.4538 14.8392 77.2847 14.7747 77.1083 14.7747H69.4189C69.2426 14.7747 69.0734 14.8392 68.9487 14.9542C68.824 15.0692 68.754 15.2251 68.754 15.3877C68.754 15.5502 68.824 15.7062 68.9487 15.8211C69.0734 15.9361 69.2426 16.0007 69.4189 16.0007H70.368C70.1973 16.0082 70.0363 16.0759 69.9184 16.19C69.8005 16.304 69.7347 16.4554 69.7347 16.613C69.7347 16.7705 69.8005 16.9219 69.9184 17.036C70.0363 17.15 70.1973 17.2177 70.368 17.2253H69.0396C68.8632 17.2253 68.6941 17.2898 68.5694 17.4048C68.4447 17.5198 68.3746 17.6757 68.3746 17.8383C68.3746 18.0008 68.4447 18.1567 68.5694 18.2717C68.6941 18.3867 68.8632 18.4513 69.0396 18.4513H76.729C76.9053 18.4513 77.0745 18.3867 77.1992 18.2717C77.3239 18.1567 77.3939 18.0008 77.3939 17.8383C77.3939 17.6757 77.3239 17.5198 77.1992 17.4048C77.0745 17.2898 76.9053 17.2253 76.729 17.2253H78.0574C78.1473 17.2292 78.2371 17.2163 78.3214 17.1873C78.4057 17.1583 78.4828 17.1139 78.5479 17.0566C78.6131 16.9994 78.6649 16.9305 78.7003 16.8543C78.7358 16.778 78.754 16.6959 78.754 16.613C78.754 16.53 78.7358 16.4479 78.7003 16.3716C78.6649 16.2954 78.6131 16.2265 78.5479 16.1693C78.4828 16.112 78.4057 16.0676 78.3214 16.0386C78.2371 16.0096 78.1473 15.9967 78.0574 16.0007Z" fill="#389168"/>
<path opacity="0.1" d="M107.923 37.5684H106.974C107.145 37.5609 107.306 37.4931 107.424 37.3791C107.542 37.2651 107.607 37.1136 107.607 36.9561C107.607 36.7986 107.542 36.6471 107.424 36.5331C107.306 36.4191 107.145 36.3513 106.974 36.3438H99.2772C99.1873 36.3398 99.0975 36.3527 99.0132 36.3817C98.9288 36.4107 98.8518 36.4552 98.7867 36.5124C98.7215 36.5697 98.6697 36.6385 98.6342 36.7148C98.5988 36.791 98.5805 36.8731 98.5805 36.9561C98.5805 37.039 98.5988 37.1211 98.6342 37.1974C98.6697 37.2737 98.7215 37.3425 98.7867 37.3997C98.8518 37.457 98.9288 37.5014 99.0132 37.5304C99.0975 37.5594 99.1873 37.5723 99.2772 37.5684H100.226C100.056 37.5759 99.8946 37.6437 99.7767 37.7577C99.6588 37.8717 99.593 38.0232 99.593 38.1807C99.593 38.3382 99.6588 38.4897 99.7767 38.6037C99.8946 38.7177 100.056 38.7855 100.226 38.793H98.8979C98.7215 38.793 98.5524 38.8576 98.4277 38.9725C98.303 39.0875 98.2329 39.2434 98.2329 39.406C98.2329 39.5686 98.303 39.7245 98.4277 39.8394C98.5524 39.9544 98.7215 40.019 98.8979 40.019H106.586C106.762 40.019 106.931 39.9544 107.056 39.8394C107.181 39.7245 107.251 39.5686 107.251 39.406C107.251 39.2434 107.181 39.0875 107.056 38.9725C106.931 38.8576 106.762 38.793 106.586 38.793H107.923C108.013 38.7969 108.103 38.784 108.187 38.755C108.272 38.7261 108.349 38.6816 108.414 38.6243C108.479 38.5671 108.531 38.4983 108.566 38.422C108.602 38.3457 108.62 38.2636 108.62 38.1807C108.62 38.0977 108.602 38.0156 108.566 37.9394C108.531 37.8631 108.479 37.7943 108.414 37.737C108.349 37.6798 108.272 37.6353 108.187 37.6063C108.103 37.5773 108.013 37.5644 107.923 37.5684Z" fill="#389168"/>
<path opacity="0.1" d="M63.6686 33.5783H62.7195C62.8094 33.5823 62.8992 33.5694 62.9835 33.5404C63.0679 33.5114 63.1449 33.4669 63.21 33.4097C63.2752 33.3524 63.327 33.2836 63.3625 33.2073C63.3979 33.1311 63.4161 33.049 63.4161 32.966C63.4161 32.8831 63.3979 32.801 63.3625 32.7247C63.327 32.6484 63.2752 32.5796 63.21 32.5224C63.1449 32.4651 63.0679 32.4207 62.9835 32.3917C62.8992 32.3627 62.8094 32.3498 62.7195 32.3537H55.0286C54.9387 32.3498 54.8489 32.3627 54.7646 32.3917C54.6802 32.4207 54.6032 32.4651 54.538 32.5224C54.4729 32.5796 54.4211 32.6484 54.3856 32.7247C54.3502 32.801 54.3319 32.8831 54.3319 32.966C54.3319 33.049 54.3502 33.1311 54.3856 33.2073C54.4211 33.2836 54.4729 33.3524 54.538 33.4097C54.6032 33.4669 54.6802 33.5114 54.7646 33.5404C54.8489 33.5694 54.9387 33.5823 55.0286 33.5783H55.9777C55.8878 33.5744 55.798 33.5873 55.7136 33.6163C55.6293 33.6452 55.5523 33.6897 55.4871 33.747C55.422 33.8042 55.3701 33.873 55.3347 33.9493C55.2993 34.0256 55.281 34.1077 55.281 34.1906C55.281 34.2736 55.2993 34.3557 55.3347 34.4319C55.3701 34.5082 55.422 34.577 55.4871 34.6343C55.5523 34.6915 55.6293 34.736 55.7136 34.765C55.798 34.794 55.8878 34.8069 55.9777 34.8029H54.6478C54.4714 34.8029 54.3023 34.8675 54.1776 34.9825C54.0529 35.0974 53.9828 35.2533 53.9828 35.4159C53.9828 35.5785 54.0529 35.7344 54.1776 35.8494C54.3023 35.9643 54.4714 36.0289 54.6478 36.0289H62.3371C62.5135 36.0289 62.6826 35.9643 62.8073 35.8494C62.932 35.7344 63.0021 35.5785 63.0021 35.4159C63.0021 35.2533 62.932 35.0974 62.8073 34.9825C62.6826 34.8675 62.5135 34.8029 62.3371 34.8029H63.6656C63.7554 34.8069 63.8453 34.794 63.9296 34.765C64.0139 34.736 64.091 34.6915 64.1561 34.6343C64.2212 34.577 64.2731 34.5082 64.3085 34.4319C64.3439 34.3557 64.3622 34.2736 64.3622 34.1906C64.3622 34.1077 64.3439 34.0256 64.3085 33.9493C64.2731 33.873 64.2212 33.8042 64.1561 33.747C64.091 33.6897 64.0139 33.6452 63.9296 33.6163C63.8453 33.5873 63.7554 33.5744 63.6656 33.5783H63.6686Z" fill="#389168"/>
</g>
<defs>
<linearGradient id="paint0_linear" x1="-109606" y1="9130.48" x2="-118441" y2="9130.48" gradientUnits="userSpaceOnUse">
<stop stop-color="#808080" stop-opacity="0.25"/>
<stop offset="0.54" stop-color="#808080" stop-opacity="0.12"/>
<stop offset="1" stop-color="#808080" stop-opacity="0.1"/>
</linearGradient>
<clipPath id="clip0">
<rect width="156" height="116" fill="white"/>
</clipPath>
</defs>
</svg>
