<svg width="156" height="116" viewBox="0 0 156 116" fill="none" xmlns="http://www.w3.org/2000/svg">
<g clip-path="url(#clip0)">
<path opacity="0.1" d="M155.999 74.4332C156.002 77.5731 155.688 80.7017 155.063 83.7496C154.853 84.7755 154.609 85.7811 154.331 86.7665C153.99 87.9813 153.596 89.1731 153.149 90.3369C152.924 90.9245 152.686 91.5014 152.435 92.0677C152.439 95.2875 151.89 98.4734 150.823 101.424C148.894 106.717 145.454 110.998 141.131 113.485C138.424 115.045 135.466 115.864 132.467 115.885H29.6135C25.037 115.897 20.5394 114.446 16.578 111.678C15.9926 111.268 15.4222 110.832 14.8668 110.369C13.6609 109.363 12.5279 108.235 11.4801 106.997C10.0615 105.321 8.81185 103.449 7.75696 101.419C5.27858 96.6664 3.96567 91.1629 3.97027 85.546C1.46038 80.2271 -0.00317383 73.8557 -0.00317383 67.0093C-0.00317383 58.3712 2.32261 50.4913 6.14374 44.5262C6.94037 43.28 7.81299 42.1074 8.75429 41.0182C9.68307 39.9404 10.6813 38.9535 11.7397 38.0668C12.5861 37.3561 13.4711 36.7148 14.3886 36.1473C14.7714 35.9105 15.1555 35.6898 15.5462 35.4834C15.8893 35.2994 16.2363 35.1283 16.5873 34.9667C17.0085 34.7726 17.4349 34.5951 17.8667 34.434C18.2985 34.273 18.7245 34.1312 19.1448 34.0085C19.7629 33.8262 20.3916 33.6779 21.0309 33.5638C21.5607 33.4695 22.0905 33.4039 22.6203 33.3527C23.0415 33.3164 23.4662 33.2951 23.8944 33.2887H24.1262C24.5977 33.2887 25.0666 33.3111 25.5315 33.3495C25.5805 33.2311 25.6335 33.1111 25.6825 32.9928C25.8679 32.5673 26.06 32.1417 26.2533 31.7242V31.713C26.2864 31.6411 26.3196 31.5691 26.354 31.4987C26.5103 31.158 26.6732 30.8204 26.8401 30.4861C26.9169 30.3261 26.9924 30.1758 27.0705 30.0238C27.0878 29.987 27.105 29.9518 27.1248 29.915C27.2043 29.7551 27.2851 29.5951 27.3672 29.4351C27.776 28.6471 28.2012 27.8712 28.6427 27.1077C28.6811 27.0421 28.7169 26.9781 28.7553 26.9141C28.8242 26.7957 28.8877 26.679 28.9645 26.5622C29.1473 26.2534 29.3354 25.9431 29.5248 25.6376C29.6573 25.4216 29.7897 25.2057 29.9327 24.9977C30.2771 24.4602 30.6307 23.926 30.9923 23.3981C31.3539 22.8702 31.7354 22.3391 32.1208 21.8192C32.1738 21.7472 32.2267 21.6769 32.2824 21.6049L32.8479 20.861C32.8757 20.8258 32.8996 20.7939 32.9261 20.7619C32.9936 20.6739 33.0585 20.5859 33.1314 20.4995C33.4347 20.1124 33.7459 19.7301 34.0585 19.3526C35.6551 17.4366 37.356 15.6516 39.1498 14.0097C39.22 13.9426 39.2915 13.8786 39.3617 13.8146C39.6981 13.5075 40.0399 13.2051 40.3816 12.9076C42.2615 11.2796 44.2262 9.79956 46.2636 8.47657C46.404 8.38059 46.547 8.28941 46.6914 8.19823C48.5185 7.03164 50.3972 5.9871 52.3191 5.06932C53.3663 4.56916 54.4321 4.10207 55.5164 3.66803C56.2343 3.38489 56.9548 3.11455 57.6846 2.86821C58.813 2.47683 59.9556 2.12384 61.1123 1.80924C64.5201 0.88574 67.987 0.315261 71.4751 0.104016C72.5347 0.0368312 73.6062 0.00323901 74.6896 0.00323901C79.9173 -0.00511977 85.1247 0.790435 90.186 2.37072C90.2384 2.46623 90.3099 2.54409 90.3941 2.59698C90.4782 2.64987 90.572 2.67605 90.6668 2.67305H91.1118C91.3052 2.73544 91.4973 2.80102 91.6906 2.86821C92.7705 3.24466 93.835 3.6547 94.884 4.09834L95.1489 4.21351C97.7379 5.3254 100.257 6.66192 102.686 8.21263C104.876 9.60771 106.985 11.1811 108.998 12.922C109.308 13.1907 109.613 13.4621 109.914 13.7362C110.28 13.4515 110.651 13.1801 111.029 12.922C112.489 11.9186 114.039 11.121 115.649 10.5449C119.016 9.34169 122.578 9.17343 126.012 10.0554C130.416 11.1832 134.403 13.9826 137.622 17.9641C138.934 19.5879 140.102 21.372 141.108 23.2877C141.181 23.4253 141.254 23.5644 141.324 23.7052C142.187 25.4065 142.929 27.1933 143.541 29.0464C143.564 29.1136 143.586 29.1792 143.606 29.2464C144.172 30.9806 144.628 32.7639 144.971 34.5812C144.986 34.6724 145.005 34.7652 145.021 34.8579C145.341 36.6166 145.559 38.4004 145.673 40.196C145.673 40.26 145.673 40.3255 145.683 40.3911C145.739 41.32 145.767 42.259 145.768 43.2081C145.768 44.0559 145.744 44.8973 145.7 45.7307C145.7 45.8219 145.69 45.9179 145.683 46.0107C145.671 46.2538 145.654 46.4906 145.637 46.7353C146.648 47.7202 147.595 48.7984 148.469 49.9602C148.854 50.4689 149.228 50.9973 149.589 51.5455C150.689 53.2103 151.656 54.9977 152.476 56.8835C154.712 61.9992 155.999 68.0042 155.999 74.4332Z" fill="#389168"/>
<path opacity="0.1" d="M141.033 105.919C141.033 109.555 137.913 112.958 132.468 115.888H29.6141C24.8552 115.888 20.3983 113.809 16.5785 110.182C15.6183 108.806 15.1123 107.381 15.1123 105.917C15.1123 102.053 18.6407 98.4455 24.7413 95.3966L24.9135 95.3134C26.6353 94.4608 28.5598 93.6562 30.663 92.8995C30.716 92.8803 30.7703 92.8627 30.8233 92.8403C32.4922 92.2485 34.2674 91.6875 36.149 91.1575C36.2086 91.1415 36.2669 91.1239 36.3265 91.1111C37.0523 90.9032 37.7927 90.7096 38.549 90.5161L38.8404 90.4425C44.3436 89.0636 50.5991 87.9694 57.3831 87.2272H57.3911C58.3412 87.1205 59.3014 87.0251 60.2718 86.9408C61.3513 86.8369 62.444 86.7489 63.5486 86.6673C64.3923 86.6017 65.2466 86.5457 66.1035 86.4945C66.1067 86.4929 66.11 86.4921 66.1135 86.4921C66.1169 86.4921 66.1202 86.4929 66.1234 86.4945C69.9895 86.2594 73.9842 86.1362 78.0689 86.1362C88.1694 86.1362 97.7162 86.8849 106.176 88.2158C106.184 88.2141 106.192 88.2141 106.2 88.2158C107.5 88.4205 108.777 88.6365 110.022 88.8668C110.378 88.934 110.733 89.0012 111.082 89.07C112.486 89.3441 113.855 89.6336 115.187 89.9386C130.856 93.5362 141.033 99.3573 141.033 105.919Z" fill="#389168"/>
<path d="M115.428 38.9162C115.428 38.9162 114.027 38.2299 109.569 40.6982C105.111 43.1664 104.554 42.8545 103.401 42.4834C102.247 42.1123 101.604 42.0163 100.366 39.9544C100.366 39.9544 99.4936 34.242 98.6447 33.3558C97.7957 32.4696 94.2116 33.8613 94.2116 33.8613C94.2116 33.8613 89.9084 35.053 89.0885 28.1026C89.0885 28.1026 89.67 22.8685 88.8779 21.2625C88.8779 21.2625 90.4779 22.0943 93.1163 20.7506C95.7546 19.4069 97.8672 22.1983 97.8672 22.1983C97.8672 22.1983 98.5294 24.2778 98.4632 25.5191C98.397 26.7605 98.8155 27.226 100.074 26.6261C100.074 26.6261 100.692 25.5639 99.8168 23.8075C98.9413 22.0511 98.3162 20.7442 98.5599 19.3813C98.8036 18.0184 99.5069 16.126 101.765 15.1806C104.023 14.2352 107.09 14.0609 108.561 13.3138C110.033 12.5668 110.395 12.0901 110.395 12.0901C110.395 12.0901 109.49 13.1858 111.623 17.8328C113.757 22.4798 112.397 24.4954 112.397 24.4954C112.397 24.4954 111.262 27.7634 106.25 27.4979C106.25 27.4979 101.421 27.7106 104.054 30.1837C104.054 30.1837 105.74 29.7694 108.26 28.8016C110.781 27.8338 112.601 31.8281 113.052 34.6067C113.504 37.3853 115.428 38.9162 115.428 38.9162Z" fill="#389168"/>
<path d="M108.937 15.6093L108.964 15.5997C109.157 16.4859 106.999 20.0499 105.154 22.8829L105.133 22.8621C107.735 18.8726 109.087 16.2956 108.937 15.6093Z" fill="#444053"/>
<path d="M105.17 22.8077L105.182 22.8429C103.708 25.1048 101.855 27.8018 100.372 29.8062C100.23 29.9966 100.09 30.1965 99.9546 30.4013L99.9122 30.3597C100.045 30.1549 100.189 29.9534 100.331 29.763C101.813 27.7666 103.695 25.0712 105.17 22.8077Z" fill="#444053"/>
<path d="M99.948 30.3085L99.9771 30.3693C97.2779 34.4404 97.0991 40.767 97.0925 40.8166L96.5229 40.0167C96.5296 39.9655 97.2302 34.4084 99.948 30.3085Z" fill="#444053"/>
<path d="M112.304 36.7087C112.304 36.7087 109.125 34.7091 106.641 35.4289C104.156 36.1488 98.5679 32.8855 98.5679 32.8855C98.5679 32.8855 96.1971 31.7226 95.7203 30.3965C95.7203 30.3965 94.0925 28.3169 93.9985 27.2436C93.9044 26.1702 92.3217 23.4652 91.2886 23.3612" stroke="#444053" stroke-miterlimit="10"/>
<path d="M111.837 38.6331C111.837 38.6331 110.234 37.3278 110.421 35.8081" stroke="#444053" stroke-miterlimit="10"/>
<path d="M109.378 40.3176C109.378 40.3176 107.086 39.313 106.862 35.3715" stroke="#444053" stroke-miterlimit="10"/>
<path d="M105.682 41.3382C105.682 41.3382 103.491 39.1434 104.218 35.3075" stroke="#444053" stroke-miterlimit="10"/>
<path d="M101.233 40.2663C101.233 40.2663 99.7757 36.5711 101.072 34.1669" stroke="#444053" stroke-miterlimit="10"/>
<path d="M112.335 34.2725C112.335 34.2725 110.678 34.9123 111.033 35.9617" stroke="#444053" stroke-miterlimit="10"/>
<path d="M110.335 30.646C110.335 30.646 108.116 31.4954 108.064 35.285" stroke="#444053" stroke-miterlimit="10"/>
<path d="M107.241 29.7631C107.241 29.7631 105.221 32.7736 105.369 35.509" stroke="#444053" stroke-miterlimit="10"/>
<path d="M103.704 30.9436C103.704 30.9436 101.699 33.2599 101.955 34.5476" stroke="#444053" stroke-miterlimit="10"/>
<path d="M102.495 30.1261C102.495 30.1261 100.614 30.5324 100.351 29.787" stroke="#444053" stroke-miterlimit="10"/>
<path d="M100.051 27.3844C100.051 27.3844 101.001 28.9041 101.243 28.5633" stroke="#444053" stroke-miterlimit="10"/>
<path d="M109.471 26.423C109.471 26.423 104.729 26.8389 103.656 25.1113" stroke="#444053" stroke-miterlimit="10"/>
<path d="M99.0592 19.7252C99.0592 19.7252 101.283 25.492 102.9 26.2262" stroke="#444053" stroke-miterlimit="10"/>
<path d="M101.388 16.9786C101.388 16.9786 102.753 22.2831 104.446 23.9387" stroke="#444053" stroke-miterlimit="10"/>
<path d="M111.466 22.0447C111.466 22.0447 107.86 23.9131 105.696 22.0223" stroke="#444053" stroke-width="0.75" stroke-miterlimit="10"/>
<path d="M104.598 15.8477C104.598 15.8477 105.422 19.746 106.532 20.6882" stroke="#444053" stroke-width="0.75" stroke-miterlimit="10"/>
<path d="M110.921 17.6761C110.921 17.6761 108.895 18.6039 108.14 17.8937" stroke="#444053" stroke-width="0.75" stroke-miterlimit="10"/>
<path d="M98.3149 28.6577C98.3149 28.6577 98.3149 32.057 97.5493 32.2985" stroke="#444053" stroke-miterlimit="10"/>
<path d="M92.0514 33.0616C92.0514 33.0616 95.0977 33.3815 96.4977 31.4795" stroke="#444053" stroke-miterlimit="10"/>
<path d="M97.5307 24.6426C97.5307 24.6426 96.7943 28.0898 94.7626 29.0192" stroke="#444053" stroke-miterlimit="10"/>
<path d="M90.2263 29.4303C90.2263 29.4303 92.3799 30.3341 94.2329 28.0322" stroke="#444053" stroke-miterlimit="10"/>
<path d="M95.1347 21.6783C95.1347 21.6783 94.9321 24.6057 93.6143 25.9766" stroke="#444053" stroke-miterlimit="10"/>
<path d="M90.3083 24.9689C90.3083 24.9689 92.0951 24.9833 92.5136 24.2794" stroke="#444053" stroke-miterlimit="10"/>
<path d="M103.231 36.0848H52.3448V67.1084H103.231V36.0848Z" fill="#33323D"/>
<path d="M119.244 76.5336H36.4934V96.9547H119.244V76.5336Z" fill="#33323D"/>
<path d="M56.2467 81.6381H98.6791L107.133 116H47.3052L56.2467 81.6381Z" fill="white"/>
<path d="M34.1359 64.3586V74.9627V77.1958V96.953H49.9872V78.1044H105.751V96.953H121.602V77.1958V74.9627V64.3586H34.1359Z" fill="#504F60"/>
<path opacity="0.1" d="M121.602 64.3586H34.1359V74.9611H121.602V64.3586Z" fill="#33323D"/>
<path opacity="0.8" d="M116.888 71.2323C117.606 71.2323 118.189 70.529 118.189 69.6614C118.189 68.7939 117.606 68.0906 116.888 68.0906C116.17 68.0906 115.587 68.7939 115.587 69.6614C115.587 70.529 116.17 71.2323 116.888 71.2323Z" fill="#8CCF4D"/>
<path opacity="0.8" d="M111.035 71.2323C111.754 71.2323 112.336 70.529 112.336 69.6614C112.336 68.7939 111.754 68.0906 111.035 68.0906C110.317 68.0906 109.735 68.7939 109.735 69.6614C109.735 70.529 110.317 71.2323 111.035 71.2323Z" fill="#FA5959"/>
<path d="M101.363 28.6224H54.215V62.3942H101.363V28.6224Z" fill="white"/>
<path d="M108.535 77.914C108.634 79.2209 107.817 80.4894 108.055 81.7692C108.105 82.0427 108.203 82.3018 108.239 82.569C108.337 83.3288 107.962 84.0486 107.603 84.6853L104.527 90.1529C104.403 90.3928 104.256 90.6131 104.087 90.8087C103.498 91.4486 102.615 91.375 101.843 91.5638C101.3 91.6967 100.788 91.9695 100.34 92.3636C100.321 92.3823 100.308 92.4092 100.304 92.4389C100.3 92.4686 100.306 92.4988 100.32 92.5236C100.447 92.7345 100.616 92.9035 100.812 93.0153C101.007 93.127 101.222 93.178 101.438 93.1634C101.519 93.2914 101.438 93.4834 101.327 93.5729C101.161 93.7105 100.929 93.7473 100.902 94.0864C100.89 94.2042 100.909 94.3235 100.957 94.4271C101.082 94.6562 101.275 94.8179 101.496 94.8782C102.556 95.2718 103.712 94.5807 104.509 93.6401C105.307 92.6995 105.879 91.5126 106.662 90.5544C107.095 90.0249 107.589 89.5706 108.034 89.0571C108.924 88.0334 109.623 86.7872 110.286 85.5379C110.504 85.1756 110.669 84.7702 110.773 84.3398C110.855 83.9143 110.818 83.4648 110.913 83.0425C111.038 82.4906 111.373 82.0507 111.651 81.5868C112.198 80.6782 112.562 79.568 112.49 78.4483C112.417 77.3285 111.844 76.2264 110.97 75.8457C110.699 75.7153 110.401 75.6934 110.119 75.7833C109.76 75.916 109.496 76.2744 109.251 76.6167L108.667 77.4309C108.521 77.6111 108.406 77.8235 108.327 78.0564C108.289 78.1738 108.28 78.3018 108.302 78.4251C108.323 78.5483 108.374 78.6614 108.447 78.7506" fill="#A1616A"/>
<path opacity="0.05" d="M108.535 77.914C108.634 79.2209 107.817 80.4894 108.055 81.7692C108.105 82.0427 108.203 82.3018 108.239 82.569C108.337 83.3288 107.962 84.0486 107.603 84.6853L104.527 90.1529C104.403 90.3928 104.256 90.6131 104.087 90.8087C103.498 91.4486 102.615 91.375 101.843 91.5638C101.3 91.6967 100.788 91.9695 100.34 92.3636C100.321 92.3823 100.308 92.4092 100.304 92.4389C100.3 92.4686 100.306 92.4988 100.32 92.5236C100.447 92.7345 100.616 92.9035 100.812 93.0153C101.007 93.127 101.222 93.178 101.438 93.1634C101.519 93.2914 101.438 93.4834 101.327 93.5729C101.161 93.7105 100.929 93.7473 100.902 94.0864C100.89 94.2042 100.909 94.3235 100.957 94.4271C101.082 94.6562 101.275 94.8179 101.496 94.8782C102.556 95.2718 103.712 94.5807 104.509 93.6401C105.307 92.6995 105.879 91.5126 106.662 90.5544C107.095 90.0249 107.589 89.5706 108.034 89.0571C108.924 88.0334 109.623 86.7872 110.286 85.5379C110.504 85.1756 110.669 84.7702 110.773 84.3398C110.855 83.9143 110.818 83.4648 110.913 83.0425C111.038 82.4906 111.373 82.0507 111.651 81.5868C112.198 80.6782 112.562 79.568 112.49 78.4483C112.417 77.3285 111.844 76.2264 110.97 75.8457C110.699 75.7153 110.401 75.6934 110.119 75.7833C109.76 75.916 109.496 76.2744 109.251 76.6167L108.667 77.4309C108.521 77.6111 108.406 77.8235 108.327 78.0564C108.289 78.1738 108.28 78.3018 108.302 78.4251C108.323 78.5483 108.374 78.6614 108.447 78.7506" fill="black"/>
<path d="M110.864 111.553C110.192 112.047 109.354 112.079 108.573 111.962C108.441 111.945 108.299 111.934 108.218 112.05C108.102 112.222 108.239 112.471 108.381 112.609C108.843 113.026 109.385 113.295 109.956 113.391C110.466 113.477 110.98 113.518 111.495 113.514C112.899 113.543 114.311 113.572 115.701 113.327C115.782 113.32 115.86 113.292 115.931 113.245C116.02 113.17 116.082 113.055 116.104 112.925C116.201 112.49 116.017 112.02 115.74 111.718C115.463 111.415 115.107 111.246 114.758 111.078L113.537 110.504C113.25 110.368 112.79 110.011 112.478 110.038C111.907 110.094 111.349 111.211 110.864 111.553Z" fill="#3F3D56"/>
<path opacity="0.05" d="M110.864 111.553C110.192 112.047 109.354 112.079 108.573 111.962C108.441 111.945 108.299 111.934 108.218 112.05C108.102 112.222 108.239 112.471 108.381 112.609C108.843 113.026 109.385 113.295 109.956 113.391C110.466 113.477 110.98 113.518 111.495 113.514C112.899 113.543 114.311 113.572 115.701 113.327C115.782 113.32 115.86 113.292 115.931 113.245C116.02 113.17 116.082 113.055 116.104 112.925C116.201 112.49 116.017 112.02 115.74 111.718C115.463 111.415 115.107 111.246 114.758 111.078L113.537 110.504C113.25 110.368 112.79 110.011 112.478 110.038C111.907 110.094 111.349 111.211 110.864 111.553Z" fill="black"/>
<path d="M111.716 91.9653C111.209 92.7827 110.682 93.7249 110.807 94.7375C110.875 95.283 111.128 95.7645 111.313 96.2684C111.545 96.9616 111.717 97.6821 111.826 98.4183C112.017 99.4885 112.207 100.562 112.324 101.648C112.456 102.875 111.834 106.425 111.776 107.661C111.761 107.959 111.733 108.282 111.561 108.496C111.493 108.581 111.403 108.656 111.374 108.76C111.356 108.866 111.37 108.976 111.414 109.07C111.701 109.853 112.288 110.433 112.94 110.766C113.591 111.099 115.177 111.67 115.884 111.7C115.978 111.714 116.073 111.698 116.161 111.655C116.256 111.586 116.332 111.483 116.376 111.359C116.887 110.18 116.395 105.983 116.403 104.651C116.403 103.531 116.627 102.437 116.587 101.326C116.554 100.435 116.357 99.5668 116.285 98.6774C116.168 97.2202 116.389 95.7581 116.611 94.3184C116.781 93.2162 116.95 92.1125 117.168 91.0215C117.3 90.3577 117.454 89.6858 117.757 89.1019C117.997 88.6429 118.323 88.2605 118.597 87.8222C119.357 86.6192 119.694 85.1034 119.536 83.6024C119.52 83.4552 117.772 84.1383 117.619 84.2182C116.992 84.5405 116.414 84.9895 115.912 85.5459C115.515 86.0098 115.19 86.6321 114.835 87.1536C114.334 87.8894 113.84 88.6311 113.353 89.3787C112.799 90.2372 112.254 91.0994 111.716 91.9653Z" fill="#464353"/>
<path opacity="0.05" d="M111.716 91.9125C111.209 92.7299 110.682 93.6721 110.807 94.6863C110.875 95.2302 111.128 95.7117 111.313 96.2155C111.545 96.9089 111.717 97.6294 111.826 98.3655C112.017 99.4356 112.207 100.509 112.324 101.595C112.456 102.822 111.834 106.373 111.776 107.61C111.761 107.906 111.733 108.23 111.561 108.443C111.493 108.528 111.403 108.603 111.374 108.707C111.354 108.816 111.368 108.93 111.414 109.027C111.701 109.808 112.288 110.39 112.94 110.721C113.591 111.052 115.177 111.361 115.884 111.388C115.978 111.402 116.073 111.386 116.161 111.343C116.256 111.274 116.332 111.171 116.376 111.047C116.887 109.869 116.395 105.938 116.403 104.607C116.403 103.488 116.627 102.392 116.587 101.282C116.554 100.391 116.357 99.522 116.285 98.6326C116.168 97.1753 116.389 95.7133 116.611 94.2752C116.781 93.1714 116.95 92.0677 117.168 90.9767C117.3 90.3128 117.454 89.641 117.757 89.0571C117.997 88.5996 118.323 88.2157 118.597 87.787C119.356 86.5835 119.693 85.0681 119.536 83.5671C119.52 83.4184 117.772 84.1014 117.619 84.183C116.991 84.5055 116.414 84.9557 115.912 85.5139C115.515 85.9794 115.19 86.6001 114.835 87.1136C114.334 87.8494 113.84 88.5916 113.353 89.3403C112.799 90.1934 112.254 91.0508 111.716 91.9125Z" fill="black"/>
<path d="M106.062 73.9677C107.637 73.9677 108.913 72.4257 108.913 70.5236C108.913 68.6215 107.637 67.0796 106.062 67.0796C104.487 67.0796 103.21 68.6215 103.21 70.5236C103.21 72.4257 104.487 73.9677 106.062 73.9677Z" fill="#A1616A"/>
<path d="M108.629 70.3797C108.892 70.8876 109.237 71.3264 109.644 71.6699C110.051 72.0134 110.51 72.2546 110.996 72.3793L110.781 73.3182C110.41 74.9387 109.986 76.6519 108.957 77.7749C109.07 77.2262 108.924 76.6359 108.667 76.164C108.392 75.7049 108.066 75.2937 107.699 74.9419L106.058 73.2175C106.009 73.1738 105.967 73.1196 105.935 73.0575C105.895 72.9362 105.895 72.8013 105.935 72.68C106.144 71.8946 106.741 71.4003 107.225 70.8724C107.468 70.5973 107.686 70.291 107.874 69.959C108.21 69.3943 108.413 69.959 108.629 70.3797Z" fill="#A1616A"/>
<path d="M102.304 67.062L102.241 66.4222C102.691 66.5629 103.118 66.1022 103.405 65.6223C103.692 65.1424 103.96 64.5794 104.398 64.381C104.928 64.1379 105.495 64.5266 106.004 64.8465C106.574 65.2297 107.2 65.4769 107.847 65.5743C107.951 65.5786 108.053 65.599 108.152 65.6351C108.483 65.7775 108.641 66.275 108.688 66.7341C108.736 67.1932 108.723 67.6731 108.887 68.0794C109.01 68.3865 109.223 68.6153 109.353 68.9176C109.701 69.7334 109.365 70.8468 109.733 71.6466L108.819 70.634C108.735 70.5413 108.617 70.4453 108.525 70.5237C108.434 70.602 108.447 70.7204 108.417 70.8276C108.328 71.1475 108.004 71.2371 107.766 71.1139C107.529 70.9908 107.358 70.7188 107.185 70.4741C106.781 69.8982 106.3 69.3927 105.728 69.1464C105.48 69.0317 105.215 68.9822 104.951 69.0012C104.686 69.0203 104.428 69.1074 104.193 69.2567C103.767 69.5479 103.454 70.2261 102.932 70.2501C102.216 70.2821 101.918 68.6713 101.585 68.0346C101.706 67.924 101.791 67.7656 101.826 67.587C101.86 67.4085 101.841 67.221 101.773 67.0572C101.831 67.03 102.295 66.958 102.304 67.062Z" fill="#464353"/>
<path d="M114.19 111.526C113.626 112.133 112.895 112.462 112.14 112.449C111.948 112.449 111.682 112.493 111.68 112.725C111.684 112.794 111.703 112.861 111.736 112.917C111.975 113.397 112.352 113.754 112.795 113.919C113.206 114.069 113.646 114.044 114.075 114.018L115.326 113.94C115.562 113.924 115.799 113.909 116.035 113.874C116.271 113.839 116.525 113.78 116.771 113.736C117.375 113.632 117.985 113.597 118.594 113.632C118.756 113.64 118.942 113.632 119.043 113.485C119.144 113.338 119.089 113.073 119.052 112.86C118.978 112.422 119.052 111.962 118.983 111.523C118.863 110.75 118.313 110.16 117.707 109.88C117.144 109.621 116.145 109.325 115.611 109.755C115.039 110.219 114.695 110.974 114.19 111.526Z" fill="#3F3D56"/>
<path d="M115.43 85.674C115.541 86.3138 116.048 86.7937 116.064 87.4336C116.076 87.9519 115.769 88.3934 115.549 88.8333C115.339 89.2942 115.162 89.7758 115.019 90.273C114.601 91.5634 114.083 92.8033 113.472 93.9762C113.178 94.5376 112.85 95.1487 112.917 95.8094C112.964 96.1177 113.053 96.4142 113.182 96.686L114.063 98.7991C114.256 99.2212 114.408 99.6696 114.513 100.135C114.589 100.536 114.597 100.952 114.646 101.362C114.785 102.657 115.288 103.963 114.991 105.218C114.965 105.327 114.872 105.458 114.802 105.378C115.092 106.034 115.332 106.697 115.304 107.44C115.292 107.831 115.193 108.24 115.313 108.602C115.381 108.742 115.426 108.898 115.446 109.059C115.446 109.165 115.405 109.266 115.395 109.379C115.372 109.678 115.598 109.928 115.835 110.019C116.072 110.11 116.328 110.107 116.566 110.193C117.026 110.353 117.352 110.833 117.745 111.166C118.143 111.5 118.614 111.685 119.099 111.699C119.167 111.707 119.237 111.691 119.297 111.651C119.332 111.614 119.36 111.569 119.379 111.519C119.398 111.468 119.408 111.413 119.409 111.358C119.43 111.093 119.397 110.826 119.312 110.58C119.227 110.334 119.094 110.117 118.924 109.949C118.85 109.892 118.788 109.814 118.745 109.722C118.723 109.64 118.717 109.552 118.728 109.467C118.799 108.304 118.782 107.136 118.676 105.977C118.628 105.61 118.613 105.238 118.63 104.867C118.656 104.558 118.733 104.251 118.704 103.942C118.675 103.633 118.546 103.355 118.469 103.057C118.337 102.529 118.371 101.963 118.357 101.41C118.333 100.45 118.152 99.5093 117.97 98.5752C117.9 98.2088 117.82 97.8233 117.605 97.5514C117.422 97.321 117.126 97.0987 117.195 96.7915C117.233 96.6778 117.29 96.5749 117.362 96.4892C117.448 96.3602 117.51 96.2116 117.547 96.0523C117.583 95.8931 117.592 95.7266 117.573 95.563C117.65 95.5879 117.733 95.5791 117.805 95.5382C117.878 95.4972 117.936 95.4267 117.97 95.3391C119.402 94.5248 120.56 92.8932 121.069 91.0824C121.098 90.9489 121.143 90.8212 121.202 90.7033C121.334 90.4793 121.565 90.3833 121.769 90.2586C122.41 89.8699 122.854 89.1388 123.26 88.4238C123.497 88.0079 123.733 87.5792 123.835 87.0913C123.891 86.7759 123.917 86.454 123.914 86.1315L123.95 84.4647C123.957 84.357 123.948 84.2486 123.924 84.1447C123.89 84.0452 123.839 83.9553 123.775 83.8808C123.387 83.3813 122.876 83.0449 122.318 82.921C121.942 82.8394 121.558 82.8554 121.178 82.817C120.44 82.7434 119.712 82.4683 118.974 82.5323C117.814 82.6347 116.782 83.6056 116.235 84.8454C116.043 85.2885 115.842 85.674 115.43 85.674Z" fill="#464353"/>
<path d="M108.993 74.8347C109.01 75.0917 108.981 75.3501 108.909 75.5929C108.819 75.8265 108.592 76.0073 108.394 75.9129C108.454 75.7529 108.295 75.5626 108.148 75.5833C108.075 75.6029 108.007 75.6436 107.951 75.7018C107.894 75.7601 107.85 75.8342 107.822 75.9177C107.723 76.1554 107.69 76.4251 107.728 76.6871C107.774 77.007 107.931 77.327 107.89 77.6469C107.856 77.9188 107.691 78.1908 107.78 78.4467C107.837 78.5617 107.908 78.6653 107.992 78.7538C108.108 78.9263 108.165 79.1461 108.151 79.3679C108.137 79.5898 108.053 79.7966 107.916 79.9456L110.139 79.9984C110.058 80.4479 110.223 80.907 110.414 81.3053C110.948 82.4001 111.684 83.3308 112.565 84.0246C113.446 84.7184 114.449 85.1564 115.493 85.3044C115.437 85.3446 115.389 85.3994 115.352 85.4649C115.315 85.5303 115.291 85.6048 115.281 85.6829C115.271 85.761 115.275 85.8409 115.293 85.9168C115.312 85.9927 115.344 86.0627 115.387 86.1218C115.568 86.3378 115.874 86.3106 116.1 86.1698C116.326 86.029 116.505 85.7971 116.712 85.6179C117.076 85.3043 117.522 85.159 117.968 85.2084C118.246 85.2404 118.516 85.3492 118.795 85.3684C119.619 85.4212 120.326 84.7061 121.114 84.4086C121.692 84.1942 122.345 84.1942 122.836 83.7591C123.046 83.572 123.216 83.2649 123.156 82.9593C123.104 82.784 123.022 82.6237 122.916 82.489C122.636 82.0539 122.472 81.5292 122.273 81.0349C121.877 80.0552 121.332 79.1741 120.667 78.4371C120.166 77.9065 119.635 77.4185 119.077 76.9766C118.942 76.8545 118.797 76.7474 118.646 76.6567C118.443 76.5771 118.246 76.4804 118.055 76.3672C117.79 76.1688 117.643 75.8185 117.443 75.5354C117.002 74.9147 116.325 74.6284 115.782 74.1405C115.418 73.8205 115.097 73.3822 114.662 73.2239C114.451 73.1471 114.226 73.1407 114.014 73.0639C113.534 72.8879 113.185 72.3729 112.713 72.1649C112.34 72.0049 111.929 72.0433 111.535 71.9841C111.1 71.9191 110.686 71.7287 110.325 71.4291C110.206 71.3126 110.072 71.2198 109.928 71.1539C109.333 70.9348 109.284 72.2737 109.229 72.7392C109.14 73.451 108.993 74.1357 108.993 74.8347Z" fill="#54A680"/>
<path d="M109.573 79.3297C109.672 80.6366 108.855 81.9036 109.093 83.1849C109.144 83.4584 109.242 83.7175 109.278 83.9847C109.377 84.7445 109.001 85.4644 108.642 86.0994L105.565 91.5542C105.442 91.7941 105.294 92.0144 105.125 92.2101C104.536 92.8499 103.654 92.7764 102.882 92.9651C102.339 93.0984 101.826 93.3712 101.378 93.7649C101.359 93.7836 101.346 93.8105 101.342 93.8402C101.339 93.8699 101.344 93.9002 101.358 93.9249C101.486 94.1361 101.654 94.3054 101.85 94.4172C102.045 94.529 102.261 94.5798 102.476 94.5648C102.557 94.6943 102.476 94.8847 102.365 94.9743C102.2 95.1134 101.968 95.1502 101.94 95.4894C101.928 95.6072 101.948 95.7264 101.996 95.8301C102.12 96.0586 102.314 96.2202 102.535 96.2812C103.594 96.6747 104.75 95.9836 105.548 95.0431C106.345 94.1025 106.917 92.9155 107.701 91.9573C108.135 91.4279 108.629 90.9735 109.072 90.4601C109.964 89.4363 110.655 88.1902 111.324 86.9408C111.542 86.5784 111.707 86.173 111.811 85.7427C111.893 85.3172 111.856 84.8677 111.952 84.4454C112.076 83.8935 112.411 83.452 112.689 82.9897C113.236 82.0811 113.601 80.971 113.528 79.8512C113.455 78.7314 112.883 77.6293 112.009 77.2486C111.738 77.1174 111.439 77.0956 111.157 77.1862C110.799 77.319 110.534 77.6773 110.289 78.0196L109.705 78.8338C109.56 79.0137 109.445 79.2262 109.366 79.4593C109.328 79.5763 109.32 79.704 109.341 79.827C109.362 79.95 109.412 80.0629 109.485 80.1519" fill="#A1616A"/>
<path d="M111.131 73.9597C110.725 73.9885 110.28 74.0364 109.994 74.3852C109.875 74.5453 109.778 74.728 109.708 74.9258C109.431 75.6089 109.161 76.3223 109.141 77.0822C109.124 77.69 109.274 78.2835 109.346 78.885C109.41 79.3841 109.248 79.8928 109.214 80.3983C109.716 80.2127 110.378 79.9599 110.834 79.6464C111.132 79.4105 111.45 79.2112 111.781 79.0513C112.264 78.8578 113.076 79.1905 113.532 79.4641C113.557 79.0737 113.316 78.3971 113.341 78.0068C113.345 77.8434 113.369 77.6817 113.413 77.5269C113.481 77.3629 113.562 77.2071 113.655 77.0614C113.831 76.718 113.912 76.3162 113.886 75.9137C113.861 75.5113 113.73 75.129 113.513 74.8219C113.107 74.2684 112.468 74.0604 111.86 73.9757C111.477 73.9216 111.091 73.905 110.705 73.9261" fill="#54A680"/>
<path d="M51.125 62.7686L48.5131 58.1936C48.5131 58.1936 48.4641 57.0611 48.2932 56.7971C48.1224 56.5332 48.2561 55.9445 48.2561 55.9445C48.2561 55.9445 48.4402 55.6246 48.2813 55.591C48.1224 55.5574 48.2561 54.8407 48.2561 54.8407L48.2442 53.6938C48.2442 53.6938 48.3912 52.59 48.2694 52.3261C48.2334 52.2545 48.2154 52.1718 48.2175 52.088C48.2196 52.0043 48.2418 51.9231 48.2813 51.8542C48.2813 51.8542 48.427 51.2223 48.2813 51.0544C48.1356 50.8864 48.1714 49.9074 48.2071 49.1268C48.2429 48.3462 47.9515 47.9063 47.9515 47.7895C47.9515 47.6727 46.9873 46.5242 46.9873 46.4202C46.9873 46.3162 46.3767 45.8907 46.0098 45.7803C45.6429 45.67 45.4615 45.574 45.4734 45.5148C45.4853 45.4556 44.8999 45.2221 44.8999 45.2221C44.8999 45.2221 44.3873 45.1773 44.1913 44.8686C43.9953 44.5598 43.3966 44.4702 43.382 44.467L43.3701 44.4062C43.3701 44.3839 43.3635 44.3615 43.3595 44.3391C43.4079 44.246 43.4521 44.1499 43.492 44.0511L43.5264 43.9615C43.7409 43.9632 43.9506 43.8844 44.1264 43.736C44.213 43.6493 44.2837 43.5418 44.3341 43.4204C44.3845 43.299 44.4134 43.1662 44.4191 43.0306C44.4295 42.7586 44.3802 42.4882 44.2761 42.2467C44.1688 41.9828 44.0112 41.7076 44.0668 41.4197C44.0906 41.2965 44.1516 41.1878 44.1833 41.0662C44.2308 40.8288 44.1994 40.5785 44.0959 40.3687C44.0032 40.156 43.8747 39.9672 43.7714 39.7609C43.6404 39.4967 43.5527 39.2045 43.5132 38.9003C43.5058 38.7384 43.4739 38.5796 43.4191 38.4316C43.3637 38.3273 43.2906 38.2384 43.2046 38.1708C42.8224 37.8415 42.3612 37.6729 41.892 37.6909C41.5596 37.7037 41.2298 37.8125 40.8986 37.7629C40.7014 37.7219 40.5073 37.6609 40.3185 37.5806C39.9093 37.4334 39.4364 37.3742 39.0801 37.6573C38.7238 37.9405 38.5821 38.4972 38.3397 38.9371C38.1265 39.321 37.8099 39.6441 37.651 40.0568C37.651 40.0568 37.651 40.0408 37.651 40.0344C37.611 40.1284 37.5803 40.2277 37.5596 40.3304C37.5141 40.6563 37.5327 40.9905 37.6139 41.3061C37.6319 41.4761 37.7024 41.6315 37.8113 41.7412C37.9318 41.8356 38.0974 41.8132 38.2378 41.8436L38.2219 41.9268C38.0789 42.7537 38.1985 43.6153 38.557 44.3406C38.9154 45.066 39.4865 45.6021 40.1569 45.8427C40.1569 45.8731 40.1569 45.9019 40.1569 45.9323C40.1566 46.0168 40.1522 46.1012 40.1437 46.1851C40.1437 46.1851 38.9159 45.8795 38.5861 46.0859C38.2563 46.2922 37.61 46.4538 37.5119 46.5658C37.4139 46.6777 37.1702 46.5962 36.9504 47.2872C36.7305 47.9783 36.7067 48.6837 36.4206 49.0084C36.1345 49.3332 35.9941 49.5523 35.9808 49.7875C35.9676 50.0226 36.0179 50.0818 35.908 50.1554C35.7981 50.229 35.6431 50.5377 35.6881 50.6561C35.705 50.737 35.7014 50.8221 35.6778 50.9005C35.6541 50.979 35.6116 51.047 35.5557 51.096C35.4978 51.1451 35.4515 51.2118 35.4215 51.2892C35.3916 51.3667 35.3789 51.4523 35.3848 51.5375C35.3848 51.5375 35.3107 51.8574 35.1398 51.9358C34.9689 52.0142 34.859 52.4941 34.859 52.4941L34.3054 53.2619L33.2087 51.7966C33.1263 51.6871 33.0114 51.6214 32.8891 51.6139C32.7667 51.6064 32.6469 51.6577 32.5557 51.7566L32.0167 52.3421C31.8089 52.403 31.6212 52.5379 31.4776 52.7292C31.3608 52.8756 31.2662 53.0456 31.1981 53.2315L30.9041 53.5514C30.8112 53.6904 30.7544 53.8594 30.7407 54.0373C30.727 54.2152 30.7572 54.3939 30.8273 54.5512L31.5306 55.4902V55.4982C31.2814 55.5247 31.0447 55.6412 30.8511 55.8325C29.8021 56.9523 29.7915 57.9809 29.9478 58.4511C30.1041 58.9214 31.4365 60.7306 31.4365 60.7306C31.4365 60.7306 32.21 61.9448 33.3266 62.5894L33.3186 62.6006C33.2957 62.6296 33.274 62.66 33.2537 62.6918L33.2352 62.7206L33.218 62.7494L33.1981 62.7846C33.1928 62.7938 33.1879 62.8034 33.1835 62.8134L33.1623 62.855C33.1574 62.8642 33.153 62.8738 33.1491 62.8838C33.1398 62.903 33.1319 62.9222 33.1239 62.9414C33.121 62.9476 33.1184 62.954 33.116 62.9606C33.1054 62.9861 33.0948 63.0117 33.0855 63.0405L33.0749 63.0693C33.0683 63.0885 33.063 63.1077 33.0564 63.1285C33.0523 63.1411 33.0487 63.1539 33.0458 63.1669L33.0299 63.2245C33.0256 63.238 33.0221 63.2519 33.0193 63.2661C33.0193 63.2869 33.0087 63.3077 33.0047 63.3301C33.0008 63.3525 32.9981 63.3557 32.9955 63.3701C32.9928 63.3845 32.9822 63.4388 32.9769 63.4756C32.9769 63.4884 32.9769 63.5028 32.9703 63.5172C32.9637 63.5316 32.9637 63.5668 32.9597 63.5924C32.9557 63.618 32.9597 63.6276 32.9597 63.6468L32.9518 63.7188V63.7764C32.9518 63.8036 32.9518 63.8308 32.9451 63.8596C32.9385 63.8883 32.9451 63.8931 32.9451 63.9107C32.9451 63.9571 32.9451 64.0035 32.9451 64.0531C32.9213 65.7743 33.0047 66.0239 33.0047 66.0239C33.0592 66.1829 33.1481 66.3212 33.262 66.4245C33.376 66.5278 33.5108 66.5922 33.6524 66.6109C33.7219 66.6175 33.7918 66.6132 33.8603 66.5981C34.4961 66.4654 35.9795 66.1566 36.5093 66.2782C36.8259 66.3486 37.41 66.243 37.8258 66.1486L37.9358 66.1231L38.0113 66.4158L38.2523 66.3358L38.4576 66.4782L38.5901 66.5694C38.8311 67.5547 39.8086 67.2188 39.8086 67.2188L40.0404 67.3788L42.3966 67.4524C42.6611 67.6448 42.9406 67.8056 43.231 67.9323C43.2694 67.9474 43.3089 67.9581 43.3489 67.9642C43.5692 67.9859 43.7904 67.9907 44.0112 67.9786C44.1913 67.9786 44.3304 67.9642 44.3304 67.9642C44.3304 67.9642 44.3065 67.1916 44.2721 66.3262C45.0025 66.3044 45.7312 66.2323 46.4548 66.1103C47.7131 65.8447 48.2376 64.4626 48.431 63.7236C48.4888 64.0255 48.53 64.3317 48.5541 64.6402C48.6056 64.9115 48.671 65.1786 48.7502 65.44C48.8176 65.6489 48.9066 65.8467 49.0151 66.0287C49.9422 65.6464 49.3806 65.0689 49.1859 64.8225C48.9912 64.5762 49.3184 64.3666 49.3184 64.3666C49.3184 64.3666 49.5753 64.1603 49.5501 63.9699C49.525 63.7796 49.5131 63.5732 50.3448 63.5876C51.1766 63.602 51.125 62.7686 51.125 62.7686ZM38.2351 53.3771C38.2457 53.4603 38.3676 54.3672 38.4656 54.6056C38.4948 54.763 38.5042 54.9247 38.4934 55.0855C38.002 55.0375 37.4894 55.0119 37.4894 55.0119C37.5038 55.0335 37.513 55.0596 37.5159 55.0871L37.4378 55.0663L37.3265 55.0343L38.2325 53.3691L38.2351 53.3771ZM36.4391 56.8259L37.2908 56.9859L37.3623 56.9987C37.3382 57.1572 37.3236 57.3175 37.3186 57.4786C37.3186 57.4946 37.3371 57.5122 37.3649 57.5329C37.3531 57.6137 37.3477 57.6957 37.349 57.7777C37.3623 57.8577 37.7596 58.0336 38.2166 58.1792C38.2099 58.2096 38.2046 58.2384 38.198 58.264C37.7941 58.008 37.1596 57.8881 37.0868 57.6977C37.0139 57.5074 34.8524 56.5956 34.8524 56.5956L34.6378 56.466L35.206 56.5956L35.3623 56.5764C35.7164 56.6876 36.0761 56.771 36.4391 56.8259Z" fill="url(#paint0_linear)"/>
<path d="M48.3462 63.4084C48.3462 63.4084 48.0085 65.8783 46.2906 66.243C44.5728 66.6077 38.8378 66.5358 38.8378 66.5358C38.8378 66.5358 35.5584 65.9647 34.373 62.6198C33.1875 59.275 32.4246 57.9424 33.4458 57.8849C34.467 57.8273 39.9437 60.1244 40.2576 60.15C40.5715 60.1756 48.6495 55.0647 48.3462 63.4084Z" fill="#65617D"/>
<path opacity="0.05" d="M48.3462 63.4084C48.3462 63.4084 48.0085 65.8783 46.2906 66.243C44.5728 66.6077 38.8378 66.5358 38.8378 66.5358C38.8378 66.5358 35.5584 65.9647 34.373 62.6198C33.1875 59.275 32.4246 57.9424 33.4458 57.8849C34.467 57.8273 39.9437 60.1244 40.2576 60.15C40.5715 60.1756 48.6495 55.0647 48.3462 63.4084Z" fill="black"/>
<path d="M32.9677 66.1582C33.0209 66.3164 33.1086 66.4542 33.2215 66.557C33.3344 66.6598 33.4682 66.7238 33.6087 66.7421C33.6783 66.7473 33.7481 66.7425 33.8167 66.7277C34.4458 66.5965 35.9213 66.2894 36.4418 66.4078C36.7544 66.4766 37.3332 66.3726 37.7451 66.2798C38.0193 66.2174 38.2206 66.1582 38.2206 66.1582C38.2206 66.1582 37.7358 64.2147 37.6762 64.1571C37.6166 64.0995 35.4974 62.5574 35.4974 62.5574L33.8206 62.4119C33.5949 62.4526 33.3909 62.597 33.2511 62.815C33.075 63.0741 32.9226 63.498 32.912 64.1939C32.8842 65.9071 32.9677 66.1582 32.9677 66.1582Z" fill="#3F3D56"/>
<path opacity="0.05" d="M32.9676 66.1583C33.0208 66.3164 33.1086 66.4542 33.2214 66.557C33.3343 66.6598 33.4681 66.7238 33.6087 66.7421C33.4444 66.4861 33.2923 66.2191 33.153 65.9423L33.1623 64.525C33.129 64.1363 33.1715 63.7436 33.2865 63.3783C33.4015 63.013 33.5858 62.6853 33.8245 62.4215C33.8245 62.4215 32.9411 62.4935 32.916 64.2035C32.8908 65.9135 32.9676 66.1583 32.9676 66.1583Z" fill="black"/>
<path opacity="0.1" d="M40.2404 63.0581L41.8019 61.5817L44.2575 58.6591L43.5953 58.6223C43.4959 58.6991 43.2178 58.9422 43.2072 59.2334C43.1953 59.5901 42.545 59.259 42.2046 59.4621C41.8642 59.6653 40.2086 62.2295 39.9185 62.2119C39.6284 62.1943 39.398 62.0344 39.2761 62.2839L39.2682 62.2999L40.2404 63.0581Z" fill="black"/>
<path opacity="0.1" d="M33.2471 62.8181C33.3027 62.8501 33.3597 62.8821 33.4166 62.9109C34.602 63.5251 36.0656 64.8113 36.1755 65.0448C36.2417 65.1872 37.0907 65.8094 37.745 66.2765C38.0192 66.2142 38.2205 66.155 38.2205 66.155C38.2205 66.155 37.7357 64.2114 37.6761 64.1538C37.6165 64.0962 35.4974 62.5541 35.4974 62.5541L33.8206 62.4086C33.5926 62.4498 33.3868 62.5967 33.2471 62.8181Z" fill="black"/>
<path d="M29.9571 58.6303C30.1134 59.0974 31.4326 60.8954 31.4326 60.8954C31.4326 60.8954 32.267 62.2103 33.4537 62.8149C34.6405 63.4196 36.1027 64.7153 36.2113 64.9489C36.2815 65.0992 37.2272 65.7871 37.8921 66.259L38.0417 66.3646L38.3715 66.5965L38.5464 66.7165C38.5464 66.7165 38.9517 66.3246 39.3556 65.9295C39.7596 65.5343 40.1503 65.1472 40.1503 65.1296C40.1503 65.112 40.3199 64.5889 40.2828 64.5602C40.2457 64.5314 40.1808 64.3426 40.0271 64.1075C39.865 63.8467 39.6539 63.6362 39.4113 63.4932C39.0602 63.2753 38.7802 62.9208 38.6166 62.487C38.6166 62.487 38.5636 62.4406 38.4841 62.3782C38.3194 62.2415 38.1354 62.1423 37.9411 62.0855C37.6762 62.0455 37.1782 61.388 37.1782 61.388C36.9845 61.2358 36.823 61.0309 36.7067 60.7898C36.5742 60.4699 34.7027 58.9118 34.5292 58.7678L39.0775 62.2966L40.1662 63.1413L41.7278 61.6664L44.1834 58.7438L43.3728 58.699C42.1808 58.6367 40.0616 58.5391 39.7967 58.6127C39.5797 58.673 39.3561 58.6908 39.1344 58.6654C39.1344 58.6654 38.5305 58.6974 38.1305 58.4431C37.7305 58.1888 37.1014 58.0688 37.0285 57.88C36.9557 57.6913 34.8153 56.7859 34.8153 56.7859C34.8153 56.7859 31.9014 54.9159 30.8591 56.026C29.8167 57.1362 29.7995 58.16 29.9571 58.6303Z" fill="#65617D"/>
<path d="M39.3569 47.9047L39.7318 49.4099L40.2165 52.7996L41.9953 52.9452L42.5039 51.9214L43.0178 50.8912C43.0178 50.8912 43.3383 49.5219 43.5688 48.1974C43.7714 47.0249 43.9052 45.8859 43.684 45.7627C43.4867 45.654 43.3582 45.2589 43.2734 44.8334C43.2628 44.7822 43.2535 44.7278 43.2456 44.6734C43.1863 44.3138 43.1465 43.9499 43.1264 43.584C43.1264 43.584 39.4006 43.3505 39.9212 45.2061C40.014 45.523 40.0615 45.8568 40.0616 46.1931C40.0616 46.2794 40.0616 46.3642 40.0483 46.4442C40.0225 46.732 39.9477 47.0102 39.8288 47.2615C39.7098 47.5128 39.5492 47.7318 39.3569 47.9047Z" fill="#EE8E9E"/>
<path d="M38.5835 47.6568L38.7159 50.2162L39.0179 52.3933L39.357 53.4027L39.6603 58.9183C39.6603 58.9183 42.5742 59.3262 43.2867 58.9103C43.3393 58.886 43.3851 58.8444 43.4192 58.7903C44.2761 57.2274 43.9953 52.7004 43.9953 52.7004L44.3212 49.7779L44.1039 48.2614L43.5741 48.1942L43.1689 48.1415C43.1689 48.1415 43.0775 48.2774 42.945 48.4886C42.5861 49.0596 41.9265 50.1858 41.9715 50.6545C42.0311 51.2944 41.8987 51.955 41.6921 52.0574C41.4854 52.1598 41.3172 52.3357 41.2815 52.1598C41.23 52.0123 41.217 51.8493 41.2444 51.6927C41.2815 51.4431 41.0868 50.6833 41.0868 50.6833C41.0868 50.6833 40.7609 49.7923 40.7848 49.4132C40.8086 49.0341 40.749 48.5942 40.6523 48.4918C40.5556 48.3894 40.4219 48.287 40.5305 47.8199C40.6391 47.3528 40.0537 46.4426 40.0537 46.4426L38.5835 47.6568Z" fill="#E3E8F4"/>
<path opacity="0.1" d="M42.4364 54.0424L42.5582 58.4111L43.2562 58.8798C43.3086 58.8544 43.3544 58.8124 43.3887 58.7582C44.2456 57.1953 43.9648 52.6683 43.9648 52.6683L44.292 49.7458L44.0734 48.2293L43.5436 48.1621C43.7476 46.9896 43.88 45.8522 43.6588 45.7275C43.4615 45.6187 43.333 45.2236 43.2496 44.7997L42.8721 47.8902C42.8721 47.8902 42.9039 48.1685 42.9145 48.4565C42.9302 48.6385 42.9199 48.8225 42.884 49.0004C42.8351 49.2396 42.827 49.4883 42.8602 49.7314C42.6416 50.1953 42.533 51.0559 42.4801 51.8861C42.4085 52.9899 42.4364 54.0424 42.4364 54.0424Z" fill="black"/>
<path d="M43.2602 44.7229C43.2602 44.7229 43.8708 44.8141 44.0642 45.1212C44.2576 45.4283 44.7662 45.4731 44.7662 45.4731C44.7662 45.4731 45.3463 45.7067 45.3344 45.7643C45.3224 45.8219 45.5039 45.9114 45.8642 46.0282C46.2244 46.145 46.8323 46.5689 46.8323 46.6681C46.8323 46.7673 47.7873 47.9094 47.7873 48.0262C47.7873 48.1429 48.0774 48.5812 48.0416 49.3555C48.0058 50.1297 47.9688 51.1151 48.1144 51.2751C48.2601 51.435 48.1144 52.0637 48.1144 52.0637C48.0753 52.1321 48.0533 52.2128 48.0512 52.2959C48.0491 52.3791 48.0669 52.4612 48.1025 52.5324C48.2231 52.7947 48.0774 53.8905 48.0774 53.8905L48.0906 55.031C48.0906 55.031 47.9582 55.7461 48.1144 55.7765C48.2707 55.8069 48.0906 56.1268 48.0906 56.1268C48.0906 56.1268 47.9582 56.7107 48.1264 56.9746C48.2946 57.2385 48.3436 58.3615 48.3436 58.3615L50.9329 62.9061C50.9329 62.9061 50.97 63.7395 50.1475 63.7251C49.325 63.7107 49.3356 63.9155 49.3608 64.1042C49.3859 64.293 49.1303 64.4993 49.1303 64.4993C49.1303 64.4993 48.8045 64.7041 48.9979 64.952C49.1912 65.2 49.7475 65.7711 48.8283 66.1502C48.72 65.9698 48.631 65.7736 48.5634 65.5663C48.4855 65.3085 48.421 65.0451 48.3701 64.7777C48.3701 64.7777 48.2853 63.6659 48.1158 63.5204C47.9462 63.3748 47.9701 62.6725 47.9701 62.6725C47.9701 62.6725 48.2125 62.1031 47.8734 61.8727C47.5343 61.6424 42.6232 58.3535 42.6232 58.3535L42.504 53.9833C42.504 53.9833 42.4192 50.7536 42.9278 49.6722C42.8946 49.4291 42.9027 49.1804 42.9516 48.9412C43.0364 48.6788 42.9397 47.831 42.9397 47.831L43.2602 44.7229Z" fill="#3F3D56"/>
<path opacity="0.1" d="M40.0894 46.4826C40.0894 46.4826 38.8735 46.1802 38.5464 46.385C38.2192 46.5897 37.5795 46.7497 37.4868 46.8649C37.3941 46.9801 37.149 46.8953 36.9305 47.5815C36.712 48.2678 36.6894 48.97 36.41 49.2915C36.1305 49.6131 35.9875 49.8322 35.9755 50.0658C35.9636 50.2993 36.0113 50.3585 35.9027 50.4305C35.7941 50.5025 35.6378 50.8112 35.6842 50.928C35.7305 51.0448 38.2007 53.617 38.2007 53.617C38.2007 53.617 38.3225 54.596 38.4311 54.8439C38.5397 55.0919 38.3106 58.5119 38.0682 58.7454C37.8258 58.979 39.696 58.9598 39.696 58.9598C39.696 58.9598 39.7808 56.7203 39.8536 56.5987C39.9265 56.4771 39.8046 54.0857 39.8046 54.0857C39.8046 54.0857 39.7927 52.0397 39.9503 51.499C40.1079 50.9584 40.0828 49.1604 40.0828 49.1604C40.0828 49.1604 40.2218 48.0822 40.3914 47.8311C40.5609 47.5799 40.0894 46.4826 40.0894 46.4826Z" fill="black"/>
<path d="M40.0536 46.4393C40.0536 46.4393 38.8377 46.137 38.5106 46.3401C38.1834 46.5433 37.5424 46.7064 37.451 46.82C37.3596 46.9336 37.1119 46.8488 36.8947 47.5366C36.6775 48.2245 36.6523 48.9235 36.3742 49.2451C36.0961 49.5666 35.9504 49.7857 35.9385 50.0193C35.9265 50.2528 35.9755 50.312 35.8656 50.3856C35.7557 50.4592 35.6007 50.7647 35.6484 50.8815C35.6961 50.9983 38.1649 53.5705 38.1649 53.5705C38.1649 53.5705 38.2854 54.5495 38.3954 54.7974C38.5053 55.0454 38.2735 58.4654 38.0311 58.699C37.7887 58.9325 39.6655 58.9117 39.6655 58.9117C39.6655 58.9117 39.7503 56.6722 39.8218 56.5523C39.8933 56.4323 39.7741 54.0376 39.7741 54.0376C39.7741 54.0376 39.7622 51.9933 39.9198 51.4526C40.0774 50.9119 40.0589 49.1139 40.0589 49.1139C40.0589 49.1139 40.198 48.0357 40.3675 47.7846C40.537 47.5334 40.0536 46.4393 40.0536 46.4393Z" fill="#3F3D56"/>
<path opacity="0.1" d="M39.9265 45.2029C40.0194 45.5199 40.0669 45.8537 40.0669 46.1899C40.6612 46.4002 41.2966 46.3649 41.8724 46.0896C42.4482 45.8143 42.9315 45.3148 43.2457 44.6703C43.1863 44.3107 43.1465 43.9468 43.1264 43.5809C43.1264 43.5809 39.406 43.3457 39.9265 45.2029Z" fill="black"/>
<path d="M38.0868 42.893C38.0863 43.7506 38.3584 44.5757 38.8468 45.1982C39.3353 45.8207 40.0029 46.1931 40.712 46.2385C41.4212 46.284 42.1177 45.999 42.6579 45.4425C43.1982 44.8859 43.541 44.1002 43.6157 43.2473C43.6904 42.3944 43.4912 41.5394 43.0593 40.8587C42.6273 40.178 41.9956 39.7234 41.2943 39.5887C40.593 39.454 39.8756 39.6495 39.2902 40.1348C38.7047 40.6201 38.2958 41.3583 38.1477 42.1971C38.1071 42.4258 38.0867 42.6591 38.0868 42.893Z" fill="#EE8E9E"/>
<path d="M36.308 50.6416L35.6458 50.8895C35.6627 50.9702 35.6591 51.0552 35.6355 51.1334C35.6119 51.2115 35.5693 51.2793 35.5133 51.3279C35.4557 51.3764 35.4098 51.4426 35.3802 51.5196C35.3507 51.5966 35.3386 51.6817 35.3451 51.7662C35.3451 51.7662 35.2723 52.0861 35.1027 52.1613C34.9332 52.2365 34.8246 52.7163 34.8246 52.7163L34.2683 53.4906C34.2683 53.4906 34.0617 53.6953 34.0988 53.7977C34.1359 53.9001 33.8802 53.9289 33.8802 53.9289L34.0127 56.5299L35.1623 56.7938L35.8762 56.7059L36.4564 56.4435L36.965 56.0772L37.1941 55.3622L38.2113 53.4906L36.308 50.6416Z" fill="#3F3D56"/>
<path d="M34.0458 54.1288C34.0458 54.1288 32.5703 51.5582 31.4684 52.9451C30.3664 54.332 31.916 56.5843 32.279 56.5107C32.6419 56.4371 34.373 56.3204 34.373 56.3204L34.0458 54.1288Z" fill="#EE8E9E"/>
<path d="M37.5218 53.0173L31.0039 48.9994C30.9036 48.9376 30.7807 48.9857 30.7295 49.1069L28.188 55.1209C28.1368 55.2421 28.1766 55.3905 28.2769 55.4523L34.7948 59.4702C34.8951 59.5321 35.018 59.484 35.0692 59.3628L37.6107 53.3487C37.6619 53.2276 37.6221 53.0792 37.5218 53.0173Z" fill="#3F3D56"/>
<path d="M36.9156 53.3745L31.1315 49.809L28.9066 55.0736L34.6907 58.6391L36.9156 53.3745Z" fill="#389168"/>
<path d="M29.7969 52.43C29.8554 52.43 29.9028 52.3727 29.9028 52.302C29.9028 52.2314 29.8554 52.1741 29.7969 52.1741C29.7384 52.1741 29.6909 52.2314 29.6909 52.302C29.6909 52.3727 29.7384 52.43 29.7969 52.43Z" fill="#E6E8EC"/>
<path d="M36.0576 56.3891C36.1549 56.3891 36.2338 56.2939 36.2338 56.1764C36.2338 56.0589 36.1549 55.9636 36.0576 55.9636C35.9603 55.9636 35.8815 56.0589 35.8815 56.1764C35.8815 56.2939 35.9603 56.3891 36.0576 56.3891Z" fill="#E6E8EC"/>
<path d="M33.0909 54.6695C33.0776 56.5987 36.3809 57.0082 36.3809 57.0082L37.2246 57.1681L37.6034 57.2401L37.761 55.3557C37.761 55.3557 37.5875 55.3237 37.3716 55.263C37.0511 55.1734 36.6365 55.0182 36.5504 54.7991C36.4113 54.4359 33.1001 52.7403 33.0909 54.6695Z" fill="#EE8E9E"/>
<path opacity="0.1" d="M38.1477 42.197C38.2237 42.2038 38.2953 42.2423 38.3504 42.3058C38.4431 42.4258 38.4484 42.6385 38.5702 42.7121C38.6158 42.7353 38.6659 42.742 38.7146 42.7313C39.0364 42.6769 39.2219 42.2386 39.5318 42.1171C39.712 42.0611 39.9025 42.0809 40.0722 42.173C40.1411 42.2 40.2031 42.2479 40.2523 42.3122C40.3556 42.4722 40.2828 42.7121 40.3305 42.9073C40.3967 43.1792 40.6656 43.2864 40.8973 43.3216C41.1291 43.3568 41.3914 43.3776 41.5463 43.5887C41.5976 43.6679 41.6344 43.7593 41.6543 43.8569C41.6742 43.9545 41.6766 44.0561 41.6616 44.155C41.6476 44.2238 41.6476 44.2957 41.6616 44.3646C41.7251 44.5837 42.039 44.5501 42.1212 44.3774C42.1821 44.251 42.1635 44.147 42.3053 44.1118C42.4065 44.1021 42.5081 44.1236 42.6006 44.1742C42.8472 44.2764 43.1069 44.3246 43.3675 44.3166C43.5333 43.8896 43.6224 43.4251 43.6292 42.9536C43.6359 42.482 43.56 42.0141 43.4066 41.5805C43.2531 41.1469 43.0254 40.7573 42.7386 40.4374C42.4517 40.1174 42.1121 39.8743 41.742 39.724C41.3719 39.5737 40.9796 39.5195 40.591 39.5651C40.2023 39.6107 39.8261 39.7549 39.4868 39.9885C39.1476 40.222 38.853 40.5394 38.6225 40.92C38.3919 41.3007 38.2306 41.7358 38.149 42.197H38.1477Z" fill="black"/>
<path d="M41.6602 44.2766C41.6464 44.2078 41.6464 44.1359 41.6602 44.0671C41.6754 43.9685 41.6729 43.8671 41.6531 43.7697C41.6332 43.6724 41.5964 43.5812 41.545 43.5024C41.3901 43.2897 41.1291 43.2705 40.896 43.2337C40.6629 43.1969 40.3954 43.0913 40.3291 42.8194C40.2815 42.6242 40.3543 42.3859 40.251 42.2259C40.2026 42.1605 40.1403 42.1124 40.0709 42.0867C39.9013 41.9941 39.7108 41.9738 39.5305 42.0291C39.2206 42.1507 39.0351 42.589 38.7133 42.6434C38.6647 42.6549 38.6143 42.6482 38.5689 42.6242C38.4471 42.5506 38.4365 42.3379 38.349 42.2179C38.202 42.0307 37.9226 42.1523 37.7438 42.0131C37.6353 41.9038 37.5653 41.7489 37.5477 41.5796C37.4676 41.2659 37.4495 40.9339 37.4948 40.6102C37.5994 40.068 38.002 39.6952 38.2577 39.2298C38.4974 38.7978 38.6325 38.2508 38.9914 37.9644C39.3504 37.6781 39.8126 37.7421 40.2192 37.8876C40.4061 37.9682 40.5985 38.0292 40.794 38.07C41.1212 38.118 41.4497 38.0108 41.7781 37.998C42.2437 37.9799 42.7011 38.1486 43.0788 38.4779C43.1639 38.545 43.2362 38.6334 43.2907 38.7371C43.3453 38.8841 43.3776 39.0417 43.386 39.2026C43.4247 39.5046 43.5116 39.7947 43.6417 40.0568C43.7423 40.2631 43.8708 40.4487 43.9622 40.6614C44.0644 40.87 44.0957 41.1182 44.0496 41.3541C44.0178 41.4741 43.9569 41.5828 43.9331 41.706C43.8801 41.9907 44.035 42.2643 44.141 42.5266C44.2441 42.7667 44.293 43.0354 44.2827 43.3057C44.2771 43.4403 44.2484 43.5721 44.1985 43.6927C44.1485 43.8133 44.0785 43.92 43.9927 44.0063C43.8128 44.157 43.5983 44.2359 43.3794 44.2318C43.114 44.2416 42.8492 44.1934 42.598 44.0895C42.5053 44.0396 42.4038 44.0182 42.3026 44.0271C42.1609 44.0623 42.1794 44.1663 42.1185 44.2926C42.0377 44.4622 41.7251 44.4958 41.6602 44.2766Z" fill="#3F3D56"/>
<path opacity="0.1" d="M40.1676 63.1445L41.7291 61.6696L44.1847 58.7471L43.3741 58.7023C43.279 58.8062 43.2183 58.9483 43.2033 59.1022C43.1914 59.4589 42.541 59.1262 42.2006 59.3309C41.8603 59.5357 40.2047 62.0983 39.9146 62.0807C39.6245 62.0632 39.3941 61.9032 39.2722 62.1511L39.2643 62.1671C39.216 62.2344 39.1509 62.281 39.0789 62.2999L40.1676 63.1445Z" fill="black"/>
<path d="M37.0219 63.0421L37.8059 66.067L37.9291 66.5469L38.3026 66.4237L39.1265 66.1502L42.7926 64.9345C43.2544 64.9103 43.7064 64.7651 44.1171 64.5089C44.8102 64.0399 45.6033 63.8311 46.3952 63.9091C46.88 63.9635 47.419 63.7107 47.8667 62.7125C47.8667 62.7125 48.8826 59.0893 46.3184 58.0512C43.7542 57.013 43.631 58.603 43.631 58.603L43.5952 58.6286C43.4959 58.7054 43.2178 58.9486 43.2072 59.2397C43.1953 59.5964 42.5449 59.2653 42.2045 59.4684C41.8641 59.6716 40.2086 62.2358 39.9185 62.2182C39.6284 62.2007 39.398 62.0407 39.2761 62.2902L39.2682 62.3062C39.1781 62.455 38.9092 62.4902 38.7304 62.495C38.6748 62.4985 38.6191 62.4985 38.5635 62.495L38.5397 62.503L38.3543 62.5702L37.0219 63.0421Z" fill="#65617D"/>
<path opacity="0.1" d="M37.2245 57.1698L37.6033 57.2418L37.7609 55.3574C37.7609 55.3574 37.5874 55.3254 37.3715 55.2646C37.4285 55.5286 37.2987 56.5444 37.2245 57.1698Z" fill="black"/>
<path opacity="0.1" d="M47.1184 48.3621C47.1184 48.3621 48.2429 47.967 47.9648 51.8254C47.7717 54.1803 46.9428 56.3932 45.6059 58.1232C45.6059 58.1232 43.2099 59.3933 42.1331 59.1886C41.0563 58.9838 40.2708 58.9406 40.2708 58.9406C39.9316 58.7337 39.5603 58.6144 39.1808 58.5903C38.5768 58.5615 37.3067 58.1104 37.2815 57.9616C37.2563 57.8129 37.5967 55.6677 37.451 55.5078C37.451 55.5078 39.145 55.5909 39.3146 55.7381C39.4841 55.8853 39.7265 55.7813 39.9079 55.7381C40.0894 55.6949 40.6457 55.1127 41.7463 55.6245C41.7463 55.6245 42.1211 55.6677 42.2668 55.551C42.3856 55.4841 42.5209 55.4738 42.6456 55.5222C42.7398 55.4844 42.829 55.4305 42.9105 55.3622C42.9463 55.3046 43.2377 55.3622 43.2377 55.3622C43.255 55.3716 43.2738 55.3763 43.2928 55.3761C43.3118 55.3759 43.3306 55.3708 43.3478 55.3611C43.365 55.3514 43.3803 55.3373 43.3926 55.3198C43.4049 55.3024 43.414 55.2819 43.4191 55.2598C43.4574 55.1406 43.5151 55.0318 43.5887 54.9399C43.5887 54.9399 43.9145 52.7196 44.5317 51.8862C44.581 51.8341 44.6189 51.7682 44.642 51.6943C44.6651 51.6203 44.6727 51.5406 44.6642 51.4623C44.6138 51.2255 45.6668 47.8934 47.1184 48.3621Z" fill="black"/>
<path d="M47.0879 48.0646C47.0879 48.0646 48.2137 47.6711 47.9356 51.5279C47.743 53.8829 46.914 56.096 45.5767 57.8257C45.5767 57.8257 43.1807 59.0974 42.1039 58.8926C41.0271 58.6879 40.2403 58.6399 40.2403 58.6399C39.9016 58.4329 39.5308 58.3135 39.1516 58.2896C38.5463 58.2592 37.2762 57.8097 37.2523 57.6609C37.2285 57.5121 37.5662 55.367 37.4218 55.2055C37.4218 55.2055 39.1159 55.2902 39.2854 55.4374C39.4549 55.5846 39.696 55.479 39.8774 55.4374C40.0589 55.3958 40.6152 54.8119 41.7171 55.3222C41.7171 55.3222 42.092 55.367 42.2363 55.2502C42.3552 55.1839 42.4901 55.1731 42.6151 55.2199C42.709 55.1812 42.7981 55.1274 42.88 55.0599C42.9158 55.0007 43.2059 55.0599 43.2059 55.0599C43.2232 55.0692 43.242 55.074 43.261 55.0738C43.28 55.0736 43.2987 55.0685 43.316 55.0588C43.3332 55.0491 43.3484 55.035 43.3608 55.0175C43.3731 55 43.3821 54.9796 43.3873 54.9575C43.4256 54.8383 43.4833 54.7295 43.5568 54.6376C43.5568 54.6376 43.884 52.4173 44.5012 51.5839C44.5505 51.5318 44.5883 51.4659 44.6115 51.392C44.6346 51.318 44.6422 51.2383 44.6336 51.1599C44.5846 50.9296 45.6363 47.6023 47.0879 48.0646Z" fill="#3F3D56"/>
<path opacity="0.1" d="M38.3503 62.5623L39.9477 64.8978L39.9583 64.885C39.9702 64.8402 40.1278 64.3443 40.0907 64.3139C40.0536 64.2835 39.7768 63.5541 39.2205 63.2469C38.9376 63.0803 38.7 62.8195 38.5358 62.4951L38.3503 62.5623Z" fill="black"/>
<path opacity="0.1" d="M38.3716 66.6045L38.5464 66.7244C38.5464 66.7244 38.9517 66.3325 39.3556 65.9374C39.7596 65.5423 40.1503 65.1552 40.1503 65.1376C40.1503 65.12 40.3199 64.5969 40.2828 64.5681C40.2457 64.5393 40.1808 64.3505 40.0271 64.1154C38.9437 63.7491 39.6298 64.6577 39.7252 64.6993C39.7252 64.6993 38.4073 64.3329 38.3345 66.0686C38.3282 66.2484 38.3406 66.4284 38.3716 66.6045Z" fill="black"/>
<path d="M39.708 67.3387L39.9385 67.4987L42.2735 67.5707C42.5354 67.7629 42.8122 67.9237 43.1 68.0506C43.1382 68.0643 43.1771 68.0744 43.2166 68.081C43.4333 68.1023 43.651 68.1071 43.8682 68.0953C44.047 68.0953 44.1848 68.081 44.1848 68.081C44.1848 68.081 44.0748 64.5249 43.9914 64.1506C43.9517 63.9715 43.7556 64.0099 43.5623 64.0994C43.4173 64.1711 43.2773 64.2567 43.1437 64.3554C43.1437 64.3554 42.153 64.4721 41.9954 64.5745C41.8378 64.6769 41.3901 64.5153 41.112 64.5745C40.8338 64.6337 40.3372 64.1794 40.3372 64.1794C38.9822 63.6387 39.7451 64.6465 39.8418 64.6913C39.8418 64.6913 38.5173 64.325 38.4498 66.0606C38.3822 67.7962 39.708 67.3387 39.708 67.3387Z" fill="#3F3D56"/>
<path d="M43.0841 65.9662C43.1092 66.702 43.5847 67.6154 43.8682 68.0985C44.047 68.0985 44.1847 68.0841 44.1847 68.0841C44.1847 68.0841 44.0748 64.5281 43.9913 64.1538C43.9516 63.9746 43.7556 64.013 43.5622 64.1026C43.3278 64.6337 43.0629 65.3711 43.0841 65.9662Z" fill="#565387"/>
<path opacity="0.1" d="M43.0841 65.9662C43.1092 66.702 43.5847 67.6154 43.8682 68.0985C44.047 68.0985 44.1847 68.0841 44.1847 68.0841C44.1847 68.0841 44.0748 64.5281 43.9913 64.1538C43.9516 63.9746 43.7556 64.013 43.5622 64.1026C43.3278 64.6337 43.0629 65.3711 43.0841 65.9662Z" fill="black"/>
<path opacity="0.05" d="M42.684 66.0638C42.8456 66.774 42.8429 67.5706 43.0999 68.0537C43.138 68.0674 43.177 68.0776 43.2164 68.0841C43.4332 68.1055 43.6508 68.1103 43.8681 68.0985C44.0469 68.0985 44.1847 68.0841 44.1847 68.0841C44.1847 68.0841 44.0747 64.5281 43.9913 64.1538C43.9515 63.9746 43.7555 64.013 43.5621 64.1026C43.4172 64.1742 43.2772 64.2598 43.1436 64.3585C43.1436 64.3585 42.4787 65.1536 42.684 66.0638Z" fill="black"/>
<path opacity="0.1" d="M34.6285 58.8542C34.6285 58.8542 35.7888 59.3086 36.7716 60.9242L34.6285 58.8542Z" fill="black"/>
<g opacity="0.1">
<path opacity="0.1" d="M44.0535 41.3188C44.0535 41.33 44.0535 41.3396 44.0469 41.3508C44.0358 41.3925 44.022 41.4332 44.0059 41.4724C44.0186 41.4199 44.0346 41.3686 44.0535 41.3188Z" fill="black"/>
<path opacity="0.1" d="M37.492 40.6103C37.5117 40.508 37.542 40.4091 37.5821 40.3159C37.5821 40.3399 37.5689 40.3655 37.5636 40.3911C37.5194 40.715 37.538 41.0468 37.6179 41.3605C37.6354 41.5294 37.7049 41.6841 37.8126 41.794C37.9927 41.9332 38.2722 41.8116 38.4192 41.9987C38.5119 42.1187 38.5172 42.3315 38.639 42.4051C38.6844 42.429 38.7348 42.4357 38.7834 42.4242C39.1053 42.3699 39.2907 41.9316 39.6006 41.81C39.7809 41.7539 39.9716 41.7742 40.141 41.8676C40.2104 41.8932 40.2727 41.9413 40.3211 42.0067C40.4244 42.1667 40.3516 42.4051 40.3993 42.6002C40.4655 42.8722 40.7344 42.9793 40.9662 43.0145C41.1979 43.0497 41.4602 43.0705 41.6151 43.2833C41.6665 43.3621 41.7033 43.4532 41.7232 43.5506C41.7431 43.648 41.7455 43.7493 41.7304 43.8479C41.7165 43.9168 41.7165 43.9886 41.7304 44.0575C41.794 44.2766 42.1079 44.243 42.19 44.0703C42.2509 43.9439 42.2324 43.8399 42.3741 43.8047C42.4753 43.7958 42.5767 43.8173 42.6694 43.8671C42.9207 43.971 43.1854 44.0193 43.4509 44.0095C43.6698 44.0135 43.8842 43.9347 44.0641 43.7839C44.1428 43.7094 44.2069 43.6149 44.2522 43.5072C44.2113 43.7031 44.1182 43.8773 43.9873 44.0031C43.8074 44.1538 43.593 44.2327 43.3741 44.2286C43.1086 44.2384 42.8439 44.1902 42.5926 44.0863C42.4999 44.0364 42.3985 44.015 42.2973 44.0239C42.1555 44.0591 42.1741 44.1631 42.1145 44.2894C42.031 44.4622 41.7171 44.4958 41.6536 44.2766C41.6403 44.2077 41.6403 44.136 41.6536 44.0671C41.6687 43.9685 41.6662 43.8671 41.6464 43.7697C41.6265 43.6724 41.5897 43.5812 41.5383 43.5024C41.3834 43.2897 41.1224 43.2705 40.8893 43.2337C40.6562 43.1969 40.3887 43.0913 40.3225 42.8194C40.2748 42.6242 40.3476 42.3859 40.2443 42.2259C40.1963 42.1607 40.1345 42.1126 40.0655 42.0867C39.8955 41.9941 39.7046 41.9739 39.5238 42.0291C39.2152 42.1507 39.0284 42.589 38.7066 42.6434C38.658 42.6549 38.6076 42.6482 38.5622 42.6242C38.4404 42.5506 38.4298 42.3379 38.3423 42.2179C38.1953 42.0307 37.9172 42.1523 37.7371 42.0131C37.6286 41.9038 37.5586 41.7489 37.541 41.5796C37.4623 41.2656 37.4455 40.9336 37.492 40.6103Z" fill="black"/>
</g>
<path opacity="0.1" d="M44.2416 52.3068C44.0191 52.6683 43.7661 53.0026 43.5701 53.3834C43.3572 53.7587 43.2537 54.2089 43.2761 54.6631C43.4787 54.4119 43.5727 54.0632 43.6999 53.7481C43.9171 53.2138 44.2403 52.7611 44.5144 52.2716C44.5661 52.1772 44.8999 51.6317 44.7317 51.6093C44.5913 51.5853 44.3171 52.1836 44.2416 52.3068Z" fill="black"/>
<path d="M45.4337 86.5345C45.5939 87.1552 45.7555 87.7775 45.9555 88.3805C46.3159 89.429 46.7693 90.4271 47.3078 91.3575C47.655 91.97 48.0281 92.5606 48.4257 93.1267C48.9237 93.8353 49.4853 94.5488 49.6548 95.4542C49.7568 95.9773 49.7224 96.5228 49.7647 97.0538C49.8071 97.5849 49.9515 98.1544 50.3104 98.4743C50.5661 98.7031 50.8932 98.7719 51.2071 98.831C51.4323 98.8742 51.7131 98.8886 51.8296 98.6535C51.8704 98.5574 51.8917 98.4511 51.8919 98.3432L51.9462 97.5609C51.9568 97.3914 52.0071 97.1754 52.1475 97.1674C52.2879 97.1594 52.3581 97.385 52.4773 97.4873C52.6362 97.6217 52.8746 97.4873 52.9621 97.2842C53.0346 97.0642 53.0393 96.8201 52.9753 96.5963C52.8789 96.1511 52.7054 95.7356 52.4664 95.3771C52.2274 95.0187 51.9282 94.7255 51.5886 94.5168C51.3527 94.4019 51.1265 94.26 50.9131 94.0929C50.6963 93.8652 50.5166 93.5907 50.3833 93.2835C49.1542 90.8392 47.9184 88.3821 47.0509 85.7219C46.8799 85.2465 46.7645 84.7448 46.7078 84.231C46.6654 83.708 46.733 83.1817 46.7608 82.657C46.8121 81.7145 46.7397 80.768 46.5462 79.8528C46.5039 79.6125 46.4292 79.3823 46.325 79.1714C45.9674 78.5171 45.133 78.4195 44.6032 78.8706C44.4081 79.0519 44.2464 79.2801 44.1283 79.5409C44.0102 79.8017 43.9383 80.0893 43.9171 80.3855C43.8787 80.9166 44.1317 81.4669 44.2602 81.9611C44.6496 83.4872 45.0407 85.0117 45.4337 86.5345Z" fill="#A1616A"/>
<path opacity="0.05" d="M45.4337 86.5345C45.5939 87.1552 45.7555 87.7775 45.9555 88.3805C46.3159 89.429 46.7693 90.4271 47.3078 91.3575C47.655 91.97 48.0281 92.5606 48.4257 93.1267C48.9237 93.8353 49.4853 94.5488 49.6548 95.4542C49.7568 95.9773 49.7224 96.5228 49.7647 97.0538C49.8071 97.5849 49.9515 98.1544 50.3104 98.4743C50.5661 98.7031 50.8932 98.7719 51.2071 98.831C51.4323 98.8742 51.7131 98.8886 51.8296 98.6535C51.8704 98.5574 51.8917 98.4511 51.8919 98.3432L51.9462 97.5609C51.9568 97.3914 52.0071 97.1754 52.1475 97.1674C52.2879 97.1594 52.3581 97.385 52.4773 97.4873C52.6362 97.6217 52.8746 97.4873 52.9621 97.2842C53.0346 97.0642 53.0393 96.8201 52.9753 96.5963C52.8789 96.1511 52.7054 95.7356 52.4664 95.3771C52.2274 95.0187 51.9282 94.7255 51.5886 94.5168C51.3527 94.4019 51.1265 94.26 50.9131 94.0929C50.6963 93.8652 50.5166 93.5907 50.3833 93.2835C49.1542 90.8392 47.9184 88.3821 47.0509 85.7219C46.8799 85.2465 46.7645 84.7448 46.7078 84.231C46.6654 83.708 46.733 83.1817 46.7608 82.657C46.8121 81.7145 46.7397 80.768 46.5462 79.8528C46.5039 79.6125 46.4292 79.3823 46.325 79.1714C45.9674 78.5171 45.133 78.4195 44.6032 78.8706C44.4081 79.0519 44.2464 79.2801 44.1283 79.5409C44.0102 79.8017 43.9383 80.0893 43.9171 80.3855C43.8787 80.9166 44.1317 81.4669 44.2602 81.9611C44.6496 83.4872 45.0407 85.0117 45.4337 86.5345Z" fill="black"/>
<path d="M37.712 112.669C37.9516 112.77 38.2064 112.807 38.459 112.778C38.4775 112.529 38.7556 112.473 38.9623 112.486C39.0622 112.482 39.1613 112.509 39.2497 112.566C39.3013 112.605 39.3411 112.663 39.3914 112.705C39.4811 112.764 39.5818 112.795 39.6841 112.796L40.7596 112.905C41.239 112.954 41.7384 112.999 42.1874 112.793C42.2768 112.758 42.3563 112.694 42.4165 112.607C42.5384 112.396 42.4165 112.094 42.2483 111.94C42.0801 111.786 41.8629 111.718 41.6933 111.561C41.3198 111.217 41.2682 110.574 41.0708 110.059C40.9306 109.734 40.7575 109.432 40.5556 109.158C40.4093 108.924 40.2389 108.712 40.0483 108.53C39.6166 108.154 39.1212 108.162 38.6139 108.107C38.2563 108.069 37.9199 108.043 37.663 108.427C37.3451 108.907 37.4722 109.867 37.4921 110.427C37.5169 111.18 37.5904 111.93 37.712 112.669Z" fill="#514E7F"/>
<path opacity="0.05" d="M37.712 112.669C37.9516 112.77 38.2064 112.807 38.459 112.778C38.4775 112.529 38.7556 112.473 38.9623 112.486C39.0622 112.482 39.1613 112.509 39.2497 112.566C39.3013 112.605 39.3411 112.663 39.3914 112.705C39.4811 112.764 39.5818 112.795 39.6841 112.796L40.7596 112.905C41.239 112.954 41.7384 112.999 42.1874 112.793C42.2768 112.758 42.3563 112.694 42.4165 112.607C42.5384 112.396 42.4165 112.094 42.2483 111.94C42.0801 111.786 41.8629 111.718 41.6933 111.561C41.3198 111.217 41.2682 110.574 41.0708 110.059C40.9306 109.734 40.7575 109.432 40.5556 109.158C40.4093 108.924 40.2389 108.712 40.0483 108.53C39.6166 108.154 39.1212 108.162 38.6139 108.107C38.2563 108.069 37.9199 108.043 37.663 108.427C37.3451 108.907 37.4722 109.867 37.4921 110.427C37.5169 111.18 37.5904 111.93 37.712 112.669Z" fill="black"/>
<path d="M38.1464 87.4031C37.8179 87.531 37.6749 88.0253 37.7358 88.4364C37.7967 88.8476 38.0007 89.2027 38.1689 89.5674C38.6483 90.6024 38.855 91.7861 39.2576 92.8659C39.5583 93.6657 39.9649 94.4175 40.2616 95.2269C40.5583 96.0363 40.7424 96.9497 40.5622 97.8088C40.4748 98.2263 40.3053 98.6086 40.1927 99.0197C40.0813 99.4653 40.0085 99.9236 39.9755 100.387C39.8296 101.963 39.8035 103.551 39.8973 105.132C39.8981 105.325 39.9315 105.515 39.9953 105.692C40.0629 105.852 40.1794 106.012 40.1278 106.172C40.1053 106.237 40.0563 106.285 40.0324 106.349C39.9636 106.528 40.1013 106.719 40.2271 106.847C40.2047 106.895 40.1744 106.937 40.1383 106.971C40.1021 107.005 40.0607 107.029 40.0165 107.044C40.1068 107.113 40.1761 107.216 40.2143 107.336C40.2525 107.457 40.2574 107.589 40.2285 107.714C40.1172 107.735 40.1106 107.941 40.1808 108.05C40.251 108.158 40.3622 108.226 40.4126 108.349C40.4422 108.449 40.4389 108.559 40.4035 108.657C40.368 108.754 40.303 108.832 40.2218 108.873C40.0564 108.95 39.8759 108.967 39.7026 108.921C39.4089 108.872 39.1189 108.795 38.8351 108.691C38.6868 108.656 38.5539 108.557 38.461 108.413C38.368 108.269 38.3212 108.09 38.3291 107.907C38.2636 107.256 38.2436 106.6 38.2695 105.945C38.3159 102.771 38.2695 99.594 38.1556 96.4219C38.1093 95.1422 37.7914 93.9024 37.3821 92.7251C37.1559 92.1234 36.9044 91.5361 36.6285 90.9655C36.0378 89.6602 35.5159 88.2141 35.651 86.7344C35.6656 86.5745 35.7133 86.3841 35.8444 86.3585C35.8957 86.3519 35.9474 86.3624 35.9941 86.3889C36.2662 86.5424 36.5294 86.7176 36.7821 86.9136C37.1974 87.2076 37.6655 87.3756 38.1464 87.4031Z" fill="#464353"/>
<path opacity="0.05" d="M38.1464 87.4031C37.8179 87.531 37.6749 88.0253 37.7358 88.4364C37.7967 88.8476 38.0007 89.2027 38.1689 89.5674C38.6483 90.6024 38.855 91.7861 39.2576 92.8659C39.5583 93.6657 39.9649 94.4175 40.2616 95.2269C40.5583 96.0363 40.7424 96.9497 40.5622 97.8088C40.4748 98.2263 40.3053 98.6086 40.1927 99.0197C40.0813 99.4653 40.0085 99.9236 39.9755 100.387C39.8296 101.963 39.8035 103.551 39.8973 105.132C39.8981 105.325 39.9315 105.515 39.9953 105.692C40.0629 105.852 40.1794 106.012 40.1278 106.172C40.1053 106.237 40.0563 106.285 40.0324 106.349C39.9636 106.528 40.1013 106.719 40.2271 106.847C40.2047 106.895 40.1744 106.937 40.1383 106.971C40.1021 107.005 40.0607 107.029 40.0165 107.044C40.1068 107.113 40.1761 107.216 40.2143 107.336C40.2525 107.457 40.2574 107.589 40.2285 107.714C40.1172 107.735 40.1106 107.941 40.1808 108.05C40.251 108.158 40.3622 108.226 40.4126 108.349C40.4422 108.449 40.4389 108.559 40.4035 108.657C40.368 108.754 40.303 108.832 40.2218 108.873C40.0564 108.95 39.8759 108.967 39.7026 108.921C39.4089 108.872 39.1189 108.795 38.8351 108.691C38.6868 108.656 38.5539 108.557 38.461 108.413C38.368 108.269 38.3212 108.09 38.3291 107.907C38.2636 107.256 38.2436 106.6 38.2695 105.945C38.3159 102.771 38.2695 99.594 38.1556 96.4219C38.1093 95.1422 37.7914 93.9024 37.3821 92.7251C37.1559 92.1234 36.9044 91.5361 36.6285 90.9655C36.0378 89.6602 35.5159 88.2141 35.651 86.7344C35.6656 86.5745 35.7133 86.3841 35.8444 86.3585C35.8957 86.3519 35.9474 86.3624 35.9941 86.3889C36.2662 86.5424 36.5294 86.7176 36.7821 86.9136C37.1974 87.2076 37.6655 87.3756 38.1464 87.4031Z" fill="black"/>
<path d="M33.7053 83.5448C33.5341 83.412 33.3365 83.3369 33.1332 83.3273C32.8974 83.3417 32.6961 83.5288 32.512 83.708C32.2938 83.9102 32.0868 84.1293 31.8921 84.3638C31.489 84.8828 31.2082 85.5225 31.0787 86.2167C30.9492 86.9108 30.9758 87.6342 31.1557 88.3118C31.3504 89.0172 31.7067 89.6395 32.059 90.2489L32.7742 91.4903C33.8656 93.3826 34.957 95.275 36.1 97.1226C36.1003 97.1681 36.1125 97.2122 36.1348 97.2487C36.1572 97.2852 36.1886 97.3122 36.2245 97.3258C36.2656 97.3386 36.3172 97.337 36.3424 97.3786C36.354 97.4045 36.3591 97.434 36.357 97.4634C36.3544 97.6 36.3329 97.7352 36.2934 97.8633C36.2748 97.9055 36.2701 97.9546 36.2801 98.0008C36.3172 98.1048 36.4735 98.0456 36.5238 98.1432C36.557 98.2072 36.5159 98.2904 36.4722 98.3448C36.4285 98.3991 36.3742 98.4599 36.3821 98.5351C36.3901 98.6103 36.4987 98.6951 36.4947 98.7879C36.4947 98.8422 36.455 98.8838 36.4272 98.927C36.3882 98.9959 36.3705 99.079 36.377 99.162C36.3835 99.245 36.4139 99.3226 36.4629 99.3813C36.5384 100.284 36.1318 101.141 36.051 102.04C35.9186 103.46 36.455 104.847 36.5199 106.273C36.516 106.433 36.5413 106.592 36.594 106.74C36.704 106.986 36.9914 107.135 36.9768 107.415C36.956 107.53 36.929 107.643 36.896 107.754C36.8735 107.914 36.9371 108.074 36.9397 108.234C36.9424 108.394 36.8245 108.59 36.7 108.527C36.7936 108.904 36.877 109.285 36.9503 109.669L39.4536 109.918C39.4806 109.646 39.473 109.371 39.4311 109.102C39.3794 108.81 39.2708 108.538 39.2139 108.248C39.1768 108.106 39.1664 107.955 39.1834 107.807C39.2003 107.659 39.2442 107.517 39.3119 107.392C39.2466 107.393 39.1832 107.366 39.1328 107.316C39.0824 107.266 39.0482 107.196 39.0364 107.119C39.0154 106.963 39.0177 106.804 39.043 106.649C39.1092 105.86 38.8351 105.082 38.843 104.291C38.851 103.667 39.0324 103.067 39.1238 102.454C39.3198 101.143 39.1159 99.7205 39.5993 98.5223C39.892 97.8009 40.2973 97.0011 39.9688 96.302C39.8072 95.9565 39.5211 95.7197 39.3344 95.3934C39.1822 95.085 39.0679 94.7514 38.9953 94.4032C38.6099 92.9635 37.9861 91.6262 37.4391 90.2569C37.2872 89.9137 37.1745 89.5473 37.104 89.1676C37.0653 88.8344 37.0511 88.4976 37.0616 88.1614C37.0616 87.5577 37.0311 86.9546 36.9702 86.3554C36.9578 86.0929 36.8958 85.8373 36.7887 85.6084C36.6807 85.4352 36.5457 85.289 36.3914 85.1781C35.5702 84.4982 34.5927 84.1095 33.7053 83.5448Z" fill="#464353"/>
<path d="M36.7053 113.778C36.9457 113.877 37.2008 113.914 37.4537 113.885C37.4722 113.636 37.749 113.58 37.9557 113.593C38.0556 113.589 38.1547 113.616 38.2431 113.673C38.2947 113.713 38.3345 113.772 38.3861 113.812C38.4756 113.872 38.5764 113.903 38.6788 113.903L39.753 114.012C40.2338 114.061 40.7318 114.108 41.1821 113.9C41.2714 113.866 41.3506 113.802 41.4099 113.714C41.5318 113.503 41.4099 113.202 41.2417 113.049C41.0735 112.895 40.8563 112.825 40.6881 112.668C40.3132 112.324 40.2629 111.683 40.0642 111.168C39.9252 110.842 39.7526 110.539 39.5503 110.265C39.4036 110.031 39.2326 109.82 39.0417 109.638C38.6113 109.261 38.1146 109.269 37.6086 109.214C37.2497 109.176 36.9133 109.152 36.6577 109.534C36.3398 110.014 36.4669 110.974 36.4855 111.535C36.5104 112.289 36.5839 113.039 36.7053 113.778Z" fill="#514E7F"/>
<path d="M47.8005 78.3092C49.1698 78.3092 50.2799 76.9685 50.2799 75.3146C50.2799 73.6608 49.1698 72.3201 47.8005 72.3201C46.4311 72.3201 45.321 73.6608 45.321 75.3146C45.321 76.9685 46.4311 78.3092 47.8005 78.3092Z" fill="#A1616A"/>
<path d="M45.4614 76.204C45.1065 76.5735 44.5966 76.6007 44.1303 76.6583C43.1334 76.782 42.163 77.1212 41.2655 77.6597C41.1413 77.7243 41.0288 77.8178 40.9344 77.9348C40.8538 78.0617 40.7965 78.2078 40.7662 78.3635C40.6809 78.7004 40.649 79.0537 40.6721 79.4049C40.7046 79.7455 40.7857 80.0767 40.9118 80.3839C41.256 81.2442 41.787 81.9757 42.4482 82.5002C42.5648 82.605 42.697 82.6816 42.8376 82.7257C43.1635 82.8073 43.4787 82.5802 43.8005 82.4778C44.0933 82.3856 44.4019 82.3972 44.6893 82.5114C44.9542 82.6202 45.2442 82.8185 45.5065 82.6857C45.6743 82.5724 45.8048 82.3928 45.876 82.1771C46.1293 81.599 46.3553 81.004 46.5528 80.3951C46.6238 80.1573 46.7056 79.9245 46.7978 79.6976C47.0853 79.037 47.5819 78.5267 47.8296 77.8404C47.8548 77.7881 47.8699 77.7296 47.8741 77.6693C47.8782 77.609 47.8712 77.5483 47.8535 77.4917C47.8076 77.4152 47.744 77.3568 47.6707 77.3237C47.3044 77.0705 46.9707 76.7542 46.68 76.3848C46.5171 76.196 46.2177 75.6857 45.9833 75.6409C45.7197 75.5865 45.6402 76.0184 45.4614 76.204Z" fill="#A1616A"/>
<path d="M45.5198 82.289C45.2324 82.449 44.8934 82.3802 44.5821 82.3018C43.7795 82.0987 42.9676 81.8939 42.2245 81.4748C41.9924 81.3675 41.7912 81.1807 41.6457 80.9373C41.5554 80.7292 41.5004 80.5013 41.4842 80.2671L41.3517 79.1473C41.304 78.7586 41.3861 78.3987 41.3941 78.0051C41.3991 77.9615 41.3969 77.9171 41.3876 77.8746C41.3783 77.832 41.362 77.7921 41.3398 77.7572C41.2944 77.7112 41.2359 77.6888 41.1769 77.6948C40.8047 77.7028 40.5795 78.1747 40.3186 78.4946C40.1678 78.6793 39.9876 78.8251 39.7888 78.9233C39.5504 79.0417 39.259 79.1249 39.1597 79.4128C39.12 79.5328 39.1253 79.6688 39.0829 79.7888C38.916 80.2687 38.2047 80.1087 38.0233 80.5886C37.9716 80.723 37.9756 80.8909 37.8908 80.9965C37.8061 81.1021 37.6471 81.1005 37.516 81.1261C36.9981 81.2284 36.7478 81.9499 36.3054 82.2906C35.9332 82.5785 35.4538 82.5722 35.0525 82.7961C34.83 82.9209 34.6326 83.116 34.3968 83.1976C34.1611 83.2792 33.8949 83.236 33.6419 83.244C33.6149 83.2409 33.5877 83.2446 33.562 83.2548C33.5362 83.265 33.5125 83.2814 33.4922 83.3032C33.4765 83.3321 33.4661 83.3648 33.4618 83.3991C33.4574 83.4333 33.4592 83.4682 33.4671 83.5015C33.5897 84.4474 33.9143 85.3384 34.4087 86.0868C34.9032 86.8351 35.5505 87.415 36.2869 87.7694C36.3724 87.8023 36.4535 87.8497 36.5279 87.9102C36.7531 88.1133 36.7928 88.55 37.0485 88.694C37.1407 88.7332 37.2402 88.7408 37.3358 88.716C37.4314 88.6911 37.5194 88.6348 37.5902 88.5532C37.7312 88.3892 37.8639 88.2151 37.9875 88.0318C38.2209 87.7373 38.5273 87.5425 38.8604 87.4767C39.1676 87.4175 39.5107 87.4607 39.7597 87.2319C39.8615 87.119 39.9563 86.9971 40.0431 86.8672C40.2276 86.6594 40.4466 86.5012 40.6855 86.4033C41.3383 86.0918 42.0283 85.9087 42.7292 85.861C43.3821 85.8178 44.0536 85.8898 44.6709 85.6339C44.8311 85.5739 44.9788 85.4729 45.104 85.338C45.2367 85.1646 45.3354 84.9574 45.3927 84.7317C45.6154 83.9459 45.6593 83.1023 45.5198 82.289Z" fill="#54A680"/>
<path d="M42.3238 77.8756C42.5066 77.8548 42.6907 77.8756 42.8748 77.8756C43.0907 77.8756 43.3039 77.8117 43.5198 77.8101C43.8617 77.8168 44.1928 77.9553 44.4649 78.2054C44.737 78.4554 44.9358 78.804 45.0324 79.2001C45.0505 79.2634 45.0538 79.3316 45.0416 79.3969C45.0345 79.4292 45.018 79.4573 44.9951 79.4761C44.9723 79.4948 44.9446 79.5031 44.9171 79.4993C44.8455 79.2627 44.7517 79.0368 44.6377 78.8258C44.4324 78.4874 44.1398 78.2409 43.8059 78.1252C43.473 78.0113 43.1222 77.9959 42.7834 78.0804C42.6417 78.1124 42.5039 78.1572 42.3662 78.2036L41.7039 78.4243C41.5821 78.4643 41.4589 78.5043 41.341 78.5571C41.2496 78.5987 41.0933 78.7506 41.0033 78.757C40.8814 78.757 40.9794 78.6291 41.0337 78.5427C41.1419 78.3646 41.2932 78.2315 41.4668 78.162C41.7421 78.0258 42.0297 77.9297 42.3238 77.8756Z" fill="#54A680"/>
<path d="M43.9952 86.8703C44.1555 87.491 44.3158 88.1133 44.5171 88.7163C44.8769 89.7651 45.3303 90.7633 45.8694 91.6933C46.2166 92.3058 46.5897 92.8963 46.9872 93.4625C47.4839 94.1711 48.0389 94.8846 48.2164 95.7884C48.3184 96.3131 48.2839 96.8585 48.3263 97.388C48.3687 97.9175 48.5131 98.4886 48.8707 98.8085C49.1276 99.0357 49.4548 99.1044 49.7687 99.1652C49.9925 99.2084 50.2733 99.2228 50.3912 98.9877C50.4311 98.8913 50.4524 98.7851 50.4534 98.6773L50.5064 97.8951C50.5183 97.7256 50.5686 97.5096 50.7077 97.5016C50.8468 97.4936 50.9196 97.7192 51.0388 97.8215C51.1978 97.9559 51.4362 97.8215 51.5236 97.6184C51.5956 97.3983 51.6003 97.1544 51.5368 96.9305C51.4399 96.4855 51.2663 96.0703 51.0273 95.7119C50.7884 95.3535 50.4894 95.0602 50.1501 94.851C49.914 94.7357 49.6873 94.5938 49.4733 94.4271C49.2561 94.1993 49.0764 93.9241 48.9435 93.6161C47.7131 91.1734 46.4773 88.7163 45.6111 86.0545C45.4403 85.5795 45.3244 85.0784 45.2667 84.5653C45.2257 84.0422 45.2919 83.5159 45.321 82.9912C45.3724 82.0487 45.3 81.1022 45.1065 80.187C45.0643 79.9465 44.9891 79.7162 44.884 79.5056C44.5277 78.8497 43.6919 78.7537 43.1621 79.2048C42.9669 79.386 42.8049 79.6142 42.6866 79.875C42.5683 80.1358 42.4961 80.4234 42.4747 80.7197C42.4363 81.2508 42.6906 81.8011 42.8178 82.2954C43.2089 83.8225 43.6014 85.3475 43.9952 86.8703Z" fill="#A1616A"/>
<path d="M51.407 73.1966C51.4269 72.9471 51.2415 72.7167 51.0309 72.5568C50.8091 72.4195 50.5961 72.2623 50.3938 72.0865C50.2057 71.8897 50.1024 71.6338 49.9144 71.437C49.7005 71.2404 49.4579 71.0944 49.1991 71.0067C48.6488 70.7737 48.071 70.6489 47.4879 70.6372C46.8985 70.6372 46.2959 70.7972 45.8522 71.1603C45.7427 71.2434 45.6481 71.3522 45.574 71.4802C45.5041 71.6338 45.4591 71.8021 45.4416 71.9761C45.3359 72.5128 45.1928 73.0378 45.0138 73.5454C44.8297 74.11 44.6337 74.6955 44.2005 75.1322C43.737 75.5977 43.0284 75.8665 42.7224 76.4295C42.6886 76.4796 42.6649 76.5384 42.6531 76.6015C42.6414 76.6645 42.642 76.7299 42.6549 76.7926C42.6986 76.935 42.839 77.0326 42.9688 77.1222C43.7211 77.6437 44.3701 78.3203 44.7039 79.1281C45.0376 79.936 45.0283 80.8877 44.5529 81.6316C44.378 81.9067 44.137 82.233 44.3078 82.5098C44.5727 82.9305 45.4588 82.6889 45.6654 83.1336C45.7303 83.276 45.6919 83.4376 45.6919 83.5927C45.6919 84.0598 46.0641 84.4741 46.5157 84.6901C46.9674 84.906 47.4906 84.9572 47.9992 84.9844C48.1342 84.6179 48.1475 84.2027 48.0362 83.8247C48.0024 83.7431 47.989 83.6514 47.9978 83.5607C48.0357 83.4601 48.0946 83.373 48.1687 83.308C48.7117 82.6873 48.5965 81.7755 48.2707 81.0381C47.9449 80.3007 47.4363 79.6272 47.2469 78.8514C47.1528 78.4659 47.1528 78.0324 47.4058 77.7124C47.551 77.5586 47.7075 77.421 47.8733 77.3013C48.1696 77.0584 48.3978 76.7126 48.5276 76.3096C48.6799 75.7993 48.6601 75.1898 49.1025 74.8459C49.5276 74.5259 50.1249 74.6187 50.5951 74.3996C50.9567 74.2268 51.3779 73.563 51.407 73.1966Z" fill="#464353"/>
<path d="M77.0888 98.2616C75.0689 97.2522 74.4756 96.5228 74.4756 95.0623C74.4756 93.9425 74.8835 92.65 76.6715 92.65C77.66 92.6325 78.6309 92.9662 79.4635 93.6098L80.045 91.7526C79.3708 91.2727 78.4199 90.8264 77.0265 90.7704V88.051H75.8517V90.8824C73.7153 91.3031 72.4782 93.0691 72.4782 95.3966C72.4782 97.8361 73.6703 99.127 76.0437 100.248C77.7629 101.095 78.6622 102.048 78.6622 103.59C78.6622 105.19 77.5483 106.338 75.8994 106.338C74.6001 106.338 73.1272 105.806 72.2915 105.132L71.7339 107.01C72.5471 107.712 73.9405 108.216 75.2861 108.245V111.076H77.2848V108.16C79.6688 107.68 80.9523 105.601 80.9523 103.393C80.9523 100.898 79.4808 99.4389 77.0888 98.2616Z" fill="url(#paint1_linear)"/>
<path d="M75.2914 110.437V107.605C73.9457 107.576 72.5524 107.072 71.7391 106.37L72.2967 104.492C73.1325 105.166 74.6053 105.698 75.9046 105.698C77.5536 105.698 78.6622 104.55 78.6622 102.95C78.6622 101.408 77.7576 100.455 76.0384 99.6133C73.6702 98.4936 72.4729 97.2011 72.4729 94.7616C72.4729 92.4341 73.71 90.6681 75.8464 90.2474V87.416H77.0212V90.1354C78.4145 90.1914 79.3655 90.6393 80.0397 91.1176L79.4582 92.9668C78.6256 92.3232 77.6547 91.9895 76.6662 92.007C74.8782 92.007 74.4702 93.2979 74.4702 94.4193C74.4702 95.8765 75.0636 96.606 77.0834 97.6186C79.4754 98.7959 80.9469 100.255 80.9469 102.75C80.9469 104.966 79.6701 107.04 77.2794 107.517V110.437H75.2914Z" fill="#389168"/>
</g>
<defs>
<linearGradient id="paint0_linear" x1="40.5039" y1="67.9946" x2="40.5039" y2="37.4574" gradientUnits="userSpaceOnUse">
<stop stop-color="#808080" stop-opacity="0.25"/>
<stop offset="0.54" stop-color="#808080" stop-opacity="0.12"/>
<stop offset="1" stop-color="#808080" stop-opacity="0.1"/>
</linearGradient>
<linearGradient id="paint1_linear" x1="5167" y1="16432.3" x2="5808.23" y2="16432.3" gradientUnits="userSpaceOnUse">
<stop stop-color="#808080" stop-opacity="0.25"/>
<stop offset="0.54" stop-color="#808080" stop-opacity="0.12"/>
<stop offset="1" stop-color="#808080" stop-opacity="0.1"/>
</linearGradient>
<clipPath id="clip0">
<rect width="156" height="116" fill="white"/>
</clipPath>
</defs>
</svg>
