<svg width="156" height="116" viewBox="0 0 156 116" fill="none" xmlns="http://www.w3.org/2000/svg">
<g clip-path="url(#clip0)">
<path d="M140.51 64.5153C140.485 66.2462 140.394 68.1854 140.19 70.2286L145.911 64.0118L145.951 64.109C145.483 62.706 144.79 61.3674 143.893 60.1329L143.938 60.2244L140.51 64.5153Z" fill="#57B894"/>
<path d="M140.514 64.2117L143.835 60.0552C142.88 58.8017 141.737 57.8311 140.431 57.2391C140.363 57.2083 140.295 57.1796 140.227 57.1511C140.278 57.6197 140.554 60.3715 140.514 64.2117Z" fill="#57B894"/>
<path d="M146.626 76.2779C146.767 75.5531 146.876 74.8299 146.954 74.1083L138.327 80.0136L138.315 79.9615C138.185 80.3874 138.05 80.8061 137.909 81.2175L146.606 76.1631L146.626 76.2779Z" fill="#57B894"/>
<path d="M139.311 76.0371L147.032 69.8005L147.062 69.9084C146.963 67.9799 146.602 66.0686 145.987 64.2142L140.157 70.5495C139.956 72.4637 139.674 74.2929 139.311 76.0371Z" fill="#57B894"/>
<path d="M140.01 70.4419L129.682 61.4968L129.727 61.3876C128.889 62.5527 128.189 63.7885 127.636 65.0763L139.389 74.791C139.669 73.2726 139.869 71.806 140.01 70.4419Z" fill="#57B894"/>
<path d="M139.12 76.1501C139.199 75.7793 139.273 75.4108 139.342 75.0446L127.546 65.294L127.589 65.1839C127.394 65.6376 127.211 66.1059 127.04 66.5888L127.083 66.4784L139.12 76.1501Z" fill="#57B894"/>
<path d="M138.388 79.7137L146.943 73.8575L146.968 73.9694C147.103 72.6614 147.137 71.3469 147.069 70.0349L139.244 76.3559C138.994 77.5178 138.709 78.637 138.388 79.7137Z" fill="#57B894"/>
<path d="M126.22 75.7531L135.894 85.5268C136.55 84.2447 137.118 82.9294 137.593 81.588L125.951 72.095C125.926 73.3564 125.998 74.6179 126.166 75.871L126.22 75.7531Z" fill="#57B894"/>
<path d="M140.062 57.1508L140.141 57.1154C138.11 56.2975 135.984 56.5035 134.002 57.5365L140.355 64.2128C140.398 60.058 140.067 57.192 140.062 57.1508Z" fill="#57B894"/>
<path d="M137.662 81.9164C137.225 83.1238 136.712 84.3095 136.126 85.4683L144.902 80.9323L144.919 81.0453C145.534 80.0074 145.996 78.9056 146.293 77.7665C146.407 77.3185 146.509 76.8699 146.598 76.4207L137.798 81.5352C137.753 81.6625 137.708 81.7905 137.662 81.9164Z" fill="#57B894"/>
<path d="M140.351 64.5223L133.852 57.6928L133.902 57.5883C132.415 58.3861 131.012 59.6506 129.794 61.2974L140.038 70.1696C140.238 68.1495 140.327 66.2331 140.351 64.5223Z" fill="#57B894"/>
<path d="M137.676 81.3527C138.241 79.724 138.705 78.0699 139.066 76.3977L127 66.7022C126.771 67.3573 126.566 68.0371 126.386 68.7415C126.137 69.751 125.994 70.7782 125.96 71.8102L137.668 81.3575L137.676 81.3527Z" fill="#57B894"/>
<path d="M150.106 91.8425C148.82 93.1615 147.33 94.6045 145.678 96.0648L154.634 94.4567L154.593 94.5539C155.26 93.213 155.706 91.7969 155.918 90.3475L155.886 90.4431L150.106 91.8425Z" fill="#57B894"/>
<path d="M155.369 86.1943C155.34 86.1328 155.308 86.0728 155.277 86.0129C154.973 86.402 153.172 88.6754 150.331 91.6107L155.93 90.2553C156.112 88.7592 155.942 87.3761 155.369 86.1943Z" fill="#57B894"/>
<path d="M137.111 102.518C136.7 102.774 136.289 103.022 135.879 103.26L146.276 104.202L146.208 104.301C146.847 103.821 147.46 103.325 148.048 102.812L137.082 102.565L137.111 102.518Z" fill="#57B894"/>
<path d="M140.75 100.05L151.261 99.5382L151.205 99.6381C152.54 98.0976 153.661 96.4248 154.544 94.6546L145.418 96.2933C143.862 97.6558 142.306 98.9079 140.75 100.05Z" fill="#57B894"/>
<path d="M137.349 102.369L148.224 102.614L148.161 102.714C149.222 101.782 150.21 100.788 151.118 99.7396L140.465 100.258C139.423 101.014 138.384 101.718 137.349 102.369Z" fill="#57B894"/>
<path d="M124.405 107.705C124.477 107.633 124.55 107.56 124.626 107.484C126.813 107.065 128.934 106.418 130.944 105.557L130.787 98.7587C130.863 98.581 130.936 98.4022 131.006 98.222L131.173 105.459C132.617 104.836 134.017 104.139 135.365 103.37L133.521 90.7842C133.596 90.7453 133.672 90.7054 133.75 90.6644L135.591 103.234L135.601 103.235C137.228 102.295 138.796 101.279 140.298 100.191L138.378 87.8123C138.452 87.759 138.526 87.7053 138.6 87.651L140.52 100.03C140.852 99.7887 141.179 99.546 141.5 99.3025L139.762 86.7609C139.836 86.7017 139.909 86.6421 139.983 86.582L141.722 99.1335C143.049 98.1196 144.276 97.1011 145.383 96.1289L143.975 83.4983L144.09 83.4391C143.693 83.5509 143.291 83.6779 142.887 83.8169C143.612 83.0048 144.255 82.1397 144.809 81.2312L135.949 85.8106C135.388 86.8856 134.747 87.9272 134.029 88.9285C133.871 89.0738 133.715 89.2211 133.56 89.3723L133.583 89.5259C133.514 89.615 133.445 89.7035 133.375 89.7913L133.346 89.5869C133.257 89.6755 133.17 89.7657 133.083 89.856C134.131 88.5578 135.037 87.1763 135.788 85.73L126.186 76.0278C126.306 76.9291 126.468 77.8345 126.658 78.7309C125.751 77.6012 124.674 76.583 123.456 75.7039L123.531 75.7787L121.793 80.783C122.383 82.436 122.984 84.3048 123.515 86.3029L126.706 78.9524C126.73 79.0635 126.754 79.1745 126.779 79.2853L123.597 86.6169C124.084 88.4916 124.465 90.3072 124.738 92.0637L128.729 85.8321C128.76 85.9173 128.791 86.0019 128.822 86.0859L124.788 92.385C124.962 93.5571 125.088 94.6984 125.165 95.8087L130.122 89.3668C130.156 89.4463 130.189 89.5242 130.222 89.6006L125.213 96.1106L125.183 96.0641C125.211 96.5042 125.23 96.9388 125.242 97.3681L130.902 91.1221C130.939 91.2032 130.974 91.2779 131.007 91.3463L125.249 97.7003C125.252 97.8334 125.255 97.9671 125.256 98.0991C125.268 99.3654 125.2 100.631 125.054 101.891L125.604 101.346C125.506 101.552 125.412 101.755 125.32 101.954L125.007 102.264C124.982 102.452 124.955 102.638 124.926 102.823C124.82 103.062 124.717 103.296 124.619 103.524C124.699 103.096 124.768 102.665 124.826 102.231L112.253 95.5906C115.874 102.466 122.259 108.857 122.668 109.263C122.942 108.746 123.19 108.218 123.411 107.677C123.486 107.667 123.561 107.657 123.636 107.646C123.61 107.711 123.584 107.776 123.558 107.84C123.519 107.846 123.479 107.852 123.44 107.858C123.473 107.864 123.507 107.87 123.542 107.877C123.385 108.255 123.217 108.625 123.039 108.986C123.29 108.765 123.667 108.423 124.124 107.98C127.012 108.47 134.76 109.435 141.184 107.106L131.008 105.708C128.911 106.61 126.692 107.281 124.405 107.705ZM130.729 96.2663L130.956 96.0414L130.963 96.3607L130.737 96.5855L130.729 96.2663Z" fill="#57B894"/>
<path d="M155.15 85.921L155.236 85.9373C154.271 84.1786 152.483 83.1554 150.2 82.8492L150.208 91.5232C153.281 88.3467 155.124 85.9554 155.15 85.921Z" fill="#57B894"/>
<path d="M135.178 103.662C133.957 104.348 132.694 104.976 131.395 105.543L141.474 106.928L141.404 107.024C142.638 106.567 143.799 105.975 144.862 105.263C145.278 104.981 145.685 104.692 146.082 104.396L135.561 103.443C135.433 103.516 135.305 103.59 135.178 103.662Z" fill="#57B894"/>
<path d="M145.604 95.9344C147.236 94.4897 148.707 93.0633 149.978 91.7594L149.97 82.8865L150.085 82.8337C148.356 82.6215 146.35 82.8154 144.207 83.4067L145.604 95.9344Z" fill="#57B894"/>
<path d="M123.373 75.6456C122.02 74.7107 120.589 74.0957 119.137 73.8844C119.061 73.8734 118.986 73.8645 118.911 73.8558C119.126 74.2877 120.365 76.8302 121.689 80.4932L123.373 75.6456Z" fill="#57B894"/>
<path d="M123.419 86.554L110.424 80.8293L110.428 80.7133C110.045 82.047 109.817 83.411 109.748 84.7846L124.371 90.8575C124.099 89.3381 123.768 87.8894 123.419 86.554Z" fill="#57B894"/>
<path d="M124.416 91.1113L109.739 85.0161L109.742 84.8997C109.717 85.3837 109.709 85.8784 109.717 86.3837L109.719 86.2672L124.597 92.2226C124.54 91.8487 124.48 91.4782 124.416 91.1113Z" fill="#57B894"/>
<path d="M125.073 97.8055L110.635 91.9136C111.058 93.1201 111.574 94.3005 112.178 95.447L112.188 95.3201L124.854 102.009C125.023 100.613 125.097 99.2093 125.073 97.8055Z" fill="#57B894"/>
<path d="M118.755 73.8999L118.817 73.8451C116.595 73.6143 114.647 74.3829 113.128 75.8992L121.538 80.5369C120.105 76.5742 118.774 73.9377 118.755 73.8999Z" fill="#57B894"/>
<path d="M121.644 80.8324L113.041 76.0882L113.051 75.9755C111.92 77.1348 111.034 78.7154 110.46 80.6096L123.349 86.2877C122.822 84.3127 122.227 82.4661 121.644 80.8324Z" fill="#57B894"/>
<path d="M125.069 97.5592C125.029 95.8581 124.883 94.16 124.634 92.4725L109.719 86.5024C109.734 87.187 109.781 87.8886 109.859 88.6073C109.98 89.6343 110.209 90.6496 110.542 91.6405L125.063 97.5661L125.069 97.5592Z" fill="#57B894"/>
<path d="M112.916 67.4234L69.599 62.6646C67.6357 48.4313 70.6019 34.5358 75.6659 20.7172L118.983 25.476C112.446 39.0327 110.528 53.025 112.916 67.4234Z" fill="#F2F2F2"/>
<path d="M108.189 28.6485L81.718 25.7403L81.3595 28.219L107.831 31.1272L108.189 28.6485Z" fill="#389168"/>
<path opacity="0.3" d="M111.477 35.1113L75.5989 31.1696L75.4196 32.409L111.298 36.3506L111.477 35.1113Z" fill="#389168"/>
<path opacity="0.3" d="M110.898 39.1153L75.0198 35.1736L74.8405 36.4129L110.719 40.3546L110.898 39.1153Z" fill="#389168"/>
<path opacity="0.3" d="M110.319 43.1194L74.4406 39.1777L74.2613 40.4171L110.14 44.3588L110.319 43.1194Z" fill="#389168"/>
<path opacity="0.3" d="M109.74 47.1234L73.8615 43.1818L73.6822 44.4211L109.561 48.3628L109.74 47.1234Z" fill="#389168"/>
<path opacity="0.3" d="M109.161 51.1275L73.2823 47.1858L73.1031 48.4251L108.981 52.3668L109.161 51.1275Z" fill="#389168"/>
<path opacity="0.3" d="M108.582 55.1316L72.7032 51.19L72.524 52.4293L108.402 56.371L108.582 55.1316Z" fill="#389168"/>
<path opacity="0.3" d="M108.003 59.1358L72.1241 55.1941L71.9449 56.4335L107.823 60.3752L108.003 59.1358Z" fill="#389168"/>
<path d="M92.4031 53.4011L51.8777 39.2443C54.1106 25.0413 61.0145 12.2521 69.9257 0L110.451 14.1568C100.192 25.8308 94.273 38.9445 92.4031 53.4011Z" fill="#E6E6E6"/>
<path d="M99.0879 14.8457L74.3224 6.19434L73.2559 8.51332L98.0214 17.1647L99.0879 14.8457Z" fill="#389168"/>
<path opacity="0.3" d="M100.393 21.8233L66.826 10.0975L66.2928 11.257L99.8593 22.9828L100.393 21.8233Z" fill="#389168"/>
<path opacity="0.3" d="M98.6697 25.5692L65.1033 13.8434L64.57 15.0029L98.1365 26.7287L98.6697 25.5692Z" fill="#389168"/>
<path opacity="0.3" d="M96.9471 29.3153L63.3806 17.5895L62.8474 18.749L96.4139 30.4748L96.9471 29.3153Z" fill="#389168"/>
<path opacity="0.3" d="M95.2243 33.0614L61.6578 21.3356L61.1246 22.4951L94.6911 34.2209L95.2243 33.0614Z" fill="#389168"/>
<path opacity="0.3" d="M93.5013 36.8074L59.9349 25.0816L59.4017 26.2411L92.9681 37.9669L93.5013 36.8074Z" fill="#389168"/>
<path opacity="0.3" d="M91.7787 40.5535L58.2123 28.8277L57.679 29.9872L91.2455 41.713L91.7787 40.5535Z" fill="#389168"/>
<path opacity="0.3" d="M90.0559 44.2995L56.4894 32.5737L55.9561 33.7332L89.5227 45.459L90.0559 44.2995Z" fill="#389168"/>
<path d="M82.3809 56.8106H38.7214C34.7311 42.9031 35.68 28.7934 38.7214 14.5313H82.3809C77.8411 28.694 77.9454 42.7855 82.3809 56.8106Z" fill="#F2F2F2"/>
<path d="M72.1275 18.8553H45.4468V21.3537H72.1275V18.8553Z" fill="#389168"/>
<path opacity="0.3" d="M76.317 24.9089H40.1547V26.1581H76.317V24.9089Z" fill="#389168"/>
<path opacity="0.3" d="M76.317 28.9448H40.1547V30.1939H76.317V28.9448Z" fill="#389168"/>
<path opacity="0.3" d="M76.317 32.9805H40.1547V34.2297H76.317V32.9805Z" fill="#389168"/>
<path opacity="0.3" d="M76.317 37.0162H40.1547V38.2654H76.317V37.0162Z" fill="#389168"/>
<path opacity="0.3" d="M76.317 41.052H40.1547V42.3012H76.317V41.052Z" fill="#389168"/>
<path opacity="0.3" d="M76.317 45.0878H40.1547V46.3369H76.317V45.0878Z" fill="#389168"/>
<path opacity="0.3" d="M76.317 49.1235H40.1547V50.3727H76.317V49.1235Z" fill="#389168"/>
<path d="M52.9521 48.3702L37.9109 38.1787C37.7604 37.9506 37.5436 37.7611 37.2823 37.6294C37.0209 37.4976 36.7244 37.4282 36.4224 37.4282H28.3044C27.849 37.4282 27.4123 37.5859 27.0903 37.8665C26.7683 38.1472 26.5874 38.5278 26.5874 38.9247V101.372C26.5874 102.659 27.1742 103.894 28.2186 104.804C29.263 105.715 30.6796 106.226 32.1567 106.226H115.492C116.223 106.226 116.947 106.1 117.623 105.856C118.299 105.612 118.913 105.255 119.43 104.804C119.947 104.353 120.357 103.818 120.637 103.23C120.917 102.641 121.061 102.009 121.061 101.372V52.782C121.061 51.6119 120.528 50.4898 119.578 49.6624C118.629 48.835 117.342 48.3702 115.999 48.3702H52.9521Z" fill="#3F3D56"/>
<path d="M118.227 62.8521H103.111V67.4631H118.227V62.8521Z" fill="#389168"/>
<path d="M0 115.713C0 115.713 69.1334 81.2549 152.615 115.713H0Z" fill="#F2F2F2"/>
<path d="M14.8065 36.6377C14.8065 36.6377 15.5485 40.065 15.0291 40.3237C14.6096 40.5535 14.2125 40.8131 13.8419 41.0997L15.1775 42.7164L18.368 43.2984L21.4101 40.8411V38.3837C21.4101 38.3837 20.5197 37.155 20.6681 36.379C20.8165 35.603 14.8065 36.6377 14.8065 36.6377Z" fill="#A1616A"/>
<path opacity="0.1" d="M14.8065 36.6377C14.8065 36.6377 15.5485 40.065 15.0291 40.3237C14.6096 40.5535 14.2125 40.8131 13.8419 41.0997L15.1775 42.7164L18.368 43.2984L21.4101 40.8411V38.3837C21.4101 38.3837 20.5197 37.155 20.6681 36.379C20.8165 35.603 14.8065 36.6377 14.8065 36.6377Z" fill="black"/>
<path d="M9.6869 42.5223L9.24171 42.7163C9.24171 42.7163 8.27714 43.0397 7.83195 45.8204C7.38676 48.6011 6.34799 55.2618 6.64478 55.4558C6.94157 55.6498 6.79317 56.9432 6.79317 56.9432L9.01912 46.7904L9.6869 42.5223Z" fill="#2F2E41"/>
<path d="M14.963 26.7399C14.8951 26.8634 14.8713 27.0075 14.8076 27.1333C14.5185 27.7044 13.6952 27.5766 13.1015 27.7926C12.5986 27.9755 12.2233 28.4779 12.1839 29.0207C12.1672 29.2511 12.206 29.4836 12.1822 29.7134C12.1383 30.1379 11.8872 30.5117 11.7978 30.9287C11.5807 31.9418 12.0873 33.5416 12.6594 32.9949C12.8398 32.8225 13.0656 32.7082 13.2604 32.553C13.7665 32.15 14.0242 31.5091 14.4353 31.0061C14.4873 30.9324 14.5589 30.8705 14.644 30.8259C14.9444 30.6958 15.2118 31.044 15.4492 31.2722C15.5701 31.3872 15.7177 31.4785 15.8821 31.54C16.0466 31.6014 16.2242 31.6317 16.4031 31.6287C16.582 31.6257 16.7581 31.5896 16.9198 31.5227C17.0814 31.4558 17.2249 31.3597 17.3406 31.2407C17.4131 31.1488 17.5032 31.0686 17.6071 31.0034C17.7229 30.957 17.8534 30.9458 17.9774 30.9718C18.5629 31.0616 19.0903 31.3353 19.46 31.7411C19.6583 31.9526 19.8241 32.2014 20.0617 32.3654C20.2994 32.5294 20.6461 32.5834 20.8601 32.3885C21.2909 32.6539 21.4516 33.2174 21.4527 33.7305C21.4539 34.2436 21.3333 34.7534 21.3627 35.2657C21.3921 35.7779 21.6228 36.3307 22.0912 36.5187C22.165 36.0522 22.4427 35.6287 22.8664 35.3366C23.1854 35.1297 23.5731 35.0271 23.8429 34.7571C24.383 34.2164 24.2119 33.317 24.2326 32.5456C24.2582 31.5941 24.6365 30.6846 24.7033 29.7352C24.7367 29.2608 24.6805 28.7521 24.394 28.3767C24.1771 28.1265 23.9023 27.919 23.5872 27.7676L21.0405 26.3436C20.9274 26.2707 20.7992 26.2177 20.6629 26.1875C20.288 26.1288 19.9639 26.4353 19.6085 26.5703C19.3121 26.6619 18.9961 26.6953 18.6831 26.6682C17.6945 26.6448 17.4162 26.8121 16.7516 26.2507C16.6999 26.2052 16.6367 26.1709 16.5669 26.1506C16.4972 26.1303 16.423 26.1247 16.3502 26.134C15.9528 26.1889 15.1804 26.3445 14.963 26.7399Z" fill="#2F2E41"/>
<path d="M16.3647 104.862L17.9227 107.837L14.8806 108.742L13.3225 108.031L13.6936 104.862H16.3647Z" fill="#A1616A"/>
<path d="M14.9549 107.384C14.9549 107.384 12.5063 106.09 12.0611 106.543C11.6159 106.996 8.05443 110.294 8.05443 110.294C8.05443 110.294 2.56377 112.88 6.79307 113.268C11.0224 113.656 17.9228 111.005 17.9228 111.005C17.9228 111.005 18.2938 107.513 17.997 107.448C17.7002 107.384 16.4388 108.03 15.8452 107.836C15.5174 107.737 15.215 107.584 14.9549 107.384Z" fill="#2F2E41"/>
<path d="M20.3714 108.031V110.682L16.3647 109.906L17.2551 107.19L20.3714 108.031Z" fill="#A1616A"/>
<path d="M16.2905 108.936C16.2905 108.936 20.3714 108.354 20.7424 110.1C21.1134 111.846 22.078 114.433 21.1134 115.079C20.1488 115.726 15.1775 116.567 15.1033 115.467C15.0291 114.368 15.6227 112.234 15.6227 112.234C15.6227 112.234 15.9937 110.553 15.7711 110.1C15.5485 109.647 16.2905 108.936 16.2905 108.936Z" fill="#2F2E41"/>
<path d="M8.13954 65.2687C8.13954 65.2687 4.78977 83.7802 7.5351 92.8336C10.2804 101.887 12.2096 107.254 12.2096 107.254C12.2096 107.254 16.9582 106.09 16.9582 105.314C16.9582 104.538 15.1033 93.0276 14.6581 91.9282C14.2129 90.8289 13.4709 90.4409 14.1387 89.5355C14.8065 88.6302 15.9195 82.8101 15.9195 82.8101C15.9195 82.8101 18.368 92.4456 18.5164 92.7042C18.6648 92.9629 16.9582 107.772 16.9582 107.772C16.9582 107.772 21.8561 110.87 22.1521 108.548C22.2263 107.966 25.491 87.3369 25.491 87.0782C25.491 86.8195 26.8266 67.0313 24.6748 66.0613C22.5231 65.0913 8.13954 65.2687 8.13954 65.2687Z" fill="#2F2E41"/>
<path d="M17.7001 37.9311C20.4867 37.9311 22.7456 35.9623 22.7456 33.5337C22.7456 31.1051 20.4867 29.1363 17.7001 29.1363C14.9136 29.1363 12.6547 31.1051 12.6547 33.5337C12.6547 35.9623 14.9136 37.9311 17.7001 37.9311Z" fill="#A1616A"/>
<path d="M16.5872 42.2638V41.8111L15.1032 39.6771C15.1032 39.6771 13.6193 39.8064 13.3967 40.3884C13.1741 40.9705 10.6514 45.6265 10.6514 45.6265L7.98022 66.5141C7.98022 66.5141 15.3258 68.0661 16.4388 66.9668C17.5518 65.8674 21.7811 41.9405 21.7811 41.9405L22.3747 39.0304C22.3747 39.0304 21.3554 37.7371 21.1231 37.9311C20.8907 38.1251 17.0324 41.8758 17.0324 41.8758L16.9582 42.4578L16.5872 42.2638Z" fill="#54A680"/>
<path d="M15.0663 39.2567C15.0663 39.2567 13.6936 38.9657 13.2484 39.677C12.8032 40.3884 12.8032 40.647 12.3581 40.9057C11.9129 41.1644 9.31593 42.3284 9.16754 42.7811C9.01914 43.2337 5.82862 57.5252 5.82862 57.5252C5.82862 57.5252 4.27047 61.7933 5.01245 64.7033C5.75443 67.6133 5.23504 68.1953 6.7932 68.454C8.35136 68.7127 8.57396 68.7127 8.57396 68.3247C8.57396 67.9367 10.5773 54.8092 11.9871 53.9039C13.3968 52.9985 13.0258 43.1044 13.0258 43.1044C13.0258 43.1044 15.0292 40.9704 15.0292 40.647C15.0292 40.3237 15.3631 39.2324 15.0663 39.2567Z" fill="#2F2E41"/>
<path d="M19.2583 41.6171C19.4653 41.6472 22.3004 38.4484 22.523 38.5777C22.7456 38.7071 23.8586 40.3884 24.007 40.3884C24.1554 40.3884 30.4622 41.7464 30.9816 44.2685C31.501 46.7905 27.3459 54.8092 27.3459 54.8092C27.3459 54.8092 25.5651 59.4006 25.9361 61.4053C26.1878 62.9319 26.1377 64.4849 25.7877 65.9967C25.6393 66.5141 25.12 67.096 25.2684 67.3547C25.4168 67.6134 22.0036 67.0314 20.5939 67.7427C19.1841 68.4541 12.8773 68.9714 13.2483 68.1954C13.6192 67.4194 13.8419 64.38 14.8806 61.1466C15.9194 57.9133 18.5905 50.2825 18.1453 49.7652C17.7001 49.2478 18.8131 41.5524 19.2583 41.6171Z" fill="#2F2E41"/>
<path d="M30.0912 43.4925L31.0558 44.2685C31.0558 44.2685 32.1688 45.9498 32.0204 46.7259C31.872 47.5019 35.1367 59.2066 33.8011 59.5946C32.4656 59.9827 29.275 61.9227 28.9041 62.44C28.5331 62.9573 27.6427 63.8627 27.0491 64.1214C26.4555 64.38 25.8619 64.8327 25.4909 64.574C25.12 64.3154 24.3038 59.0126 24.8974 58.8186C25.4909 58.6246 26.0845 58.0426 26.6781 58.0426C27.2717 58.0426 27.6427 57.5253 27.6427 57.0726C27.6427 56.62 27.1975 53.9039 27.1975 53.9039L26.2329 47.5019L30.0912 43.4925Z" fill="#2F2E41"/>
<path d="M15.8531 27.3834C15.7931 27.4767 15.772 27.5857 15.7157 27.6807C15.46 28.1124 14.7321 28.0158 14.2071 28.1791C13.9852 28.2515 13.7913 28.3771 13.6478 28.5413C13.5043 28.7056 13.4169 28.9019 13.3958 29.1075C13.3811 29.2817 13.4154 29.4574 13.3943 29.6312C13.3555 29.9521 13.1335 30.2347 13.0544 30.5499C12.8624 31.3157 13.3104 32.5251 13.8162 32.1118C13.9758 31.9815 14.1754 31.8951 14.3477 31.7778C14.7952 31.4731 15.0231 30.9887 15.3865 30.6084C15.4348 30.551 15.4981 30.5042 15.5711 30.4722C15.8367 30.3738 16.0731 30.637 16.2831 30.8096C16.5154 30.9874 16.8153 31.0835 17.1245 31.0791C17.4337 31.0747 17.7299 30.9701 17.9554 30.7858C18.0216 30.7147 18.1013 30.654 18.191 30.6064C18.2952 30.5711 18.4089 30.5628 18.5184 30.5824C19.018 30.6424 19.4798 30.8473 19.8294 31.1641C19.987 31.3373 20.1654 31.4955 20.3614 31.636C20.5716 31.7599 20.8782 31.8008 21.0674 31.6535C21.4483 31.8541 21.5904 32.2801 21.5914 32.6679C21.5924 33.0558 21.4857 33.4412 21.5117 33.8284C21.5378 34.2157 21.7418 34.6336 22.1559 34.7757C22.1939 34.5938 22.2744 34.4206 22.3923 34.2669C22.5102 34.1132 22.663 33.9822 22.8414 33.8821C23.1234 33.7256 23.4662 33.6481 23.7048 33.444C24.1823 33.0352 24.031 32.3553 24.0493 31.7722C24.0719 31.053 24.4065 30.3653 24.4656 29.6477C24.4951 29.289 24.4454 28.9045 24.192 28.6207C23.9926 28.4266 23.7499 28.27 23.4787 28.1603L21.2269 27.0838C21.1243 27.0278 21.0113 26.9879 20.893 26.9658C20.5615 26.9214 20.275 27.1531 19.9607 27.2552C19.6958 27.3247 19.4181 27.3498 19.1425 27.3291C18.2683 27.3115 18.0222 27.438 17.4346 27.0136C17.3857 26.9783 17.3289 26.9522 17.2678 26.9371C17.2067 26.9219 17.1426 26.9179 17.0797 26.9254C16.7283 26.9668 16.0454 27.0844 15.8531 27.3834Z" fill="#2F2E41"/>
</g>
<defs>
<clipPath id="clip0">
<rect width="156" height="116" fill="white"/>
</clipPath>
</defs>
</svg>
