<svg width="965" height="339" viewBox="0 0 965 339" fill="none" xmlns="http://www.w3.org/2000/svg">
<path d="M100 161C100 106.876 143.876 63 198 63H756C810.124 63 854 106.876 854 161C854 215.124 810.124 259 756 259H198C143.876 259 100 215.124 100 161Z" fill="url(#paint0_linear)" fill-opacity="0.72"/>
<path d="M417.952 207.192V192.888H389.92V181.464L422.08 140.184H430.816V181.368H439.264V192.888H430.816V207.192H417.952ZM402.784 181.368H419.392V159.672L402.784 181.368ZM499.964 166.872C499.964 171.096 499.324 175 498.044 178.584C496.828 182.104 495.1 185.176 492.86 187.8C490.684 190.36 488.06 192.376 484.988 193.848C481.98 195.256 478.716 195.96 475.196 195.96C471.612 195.96 468.316 195.256 465.308 193.848C462.3 192.376 459.676 190.36 457.436 187.8C455.26 185.176 453.532 182.104 452.252 178.584C451.036 175 450.428 171.096 450.428 166.872C450.428 162.648 451.036 158.776 452.252 155.256C453.532 151.672 455.26 148.6 457.436 146.04C459.676 143.416 462.3 141.368 465.308 139.896C468.316 138.424 471.612 137.688 475.196 137.688C478.716 137.688 481.98 138.424 484.988 139.896C488.06 141.368 490.684 143.416 492.86 146.04C495.1 148.6 496.828 151.672 498.044 155.256C499.324 158.776 499.964 162.648 499.964 166.872ZM487.004 166.872C487.004 164.312 486.716 161.976 486.14 159.864C485.564 157.688 484.732 155.832 483.644 154.296C482.62 152.76 481.372 151.576 479.9 150.744C478.492 149.912 476.924 149.496 475.196 149.496C473.404 149.496 471.772 149.912 470.3 150.744C468.892 151.576 467.644 152.76 466.556 154.296C465.532 155.832 464.732 157.688 464.156 159.864C463.58 161.976 463.292 164.312 463.292 166.872C463.292 169.432 463.58 171.768 464.156 173.88C464.732 175.992 465.532 177.816 466.556 179.352C467.644 180.888 468.892 182.072 470.3 182.904C471.772 183.736 473.404 184.152 475.196 184.152C476.924 184.152 478.492 183.736 479.9 182.904C481.372 182.072 482.62 180.888 483.644 179.352C484.732 177.816 485.564 175.992 486.14 173.88C486.716 171.768 487.004 169.432 487.004 166.872ZM537.525 207.192V192.888H509.493V181.464L541.653 140.184H550.389V181.368H558.837V192.888H550.389V207.192H537.525ZM522.357 181.368H538.965V159.672L522.357 181.368Z" fill="white"/>
<circle cx="872.755" cy="97.0254" r="79" fill="url(#paint1_linear)" fill-opacity="0.54"/>
<circle cx="101" cy="242" r="79" fill="url(#paint2_linear)" fill-opacity="0.54"/>
<circle cx="919" cy="20" r="4" fill="#124B88" fill-opacity="0.6"/>
<circle cx="911" cy="4" r="4" fill="#64B663" fill-opacity="0.48"/>
<circle cx="938" cy="14" r="2" fill="#64B663" fill-opacity="0.48"/>
<circle cx="940" cy="38" r="6" fill="#64B663" fill-opacity="0.48"/>
<circle cx="961" cy="34" r="4" fill="#124B88" fill-opacity="0.6"/>
<circle cx="893" cy="12" r="2" fill="#124B88" fill-opacity="0.6"/>
<circle cx="953" cy="63" r="4" fill="#124B88" fill-opacity="0.6"/>
<circle cx="21" cy="294" r="4" fill="#64B663" fill-opacity="0.48"/>
<circle cx="4" cy="286" r="4" fill="#124B88" fill-opacity="0.6"/>
<circle cx="15" cy="271" r="2" fill="#124B88" fill-opacity="0.6"/>
<circle cx="41" cy="316" r="6" fill="#124B88" fill-opacity="0.6"/>
<circle cx="21" cy="314" r="4" fill="#64B663" fill-opacity="0.48"/>
<circle cx="67" cy="331" r="2" fill="#64B663" fill-opacity="0.48"/>
<circle cx="51" cy="335" r="4" fill="#64B663" fill-opacity="0.48"/>
<defs>
<linearGradient id="paint0_linear" x1="571.353" y1="44.7675" x2="385.092" y2="540.201" gradientUnits="userSpaceOnUse">
<stop stop-color="#124B88"/>
<stop offset="1" stop-color="#64B663"/>
</linearGradient>
<linearGradient id="paint1_linear" x1="843.017" y1="143.014" x2="1005.36" y2="-28.4417" gradientUnits="userSpaceOnUse">
<stop stop-color="#64B663"/>
<stop offset="1" stop-color="#124B88"/>
</linearGradient>
<linearGradient id="paint2_linear" x1="55.4231" y1="362.236" x2="208.214" y2="184.269" gradientUnits="userSpaceOnUse">
<stop stop-color="#64B663"/>
<stop offset="1" stop-color="#124B88"/>
</linearGradient>
</defs>
</svg>
