<svg width="84" height="84" viewBox="0 0 84 84" fill="none" xmlns="http://www.w3.org/2000/svg">
<circle cx="42" cy="42" r="41" stroke="#828282" stroke-width="2" stroke-dasharray="8 3"/>
<path d="M21.456 56.26C21.568 56.34 21.756 56.428 22.02 56.524C22.284 56.62 22.588 56.668 22.932 56.668C23.268 56.668 23.536 56.612 23.736 56.5C23.936 56.38 24.088 56.2 24.192 55.96C24.296 55.72 24.364 55.424 24.396 55.072C24.428 54.712 24.444 54.292 24.444 53.812V49.48H26.1V53.812C26.1 54.46 26.064 55.052 25.992 55.588C25.928 56.116 25.784 56.568 25.56 56.944C25.344 57.32 25.028 57.612 24.612 57.82C24.196 58.028 23.636 58.132 22.932 58.132C22.212 58.132 21.596 57.956 21.084 57.604L21.456 56.26ZM30.7968 58.12C30.2848 58.12 29.8248 58.032 29.4168 57.856C29.0088 57.68 28.6608 57.444 28.3728 57.148C28.0928 56.844 27.8768 56.496 27.7248 56.104C27.5728 55.712 27.4968 55.3 27.4968 54.868C27.4968 54.428 27.5728 54.012 27.7248 53.62C27.8768 53.228 28.0928 52.884 28.3728 52.588C28.6608 52.284 29.0088 52.044 29.4168 51.868C29.8248 51.692 30.2848 51.604 30.7968 51.604C31.3088 51.604 31.7648 51.692 32.1648 51.868C32.5728 52.044 32.9168 52.284 33.1968 52.588C33.4848 52.884 33.7048 53.228 33.8568 53.62C34.0088 54.012 34.0848 54.428 34.0848 54.868C34.0848 55.3 34.0088 55.712 33.8568 56.104C33.7048 56.496 33.4888 56.844 33.2088 57.148C32.9288 57.444 32.5848 57.68 32.1768 57.856C31.7688 58.032 31.3088 58.12 30.7968 58.12ZM29.1528 54.868C29.1528 55.148 29.1928 55.404 29.2728 55.636C29.3608 55.86 29.4768 56.056 29.6208 56.224C29.7728 56.392 29.9488 56.524 30.1488 56.62C30.3488 56.708 30.5648 56.752 30.7968 56.752C31.0288 56.752 31.2448 56.708 31.4448 56.62C31.6448 56.524 31.8168 56.392 31.9608 56.224C32.1128 56.056 32.2288 55.856 32.3088 55.624C32.3968 55.392 32.4408 55.136 32.4408 54.856C32.4408 54.584 32.3968 54.332 32.3088 54.1C32.2288 53.868 32.1128 53.668 31.9608 53.5C31.8168 53.332 31.6448 53.204 31.4448 53.116C31.2448 53.02 31.0288 52.972 30.7968 52.972C30.5648 52.972 30.3488 53.02 30.1488 53.116C29.9488 53.212 29.7728 53.344 29.6208 53.512C29.4768 53.68 29.3608 53.88 29.2728 54.112C29.1928 54.344 29.1528 54.596 29.1528 54.868ZM35.5301 58V51.712H37.1381V58H35.5301ZM35.5301 50.836V49.24H37.1381V50.836H35.5301ZM44.7927 58H43.1847V54.472C43.1847 53.968 43.0967 53.6 42.9207 53.368C42.7447 53.136 42.5007 53.02 42.1887 53.02C42.0287 53.02 41.8647 53.052 41.6967 53.116C41.5287 53.18 41.3687 53.272 41.2167 53.392C41.0727 53.504 40.9407 53.64 40.8207 53.8C40.7007 53.96 40.6127 54.136 40.5567 54.328V58H38.9487V51.712H40.4007V52.876C40.6327 52.476 40.9687 52.164 41.4087 51.94C41.8487 51.716 42.3447 51.604 42.8967 51.604C43.2887 51.604 43.6087 51.676 43.8567 51.82C44.1047 51.964 44.2967 52.152 44.4327 52.384C44.5687 52.616 44.6607 52.88 44.7087 53.176C44.7647 53.472 44.7927 53.772 44.7927 54.076V58ZM53.5497 56.596C53.9417 56.596 54.2697 56.516 54.5337 56.356C54.8057 56.196 55.0217 55.988 55.1817 55.732C55.3497 55.476 55.4657 55.184 55.5297 54.856C55.6017 54.52 55.6377 54.176 55.6377 53.824V49.48H57.2817V53.824C57.2817 54.408 57.2097 54.956 57.0657 55.468C56.9297 55.98 56.7097 56.428 56.4057 56.812C56.1097 57.196 55.7257 57.5 55.2537 57.724C54.7817 57.948 54.2177 58.06 53.5617 58.06C52.8817 58.06 52.3017 57.944 51.8217 57.712C51.3497 57.472 50.9657 57.16 50.6697 56.776C50.3737 56.384 50.1577 55.932 50.0217 55.42C49.8937 54.908 49.8297 54.376 49.8297 53.824V49.48H51.4857V53.824C51.4857 54.184 51.5177 54.532 51.5817 54.868C51.6537 55.196 51.7697 55.488 51.9297 55.744C52.0977 56 52.3137 56.208 52.5777 56.368C52.8417 56.52 53.1657 56.596 53.5497 56.596ZM61.3891 58.12C60.8611 58.12 60.3451 58.036 59.8411 57.868C59.3371 57.7 58.9051 57.46 58.5451 57.148L59.1451 56.14C59.5291 56.412 59.9011 56.62 60.2611 56.764C60.6291 56.9 60.9931 56.968 61.3531 56.968C61.6731 56.968 61.9251 56.908 62.1091 56.788C62.2931 56.668 62.3851 56.496 62.3851 56.272C62.3851 56.048 62.2771 55.884 62.0611 55.78C61.8451 55.676 61.4931 55.556 61.0051 55.42C60.5971 55.308 60.2491 55.2 59.9611 55.096C59.6731 54.992 59.4411 54.876 59.2651 54.748C59.0891 54.612 58.9611 54.46 58.8811 54.292C58.8011 54.116 58.7611 53.908 58.7611 53.668C58.7611 53.348 58.8211 53.06 58.9411 52.804C59.0691 52.548 59.2451 52.332 59.4691 52.156C59.6931 51.972 59.9531 51.832 60.2491 51.736C60.5531 51.64 60.8811 51.592 61.2331 51.592C61.7051 51.592 62.1451 51.66 62.5531 51.796C62.9691 51.932 63.3491 52.152 63.6931 52.456L63.0451 53.428C62.7251 53.188 62.4131 53.012 62.1091 52.9C61.8131 52.788 61.5171 52.732 61.2211 52.732C60.9491 52.732 60.7211 52.788 60.5371 52.9C60.3531 53.012 60.2611 53.192 60.2611 53.44C60.2611 53.552 60.2811 53.644 60.3211 53.716C60.3691 53.788 60.4411 53.852 60.5371 53.908C60.6331 53.964 60.7571 54.02 60.9091 54.076C61.0691 54.124 61.2651 54.176 61.4971 54.232C61.9291 54.344 62.2971 54.456 62.6011 54.568C62.9131 54.68 63.1651 54.808 63.3571 54.952C63.5571 55.096 63.7011 55.264 63.7891 55.456C63.8851 55.64 63.9331 55.864 63.9331 56.128C63.9331 56.744 63.7051 57.232 63.2491 57.592C62.7931 57.944 62.1731 58.12 61.3891 58.12Z" fill="#828282"/>
<g clip-path="url(#clip0)">
<path d="M48.3488 32.1637H43.8372V27.6521C43.8372 27.4466 43.5581 27.001 43 27.001C42.4418 27.001 42.1628 27.4466 42.1628 27.6521V32.1638H37.6512C37.4457 32.1637 37 32.4428 37 33.0009C37 33.559 37.4457 33.8381 37.6512 33.8381H42.1628V38.3498C42.1628 38.5552 42.4418 39.0009 43 39.0009C43.5582 39.0009 43.8372 38.5552 43.8372 38.3498V33.8381H48.3488C48.5543 33.8381 49 33.5591 49 33.0009C49 32.4428 48.5543 32.1637 48.3488 32.1637Z" fill="#828282"/>
</g>
<defs>
<clipPath id="clip0">
<rect width="12" height="12" fill="white" transform="translate(37 27)"/>
</clipPath>
</defs>
</svg>
