<svg width="116" height="116" viewBox="0 0 116 116" fill="none" xmlns="http://www.w3.org/2000/svg">
<path d="M68 63.998H72C73.1035 63.998 74 63.1016 74 61.998C74 60.8936 73.1035 59.998 72 59.998H68C64.8418 59.998 62.2744 57.5381 62.0439 54.4385L54.5098 61.9717C56.3018 68.9961 62.6523 73.998 70 73.998C78.8223 73.998 86 66.8203 86 57.998C86 50.6523 80.998 44.2998 73.9736 42.5078L70.4844 45.998H72V47.998C75.3076 47.998 78 50.6904 78 53.998H74C74 52.8936 73.1035 51.998 72 51.998H68C66.8965 51.998 66 52.8936 66 53.998C66 55.1016 66.8965 55.998 68 55.998H72C75.3076 55.998 78 58.6904 78 61.998C78 65.3057 75.3076 67.998 72 67.998V69.998H68V67.998C64.6924 67.998 62 65.3057 62 61.998H66C66 63.1016 66.8965 63.998 68 63.998Z" fill="#BDBDBD"/>
<path d="M50 103.998C39.2598 103.998 28.8057 100.214 20.5664 93.3418L18.8838 91.9424L83.9404 26.8877L85.3418 28.5645C85.7324 29.0283 86.0957 29.5176 86.4658 30H91.4219C82.166 16.3496 66.6064 8 50 8C22.4297 8 0 30.4297 0 58C0 85.5703 22.4297 108 50 108C66.6064 108 82.166 99.6504 91.4219 86H86.4756C77.7939 97.2803 64.248 103.998 50 103.998ZM14.6562 87.4316C7.78418 79.1924 4 68.7383 4 57.998C4 32.6318 24.6338 11.998 50 11.998C60.7402 11.998 71.1943 15.7822 79.4336 22.6543L81.1162 24.0537L16.0557 89.1143L14.6562 87.4316Z" fill="#BDBDBD"/>
<path d="M81.2783 85.998H30.4844L24.8516 91.6299C32.082 97.0401 40.9277 99.9981 50 99.9981C61.9463 99.9981 73.3535 94.8223 81.2783 85.998Z" fill="#BDBDBD"/>
<path d="M82.4844 33.998L77.1621 39.3203C84.7725 42.2324 90 49.5996 90 57.998C90 69.0264 81.0283 77.998 70 77.998C61.5996 77.998 54.2344 72.7695 51.3223 65.1602L34.4844 81.998H116V33.998H82.4844ZM112 77.998H102V73.998H108V67.998H112V77.998ZM112 47.998H108V41.998H102V37.998H112V47.998Z" fill="#BDBDBD"/>
<path d="M8 57.998C8 67.0703 10.958 75.916 16.3682 83.1465L20 79.5137V29.998H69.5156L75.1484 24.3662C67.918 18.9561 59.0723 15.998 50 15.998C26.8418 15.998 8 34.8398 8 57.998Z" fill="#BDBDBD"/>
<path d="M24 75.5137L65.5156 33.998H24V75.5137ZM28 37.998H38V41.998H32V47.998H28V37.998Z" fill="#BDBDBD"/>
</svg>
