<svg width="26" height="51" viewBox="0 0 26 51" fill="none" xmlns="http://www.w3.org/2000/svg">
<path d="M12.2929 25.7071C12.6834 26.0976 13.3166 26.0976 13.7071 25.7071L20.0711 19.3431C20.4616 18.9526 20.4616 18.3195 20.0711 17.9289C19.6805 17.5384 19.0474 17.5384 18.6569 17.9289L13 23.5858L7.34315 17.9289C6.95262 17.5384 6.31946 17.5384 5.92893 17.9289C5.53841 18.3195 5.53841 18.9526 5.92893 19.3431L12.2929 25.7071ZM12 0L12 25H14L14 0L12 0Z" fill="black"/>
<path d="M13.3957 32.9926L2.41712 17.6455L23.187 16.862L13.3957 32.9926Z" fill="#124B88"/>
<path d="M13.3957 49.9926L2.41712 34.6455L23.187 33.862L13.3957 49.9926Z" fill="#124B88"/>
</svg>
