<svg width="32" height="32" viewBox="0 0 32 32" fill="none" xmlns="http://www.w3.org/2000/svg">
<path d="M16 0C7.16298 0 0 7.16298 0 16C0 24.836 7.16298 32 16 32C24.837 32 32 24.836 32 16C32 7.16298 24.837 0 16 0ZM23 17H12.414L16.535 21.121C16.926 21.512 16.926 22.145 16.535 22.535C16.1439 22.926 15.511 22.926 15.121 22.535L9.464 16.878C9.22499 16.639 9.15001 16.31 9.20497 16C9.14996 15.69 9.22499 15.361 9.46499 15.121L15.122 9.464C15.513 9.07299 16.146 9.07299 16.536 9.464C16.927 9.85501 16.927 10.488 16.536 10.878L12.414 15H23C23.552 15 24 15.448 24 16C24 16.552 23.552 17 23 17Z" fill="#124B88"/>
</svg>
