<svg width="1221" height="902" viewBox="0 0 1221 902" fill="none" xmlns="http://www.w3.org/2000/svg">
<circle cx="731" cy="34" r="2" fill="#64B663" fill-opacity="0.48"/>
<circle cx="771" cy="18" r="6" fill="#124B88" fill-opacity="0.6"/>
<circle cx="827" cy="2" r="2" fill="#C4C4C4"/>
<circle cx="877" cy="36" r="4" fill="#124B88" fill-opacity="0.6"/>
<circle cx="969" cy="2" r="2" fill="#124B88" fill-opacity="0.6"/>
<circle cx="1035" cy="28" r="6" fill="#64B663" fill-opacity="0.48"/>
<circle cx="1219" cy="14" r="2" fill="#64B663" fill-opacity="0.48"/>
<circle cx="1179" cy="24" r="6" fill="#124B88" fill-opacity="0.6"/>
<circle cx="1103" cy="4" r="4" fill="#64B663" fill-opacity="0.48"/>
<circle cx="709" cy="164" r="2" fill="#124B88" fill-opacity="0.6"/>
<circle cx="771" cy="178" r="6" fill="#64B663" fill-opacity="0.48"/>
<circle cx="843" cy="164" r="2" fill="#124B88" fill-opacity="0.6"/>
<circle opacity="0.8" cx="885" cy="186" r="4" fill="#64B663" fill-opacity="0.48"/>
<circle cx="949" cy="162" r="4" fill="#124B88" fill-opacity="0.6"/>
<circle cx="1011" cy="192" r="2" fill="#64B663" fill-opacity="0.48"/>
<circle cx="1077" cy="160" r="6" fill="#124B88" fill-opacity="0.6"/>
<circle cx="1163" cy="186" r="4" fill="#124B88" fill-opacity="0.6"/>
<path d="M0 352H723C831.248 352 919 439.752 919 548C919 656.248 831.248 744 723 744H0V352Z" fill="url(#paint0_linear)" fill-opacity="0.72"/>
<circle cx="983" cy="672" r="230" fill="url(#paint1_linear)" fill-opacity="0.72"/>
<circle cx="707" cy="788" r="4" fill="#124B88" fill-opacity="0.6"/>
<circle cx="738" cy="835" r="2" fill="#64B663" fill-opacity="0.48"/>
<circle cx="742" cy="771" r="6" fill="#64B663" fill-opacity="0.48"/>
<circle cx="748" cy="812" r="4" fill="#124B88" fill-opacity="0.6"/>
<circle cx="734" cy="739" r="2" fill="#124B88" fill-opacity="0.6"/>
<defs>
<linearGradient id="paint0_linear" x1="574.5" y1="315.535" x2="69.151" y2="1134.7" gradientUnits="userSpaceOnUse">
<stop stop-color="#124B88"/>
<stop offset="1" stop-color="#64B663"/>
</linearGradient>
<linearGradient id="paint1_linear" x1="846.5" y1="555" x2="1252.5" y2="1124.5" gradientUnits="userSpaceOnUse">
<stop stop-color="#64B663"/>
<stop offset="1" stop-color="#124B88"/>
</linearGradient>
</defs>
</svg>
