<svg width="558" height="104" viewBox="0 0 558 104" fill="none" xmlns="http://www.w3.org/2000/svg">
<path d="M0 52C0 23.2812 23.2812 0 52 0H506C534.719 0 558 23.2812 558 52C558 80.7188 534.719 104 506 104H52C23.2812 104 0 80.7188 0 52Z" fill="url(#paint0_linear)"/>
<path d="M242.164 65V45.236L233.668 60.392H231.832L223.3 45.236V65H220.06V39.44H223.48L232.732 56.036L242.02 39.44H245.404V65H242.164ZM260.1 65.36C258.684 65.36 257.388 65.108 256.212 64.604C255.036 64.076 254.028 63.368 253.188 62.48C252.348 61.592 251.688 60.56 251.208 59.384C250.752 58.184 250.524 56.924 250.524 55.604C250.524 54.284 250.752 53.036 251.208 51.86C251.688 50.684 252.348 49.652 253.188 48.764C254.052 47.876 255.072 47.18 256.248 46.676C257.424 46.148 258.72 45.884 260.136 45.884C261.552 45.884 262.836 46.148 263.988 46.676C265.164 47.204 266.16 47.912 266.976 48.8C267.792 49.664 268.416 50.684 268.848 51.86C269.304 53.012 269.532 54.212 269.532 55.46C269.532 55.724 269.52 55.964 269.496 56.18C269.496 56.396 269.484 56.564 269.46 56.684H253.872C253.944 57.62 254.16 58.472 254.52 59.24C254.88 60.008 255.348 60.668 255.924 61.22C256.5 61.772 257.148 62.204 257.868 62.516C258.612 62.828 259.392 62.984 260.208 62.984C260.784 62.984 261.348 62.912 261.9 62.768C262.452 62.6 262.968 62.384 263.448 62.12C263.928 61.856 264.348 61.532 264.708 61.148C265.092 60.764 265.38 60.332 265.572 59.852L268.308 60.608C267.996 61.304 267.564 61.94 267.012 62.516C266.484 63.092 265.86 63.596 265.14 64.028C264.444 64.436 263.664 64.76 262.8 65C261.936 65.24 261.036 65.36 260.1 65.36ZM266.544 54.344C266.472 53.456 266.244 52.64 265.86 51.896C265.5 51.128 265.032 50.48 264.456 49.952C263.904 49.424 263.256 49.016 262.512 48.728C261.768 48.416 260.976 48.26 260.136 48.26C259.296 48.26 258.504 48.416 257.76 48.728C257.016 49.016 256.356 49.436 255.78 49.988C255.228 50.516 254.772 51.152 254.412 51.896C254.076 52.64 253.872 53.456 253.8 54.344H266.544ZM302.466 65H299.298V54.488C299.298 52.52 298.974 51.068 298.326 50.132C297.702 49.196 296.766 48.728 295.518 48.728C294.222 48.728 293.058 49.196 292.026 50.132C291.018 51.044 290.298 52.232 289.866 53.696V65H286.698V54.488C286.698 52.472 286.386 51.008 285.762 50.096C285.138 49.184 284.202 48.728 282.954 48.728C281.682 48.728 280.53 49.184 279.498 50.096C278.466 50.984 277.734 52.172 277.302 53.66V65H274.134V46.208H277.014V50.24C277.782 48.848 278.778 47.78 280.002 47.036C281.226 46.268 282.606 45.884 284.142 45.884C285.726 45.884 286.974 46.316 287.886 47.18C288.822 48.02 289.398 49.112 289.614 50.456C291.294 47.408 293.682 45.884 296.778 45.884C297.858 45.884 298.758 46.088 299.478 46.496C300.222 46.88 300.81 47.432 301.242 48.152C301.674 48.848 301.986 49.676 302.178 50.636C302.37 51.596 302.466 52.64 302.466 53.768V65ZM318.12 65.36C316.656 65.36 315.324 65 314.124 64.28C312.924 63.56 311.976 62.624 311.28 61.472V65H308.472V38.72H311.64V49.952C312.432 48.728 313.404 47.744 314.556 47C315.708 46.256 317.052 45.884 318.588 45.884C319.884 45.884 321.048 46.16 322.08 46.712C323.112 47.264 323.988 47.996 324.708 48.908C325.452 49.796 326.016 50.84 326.4 52.04C326.808 53.216 327.012 54.428 327.012 55.676C327.012 56.996 326.784 58.244 326.328 59.42C325.872 60.596 325.248 61.628 324.456 62.516C323.664 63.38 322.716 64.076 321.612 64.604C320.532 65.108 319.368 65.36 318.12 65.36ZM317.328 62.624C318.264 62.624 319.128 62.432 319.92 62.048C320.712 61.664 321.396 61.148 321.972 60.5C322.548 59.852 322.992 59.12 323.304 58.304C323.616 57.464 323.772 56.588 323.772 55.676C323.772 54.764 323.616 53.888 323.304 53.048C323.016 52.184 322.596 51.428 322.044 50.78C321.516 50.132 320.868 49.616 320.1 49.232C319.356 48.824 318.528 48.62 317.616 48.62C316.944 48.62 316.308 48.74 315.708 48.98C315.108 49.22 314.544 49.544 314.016 49.952C313.512 50.336 313.056 50.792 312.648 51.32C312.264 51.848 311.928 52.412 311.64 53.012V58.448C311.76 59.048 312.012 59.6 312.396 60.104C312.804 60.608 313.272 61.052 313.8 61.436C314.352 61.796 314.928 62.084 315.528 62.3C316.152 62.516 316.752 62.624 317.328 62.624ZM340.297 65.36C338.881 65.36 337.585 65.108 336.409 64.604C335.233 64.076 334.225 63.368 333.385 62.48C332.545 61.592 331.885 60.56 331.405 59.384C330.949 58.184 330.721 56.924 330.721 55.604C330.721 54.284 330.949 53.036 331.405 51.86C331.885 50.684 332.545 49.652 333.385 48.764C334.249 47.876 335.269 47.18 336.445 46.676C337.621 46.148 338.917 45.884 340.333 45.884C341.749 45.884 343.033 46.148 344.185 46.676C345.361 47.204 346.357 47.912 347.173 48.8C347.989 49.664 348.613 50.684 349.045 51.86C349.501 53.012 349.729 54.212 349.729 55.46C349.729 55.724 349.717 55.964 349.693 56.18C349.693 56.396 349.681 56.564 349.657 56.684H334.069C334.141 57.62 334.357 58.472 334.717 59.24C335.077 60.008 335.545 60.668 336.121 61.22C336.697 61.772 337.345 62.204 338.065 62.516C338.809 62.828 339.589 62.984 340.405 62.984C340.981 62.984 341.545 62.912 342.097 62.768C342.649 62.6 343.165 62.384 343.645 62.12C344.125 61.856 344.545 61.532 344.905 61.148C345.289 60.764 345.577 60.332 345.769 59.852L348.505 60.608C348.193 61.304 347.761 61.94 347.209 62.516C346.681 63.092 346.057 63.596 345.337 64.028C344.641 64.436 343.861 64.76 342.997 65C342.133 65.24 341.233 65.36 340.297 65.36ZM346.741 54.344C346.669 53.456 346.441 52.64 346.057 51.896C345.697 51.128 345.229 50.48 344.653 49.952C344.101 49.424 343.453 49.016 342.709 48.728C341.965 48.416 341.173 48.26 340.333 48.26C339.493 48.26 338.701 48.416 337.957 48.728C337.213 49.016 336.553 49.436 335.977 49.988C335.425 50.516 334.969 51.152 334.609 51.896C334.273 52.64 334.069 53.456 333.997 54.344H346.741ZM364.267 48.98C362.683 49.028 361.279 49.436 360.055 50.204C358.855 50.972 358.003 52.04 357.499 53.408V65H354.331V46.208H357.283V50.564C357.931 49.268 358.783 48.224 359.839 47.432C360.895 46.616 362.023 46.16 363.223 46.064C363.463 46.064 363.667 46.064 363.835 46.064C364.003 46.064 364.147 46.076 364.267 46.1V48.98ZM375.077 65.36C373.565 65.36 372.077 65.132 370.613 64.676C369.149 64.196 367.889 63.512 366.833 62.624L368.201 60.5C369.305 61.34 370.409 61.976 371.513 62.408C372.617 62.816 373.781 63.02 375.005 63.02C376.373 63.02 377.453 62.756 378.245 62.228C379.061 61.676 379.469 60.908 379.469 59.924C379.469 59.468 379.361 59.084 379.145 58.772C378.929 58.436 378.605 58.148 378.173 57.908C377.741 57.668 377.189 57.452 376.517 57.26C375.845 57.068 375.065 56.864 374.177 56.648C373.049 56.36 372.077 56.084 371.261 55.82C370.445 55.556 369.773 55.244 369.245 54.884C368.717 54.524 368.333 54.092 368.093 53.588C367.853 53.084 367.733 52.46 367.733 51.716C367.733 50.78 367.913 49.952 368.273 49.232C368.657 48.488 369.173 47.876 369.821 47.396C370.469 46.892 371.225 46.52 372.089 46.28C372.977 46.016 373.925 45.884 374.933 45.884C376.349 45.884 377.669 46.112 378.893 46.568C380.117 47.024 381.149 47.624 381.989 48.368L380.549 50.276C379.757 49.58 378.869 49.064 377.885 48.728C376.901 48.368 375.893 48.188 374.861 48.188C373.709 48.188 372.725 48.44 371.909 48.944C371.117 49.424 370.721 50.204 370.721 51.284C370.721 51.716 370.793 52.076 370.937 52.364C371.105 52.652 371.369 52.904 371.729 53.12C372.089 53.336 372.545 53.528 373.097 53.696C373.673 53.864 374.357 54.044 375.149 54.236C376.397 54.524 377.477 54.824 378.389 55.136C379.325 55.424 380.093 55.772 380.693 56.18C381.317 56.588 381.773 57.068 382.061 57.62C382.373 58.172 382.529 58.844 382.529 59.636C382.529 61.388 381.857 62.78 380.513 63.812C379.169 64.844 377.357 65.36 375.077 65.36Z" fill="black"/>
<rect width="181" height="104" rx="52" fill="#64B663"/>
<path d="M64.264 68.88V74H41.288V68.88H50.376V43.92C49.992 44.432 49.3947 44.9867 48.584 45.584C47.7733 46.1387 46.856 46.672 45.832 47.184C44.8507 47.6533 43.8267 48.0587 42.76 48.4C41.6933 48.7413 40.7547 48.912 39.944 48.912V43.536C40.8827 43.536 41.928 43.28 43.08 42.768C44.232 42.2133 45.32 41.5947 46.344 40.912C47.4107 40.1867 48.3067 39.504 49.032 38.864C49.8 38.1813 50.248 37.712 50.376 37.456H56.136V68.88H64.264ZM90.6445 58.896C93.3752 59.3653 95.5298 60.624 97.1085 62.672C98.7298 64.72 99.5405 67.2587 99.5405 70.288C99.5405 72.2507 99.1778 74.0427 98.4525 75.664C97.7272 77.2853 96.6818 78.672 95.3165 79.824C93.9938 80.976 92.3938 81.8507 90.5165 82.448C88.6392 83.088 86.5485 83.408 84.2445 83.408C81.0018 83.408 78.1432 82.7893 75.6685 81.552C73.2365 80.3573 71.3378 78.6507 69.9725 76.432L73.7485 72.656C74.7298 74.4053 76.0525 75.7707 77.7165 76.752C79.3805 77.776 81.5565 78.288 84.2445 78.288C87.1885 78.288 89.4925 77.6267 91.1565 76.304C92.8632 74.9813 93.7165 72.976 93.7165 70.288C93.7165 67.6 92.7992 65.4667 90.9645 63.888C89.1725 62.2667 86.5485 61.456 83.0925 61.456H81.4285V56.72H83.2205C86.2925 56.72 88.6392 55.9947 90.2605 54.544C91.9245 53.0507 92.7565 51.1733 92.7565 48.912C92.7565 46.6507 91.9672 44.9653 90.3885 43.856C88.8098 42.7467 86.8258 42.192 84.4365 42.192C82.0898 42.192 80.0205 42.704 78.2285 43.728C76.4792 44.7093 75.1138 46.096 74.1325 47.888L70.6765 44.304C71.2312 43.2373 71.9778 42.2773 72.9165 41.424C73.8978 40.528 75.0072 39.76 76.2445 39.12C77.5245 38.48 78.8898 37.9893 80.3405 37.648C81.8338 37.3067 83.3912 37.136 85.0125 37.136C87.0178 37.136 88.8525 37.4133 90.5165 37.968C92.2232 38.5227 93.6738 39.2907 94.8685 40.272C96.1058 41.2533 97.0445 42.448 97.6845 43.856C98.3672 45.264 98.7085 46.8213 98.7085 48.528C98.7085 49.808 98.5165 51.024 98.1325 52.176C97.7912 53.328 97.2578 54.3733 96.5325 55.312C95.8498 56.2507 94.9965 57.04 93.9725 57.68C92.9912 58.2773 91.8818 58.6827 90.6445 58.896ZM106.519 53.136C106.519 50.96 106.924 48.9333 107.735 47.056C108.588 45.136 109.74 43.472 111.191 42.064C112.684 40.6133 114.412 39.4827 116.375 38.672C118.338 37.8613 120.471 37.456 122.775 37.456C125.207 37.456 127.426 37.904 129.431 38.8C131.479 39.696 133.228 40.9973 134.679 42.704C136.13 44.368 137.239 46.416 138.007 48.848C138.818 51.2373 139.223 53.968 139.223 57.04C139.223 61.52 138.818 65.4453 138.007 68.816C137.196 72.144 136.044 74.9173 134.551 77.136C133.058 79.3973 131.266 81.0827 129.175 82.192C127.084 83.3013 124.759 83.856 122.199 83.856C119.255 83.856 116.567 83.152 114.135 81.744C111.746 80.336 109.868 78.352 108.503 75.792L111.959 72.4C112.898 74.4053 114.284 75.984 116.119 77.136C117.954 78.3307 120.002 78.928 122.263 78.928C125.762 78.928 128.556 77.3707 130.647 74.256C132.738 71.1413 133.826 66.768 133.911 61.136C132.972 63.3547 131.458 65.1253 129.367 66.448C127.276 67.7707 124.887 68.432 122.199 68.432C120.023 68.432 117.975 68.048 116.055 67.28C114.135 66.4693 112.471 65.3813 111.063 64.016C109.655 62.6507 108.546 61.0293 107.735 59.152C106.924 57.2747 106.519 55.2693 106.519 53.136ZM122.711 42.32C121.218 42.32 119.81 42.6187 118.487 43.216C117.207 43.7707 116.076 44.5387 115.095 45.52C114.114 46.5013 113.324 47.6533 112.727 48.976C112.172 50.256 111.895 51.6427 111.895 53.136C111.895 54.6293 112.172 56.0373 112.727 57.36C113.324 58.64 114.114 59.7707 115.095 60.752C116.076 61.6907 117.207 62.4587 118.487 63.056C119.81 63.6107 121.218 63.888 122.711 63.888C124.204 63.888 125.591 63.6107 126.871 63.056C128.194 62.4587 129.346 61.6907 130.327 60.752C131.308 59.7707 132.076 58.64 132.631 57.36C133.228 56.0373 133.527 54.6293 133.527 53.136C133.527 51.6853 133.228 50.2987 132.631 48.976C132.076 47.6533 131.308 46.5013 130.327 45.52C129.346 44.5387 128.194 43.7707 126.871 43.216C125.548 42.6187 124.162 42.32 122.711 42.32Z" fill="white"/>
<defs>
<linearGradient id="paint0_linear" x1="558" y1="52" x2="-2.24364e-06" y2="51.9999" gradientUnits="userSpaceOnUse">
<stop offset="0.328125" stop-color="#DDF516"/>
<stop offset="1" stop-color="#64B663"/>
</linearGradient>
</defs>
</svg>
