<svg width="20" height="16" viewBox="0 0 20 16" fill="none" xmlns="http://www.w3.org/2000/svg">
<path d="M19.1298 8.84907C18.5499 8.12339 17.8087 7.65303 16.9058 7.4377C17.1907 7.00718 17.3328 6.52799 17.3328 6.00024C17.3328 5.26409 17.0723 4.63568 16.5517 4.11479C16.0309 3.59408 15.4025 3.33362 14.6663 3.33362C14.0066 3.33362 13.4303 3.54891 12.9373 3.9795C12.5278 2.97946 11.873 2.17742 10.9738 1.57334C10.0746 0.969085 9.08329 0.666992 7.99984 0.666992C6.52772 0.666992 5.27072 1.18796 4.22904 2.22963C3.1873 3.27105 2.66659 4.52812 2.66659 6.00035C2.66659 6.09061 2.67356 6.23995 2.68742 6.4482C1.86801 6.83016 1.2153 7.40304 0.729072 8.16685C0.243024 8.93087 0 9.76403 0 10.667C0 11.9518 0.456678 13.0505 1.36978 13.9637C2.28292 14.8771 3.38191 15.3336 4.6666 15.3336H16C17.104 15.3336 18.0467 14.9428 18.828 14.1617C19.6093 13.3806 20 12.438 20 11.3336C19.9999 10.403 19.7098 9.57497 19.1298 8.84907ZM13.2291 9.25011L9.57284 12.9066C9.51041 12.9689 9.43051 13.0003 9.33324 13.0003C9.23605 13.0003 9.15615 12.9689 9.09365 12.9066L5.42709 9.23986C5.36459 9.17743 5.3334 9.09753 5.3334 9.00026C5.3334 8.91 5.36623 8.83185 5.4322 8.76592C5.49831 8.69996 5.57627 8.66701 5.66654 8.66701H7.99988V5.00042C7.99988 4.91015 8.03289 4.832 8.09882 4.76593C8.16482 4.70008 8.2429 4.66713 8.33316 4.66713H10.3334C10.4238 4.66713 10.5015 4.69997 10.5678 4.76593C10.6337 4.832 10.6666 4.91015 10.6666 5.00042V8.66701H12.9999C13.0972 8.66701 13.1771 8.69821 13.2394 8.76063C13.3019 8.82306 13.3329 8.90296 13.3329 9.00023C13.3329 9.08392 13.2984 9.16693 13.2291 9.25011Z" fill="#828282"/>
</svg>
