<svg width="116" height="116" viewBox="0 0 116 116" fill="none" xmlns="http://www.w3.org/2000/svg">
<g clip-path="url(#clip0)">
<path d="M29.0009 54.8281H87C88.8718 54.8281 90.3984 53.3015 90.3984 51.4297C90.3984 50.0916 90.3984 48.6693 90.3984 47.3516C90.3984 45.4798 88.8718 43.9531 87 43.9531H29.0089C27.1415 43.9531 25.6166 45.4718 25.6104 47.3392C25.606 48.6658 25.6033 50.0889 25.6024 51.427C25.6007 53.2997 27.1282 54.8281 29.0009 54.8281Z" fill="#BDBDBD"/>
<path d="M40.4609 85.4282C38.5316 80.7713 38.5316 75.6099 40.4609 70.9521C42.1176 66.9519 44.9629 63.7234 48.7463 61.625H34.6641V95.728H35.6323C36.3925 93.9402 37.5005 92.318 38.8723 90.9463C39.8139 90.0055 40.8919 89.1869 42.076 88.5187C41.4547 87.5522 40.9131 86.5194 40.4609 85.4282Z" fill="#BDBDBD"/>
<path d="M75.532 70.9521C77.934 76.7516 77.3127 83.2484 73.9089 88.5311C75.0621 89.1931 76.1126 89.9975 77.0498 90.9135C78.4437 92.2782 79.5774 93.9146 80.3562 95.7404C80.3607 95.7359 80.3642 95.7315 80.3677 95.7271V95.728H81.3359V61.625H67.2466C71.03 63.7234 73.8744 66.9519 75.532 70.9521Z" fill="#BDBDBD"/>
<path d="M83.6016 30.8603V37.1562H90.3984V29.4531C90.3984 28.5044 90.009 27.6459 89.3816 27.0291L83.1723 20.8199C81.8448 19.4923 79.6934 19.4923 78.3667 20.8199C77.0392 22.1465 77.0392 24.2979 78.3667 25.6255L83.6016 30.8603Z" fill="#BDBDBD"/>
<path d="M25.2564 93.3552C22.4332 93.3552 19.5808 93.3535 16.7275 93.3517C13.8734 93.3499 11.0201 93.3481 8.19605 93.3481C6.00742 93.3481 3.948 94.2031 2.39658 95.7563C0.847815 97.3068 -0.00267936 99.3644 -2.432e-05 101.549L0.0114808 109.385C0.0132508 110.657 0.723914 111.821 1.85496 112.402C6.43134 114.756 11.5865 116 16.7629 116C21.9403 116 27.0954 114.756 31.6718 112.402C32.8029 111.821 33.5144 110.657 33.5162 109.385L33.5268 101.556C33.5303 99.3954 32.679 97.3519 31.1302 95.8014C29.5788 94.2464 27.4371 93.3552 25.2564 93.3552Z" fill="#BDBDBD"/>
<path d="M16.7603 90.3834C23.4828 90.3834 28.9531 84.9131 28.9531 78.1906C28.9531 71.4672 23.4828 65.9978 16.7603 65.9978C10.0369 65.9978 4.56665 71.4672 4.56665 78.1906C4.56665 84.9131 10.0369 90.3834 16.7603 90.3834Z" fill="#BDBDBD"/>
<path d="M74.747 37.1562C74.747 36.6208 74.7479 36.0863 74.7479 35.5508C74.7479 33.2755 73.8018 31.2231 72.2947 29.7487C70.7964 28.2823 68.7343 27.3725 66.4934 27.3716C66.3306 27.3716 49.6313 27.3645 49.426 27.3645C47.1684 27.3663 45.1249 28.2805 43.6505 29.754C42.1079 31.2966 41.2344 33.3631 41.2344 35.5464L41.2361 37.1562H74.747Z" fill="#BDBDBD"/>
<path d="M57.9947 24.3864C64.7172 24.3864 70.1875 18.9162 70.1875 12.1928C70.1875 5.47025 64.7172 0 57.9947 0C51.2713 0 45.801 5.47025 45.801 12.1928C45.801 18.9162 51.2713 24.3864 57.9947 24.3864Z" fill="#BDBDBD"/>
<path d="M113.603 95.8014C112.051 94.2473 109.91 93.3552 107.729 93.3552C104.906 93.3552 102.053 93.3535 99.2007 93.3517C96.3466 93.3499 93.4924 93.3481 90.6683 93.3481C88.4797 93.3481 86.4203 94.2031 84.8698 95.7563C83.321 97.3068 82.4696 99.3644 82.4732 101.549L82.4838 109.385C82.4855 110.656 83.1971 111.821 84.3281 112.402C88.9045 114.757 94.0597 116 99.237 116C104.413 116 109.569 114.756 114.145 112.402C115.276 111.821 115.988 110.657 115.989 109.385L116 101.556C116.003 99.3954 115.152 97.351 113.603 95.8014Z" fill="#BDBDBD"/>
<path d="M99.2326 90.3834C105.956 90.3834 111.426 84.9131 111.426 78.1906C111.426 71.4672 105.956 65.9978 99.2326 65.9978C92.5101 65.9978 87.0398 71.4672 87.0398 78.1906C87.0398 84.9131 92.5101 90.3834 99.2326 90.3834Z" fill="#BDBDBD"/>
<path d="M66.6094 93.3438C66.1563 93.3438 50.8598 93.3615 49.4252 93.3615C47.1684 93.365 45.1258 94.2792 43.6522 95.7519C42.161 97.2413 41.2362 99.2884 41.2362 101.537L41.2344 109.09C41.1618 110.385 41.8663 111.762 43.0929 112.394C45.3559 113.557 47.779 114.466 50.3243 115.08C52.8183 115.681 55.3892 116 58 116C60.6108 116 63.1826 115.681 65.6766 115.08C68.221 114.465 70.6441 113.557 72.9071 112.394L72.9053 112.39C73.9948 111.827 74.7391 110.691 74.7391 109.38L74.7639 101.544C74.7639 99.2786 73.8125 97.2272 72.2973 95.7457C70.7999 94.281 68.8493 93.3473 66.6094 93.3438Z" fill="#BDBDBD"/>
<path d="M70.1892 78.1906C70.1892 84.9246 64.7305 90.3834 57.9965 90.3834C51.2624 90.3834 45.8037 84.9246 45.8037 78.1906C45.8037 71.4565 51.2624 65.9978 57.9965 65.9978C64.7305 65.9978 70.1892 71.4565 70.1892 78.1906Z" fill="#BDBDBD"/>
</g>
<defs>
<clipPath id="clip0">
<rect width="116" height="116" fill="white"/>
</clipPath>
</defs>
</svg>
