<svg width="116" height="116" viewBox="0 0 116 116" fill="none" xmlns="http://www.w3.org/2000/svg">
<g clip-path="url(#clip0)">
<path d="M112.602 81.5625H109.203V64.5703V50.9766C109.203 50.3082 108.961 49.7216 108.629 49.1965C108.558 49.0845 108.501 48.9864 108.418 48.8836C108.032 48.4019 107.547 48.0254 106.957 47.8104C106.926 47.7992 106.911 47.7644 106.88 47.7539L40.407 25.7463C40.2867 26.3499 40.2903 26.9754 40.061 27.5559L33.4155 44.1718L102.406 67.0183V81.5625H99.0078C97.1294 81.5625 95.6094 83.0825 95.6094 84.9609V109.203H87.5567L75.7466 65.4464L42.7947 54.4629L27.9902 109.203H20.3906V98.7812C20.3906 96.9028 18.8706 95.3828 16.9922 95.3828H13.5938V61.1719H16.9922C18.3828 61.1719 19.6307 60.3257 20.1484 59.0345L31.9061 29.6405L0 42.4025V57.7734C0 59.6519 1.52001 61.1719 3.39844 61.1719H6.79688V95.3828H3.39844C1.52001 95.3828 0 96.9028 0 98.7812V112.602C0 114.48 1.52001 116 3.39844 116H16.9922H99.0078H112.602C114.48 116 116 114.48 116 112.602V84.9609C116 83.0825 114.48 81.5625 112.602 81.5625ZM76.8933 95.4818L62.4096 79.8798L70.3153 71.3629L76.8933 95.4818ZM64.1919 67.9688L57.7734 74.885L51.3549 67.9688H64.1919ZM45.2309 71.3627L53.1371 79.8798L38.6534 95.7088L45.2309 71.3627ZM35.6097 109.203L57.7734 84.8746L79.9371 109.203H35.6097Z" fill="#BDBDBD"/>
<path d="M30.5859 0H16.9921C16.4645 0 15.9434 0.122797 15.4721 0.358422L3.24408 6.47244L33.9843 18.7689V3.39844C33.9843 1.52001 32.4643 0 30.5859 0Z" fill="#BDBDBD"/>
<path d="M0 12.496V35.0811L28.2329 23.789L0 12.496Z" fill="#BDBDBD"/>
</g>
<defs>
<clipPath id="clip0">
<rect width="116" height="116" fill="white"/>
</clipPath>
</defs>
</svg>
