<svg width="16" height="16" viewBox="0 0 16 16" fill="none" xmlns="http://www.w3.org/2000/svg">
<path d="M2.02318 1.23612C1.79169 1.00479 1.51233 0.888916 1.18526 0.888916C0.858063 0.888916 0.578734 1.00489 0.347208 1.23612C0.115812 1.46765 0 1.74701 0 2.07418C0 2.51858 0.197441 2.85813 0.592549 3.09268V14.8149C0.592549 14.8952 0.621802 14.9646 0.680567 15.0233C0.73917 15.0819 0.808638 15.1111 0.888873 15.1111H1.48142C1.56166 15.1111 1.63109 15.0821 1.68973 15.0233C1.7484 14.9646 1.77768 14.8952 1.77768 14.8149V3.09268C2.17285 2.85801 2.37023 2.51855 2.37023 2.07418C2.37023 1.74711 2.25455 1.46778 2.02318 1.23612Z" fill="#333333"/>
<path d="M15.8242 2.25019C15.7068 2.13289 15.5679 2.07422 15.4074 2.07422C15.3272 2.07422 15.159 2.13898 14.9028 2.26868C14.6467 2.39837 14.375 2.54337 14.088 2.70384C13.8012 2.86434 13.4614 3.00931 13.0696 3.139C12.6776 3.26869 12.3149 3.33346 11.9817 3.33346C11.6729 3.33346 11.4014 3.27479 11.1666 3.15755C10.3889 2.79331 9.71319 2.52167 9.13897 2.34265C8.56494 2.16366 7.94771 2.07422 7.28718 2.07422C6.14515 2.07422 4.8458 2.44452 3.38906 3.18524C3.03092 3.36426 2.78713 3.49701 2.65751 3.5834C2.4661 3.72545 2.37036 3.8951 2.37036 4.09267V10.9629C2.37036 11.1234 2.42913 11.2625 2.54643 11.3796C2.66357 11.497 2.80257 11.5556 2.96307 11.5556C3.06179 11.5556 3.1635 11.5279 3.26854 11.4724C4.94757 10.5711 6.37966 10.1205 7.56486 10.1205C8.01542 10.1205 8.45522 10.1884 8.88409 10.3241C9.31312 10.4599 9.66964 10.6081 9.95354 10.7685C10.2377 10.929 10.5724 11.0773 10.9582 11.2131C11.3442 11.3486 11.7253 11.4166 12.1018 11.4166C13.0525 11.4166 14.1914 11.0587 15.5185 10.3425C15.6853 10.2562 15.807 10.1714 15.8842 10.088C15.9614 10.0047 16 9.88594 16 9.73144V2.66664C16 2.5062 15.9414 2.36743 15.8242 2.25019Z" fill="#333333"/>
</svg>
