<svg width="16" height="16" viewBox="0 0 16 16" fill="none" xmlns="http://www.w3.org/2000/svg">
<path d="M16 1.84119H14.0938V3.25278C14.0938 4.0169 13.4657 4.63367 12.6875 4.63367C11.9093 4.63367 11.2812 4.0169 11.2812 3.25278H12.2188C12.2188 3.51057 12.425 3.71307 12.6875 3.71307C12.95 3.71307 13.1562 3.51057 13.1562 3.25278V1.84119H12.2188V1.3809C12.2188 1.1231 12.425 0.920597 12.6875 0.920597C12.95 0.920597 13.1562 1.1231 13.1562 1.3809V1.84089H14.0938V1.3809C14.0938 0.616769 13.4657 0 12.6875 0C11.9093 0 11.2812 0.616769 11.2812 1.3809V1.84119H9.40625V3.25278C9.40625 4.0169 8.77816 4.63367 8 4.63367C7.22184 4.63367 6.59375 4.0169 6.59375 3.25278H7.53125C7.53125 3.51057 7.73747 3.71307 8 3.71307C8.26253 3.71307 8.46875 3.51057 8.46875 3.25278V1.84119H7.53125V1.3809C7.53125 1.1231 7.73747 0.920597 8 0.920597C8.26253 0.920597 8.46875 1.1231 8.46875 1.3809V1.84089H9.40625V1.3809C9.40625 0.616769 8.77816 0 8 0C7.22184 0 6.59375 0.616769 6.59375 1.3809V1.84119H4.71875V3.25278C4.71875 4.0169 4.09066 4.63367 3.3125 4.63367C2.53434 4.63367 1.90625 4.0169 1.90625 3.25278H2.84375C2.84375 3.51057 3.04997 3.71307 3.3125 3.71307C3.57503 3.71307 3.78125 3.51057 3.78125 3.25278V1.84119H2.84375V1.3809C2.84375 1.1231 3.04997 0.920597 3.3125 0.920597C3.57503 0.920597 3.78125 1.1231 3.78125 1.3809V1.84089H4.71875V1.3809C4.71875 0.616769 4.09066 0 3.3125 0C2.53434 0 1.90625 0.616769 1.90625 1.3809V1.84119H0V5.55427H16V1.84119Z" fill="#333333"/>
<path d="M7.53125 10.6177H5.65625V11.5391H7.53125V10.6177Z" fill="#333333"/>
<path d="M4.71875 10.6177H2.84375V11.5391H4.71875V10.6177Z" fill="#333333"/>
<path d="M7.53125 12.4587H5.65625V13.3802H7.53125V12.4587Z" fill="#333333"/>
<path d="M10.3438 10.6177H8.46875V11.5391H10.3438V10.6177Z" fill="#333333"/>
<path d="M4.71875 12.4587H2.84375V13.3802H4.71875V12.4587Z" fill="#333333"/>
<path d="M13.1562 8.77637H11.2812V9.69784H13.1562V8.77637Z" fill="#333333"/>
<path d="M16 6.47485H0V15.7115H16V6.47485ZM14.0938 12.4587H11.2812V14.2999H1.90625V9.69694H7.53125V7.85575H14.0938V12.4587Z" fill="#333333"/>
<path d="M10.3438 8.77637H8.46875V9.69784H10.3438V8.77637Z" fill="#333333"/>
<path d="M10.3438 12.4587H8.46875V13.3802H10.3438V12.4587Z" fill="#333333"/>
<path d="M13.1562 10.6177H11.2812V11.5391H13.1562V10.6177Z" fill="#333333"/>
</svg>
