<svg width="558" height="104" viewBox="0 0 558 104" fill="none" xmlns="http://www.w3.org/2000/svg">
<path d="M0 52C0 23.2812 23.2812 0 52 0H506C534.719 0 558 23.2812 558 52C558 80.7188 534.719 104 506 104H52C23.2812 104 0 80.7188 0 52Z" fill="url(#paint0_linear)"/>
<path d="M218.404 52.04C218.404 50.504 218.668 48.98 219.196 47.468C219.748 45.932 220.54 44.564 221.572 43.364C222.628 42.14 223.912 41.156 225.424 40.412C226.936 39.668 228.652 39.296 230.572 39.296C232.852 39.296 234.808 39.812 236.44 40.844C238.072 41.876 239.284 43.22 240.076 44.876L237.52 46.532C237.136 45.716 236.668 45.032 236.116 44.48C235.588 43.928 235 43.484 234.352 43.148C233.728 42.812 233.08 42.572 232.408 42.428C231.736 42.284 231.076 42.212 230.428 42.212C229.012 42.212 227.752 42.512 226.648 43.112C225.568 43.688 224.656 44.456 223.912 45.416C223.168 46.352 222.604 47.42 222.22 48.62C221.86 49.796 221.68 50.984 221.68 52.184C221.68 53.528 221.896 54.812 222.328 56.036C222.784 57.236 223.408 58.304 224.2 59.24C224.992 60.176 225.928 60.92 227.008 61.472C228.088 62.024 229.264 62.3 230.536 62.3C231.208 62.3 231.892 62.216 232.588 62.048C233.308 61.88 233.992 61.616 234.64 61.256C235.288 60.872 235.888 60.404 236.44 59.852C237.016 59.276 237.484 58.592 237.844 57.8L240.544 59.276C240.136 60.236 239.56 61.088 238.816 61.832C238.096 62.552 237.268 63.164 236.332 63.668C235.42 64.172 234.448 64.556 233.416 64.82C232.384 65.084 231.376 65.216 230.392 65.216C228.64 65.216 227.032 64.832 225.568 64.064C224.104 63.296 222.832 62.3 221.752 61.076C220.696 59.828 219.868 58.424 219.268 56.864C218.692 55.28 218.404 53.672 218.404 52.04ZM253.383 65.36C251.967 65.36 250.671 65.096 249.495 64.568C248.343 64.04 247.347 63.332 246.507 62.444C245.691 61.556 245.055 60.524 244.599 59.348C244.143 58.172 243.915 56.936 243.915 55.64C243.915 54.32 244.143 53.072 244.599 51.896C245.079 50.72 245.727 49.688 246.543 48.8C247.383 47.912 248.379 47.204 249.531 46.676C250.707 46.148 251.991 45.884 253.383 45.884C254.775 45.884 256.059 46.148 257.235 46.676C258.411 47.204 259.407 47.912 260.223 48.8C261.063 49.688 261.711 50.72 262.167 51.896C262.647 53.072 262.887 54.32 262.887 55.64C262.887 56.936 262.659 58.172 262.203 59.348C261.747 60.524 261.099 61.556 260.259 62.444C259.419 63.332 258.411 64.04 257.235 64.568C256.083 65.096 254.799 65.36 253.383 65.36ZM247.155 55.676C247.155 56.66 247.311 57.572 247.623 58.412C247.959 59.252 248.403 59.984 248.955 60.608C249.531 61.232 250.191 61.724 250.935 62.084C251.703 62.444 252.519 62.624 253.383 62.624C254.247 62.624 255.051 62.444 255.795 62.084C256.563 61.724 257.235 61.232 257.811 60.608C258.387 59.96 258.831 59.216 259.143 58.376C259.479 57.512 259.647 56.588 259.647 55.604C259.647 54.644 259.479 53.744 259.143 52.904C258.831 52.04 258.387 51.296 257.811 50.672C257.235 50.024 256.563 49.52 255.795 49.16C255.051 48.8 254.247 48.62 253.383 48.62C252.519 48.62 251.703 48.812 250.935 49.196C250.191 49.556 249.531 50.06 248.955 50.708C248.403 51.332 247.959 52.076 247.623 52.94C247.311 53.78 247.155 54.692 247.155 55.676ZM296.138 65H292.97V54.488C292.97 52.52 292.646 51.068 291.998 50.132C291.374 49.196 290.438 48.728 289.19 48.728C287.894 48.728 286.73 49.196 285.698 50.132C284.69 51.044 283.97 52.232 283.538 53.696V65H280.37V54.488C280.37 52.472 280.058 51.008 279.434 50.096C278.81 49.184 277.874 48.728 276.626 48.728C275.354 48.728 274.202 49.184 273.17 50.096C272.138 50.984 271.406 52.172 270.974 53.66V65H267.806V46.208H270.686V50.24C271.454 48.848 272.45 47.78 273.674 47.036C274.898 46.268 276.278 45.884 277.814 45.884C279.398 45.884 280.646 46.316 281.558 47.18C282.494 48.02 283.07 49.112 283.286 50.456C284.966 47.408 287.354 45.884 290.45 45.884C291.53 45.884 292.43 46.088 293.15 46.496C293.894 46.88 294.482 47.432 294.914 48.152C295.346 48.848 295.658 49.676 295.85 50.636C296.042 51.596 296.138 52.64 296.138 53.768V65ZM330.476 65H327.308V54.488C327.308 52.52 326.984 51.068 326.336 50.132C325.712 49.196 324.776 48.728 323.528 48.728C322.232 48.728 321.068 49.196 320.036 50.132C319.028 51.044 318.308 52.232 317.876 53.696V65H314.708V54.488C314.708 52.472 314.396 51.008 313.772 50.096C313.148 49.184 312.212 48.728 310.964 48.728C309.692 48.728 308.54 49.184 307.508 50.096C306.476 50.984 305.744 52.172 305.312 53.66V65H302.144V46.208H305.024V50.24C305.792 48.848 306.788 47.78 308.012 47.036C309.236 46.268 310.616 45.884 312.152 45.884C313.736 45.884 314.984 46.316 315.896 47.18C316.832 48.02 317.408 49.112 317.624 50.456C319.304 47.408 321.692 45.884 324.788 45.884C325.868 45.884 326.768 46.088 327.488 46.496C328.232 46.88 328.82 47.432 329.252 48.152C329.684 48.848 329.996 49.676 330.188 50.636C330.38 51.596 330.476 52.64 330.476 53.768V65ZM336.481 65V46.208H339.649V65H336.481ZM336.481 42.68V38.72H339.649V42.68H336.481ZM355.578 64.064C355.386 64.16 355.134 64.28 354.822 64.424C354.51 64.544 354.15 64.676 353.742 64.82C353.358 64.94 352.926 65.036 352.446 65.108C351.99 65.204 351.51 65.252 351.006 65.252C349.854 65.252 348.858 64.94 348.018 64.316C347.178 63.668 346.758 62.672 346.758 61.328V48.692H344.202V46.208H346.758V39.944H349.926V46.208H354.138V48.692H349.926V60.356C349.974 61.052 350.202 61.556 350.61 61.868C351.018 62.18 351.498 62.336 352.05 62.336C352.674 62.336 353.238 62.24 353.742 62.048C354.27 61.832 354.63 61.664 354.822 61.544L355.578 64.064ZM387.927 65H384.759V54.488C384.759 52.52 384.435 51.068 383.787 50.132C383.163 49.196 382.227 48.728 380.979 48.728C379.683 48.728 378.519 49.196 377.487 50.132C376.479 51.044 375.759 52.232 375.327 53.696V65H372.159V54.488C372.159 52.472 371.847 51.008 371.223 50.096C370.599 49.184 369.663 48.728 368.415 48.728C367.143 48.728 365.991 49.184 364.959 50.096C363.927 50.984 363.195 52.172 362.763 53.66V65H359.595V46.208H362.475V50.24C363.243 48.848 364.239 47.78 365.463 47.036C366.687 46.268 368.067 45.884 369.603 45.884C371.187 45.884 372.435 46.316 373.347 47.18C374.283 48.02 374.859 49.112 375.075 50.456C376.755 47.408 379.143 45.884 382.239 45.884C383.319 45.884 384.219 46.088 384.939 46.496C385.683 46.88 386.271 47.432 386.703 48.152C387.135 48.848 387.447 49.676 387.639 50.636C387.831 51.596 387.927 52.64 387.927 53.768V65ZM402.248 65.36C400.832 65.36 399.536 65.108 398.36 64.604C397.184 64.076 396.176 63.368 395.336 62.48C394.496 61.592 393.836 60.56 393.356 59.384C392.9 58.184 392.672 56.924 392.672 55.604C392.672 54.284 392.9 53.036 393.356 51.86C393.836 50.684 394.496 49.652 395.336 48.764C396.2 47.876 397.22 47.18 398.396 46.676C399.572 46.148 400.868 45.884 402.284 45.884C403.7 45.884 404.984 46.148 406.136 46.676C407.312 47.204 408.308 47.912 409.124 48.8C409.94 49.664 410.564 50.684 410.996 51.86C411.452 53.012 411.68 54.212 411.68 55.46C411.68 55.724 411.668 55.964 411.644 56.18C411.644 56.396 411.632 56.564 411.608 56.684H396.02C396.092 57.62 396.308 58.472 396.668 59.24C397.028 60.008 397.496 60.668 398.072 61.22C398.648 61.772 399.296 62.204 400.016 62.516C400.76 62.828 401.54 62.984 402.356 62.984C402.932 62.984 403.496 62.912 404.048 62.768C404.6 62.6 405.116 62.384 405.596 62.12C406.076 61.856 406.496 61.532 406.856 61.148C407.24 60.764 407.528 60.332 407.72 59.852L410.456 60.608C410.144 61.304 409.712 61.94 409.16 62.516C408.632 63.092 408.008 63.596 407.288 64.028C406.592 64.436 405.812 64.76 404.948 65C404.084 65.24 403.184 65.36 402.248 65.36ZM408.692 54.344C408.62 53.456 408.392 52.64 408.008 51.896C407.648 51.128 407.18 50.48 406.604 49.952C406.052 49.424 405.404 49.016 404.66 48.728C403.916 48.416 403.124 48.26 402.284 48.26C401.444 48.26 400.652 48.416 399.908 48.728C399.164 49.016 398.504 49.436 397.928 49.988C397.376 50.516 396.92 51.152 396.56 51.896C396.224 52.64 396.02 53.456 395.948 54.344H408.692ZM432.59 65H429.422V54.488C429.422 52.472 429.11 51.008 428.486 50.096C427.886 49.184 426.962 48.728 425.714 48.728C425.066 48.728 424.418 48.86 423.77 49.124C423.122 49.364 422.51 49.7 421.934 50.132C421.358 50.564 420.854 51.08 420.422 51.68C419.99 52.28 419.666 52.94 419.45 53.66V65H416.282V46.208H419.162V50.24C419.906 48.92 420.974 47.864 422.366 47.072C423.782 46.28 425.318 45.884 426.974 45.884C428.054 45.884 428.954 46.088 429.674 46.496C430.394 46.88 430.97 47.432 431.402 48.152C431.834 48.848 432.134 49.676 432.302 50.636C432.494 51.596 432.59 52.64 432.59 53.768V65ZM448.141 64.064C447.949 64.16 447.697 64.28 447.385 64.424C447.073 64.544 446.713 64.676 446.305 64.82C445.921 64.94 445.489 65.036 445.009 65.108C444.553 65.204 444.073 65.252 443.569 65.252C442.417 65.252 441.421 64.94 440.581 64.316C439.741 63.668 439.321 62.672 439.321 61.328V48.692H436.765V46.208H439.321V39.944H442.489V46.208H446.701V48.692H442.489V60.356C442.537 61.052 442.765 61.556 443.173 61.868C443.581 62.18 444.061 62.336 444.613 62.336C445.237 62.336 445.801 62.24 446.305 62.048C446.833 61.832 447.193 61.664 447.385 61.544L448.141 64.064ZM458.745 65.36C457.233 65.36 455.745 65.132 454.281 64.676C452.817 64.196 451.557 63.512 450.501 62.624L451.869 60.5C452.973 61.34 454.077 61.976 455.181 62.408C456.285 62.816 457.449 63.02 458.673 63.02C460.041 63.02 461.121 62.756 461.913 62.228C462.729 61.676 463.137 60.908 463.137 59.924C463.137 59.468 463.029 59.084 462.813 58.772C462.597 58.436 462.273 58.148 461.841 57.908C461.409 57.668 460.857 57.452 460.185 57.26C459.513 57.068 458.733 56.864 457.845 56.648C456.717 56.36 455.745 56.084 454.929 55.82C454.113 55.556 453.441 55.244 452.913 54.884C452.385 54.524 452.001 54.092 451.761 53.588C451.521 53.084 451.401 52.46 451.401 51.716C451.401 50.78 451.581 49.952 451.941 49.232C452.325 48.488 452.841 47.876 453.489 47.396C454.137 46.892 454.893 46.52 455.757 46.28C456.645 46.016 457.593 45.884 458.601 45.884C460.017 45.884 461.337 46.112 462.561 46.568C463.785 47.024 464.817 47.624 465.657 48.368L464.217 50.276C463.425 49.58 462.537 49.064 461.553 48.728C460.569 48.368 459.561 48.188 458.529 48.188C457.377 48.188 456.393 48.44 455.577 48.944C454.785 49.424 454.389 50.204 454.389 51.284C454.389 51.716 454.461 52.076 454.605 52.364C454.773 52.652 455.037 52.904 455.397 53.12C455.757 53.336 456.213 53.528 456.765 53.696C457.341 53.864 458.025 54.044 458.817 54.236C460.065 54.524 461.145 54.824 462.057 55.136C462.993 55.424 463.761 55.772 464.361 56.18C464.985 56.588 465.441 57.068 465.729 57.62C466.041 58.172 466.197 58.844 466.197 59.636C466.197 61.388 465.525 62.78 464.181 63.812C462.837 64.844 461.025 65.36 458.745 65.36Z" fill="black"/>
<rect width="181" height="104" rx="52" fill="#64B663"/>
<path d="M83.264 68.88V74H60.288V68.88H69.376V43.92C68.992 44.432 68.3947 44.9867 67.584 45.584C66.7733 46.1387 65.856 46.672 64.832 47.184C63.8507 47.6533 62.8267 48.0587 61.76 48.4C60.6933 48.7413 59.7547 48.912 58.944 48.912V43.536C59.8827 43.536 60.928 43.28 62.08 42.768C63.232 42.2133 64.32 41.5947 65.344 40.912C66.4107 40.1867 67.3067 39.504 68.032 38.864C68.8 38.1813 69.248 37.712 69.376 37.456H75.136V68.88H83.264ZM109.453 82.128V71.312H88.9085V66.32L111.245 37.456H115.085V66.192H120.717V71.312H115.085V82.128H109.453ZM94.7325 66.192H110.028V46.16L94.7325 66.192Z" fill="white"/>
<defs>
<linearGradient id="paint0_linear" x1="558" y1="52" x2="-2.24364e-06" y2="51.9999" gradientUnits="userSpaceOnUse">
<stop offset="0.328125" stop-color="#DDF516"/>
<stop offset="1" stop-color="#64B663"/>
</linearGradient>
</defs>
</svg>
