<svg width="100" height="16" viewBox="0 0 100 16" fill="none" xmlns="http://www.w3.org/2000/svg">
<g clip-path="url(#clip0)">
<path d="M10.4911 11.2617H2.51183L0 15.388H13.003L10.4911 11.2617Z" fill="#00468A"/>
<path d="M7.88472 10.6835L11.8729 4.12632L9.36401 0L2.86401 10.6835H7.88472Z" fill="#70A53A"/>
<path d="M9.71606 8.8309L13.7072 15.3881H18.7279L12.2279 4.70459L9.71606 8.8309Z" fill="#0083B2"/>
<path d="M20.9556 5.99854H23.6183C25.1893 5.99854 26.2011 6.76485 26.2011 8.07011V8.08696C26.2011 9.49046 25.0739 10.2091 23.5384 10.2091H22.6804V11.8933H20.9556V5.99854ZM23.494 8.92906C24.1065 8.92906 24.4792 8.6259 24.4792 8.16274V8.14029C24.4792 7.63503 24.1065 7.36555 23.4851 7.36555H22.6804V8.92345L23.494 8.92906Z" fill="#444242"/>
<path d="M27.9438 5.95642H29.6036L32.2485 11.8933H30.4024L29.9497 10.8406H27.5533L27.1095 11.8933H25.2988L27.9438 5.95642ZM29.4527 9.56905L28.7604 7.88484L28.0592 9.56905H29.4527Z" fill="#444242"/>
<path d="M31.9851 5.99854H34.9111C35.8608 5.99854 36.5176 6.23432 36.9348 6.63853C37.1216 6.81878 37.267 7.03383 37.3617 7.27009C37.4564 7.50636 37.4984 7.7587 37.4851 8.01117V8.02801C37.4992 8.41886 37.3834 8.80401 37.154 9.12894C36.9246 9.45388 36.5933 9.70212 36.207 9.83853L37.6863 11.8933H35.6981L34.4644 10.1052H33.71V11.8905H31.9881L31.9851 5.99854ZM34.8431 8.82801C35.4348 8.82801 35.7662 8.54731 35.7662 8.12906V8.11222C35.7662 7.64906 35.4111 7.41327 34.8342 7.41327H33.707V8.81678L34.8431 8.82801Z" fill="#444242"/>
<path d="M39.5534 7.43011H37.6895V5.99854H43.1421V7.43011H41.2782V11.8933H39.5563L39.5534 7.43011Z" fill="#444242"/>
<path d="M43.6007 5.99854H45.2072L47.7634 9.11432V5.99854H49.4675V11.8933H47.9587L45.2959 8.65959V11.8933H43.5918L43.6007 5.99854Z" fill="#444242"/>
<path d="M50.2366 5.99854H55.2366V7.40204H51.9407V8.28064H54.923V9.56906H51.9407V10.5038H55.278V11.9073H50.2484L50.2366 5.99854Z" fill="#444242"/>
<path d="M55.8225 5.99854H58.7604C59.7101 5.99854 60.3669 6.23432 60.784 6.63853C60.9708 6.81878 61.1162 7.03383 61.2109 7.27009C61.3056 7.50636 61.3477 7.7587 61.3343 8.01117V8.02801C61.3482 8.41844 61.2326 8.80315 61.0039 9.12796C60.7751 9.45276 60.4447 9.70129 60.0592 9.83853L61.5385 11.8933H59.5503L58.284 10.1052H57.5444V11.8905H55.8225V5.99854ZM58.6805 8.82801C59.2722 8.82801 59.6036 8.54731 59.6036 8.12906V8.11222C59.6036 7.64906 59.2485 7.41327 58.6716 7.41327H57.5444V8.81678L58.6805 8.82801Z" fill="#444242"/>
<path d="M61.3994 11.0176L62.358 9.93125C62.9237 10.3802 63.6354 10.6301 64.3728 10.6386C64.8343 10.6386 65.0828 10.487 65.0828 10.2344V10.2176C65.0828 9.97336 64.8787 9.83862 64.0355 9.65616C62.713 9.37546 61.6923 9.01616 61.6923 7.80353V7.78669C61.6923 6.69195 62.6065 5.90037 64.0976 5.90037C65.0204 5.86717 65.9258 6.14457 66.6539 6.68353L65.7929 7.83722C65.2881 7.48139 64.6817 7.27883 64.0533 7.25616C63.6361 7.25616 63.432 7.42458 63.432 7.63511V7.65195C63.432 7.93265 63.645 8.03932 64.5059 8.21336C65.9349 8.50809 66.8225 8.94599 66.8225 10.0491V10.066C66.8225 11.2702 65.8195 11.986 64.3107 11.986C63.248 12.0123 62.2121 11.6677 61.3994 11.0176Z" fill="#444242"/>
<path d="M67.4202 8.96279V8.94595C67.4202 7.35437 68.6391 5.89472 70.4912 5.89472C71.3252 5.86699 72.1387 6.14434 72.7634 6.66945L72.4675 6.99788C71.9261 6.52165 71.2084 6.26744 70.4705 6.29051C68.9616 6.29051 67.9054 7.50314 67.9054 8.9263V8.94314C67.9054 10.4673 68.9083 11.6042 70.5681 11.6042C71.2892 11.5984 71.9869 11.3609 72.5474 10.9305V9.2463H70.4764V8.83647H72.9971V11.1102C72.3221 11.6739 71.4555 11.9879 70.5563 11.9944C68.5829 11.9944 67.4202 10.6217 67.4202 8.96279Z" fill="#444242"/>
<path d="M73.7869 5.99854H74.2602V11.4919H77.9082V11.8961H73.7869V5.99854Z" fill="#444242"/>
<path d="M77.4261 8.96286V8.94602C77.4142 8.54865 77.4866 8.15306 77.6389 7.78275C77.7913 7.41244 78.0206 7.07495 78.3131 6.79034C78.6056 6.50573 78.9555 6.2798 79.3418 6.12595C79.7282 5.97211 80.1432 5.8935 80.5622 5.89479C82.4438 5.89479 83.6775 7.31795 83.6775 8.92637V8.94321C83.689 9.34012 83.6164 9.73517 83.464 10.105C83.3117 10.4748 83.0826 10.8118 82.7904 11.0961C82.4983 11.3803 82.1489 11.6061 81.7631 11.7599C81.3773 11.9137 80.9629 11.9925 80.5444 11.9916C78.6627 11.9944 77.4261 10.5713 77.4261 8.96286ZM83.1983 8.96286V8.94602C83.1983 7.48918 82.0799 6.29339 80.5355 6.29339C78.9911 6.29339 77.8994 7.47234 77.8994 8.92918V8.94602C77.8994 10.4029 79.0178 11.5987 80.5622 11.5987C82.1065 11.5987 83.1983 10.4197 83.1983 8.96286Z" fill="#444242"/>
<path d="M84.2041 5.99858H86.7692C87.3589 5.96566 87.9387 6.15307 88.3846 6.52068C88.5137 6.64142 88.6157 6.78577 88.6844 6.94499C88.753 7.10421 88.7869 7.27499 88.784 7.447V7.46384C88.7883 7.77399 88.6882 8.07736 88.4983 8.3298C88.3083 8.58224 88.0384 8.77056 87.7278 8.86735C88.4733 9.05261 89.1301 9.45682 89.1301 10.2709V10.2877C89.1301 11.273 88.2426 11.8961 86.9023 11.8961H84.2041V5.99858ZM88.3136 7.4891C88.3136 6.84068 87.7544 6.40279 86.7603 6.40279H84.6656V8.71858H86.7159C87.6479 8.71858 88.3136 8.2891 88.3136 7.50595V7.4891ZM86.7692 9.12279H84.6656V11.4891H86.9201C87.9852 11.4891 88.6597 11.0259 88.6597 10.2849V10.2681C88.6597 9.54384 87.994 9.12279 86.7692 9.12279Z" fill="#444242"/>
<path d="M92.1066 5.95642H92.5504L95.4439 11.8961H94.938L94.148 10.2455H90.4824L89.6924 11.8961H89.2131L92.1066 5.95642ZM93.9528 9.84695L92.3078 6.43642L90.6658 9.84695H93.9528Z" fill="#444242"/>
<path d="M95.8906 5.99854H96.3522V11.4919H100V11.8961H95.8906V5.99854Z" fill="#444242"/>
<path d="M21.8579 12.9488H20.9348L20.9851 12.7776H23.0236L22.9733 12.9488H22.0532L21.3934 15.2843H21.1981L21.8579 12.9488Z" fill="#444242"/>
<path d="M24.432 14.2231C24.426 14.516 24.2997 14.795 24.0799 15.0007C23.8711 15.204 23.5862 15.3211 23.287 15.3263C23.1732 15.3315 23.0594 15.3141 22.953 15.2752C22.8467 15.2363 22.75 15.1767 22.6693 15.1004C22.5885 15.024 22.5254 14.9326 22.4841 14.8318C22.4427 14.731 22.424 14.6231 22.429 14.5151C22.4358 14.2232 22.5621 13.9453 22.7811 13.7403C22.9897 13.5367 23.2748 13.4196 23.574 13.4147C23.6876 13.4096 23.8011 13.4269 23.9073 13.4656C24.0134 13.5043 24.1099 13.5636 24.1906 13.6397C24.2713 13.7157 24.3345 13.8068 24.376 13.9073C24.4176 14.0077 24.4366 14.1153 24.432 14.2231ZM23.929 14.8996C24.1168 14.7216 24.2231 14.4806 24.2249 14.2287C24.2323 14.1422 24.22 14.0551 24.1887 13.9734C24.1574 13.8918 24.1079 13.8175 24.0436 13.7556C23.9793 13.6938 23.9016 13.6459 23.816 13.6151C23.7304 13.5844 23.6387 13.5716 23.5474 13.5775C23.4303 13.5798 23.3149 13.6041 23.2078 13.6489C23.1006 13.6937 23.0039 13.7581 22.9231 13.8386C22.7353 14.0166 22.629 14.2576 22.6273 14.5094C22.6202 14.5961 22.6329 14.6831 22.6646 14.7646C22.6963 14.8461 22.7461 14.9202 22.8107 14.9818C22.8753 15.0433 22.9532 15.0909 23.0389 15.1213C23.1247 15.1517 23.2164 15.1642 23.3077 15.1579C23.5427 15.1532 23.7661 15.0603 23.929 14.8996Z" fill="#444242"/>
<path d="M24.4941 15.5256L24.6302 15.3964C24.8387 15.5909 25.1189 15.7007 25.4113 15.7024C25.5193 15.707 25.6272 15.6912 25.7287 15.656C25.8303 15.6209 25.9235 15.567 26.003 15.4975C26.1337 15.3622 26.2245 15.1967 26.2663 15.0175L26.3344 14.7873C26.2378 14.8986 26.1175 14.9891 25.9813 15.053C25.8451 15.1169 25.6962 15.1526 25.5444 15.1578C25.4419 15.1635 25.3392 15.1495 25.2426 15.1165C25.1459 15.0835 25.0573 15.0323 24.9821 14.9659C24.9069 14.8995 24.8467 14.8194 24.805 14.7303C24.7633 14.6413 24.7411 14.5451 24.7397 14.4477C24.7392 14.315 24.7666 14.1835 24.8205 14.0611C24.8743 13.9386 24.9535 13.8276 25.0533 13.7347C25.2598 13.5383 25.5391 13.4265 25.8314 13.4231C25.9955 13.4166 26.1573 13.4607 26.2928 13.5487C26.4282 13.6368 26.53 13.7641 26.5829 13.9115L26.7072 13.468H26.8935L26.4438 15.0708C26.3981 15.2741 26.2959 15.4621 26.148 15.6154C26.0509 15.7048 25.9353 15.7742 25.8085 15.8192C25.6817 15.8641 25.5464 15.8836 25.4113 15.8764C25.0698 15.8736 24.7422 15.7482 24.4941 15.5256ZM26.2397 14.7115C26.3982 14.5693 26.4917 14.3738 26.5001 14.167C26.4971 14.0861 26.477 14.0066 26.4411 13.9332C26.4052 13.8598 26.3542 13.7939 26.2911 13.7395C26.2279 13.6851 26.1539 13.6432 26.0735 13.6163C25.993 13.5895 25.9077 13.5782 25.8225 13.5831C25.5871 13.5831 25.3614 13.6718 25.1949 13.8298C25.0285 13.9877 24.935 14.2019 24.935 14.4252C24.9347 14.5029 24.9514 14.5797 24.9841 14.651C25.0167 14.7222 25.0646 14.7862 25.1247 14.839C25.1847 14.8917 25.2557 14.9321 25.333 14.9575C25.4104 14.9829 25.4924 14.9928 25.574 14.9866C25.8256 14.9822 26.065 14.8833 26.2397 14.7115Z" fill="#444242"/>
<path d="M27.3431 14.4309C27.3395 14.4711 27.3395 14.5115 27.3431 14.5516C27.3361 14.6322 27.3475 14.7133 27.3765 14.7893C27.4056 14.8653 27.4516 14.9345 27.5115 14.9921C27.5713 15.0496 27.6435 15.0943 27.7232 15.1229C27.8029 15.1515 27.8882 15.1635 27.9733 15.158C28.2169 15.1587 28.4518 15.0714 28.6301 14.9138L28.7395 15.0401C28.5309 15.2225 28.257 15.3228 27.9733 15.3208C27.8641 15.327 27.7548 15.3117 27.6522 15.2758C27.5496 15.2398 27.456 15.1841 27.3772 15.1121C27.2985 15.04 27.2365 14.9533 27.1949 14.8573C27.1534 14.7613 27.1333 14.6582 27.136 14.5545C27.1398 14.2384 27.2736 13.9362 27.5088 13.7123C27.6043 13.617 27.719 13.5406 27.8459 13.4876C27.9729 13.4346 28.1097 13.406 28.2484 13.4036C28.3462 13.3982 28.4442 13.4126 28.5356 13.4459C28.6271 13.4792 28.7101 13.5307 28.779 13.5968C28.8478 13.663 28.9011 13.7423 28.9351 13.8295C28.9691 13.9167 28.9831 14.0098 28.9762 14.1025C28.9777 14.2113 28.9597 14.3195 28.923 14.4225L27.3431 14.4309ZM27.3756 14.2738H28.7721C28.7827 14.2239 28.7877 14.1731 28.7869 14.1222C28.7969 14.05 28.7901 13.9767 28.767 13.9073C28.7439 13.8379 28.705 13.7742 28.6531 13.7206C28.6012 13.6671 28.5375 13.625 28.4665 13.5974C28.3956 13.5698 28.3191 13.5573 28.2425 13.5608C28.1317 13.5622 28.0223 13.5845 27.9207 13.6264C27.8191 13.6683 27.7274 13.729 27.6508 13.805C27.5166 13.9351 27.4215 14.097 27.3756 14.2738Z" fill="#444242"/>
<path d="M29.426 14.9559C29.4275 14.8963 29.4354 14.837 29.4497 14.779L29.7781 13.6169H29.497L29.5414 13.4541H29.8195L29.9852 12.8702H30.1775L30.0118 13.4541H30.6775L30.6331 13.6169H29.9674L29.639 14.7818C29.6278 14.8326 29.6218 14.8843 29.6213 14.9362C29.6213 15.0878 29.7426 15.1552 29.9349 15.1552C30.0304 15.1527 30.1247 15.1337 30.213 15.099L30.1627 15.2702C30.0762 15.3032 29.9837 15.3194 29.8905 15.318C29.6302 15.3152 29.426 15.2057 29.426 14.9559Z" fill="#444242"/>
<path d="M31.4025 12.6681H31.5888L31.2664 13.7909C31.3479 13.6778 31.4562 13.5844 31.5826 13.5181C31.7089 13.4519 31.8499 13.4145 31.9942 13.4091C32.0768 13.404 32.1597 13.4153 32.2374 13.4425C32.3152 13.4696 32.386 13.512 32.4454 13.5667C32.5048 13.6215 32.5515 13.6875 32.5823 13.7604C32.6131 13.8334 32.6274 13.9117 32.6244 13.9902C32.6212 14.0775 32.6073 14.1642 32.5829 14.2484L32.2871 15.2814H32.1007L32.3965 14.2344C32.4158 14.16 32.4257 14.0837 32.4261 14.007C32.4283 13.9481 32.4175 13.8894 32.3943 13.8348C32.3711 13.7801 32.336 13.7306 32.2914 13.6896C32.2468 13.6486 32.1936 13.617 32.1352 13.5967C32.0769 13.5764 32.0147 13.568 31.9528 13.5719C31.7605 13.592 31.5796 13.6685 31.4353 13.7908C31.291 13.9131 31.1906 14.075 31.148 14.2541L30.8522 15.287H30.6658L31.4025 12.6681Z" fill="#444242"/>
<path d="M33.2249 14.4309C33.2213 14.4711 33.2213 14.5115 33.2249 14.5516C33.2179 14.6322 33.2293 14.7133 33.2584 14.7893C33.2874 14.8653 33.3335 14.9345 33.3933 14.9921C33.4531 15.0496 33.5254 15.0943 33.6051 15.1229C33.6848 15.1515 33.7701 15.1635 33.8551 15.158C34.0988 15.1587 34.3336 15.0714 34.5119 14.9138L34.6214 15.0401C34.4127 15.2225 34.1388 15.3228 33.8551 15.3208C33.7459 15.327 33.6366 15.3117 33.534 15.2758C33.4314 15.2398 33.3378 15.1841 33.2591 15.1121C33.1804 15.04 33.1183 14.9533 33.0768 14.8573C33.0352 14.7613 33.0152 14.6582 33.0178 14.5545C33.0216 14.2384 33.1554 13.9362 33.3906 13.7123C33.4862 13.617 33.6008 13.5406 33.7278 13.4876C33.8547 13.4346 33.9915 13.406 34.1302 13.4036C34.2281 13.3982 34.326 13.4126 34.4175 13.4459C34.509 13.4792 34.5919 13.5307 34.6608 13.5968C34.7297 13.663 34.7829 13.7423 34.8169 13.8295C34.8509 13.9167 34.8649 14.0098 34.858 14.1025C34.8595 14.2113 34.8415 14.3195 34.8048 14.4225L33.2249 14.4309ZM33.2575 14.2738H34.6539C34.6646 14.2239 34.6695 14.1731 34.6687 14.1222C34.6788 14.05 34.672 13.9767 34.6489 13.9073C34.6258 13.8379 34.5869 13.7742 34.5349 13.7206C34.483 13.6671 34.4193 13.625 34.3484 13.5974C34.2774 13.5698 34.2009 13.5573 34.1243 13.5608C34.0135 13.5622 33.9042 13.5845 33.8026 13.6264C33.701 13.6683 33.6092 13.729 33.5326 13.805C33.3995 13.9354 33.3055 14.0973 33.2604 14.2738H33.2575Z" fill="#444242"/>
<path d="M35.6006 13.4569H35.7988L35.6539 13.9762C35.7525 13.8089 35.8957 13.669 36.0691 13.5705C36.2424 13.472 36.44 13.4183 36.642 13.4148L36.5888 13.6085H36.574C36.313 13.6259 36.0655 13.7249 35.8701 13.89C35.6747 14.055 35.5425 14.2768 35.4941 14.5208L35.284 15.2702H35.0977L35.6006 13.4569Z" fill="#444242"/>
<path d="M38.2248 13.6168H37.9467L37.9911 13.454H38.2692L38.3461 13.1901C38.3773 13.0499 38.449 12.9206 38.5532 12.8168C38.6068 12.7665 38.6707 12.7271 38.7409 12.701C38.8111 12.6749 38.8862 12.6628 38.9615 12.6652C39.0952 12.6645 39.2272 12.6943 39.3461 12.7522L39.3018 12.9094C39.1954 12.8545 39.0767 12.8246 38.9556 12.8224C38.7544 12.8224 38.5976 12.9431 38.5207 13.2266L38.4556 13.4512H39.1509L39.1065 13.614H38.4112L37.9379 15.2814H37.7515L38.2248 13.6168Z" fill="#444242"/>
<path d="M41.0296 14.2231C41.0237 14.516 40.8973 14.795 40.6776 15.0007C40.469 15.2043 40.1839 15.3214 39.8847 15.3263C39.7708 15.3315 39.6571 15.3141 39.5507 15.2752C39.4443 15.2363 39.3477 15.1767 39.2669 15.1004C39.1862 15.024 39.1231 14.9326 39.0817 14.8318C39.0404 14.731 39.0216 14.6231 39.0267 14.5151C39.0327 14.2222 39.159 13.9432 39.3788 13.7375C39.5874 13.5339 39.8724 13.4168 40.1717 13.4119C40.2855 13.4067 40.3993 13.4241 40.5057 13.463C40.612 13.5019 40.7087 13.5615 40.7894 13.6378C40.8702 13.7141 40.9332 13.8056 40.9746 13.9064C41.016 14.0072 41.0347 14.1151 41.0296 14.2231ZM40.5326 14.8996C40.7204 14.7216 40.8267 14.4806 40.8285 14.2287C40.8359 14.1422 40.8236 14.0551 40.7923 13.9734C40.761 13.8918 40.7115 13.8175 40.6472 13.7557C40.5829 13.6938 40.5052 13.6459 40.4196 13.6152C40.3339 13.5844 40.2423 13.5716 40.151 13.5775C40.0339 13.5798 39.9185 13.6041 39.8113 13.6489C39.7042 13.6937 39.6075 13.7581 39.5267 13.8386C39.3386 14.0164 39.2323 14.2575 39.2308 14.5094C39.2239 14.5956 39.2365 14.6821 39.2678 14.7632C39.2991 14.8443 39.3484 14.9181 39.4123 14.9795C39.4763 15.041 39.5534 15.0887 39.6385 15.1195C39.7235 15.1503 39.8145 15.1633 39.9054 15.1579C40.0227 15.1563 40.1386 15.1327 40.2463 15.0883C40.3539 15.044 40.4512 14.9799 40.5326 14.8996Z" fill="#444242"/>
<path d="M41.7958 13.4569H41.9822L41.8372 13.9762C41.9359 13.8089 42.0791 13.669 42.2524 13.5705C42.4258 13.472 42.6233 13.4183 42.8254 13.4148L42.7721 13.6085H42.7573C42.4964 13.6259 42.2489 13.7249 42.0535 13.89C41.8581 14.055 41.7259 14.2768 41.6775 14.5208L41.4674 15.2702H41.281L41.7958 13.4569Z" fill="#444242"/>
<path d="M44.5858 12.7747H45.1775C45.5529 12.7559 45.9212 12.8768 46.2041 13.1116C46.3025 13.2053 46.3795 13.3172 46.4304 13.4403C46.4813 13.5635 46.505 13.6952 46.5 13.8274C46.5034 14.0071 46.4687 14.1857 46.3981 14.3525C46.3274 14.5193 46.2223 14.671 46.0887 14.7986C45.7245 15.1213 45.2408 15.2948 44.7426 15.2814H43.8757L44.5858 12.7747ZM45.1775 12.946H44.7337L44.1213 15.1102H44.7663C44.9838 15.1178 45.2008 15.0837 45.4041 15.0099C45.6075 14.9361 45.793 14.8241 45.9497 14.6807C46.0654 14.5701 46.1564 14.4385 46.2174 14.2939C46.2784 14.1492 46.3081 13.9944 46.3047 13.8386C46.31 13.7261 46.2909 13.6138 46.2486 13.5085C46.2064 13.4033 46.1419 13.3074 46.0592 13.2267C45.9374 13.1269 45.796 13.0509 45.6432 13.0032C45.4903 12.9555 45.3291 12.937 45.1686 12.9488L45.1775 12.946Z" fill="#444242"/>
<path d="M47.0119 14.4309C47.0083 14.4711 47.0083 14.5115 47.0119 14.5516C47.005 14.6315 47.0162 14.7118 47.0447 14.7872C47.0733 14.8626 47.1185 14.9313 47.1774 14.9887C47.2362 15.0461 47.3073 15.0909 47.386 15.1201C47.4646 15.1493 47.5489 15.1622 47.6332 15.158C47.8769 15.1587 48.1117 15.0714 48.29 14.9138L48.3994 15.0401C48.1908 15.2225 47.9169 15.3228 47.6332 15.3208C47.524 15.327 47.4147 15.3117 47.3121 15.2758C47.2095 15.2398 47.1159 15.1841 47.0372 15.1121C46.9585 15.04 46.8964 14.9533 46.8548 14.8573C46.8133 14.7613 46.7932 14.6582 46.7959 14.5545C46.7997 14.2384 46.9335 13.9362 47.1687 13.7123C47.2642 13.6168 47.3787 13.5404 47.5057 13.4873C47.6327 13.4343 47.7696 13.4059 47.9083 13.4036C48.0061 13.3982 48.1041 13.4126 48.1956 13.4459C48.2871 13.4792 48.37 13.5307 48.4389 13.5968C48.5078 13.663 48.561 13.7423 48.595 13.8295C48.629 13.9167 48.643 14.0098 48.6361 14.1025C48.6376 14.2113 48.6196 14.3195 48.5829 14.4225L47.0119 14.4309ZM47.0474 14.2738H48.4438C48.4545 14.2239 48.4594 14.1731 48.4586 14.1222C48.4687 14.05 48.4619 13.9767 48.4388 13.9073C48.4157 13.8379 48.3768 13.7742 48.3248 13.7206C48.2729 13.6671 48.2092 13.625 48.1383 13.5974C48.0673 13.5698 47.9908 13.5573 47.9142 13.5608C47.8034 13.562 47.694 13.5842 47.5924 13.6262C47.4908 13.6681 47.399 13.7289 47.3225 13.805C47.1859 13.9343 47.0888 14.0963 47.0415 14.2738H47.0474Z" fill="#444242"/>
<path d="M49.3846 13.4568H49.571L49.4763 13.7965C49.5511 13.6849 49.653 13.5919 49.7734 13.5255C49.8939 13.4591 50.0295 13.4211 50.1687 13.4147C50.3038 13.4106 50.4358 13.4538 50.5394 13.5361C50.6431 13.6184 50.7112 13.7341 50.7308 13.861C50.8109 13.7248 50.9281 13.6114 51.0702 13.5329C51.2123 13.4544 51.374 13.4136 51.5385 13.4147C51.618 13.4147 51.6966 13.4298 51.7698 13.4592C51.843 13.4887 51.9092 13.5318 51.9644 13.586C52.0196 13.6402 52.0627 13.7045 52.0912 13.7749C52.1197 13.8453 52.133 13.9204 52.1302 13.9957C52.1241 14.0834 52.1072 14.1701 52.0799 14.254L51.784 15.287H51.5976L51.8935 14.24C51.9125 14.1655 51.9224 14.0892 51.9231 14.0126C51.9282 13.9552 51.9203 13.8974 51.9001 13.8431C51.8799 13.7887 51.8477 13.7391 51.8058 13.6974C51.7638 13.6558 51.713 13.6231 51.6567 13.6014C51.6005 13.5798 51.54 13.5697 51.4793 13.5719C51.2933 13.5974 51.1201 13.6765 50.983 13.7985C50.846 13.9205 50.7517 14.0795 50.713 14.254L50.4172 15.287H50.2308L50.5266 14.24C50.5459 14.1655 50.5559 14.0892 50.5562 14.0126C50.5615 13.9539 50.5533 13.8949 50.5323 13.8395C50.5112 13.7841 50.4777 13.7338 50.4341 13.6919C50.3905 13.65 50.3378 13.6176 50.2797 13.5968C50.2217 13.5761 50.1595 13.5676 50.0976 13.5719C49.9116 13.5974 49.7384 13.6765 49.6013 13.7985C49.4643 13.9205 49.3701 14.0795 49.3314 14.254L49.0355 15.287H48.8491L49.3846 13.4568Z" fill="#444242"/>
<path d="M54.5238 14.2231C54.5178 14.516 54.3915 14.795 54.1717 15.0007C53.9629 15.204 53.678 15.3211 53.3788 15.3263C53.2649 15.3315 53.1512 15.3141 53.0448 15.2752C52.9384 15.2363 52.8418 15.1767 52.7611 15.1004C52.6803 15.024 52.6172 14.9326 52.5759 14.8318C52.5345 14.731 52.5158 14.6231 52.5208 14.5151C52.5268 14.2222 52.6532 13.9432 52.8729 13.7375C53.0815 13.5339 53.3665 13.4168 53.6658 13.4119C53.7797 13.4067 53.8934 13.4241 53.9998 13.463C54.1062 13.5019 54.2028 13.5615 54.2836 13.6378C54.3643 13.7141 54.4274 13.8056 54.4687 13.9064C54.5101 14.0072 54.5289 14.1151 54.5238 14.2231ZM54.0208 14.8996C54.2086 14.7216 54.3149 14.4806 54.3167 14.2287C54.3241 14.1422 54.3118 14.0551 54.2805 13.9734C54.2492 13.8918 54.1997 13.8175 54.1354 13.7557C54.0711 13.6938 53.9934 13.6459 53.9078 13.6152C53.8222 13.5844 53.7305 13.5716 53.6392 13.5775C53.5221 13.5798 53.4067 13.6041 53.2996 13.6489C53.1924 13.6937 53.0957 13.7581 53.0149 13.8386C52.8271 14.0166 52.7208 14.2576 52.7191 14.5094C52.712 14.5961 52.7247 14.6831 52.7564 14.7646C52.7881 14.8461 52.8379 14.9202 52.9025 14.9818C52.9671 15.0433 53.045 15.0909 53.1307 15.1213C53.2165 15.1517 53.3082 15.1642 53.3995 15.1579C53.5164 15.1559 53.6317 15.1321 53.7388 15.0878C53.8459 15.0435 53.9428 14.9795 54.0238 14.8996H54.0208Z" fill="#444242"/>
<path d="M54.8727 14.5404C54.8757 14.2376 55.0043 13.9481 55.2307 13.7347C55.4347 13.536 55.7134 13.4219 56.0058 13.4176C56.1632 13.4133 56.3184 13.4527 56.4524 13.531C56.5865 13.6093 56.6935 13.723 56.7603 13.8583L56.6064 13.9397C56.5517 13.8301 56.4648 13.738 56.3561 13.6742C56.2475 13.6105 56.1217 13.5779 55.994 13.5804C55.7611 13.5865 55.5401 13.6792 55.3786 13.8386C55.1893 14.0236 55.0832 14.2712 55.0828 14.5291C55.0778 14.6122 55.0911 14.6954 55.1218 14.7734C55.1525 14.8514 55.2 14.9224 55.2612 14.9821C55.3224 15.0417 55.396 15.0887 55.4773 15.1199C55.5587 15.1511 55.646 15.166 55.7337 15.1635C55.8507 15.1612 55.9661 15.137 56.0733 15.0922C56.1804 15.0474 56.2772 14.9829 56.3579 14.9025L56.4822 15.0175C56.384 15.1146 56.2665 15.1921 56.1365 15.2456C56.0065 15.2991 55.8665 15.3275 55.7248 15.3291C55.6133 15.3337 55.5021 15.3167 55.3979 15.2789C55.2937 15.2412 55.1987 15.1836 55.1189 15.1096C55.039 15.0357 54.976 14.9471 54.9337 14.8492C54.8913 14.7513 54.8706 14.6462 54.8727 14.5404Z" fill="#444242"/>
<path d="M57.3788 13.4569H57.5652L57.4202 13.9762C57.5191 13.8085 57.6627 13.6683 57.8367 13.5698C58.0106 13.4713 58.2088 13.4178 58.4113 13.4148L58.3581 13.6085H58.3433C58.0823 13.6259 57.8348 13.7249 57.6394 13.89C57.444 14.055 57.3118 14.2768 57.2634 14.5208L57.0533 15.2702H56.8669L57.3788 13.4569Z" fill="#444242"/>
<path d="M58.2574 14.8155C58.2559 14.7348 58.2717 14.6547 58.3037 14.5799C58.3357 14.5051 58.3834 14.4373 58.4438 14.3804C58.6307 14.2212 58.8764 14.1385 59.1272 14.1503C59.3775 14.1545 59.6261 14.1894 59.8669 14.2541L59.8817 14.2036C59.8976 14.1439 59.9065 14.0827 59.9083 14.0211C59.9083 13.7404 59.7042 13.5917 59.3166 13.5917C59.1255 13.5924 58.9361 13.6257 58.7574 13.6899L58.7219 13.5327C58.9166 13.4628 59.1232 13.4276 59.3314 13.4289C59.8018 13.4289 60.0799 13.6478 60.0799 13.9903C60.0771 14.0719 60.0642 14.1529 60.0414 14.2317L59.7456 15.2787H59.5651L59.6509 14.9643C59.559 15.0764 59.4415 15.1673 59.3073 15.23C59.173 15.2927 59.0254 15.3257 58.8758 15.3264C58.7995 15.3329 58.7226 15.3247 58.6497 15.3023C58.5769 15.28 58.5095 15.2438 58.4518 15.1961C58.394 15.1484 58.347 15.09 58.3136 15.0246C58.2802 14.9593 58.2611 14.8881 58.2574 14.8155ZM59.784 14.5573L59.8284 14.3973C59.5905 14.3403 59.346 14.3111 59.1006 14.3103C58.9138 14.3012 58.7308 14.3628 58.5917 14.4815C58.5481 14.522 58.5135 14.5705 58.4901 14.6241C58.4667 14.6776 58.455 14.7351 58.4556 14.7931C58.4556 15.0204 58.6361 15.1664 58.9231 15.1664C59.116 15.164 59.3031 15.1039 59.4578 14.9944C59.6124 14.885 59.7266 14.732 59.784 14.5573Z" fill="#444242"/>
<path d="M60.5681 14.9559C60.5695 14.8963 60.5775 14.837 60.5918 14.779L60.9202 13.6169H60.651L60.6953 13.4541H60.9734L61.1391 12.8702H61.3255L61.1598 13.4541H61.8255L61.7811 13.6169H61.1155L60.7871 14.7818C60.7756 14.8326 60.7697 14.8843 60.7693 14.9362C60.7693 15.0878 60.8906 15.1552 61.0829 15.1552C61.1795 15.1531 61.2747 15.134 61.364 15.099L61.3137 15.2702C61.2272 15.3032 61.1347 15.3194 61.0415 15.318C60.7723 15.3152 60.5681 15.2057 60.5681 14.9559Z" fill="#444242"/>
<path d="M62.349 13.4569H62.5325L62.0147 15.2842H61.8342L62.349 13.4569ZM62.5295 12.7411H62.7603L62.6922 12.9825H62.4614L62.5295 12.7411Z" fill="#444242"/>
<path d="M62.8047 14.5404C62.8076 14.2376 62.9363 13.9481 63.1626 13.7347C63.3667 13.536 63.6454 13.4219 63.9378 13.4176C64.0951 13.4133 64.2504 13.4527 64.3844 13.531C64.5184 13.6093 64.6254 13.723 64.6922 13.8583L64.5384 13.9397C64.4837 13.8301 64.3967 13.738 64.2881 13.6742C64.1794 13.6105 64.0537 13.5779 63.926 13.5804C63.6931 13.5865 63.472 13.6792 63.3106 13.8386C63.121 14.0235 63.0148 14.2712 63.0147 14.5291C63.0098 14.6122 63.0231 14.6954 63.0538 14.7734C63.0845 14.8514 63.132 14.9224 63.1932 14.9821C63.2544 15.0417 63.328 15.0887 63.4093 15.1199C63.4906 15.1511 63.5779 15.166 63.6656 15.1635C63.7827 15.1612 63.8981 15.137 64.0052 15.0922C64.1124 15.0474 64.2091 14.9829 64.2899 14.9025L64.4141 15.0175C64.3155 15.1148 64.1975 15.1924 64.067 15.2459C63.9364 15.2994 63.796 15.3277 63.6538 15.3291C63.5425 15.3338 63.4313 15.3167 63.3273 15.2789C63.2232 15.2411 63.1285 15.1835 63.0489 15.1095C62.9692 15.0356 62.9065 14.9469 62.8645 14.849C62.8225 14.7511 62.8021 14.646 62.8047 14.5404Z" fill="#444242"/>
<path d="M66.1451 14.3158C66.1504 13.8865 66.3331 13.4763 66.6539 13.1734C66.7928 13.0373 66.9587 12.9286 67.142 12.8535C67.3252 12.7783 67.5223 12.7382 67.722 12.7355C67.9216 12.727 68.1196 12.7737 68.2919 12.8698C68.4641 12.966 68.6032 13.1075 68.6924 13.2772L68.5237 13.3643C68.45 13.222 68.3338 13.1034 68.1898 13.0231C68.0457 12.9428 67.88 12.9043 67.7131 12.9123C67.5446 12.9143 67.3781 12.9478 67.2233 13.0109C67.0685 13.074 66.9283 13.1655 66.8107 13.28C66.5208 13.5552 66.3552 13.9268 66.3492 14.3158C66.3437 14.4278 66.3629 14.5396 66.4056 14.6441C66.4483 14.7487 66.5134 14.8436 66.597 14.9228C66.6805 15.0021 66.7806 15.0639 66.8907 15.1044C67.0009 15.1449 67.1188 15.1631 67.2368 15.1579C67.4043 15.1584 67.5701 15.1252 67.7231 15.0603C67.8761 14.9955 68.0129 14.9005 68.1243 14.7818L68.2575 14.8969C68.126 15.0362 67.9643 15.1469 67.7836 15.2215C67.6028 15.2961 67.4072 15.3328 67.2101 15.3292C67.0689 15.3331 66.9283 15.3095 66.797 15.2599C66.6658 15.2103 66.5466 15.1358 66.4468 15.0409C66.347 14.9459 66.2688 14.8326 66.2169 14.708C66.165 14.5833 66.1406 14.4498 66.1451 14.3158Z" fill="#444242"/>
<path d="M69.3818 12.6681H69.5652L69.2457 13.7909C69.3272 13.6778 69.4355 13.5844 69.5619 13.5181C69.6882 13.4519 69.8292 13.4145 69.9735 13.4091C70.0561 13.404 70.139 13.4153 70.2167 13.4425C70.2945 13.4696 70.3653 13.512 70.4247 13.5667C70.4841 13.6215 70.5308 13.6875 70.5616 13.7604C70.5924 13.8334 70.6067 13.9117 70.6037 13.9902C70.6003 14.0775 70.5864 14.1641 70.5622 14.2484L70.2664 15.2814H70.08L70.3758 14.2344C70.3952 14.16 70.4051 14.0837 70.4054 14.007C70.4089 13.9459 70.3982 13.8847 70.3742 13.8279C70.3501 13.771 70.3133 13.7198 70.2662 13.6778C70.2192 13.6359 70.1631 13.6042 70.1018 13.5849C70.0405 13.5656 69.9755 13.5593 69.9113 13.5663C69.7191 13.5864 69.5382 13.6629 69.3939 13.7852C69.2496 13.9074 69.1492 14.0694 69.1066 14.2484L68.8108 15.2814H68.6392L69.3818 12.6681Z" fill="#444242"/>
<path d="M70.8963 14.8155C70.8948 14.7348 70.9106 14.6547 70.9426 14.5799C70.9747 14.5051 71.0223 14.4373 71.0827 14.3804C71.2698 14.2215 71.5153 14.1388 71.7662 14.1503C72.0164 14.1545 72.265 14.1894 72.5058 14.2541L72.5206 14.2036C72.5367 14.1439 72.5457 14.0827 72.5472 14.0211C72.5472 13.7404 72.3431 13.5917 71.9555 13.5917C71.7644 13.5925 71.5751 13.6258 71.3963 13.6899L71.3608 13.5327C71.5555 13.4629 71.7621 13.4277 71.9703 13.4289C72.4437 13.4289 72.7188 13.6478 72.7188 13.9903C72.716 14.0719 72.7031 14.1529 72.6804 14.2317L72.3845 15.2787H72.204L72.2898 14.9643C72.1977 15.0759 72.08 15.1662 71.9458 15.2284C71.8115 15.2907 71.6641 15.3232 71.5147 15.3236C71.4386 15.3301 71.362 15.322 71.2893 15.2998C71.2166 15.2776 71.1494 15.2417 71.0917 15.1942C71.034 15.1468 70.9869 15.0888 70.9534 15.0238C70.9198 14.9587 70.9004 14.8879 70.8963 14.8155ZM72.423 14.5573L72.4673 14.3973C72.2294 14.3404 71.985 14.3111 71.7395 14.3103C71.5527 14.3012 71.3697 14.3628 71.2307 14.4815C71.187 14.522 71.1524 14.5705 71.129 14.6241C71.1056 14.6776 71.0939 14.7351 71.0946 14.7931C71.0946 15.0204 71.275 15.1664 71.562 15.1664C71.755 15.1645 71.9424 15.1044 72.0971 14.995C72.2519 14.8855 72.366 14.7322 72.423 14.5573Z" fill="#444242"/>
<path d="M73.5354 13.4568H73.7218L73.6272 13.7964C73.7087 13.6834 73.817 13.59 73.9434 13.5237C74.0697 13.4574 74.2107 13.4201 74.355 13.4147C74.4376 13.4095 74.5205 13.4209 74.5982 13.448C74.676 13.4752 74.7468 13.5175 74.8062 13.5723C74.8656 13.627 74.9123 13.693 74.9431 13.766C74.9739 13.8389 74.9882 13.9172 74.9852 13.9957C74.982 14.083 74.9681 14.1697 74.9437 14.254L74.6479 15.2869H74.4615L74.7573 14.2399C74.7764 14.1655 74.7863 14.0892 74.7869 14.0126C74.7904 13.9514 74.7797 13.8902 74.7557 13.8334C74.7316 13.7765 74.6948 13.7253 74.6478 13.6834C74.6007 13.6414 74.5446 13.6097 74.4833 13.5904C74.422 13.5712 74.357 13.5648 74.2928 13.5719C74.1006 13.5919 73.9197 13.6684 73.7754 13.7907C73.6311 13.913 73.5307 14.0749 73.4881 14.254L73.1923 15.2869H73.0059L73.5354 13.4568Z" fill="#444242"/>
<path d="M75.1775 15.5257L75.3136 15.3966C75.5221 15.591 75.8023 15.7008 76.0947 15.7025C76.2027 15.7071 76.3105 15.6913 76.4121 15.6562C76.5136 15.621 76.6069 15.5671 76.6864 15.4976C76.8171 15.3623 76.9079 15.1968 76.9497 15.0176L77.0177 14.7874C76.9213 14.8988 76.801 14.9895 76.6648 15.0534C76.5286 15.1172 76.3796 15.1529 76.2278 15.158C76.1254 15.1633 76.0228 15.1489 75.9264 15.1158C75.8299 15.0826 75.7415 15.0314 75.6664 14.9651C75.5913 14.8988 75.531 14.8188 75.4892 14.73C75.4474 14.6411 75.4249 14.5451 75.423 14.4478C75.4219 14.3135 75.4493 14.1804 75.5037 14.0564C75.5581 13.9325 75.6383 13.8202 75.7396 13.7264C75.9461 13.53 76.2254 13.4182 76.5177 13.4148C76.6818 13.4083 76.8436 13.4524 76.9791 13.5404C77.1145 13.6285 77.2163 13.7558 77.2692 13.9032L77.3935 13.4597H77.5799L77.1302 15.0625C77.0842 15.2658 76.9821 15.4537 76.8343 15.6071C76.7372 15.6965 76.6216 15.7659 76.4948 15.8109C76.368 15.8558 76.2327 15.8753 76.0976 15.8681C75.7563 15.8683 75.4277 15.7459 75.1775 15.5257ZM76.9231 14.7117C77.0815 14.5694 77.175 14.3739 77.1834 14.1671C77.1804 14.0862 77.1604 14.0067 77.1245 13.9333C77.0886 13.8599 77.0376 13.794 76.9744 13.7396C76.9113 13.6852 76.8373 13.6433 76.7568 13.6165C76.6764 13.5896 76.591 13.5783 76.5059 13.5832C76.2705 13.5832 76.0447 13.672 75.8783 13.8299C75.7118 13.9878 75.6183 14.202 75.6183 14.4253C75.6181 14.503 75.6348 14.5799 75.6674 14.6511C75.7001 14.7223 75.748 14.7863 75.808 14.8391C75.8681 14.8918 75.939 14.9322 76.0164 14.9576C76.0937 14.983 76.1758 14.993 76.2574 14.9867C76.5089 14.9823 76.7483 14.8834 76.9231 14.7117Z" fill="#444242"/>
<path d="M78.0237 14.4308C78.0201 14.471 78.0201 14.5114 78.0237 14.5515C78.0166 14.6324 78.0281 14.7137 78.0573 14.7899C78.0866 14.8661 78.1329 14.9355 78.193 14.9931C78.2532 15.0507 78.3258 15.0953 78.4059 15.1237C78.4859 15.1522 78.5716 15.1638 78.6568 15.1578C78.9005 15.1586 79.1354 15.0713 79.3136 14.9136L79.4231 15.0399C79.2144 15.2223 78.9405 15.3227 78.6568 15.3206C78.5474 15.3281 78.4377 15.3138 78.3344 15.2788C78.2312 15.2437 78.1367 15.1887 78.0572 15.1171C77.9776 15.0456 77.9145 14.9591 77.8721 14.8631C77.8297 14.7672 77.8087 14.664 77.8107 14.5599C77.8145 14.2439 77.9483 13.9417 78.1835 13.7178C78.2789 13.6223 78.3935 13.5459 78.5205 13.4928C78.6475 13.4398 78.7844 13.4113 78.9231 13.4091C79.0209 13.4037 79.1189 13.4181 79.2103 13.4514C79.3018 13.4847 79.3848 13.5362 79.4536 13.6023C79.5225 13.6685 79.5757 13.7478 79.6098 13.835C79.6438 13.9222 79.6578 14.0153 79.6509 14.108C79.6524 14.2168 79.6344 14.325 79.5976 14.428L78.0237 14.4308ZM78.0592 14.2736H79.4556C79.4663 14.2238 79.4712 14.1729 79.4704 14.1221C79.4805 14.0499 79.4737 13.9766 79.4506 13.9072C79.4275 13.8378 79.3886 13.7741 79.3367 13.7205C79.2847 13.667 79.221 13.6249 79.1501 13.5973C79.0791 13.5696 79.0027 13.5571 78.926 13.5606C78.8152 13.5619 78.7058 13.5841 78.6042 13.6261C78.5026 13.668 78.4108 13.7288 78.3343 13.8049C78.1999 13.9348 78.1048 14.0968 78.0592 14.2736Z" fill="#444242"/>
</g>
<defs>
<clipPath id="clip0">
<rect width="100" height="16" fill="white"/>
</clipPath>
</defs>
</svg>
