<svg width="558" height="104" viewBox="0 0 558 104" fill="none" xmlns="http://www.w3.org/2000/svg">
<path d="M0 52C0 23.2812 23.2812 0 52 0H506C534.719 0 558 23.2812 558 52C558 80.7188 534.719 104 506 104H52C23.2812 104 0 80.7188 0 52Z" fill="url(#paint0_linear)"/>
<path d="M238.492 42.32H229.672V65H226.432V42.32H217.612V39.44H238.492V42.32ZM259.057 65H255.889V54.488C255.889 52.544 255.553 51.104 254.881 50.168C254.209 49.208 253.225 48.728 251.929 48.728C251.305 48.728 250.681 48.86 250.057 49.124C249.433 49.364 248.845 49.7 248.293 50.132C247.765 50.564 247.285 51.08 246.853 51.68C246.445 52.28 246.133 52.94 245.917 53.66V65H242.749V38.72H245.917V50.24C246.661 48.872 247.669 47.804 248.941 47.036C250.213 46.268 251.605 45.884 253.117 45.884C254.221 45.884 255.157 46.088 255.925 46.496C256.693 46.904 257.305 47.456 257.761 48.152C258.217 48.848 258.541 49.688 258.733 50.672C258.949 51.632 259.057 52.664 259.057 53.768V65ZM273.38 65.36C271.964 65.36 270.668 65.108 269.492 64.604C268.316 64.076 267.308 63.368 266.468 62.48C265.628 61.592 264.968 60.56 264.488 59.384C264.032 58.184 263.804 56.924 263.804 55.604C263.804 54.284 264.032 53.036 264.488 51.86C264.968 50.684 265.628 49.652 266.468 48.764C267.332 47.876 268.352 47.18 269.528 46.676C270.704 46.148 272 45.884 273.416 45.884C274.832 45.884 276.116 46.148 277.268 46.676C278.444 47.204 279.44 47.912 280.256 48.8C281.072 49.664 281.696 50.684 282.128 51.86C282.584 53.012 282.812 54.212 282.812 55.46C282.812 55.724 282.8 55.964 282.776 56.18C282.776 56.396 282.764 56.564 282.74 56.684H267.152C267.224 57.62 267.44 58.472 267.8 59.24C268.16 60.008 268.628 60.668 269.204 61.22C269.78 61.772 270.428 62.204 271.148 62.516C271.892 62.828 272.672 62.984 273.488 62.984C274.064 62.984 274.628 62.912 275.18 62.768C275.732 62.6 276.248 62.384 276.728 62.12C277.208 61.856 277.628 61.532 277.988 61.148C278.372 60.764 278.66 60.332 278.852 59.852L281.588 60.608C281.276 61.304 280.844 61.94 280.292 62.516C279.764 63.092 279.14 63.596 278.42 64.028C277.724 64.436 276.944 64.76 276.08 65C275.216 65.24 274.316 65.36 273.38 65.36ZM279.824 54.344C279.752 53.456 279.524 52.64 279.14 51.896C278.78 51.128 278.312 50.48 277.736 49.952C277.184 49.424 276.536 49.016 275.792 48.728C275.048 48.416 274.256 48.26 273.416 48.26C272.576 48.26 271.784 48.416 271.04 48.728C270.296 49.016 269.636 49.436 269.06 49.988C268.508 50.516 268.052 51.152 267.692 51.896C267.356 52.64 267.152 53.456 267.08 54.344H279.824ZM315.745 65H312.577V54.488C312.577 52.52 312.253 51.068 311.605 50.132C310.981 49.196 310.045 48.728 308.797 48.728C307.501 48.728 306.337 49.196 305.305 50.132C304.297 51.044 303.577 52.232 303.145 53.696V65H299.977V54.488C299.977 52.472 299.665 51.008 299.041 50.096C298.417 49.184 297.481 48.728 296.233 48.728C294.961 48.728 293.809 49.184 292.777 50.096C291.745 50.984 291.013 52.172 290.581 53.66V65H287.413V46.208H290.293V50.24C291.061 48.848 292.057 47.78 293.281 47.036C294.505 46.268 295.885 45.884 297.421 45.884C299.005 45.884 300.253 46.316 301.165 47.18C302.101 48.02 302.677 49.112 302.893 50.456C304.573 47.408 306.961 45.884 310.057 45.884C311.137 45.884 312.037 46.088 312.757 46.496C313.501 46.88 314.089 47.432 314.521 48.152C314.953 48.848 315.265 49.676 315.457 50.636C315.649 51.596 315.745 52.64 315.745 53.768V65ZM326.575 65.36C325.687 65.36 324.859 65.216 324.091 64.928C323.323 64.616 322.651 64.196 322.075 63.668C321.523 63.14 321.079 62.528 320.743 61.832C320.431 61.112 320.275 60.332 320.275 59.492C320.275 58.628 320.467 57.848 320.851 57.152C321.235 56.432 321.775 55.82 322.471 55.316C323.191 54.812 324.031 54.416 324.991 54.128C325.975 53.84 327.043 53.696 328.195 53.696C329.107 53.696 330.031 53.78 330.967 53.948C331.903 54.116 332.731 54.344 333.451 54.632V53.12C333.451 51.584 333.019 50.384 332.155 49.52C331.291 48.632 330.067 48.188 328.483 48.188C326.587 48.188 324.595 48.92 322.507 50.384L321.463 48.332C323.887 46.7 326.323 45.884 328.771 45.884C331.243 45.884 333.163 46.544 334.531 47.864C335.923 49.184 336.619 51.044 336.619 53.444V61.112C336.619 61.856 336.955 62.24 337.627 62.264V65C337.291 65.048 337.015 65.084 336.799 65.108C336.583 65.132 336.355 65.144 336.115 65.144C335.491 65.144 334.987 64.964 334.603 64.604C334.243 64.22 334.027 63.764 333.955 63.236L333.883 61.904C333.043 63.032 331.975 63.896 330.679 64.496C329.407 65.072 328.039 65.36 326.575 65.36ZM327.403 62.984C328.531 62.984 329.575 62.78 330.535 62.372C331.519 61.94 332.263 61.376 332.767 60.68C333.223 60.224 333.451 59.756 333.451 59.276V56.504C331.915 55.904 330.319 55.604 328.663 55.604C327.079 55.604 325.783 55.94 324.775 56.612C323.791 57.284 323.299 58.16 323.299 59.24C323.299 59.768 323.395 60.26 323.587 60.716C323.803 61.172 324.091 61.568 324.451 61.904C324.835 62.24 325.279 62.504 325.783 62.696C326.287 62.888 326.827 62.984 327.403 62.984ZM352.344 64.064C352.152 64.16 351.9 64.28 351.588 64.424C351.276 64.544 350.916 64.676 350.508 64.82C350.124 64.94 349.692 65.036 349.212 65.108C348.756 65.204 348.276 65.252 347.772 65.252C346.62 65.252 345.624 64.94 344.784 64.316C343.944 63.668 343.524 62.672 343.524 61.328V48.692H340.968V46.208H343.524V39.944H346.692V46.208H350.904V48.692H346.692V60.356C346.74 61.052 346.968 61.556 347.376 61.868C347.784 62.18 348.264 62.336 348.816 62.336C349.44 62.336 350.004 62.24 350.508 62.048C351.036 61.832 351.396 61.664 351.588 61.544L352.344 64.064ZM356.36 65V46.208H359.528V65H356.36ZM356.36 42.68V38.72H359.528V42.68H356.36ZM364.477 55.568C364.477 54.248 364.705 53 365.161 51.824C365.617 50.648 366.265 49.628 367.105 48.764C367.945 47.876 368.941 47.18 370.093 46.676C371.269 46.148 372.577 45.884 374.017 45.884C375.889 45.884 377.497 46.304 378.841 47.144C380.209 47.96 381.241 49.064 381.937 50.456L378.841 51.428C378.361 50.54 377.689 49.856 376.825 49.376C375.961 48.872 375.001 48.62 373.945 48.62C373.081 48.62 372.265 48.8 371.497 49.16C370.729 49.496 370.069 49.976 369.517 50.6C368.965 51.224 368.521 51.956 368.185 52.796C367.873 53.636 367.717 54.56 367.717 55.568C367.717 56.552 367.885 57.476 368.221 58.34C368.557 59.204 369.001 59.96 369.553 60.608C370.129 61.232 370.789 61.724 371.533 62.084C372.301 62.444 373.117 62.624 373.981 62.624C374.533 62.624 375.073 62.552 375.601 62.408C376.153 62.24 376.645 62.024 377.077 61.76C377.533 61.496 377.929 61.196 378.265 60.86C378.601 60.5 378.841 60.116 378.985 59.708L382.081 60.644C381.793 61.34 381.385 61.976 380.857 62.552C380.353 63.128 379.753 63.62 379.057 64.028C378.361 64.436 377.581 64.76 376.717 65C375.877 65.24 374.989 65.36 374.053 65.36C372.637 65.36 371.341 65.096 370.165 64.568C368.989 64.04 367.981 63.332 367.141 62.444C366.301 61.556 365.641 60.524 365.161 59.348C364.705 58.148 364.477 56.888 364.477 55.568ZM404.091 39.44H406.827L417.267 65H413.811L410.787 57.512H400.059L397.071 65H393.615L404.091 39.44ZM410.067 54.992L405.459 43.184L400.707 54.992H410.067ZM431.19 48.98C429.606 49.028 428.202 49.436 426.978 50.204C425.778 50.972 424.926 52.04 424.422 53.408V65H421.254V46.208H424.206V50.564C424.854 49.268 425.706 48.224 426.762 47.432C427.818 46.616 428.946 46.16 430.146 46.064C430.386 46.064 430.59 46.064 430.758 46.064C430.926 46.064 431.07 46.076 431.19 46.1V48.98ZM443.307 65.36C441.891 65.36 440.595 65.108 439.419 64.604C438.243 64.076 437.235 63.368 436.395 62.48C435.555 61.592 434.895 60.56 434.415 59.384C433.959 58.184 433.731 56.924 433.731 55.604C433.731 54.284 433.959 53.036 434.415 51.86C434.895 50.684 435.555 49.652 436.395 48.764C437.259 47.876 438.279 47.18 439.455 46.676C440.631 46.148 441.927 45.884 443.343 45.884C444.759 45.884 446.043 46.148 447.195 46.676C448.371 47.204 449.367 47.912 450.183 48.8C450.999 49.664 451.623 50.684 452.055 51.86C452.511 53.012 452.739 54.212 452.739 55.46C452.739 55.724 452.727 55.964 452.703 56.18C452.703 56.396 452.691 56.564 452.667 56.684H437.079C437.151 57.62 437.367 58.472 437.727 59.24C438.087 60.008 438.555 60.668 439.131 61.22C439.707 61.772 440.355 62.204 441.075 62.516C441.819 62.828 442.599 62.984 443.415 62.984C443.991 62.984 444.555 62.912 445.107 62.768C445.659 62.6 446.175 62.384 446.655 62.12C447.135 61.856 447.555 61.532 447.915 61.148C448.299 60.764 448.587 60.332 448.779 59.852L451.515 60.608C451.203 61.304 450.771 61.94 450.219 62.516C449.691 63.092 449.067 63.596 448.347 64.028C447.651 64.436 446.871 64.76 446.007 65C445.143 65.24 444.243 65.36 443.307 65.36ZM449.751 54.344C449.679 53.456 449.451 52.64 449.067 51.896C448.707 51.128 448.239 50.48 447.663 49.952C447.111 49.424 446.463 49.016 445.719 48.728C444.975 48.416 444.183 48.26 443.343 48.26C442.503 48.26 441.711 48.416 440.967 48.728C440.223 49.016 439.563 49.436 438.987 49.988C438.435 50.516 437.979 51.152 437.619 51.896C437.283 52.64 437.079 53.456 437.007 54.344H449.751ZM462.164 65.36C461.276 65.36 460.448 65.216 459.68 64.928C458.912 64.616 458.24 64.196 457.664 63.668C457.112 63.14 456.668 62.528 456.332 61.832C456.02 61.112 455.864 60.332 455.864 59.492C455.864 58.628 456.056 57.848 456.44 57.152C456.824 56.432 457.364 55.82 458.06 55.316C458.78 54.812 459.62 54.416 460.58 54.128C461.564 53.84 462.632 53.696 463.784 53.696C464.696 53.696 465.62 53.78 466.556 53.948C467.492 54.116 468.32 54.344 469.04 54.632V53.12C469.04 51.584 468.608 50.384 467.744 49.52C466.88 48.632 465.656 48.188 464.072 48.188C462.176 48.188 460.184 48.92 458.096 50.384L457.052 48.332C459.476 46.7 461.912 45.884 464.36 45.884C466.832 45.884 468.752 46.544 470.12 47.864C471.512 49.184 472.208 51.044 472.208 53.444V61.112C472.208 61.856 472.544 62.24 473.216 62.264V65C472.88 65.048 472.604 65.084 472.388 65.108C472.172 65.132 471.944 65.144 471.704 65.144C471.08 65.144 470.576 64.964 470.192 64.604C469.832 64.22 469.616 63.764 469.544 63.236L469.472 61.904C468.632 63.032 467.564 63.896 466.268 64.496C464.996 65.072 463.628 65.36 462.164 65.36ZM462.992 62.984C464.12 62.984 465.164 62.78 466.124 62.372C467.108 61.94 467.852 61.376 468.356 60.68C468.812 60.224 469.04 59.756 469.04 59.276V56.504C467.504 55.904 465.908 55.604 464.252 55.604C462.668 55.604 461.372 55.94 460.364 56.612C459.38 57.284 458.888 58.16 458.888 59.24C458.888 59.768 458.984 60.26 459.176 60.716C459.392 61.172 459.68 61.568 460.04 61.904C460.424 62.24 460.868 62.504 461.372 62.696C461.876 62.888 462.416 62.984 462.992 62.984ZM484.942 65.36C483.43 65.36 481.942 65.132 480.478 64.676C479.014 64.196 477.754 63.512 476.698 62.624L478.066 60.5C479.17 61.34 480.274 61.976 481.378 62.408C482.482 62.816 483.646 63.02 484.87 63.02C486.238 63.02 487.318 62.756 488.11 62.228C488.926 61.676 489.334 60.908 489.334 59.924C489.334 59.468 489.226 59.084 489.01 58.772C488.794 58.436 488.47 58.148 488.038 57.908C487.606 57.668 487.054 57.452 486.382 57.26C485.71 57.068 484.93 56.864 484.042 56.648C482.914 56.36 481.942 56.084 481.126 55.82C480.31 55.556 479.638 55.244 479.11 54.884C478.582 54.524 478.198 54.092 477.958 53.588C477.718 53.084 477.598 52.46 477.598 51.716C477.598 50.78 477.778 49.952 478.138 49.232C478.522 48.488 479.038 47.876 479.686 47.396C480.334 46.892 481.09 46.52 481.954 46.28C482.842 46.016 483.79 45.884 484.798 45.884C486.214 45.884 487.534 46.112 488.758 46.568C489.982 47.024 491.014 47.624 491.854 48.368L490.414 50.276C489.622 49.58 488.734 49.064 487.75 48.728C486.766 48.368 485.758 48.188 484.726 48.188C483.574 48.188 482.59 48.44 481.774 48.944C480.982 49.424 480.586 50.204 480.586 51.284C480.586 51.716 480.658 52.076 480.802 52.364C480.97 52.652 481.234 52.904 481.594 53.12C481.954 53.336 482.41 53.528 482.962 53.696C483.538 53.864 484.222 54.044 485.014 54.236C486.262 54.524 487.342 54.824 488.254 55.136C489.19 55.424 489.958 55.772 490.558 56.18C491.182 56.588 491.638 57.068 491.926 57.62C492.238 58.172 492.394 58.844 492.394 59.636C492.394 61.388 491.722 62.78 490.378 63.812C489.034 64.844 487.222 65.36 484.942 65.36Z" fill="black"/>
<rect width="181" height="104" rx="52" fill="#64B663"/>
<path d="M94.08 82.128V71.312H73.536V66.32L95.872 37.456H99.712V66.192H105.344V71.312H99.712V82.128H94.08ZM79.36 66.192H94.656V46.16L79.36 66.192Z" fill="white"/>
<defs>
<linearGradient id="paint0_linear" x1="558" y1="52" x2="-2.24364e-06" y2="51.9999" gradientUnits="userSpaceOnUse">
<stop offset="0.328125" stop-color="#DDF516"/>
<stop offset="1" stop-color="#64B663"/>
</linearGradient>
</defs>
</svg>
