<svg width="44" height="44" viewBox="0 0 44 44" fill="none" xmlns="http://www.w3.org/2000/svg">
<path d="M21.9999 0C34.1509 0 44 9.85049 44 22.0001C44 34.151 34.1509 44 21.9999 44C9.84898 44 0 34.1509 0 22.0001C0 9.85049 9.84913 0 21.9999 0Z" fill="#26A6D1"/>
<path d="M35.7542 14.8211C34.7931 15.2363 33.759 15.5154 32.6742 15.642C33.7825 14.997 34.6323 13.9781 35.0324 12.7614C33.9957 13.3595 32.8488 13.7927 31.6265 14.025C30.6488 13.0144 29.2559 12.3832 27.7133 12.3832C24.7543 12.3832 22.3535 14.7111 22.3535 17.5847C22.3535 17.9932 22.4004 18.3905 22.4924 18.7714C18.0374 18.5543 14.0856 16.482 11.4429 13.3347C10.9809 14.1033 10.7169 14.9957 10.7169 15.9499C10.7169 17.7539 11.6628 19.3489 13.1012 20.2799C12.2212 20.2524 11.3961 20.0199 10.6716 19.6281V19.6941C10.6716 22.2159 12.5195 24.3183 14.9725 24.7968C14.5229 24.915 14.0498 24.9797 13.5603 24.9797C13.2152 24.9797 12.8797 24.9481 12.5524 24.8862C13.2344 26.9542 15.2145 28.4584 17.5616 28.4998C15.726 29.8967 13.4146 30.7272 10.9025 30.7272C10.4693 30.7272 10.0431 30.7025 9.62231 30.6544C11.9969 32.1311 14.813 32.9933 17.8421 32.9933C27.7036 32.9933 33.0964 25.0623 33.0964 18.1872L33.0813 17.5135C34.1261 16.7818 35.0351 15.8661 35.7542 14.8211Z" fill="white"/>
</svg>
