<svg width="16" height="16" viewBox="0 0 16 16" fill="none" xmlns="http://www.w3.org/2000/svg">
<path d="M15.3039 8.67945C14.8399 8.09891 14.247 7.72262 13.5246 7.55036C13.7526 7.20594 13.8662 6.82259 13.8662 6.40039C13.8662 5.81147 13.6579 5.30874 13.2414 4.89203C12.8248 4.47546 12.322 4.26709 11.7331 4.26709C11.2053 4.26709 10.7442 4.43933 10.3499 4.7838C10.0222 3.98376 9.49844 3.34213 8.77908 2.85887C8.05972 2.37546 7.26663 2.13379 6.39987 2.13379C5.22218 2.13379 4.21657 2.55056 3.38323 3.3839C2.54984 4.21703 2.13327 5.22269 2.13327 6.40048C2.13327 6.47269 2.13885 6.59215 2.14994 6.75876C1.49441 7.06432 0.972242 7.52263 0.583258 8.13367C0.194419 8.74489 0 9.41142 0 10.1338C0 11.1616 0.365342 12.0406 1.09582 12.7711C1.82633 13.5019 2.70552 13.8671 3.73328 13.8671H12.8C13.6832 13.8671 14.4373 13.5544 15.0624 12.9296C15.6874 12.3047 16 11.5506 16 10.667C15.9999 9.92262 15.7679 9.26017 15.3039 8.67945ZM10.5872 8.45459C10.5343 8.50725 10.472 8.5336 10.3998 8.5336H8.5332V11.467C8.5332 11.5391 8.50684 11.6017 8.45407 11.6544C8.40115 11.7073 8.33881 11.7335 8.26669 11.7335H6.66644C6.59423 11.7335 6.53174 11.7074 6.47897 11.6544C6.42631 11.6017 6.39981 11.5391 6.39981 11.467V8.5336H4.53314C4.45544 8.5336 4.39149 8.50865 4.34158 8.45879C4.29158 8.40877 4.26663 8.34485 4.26663 8.26715C4.26663 8.20042 4.29436 8.1337 4.34987 8.06707L7.27486 5.14217C7.32486 5.09214 7.38878 5.06715 7.46654 5.06715C7.54435 5.06715 7.60827 5.09214 7.65821 5.14217L10.5915 8.07538C10.6416 8.12535 10.6663 8.18924 10.6663 8.26718C10.6663 8.33924 10.6399 8.40197 10.5872 8.45459Z" fill="#858585"/>
</svg>
