<svg width="392" height="48" viewBox="0 0 392 48" fill="none" xmlns="http://www.w3.org/2000/svg">
<path d="M1.28078 47L12.7808 1H388C389.657 1 391 2.34315 391 4V44C391 45.6569 389.657 47 388 47H1.28078Z" stroke="#124B88" stroke-width="2"/>
<path d="M165.448 29V21.48L162.52 27.08H161.32L158.392 21.48V29H156.184V17.64H158.552L161.912 24.104L165.304 17.64H167.656V29H165.448ZM178.556 27.064V29H170.668V17.64H178.412V19.576H172.876V22.312H177.66V24.104H172.876V27.064H178.556ZM190.181 29V21.48L187.253 27.08H186.053L183.125 21.48V29H180.917V17.64H183.285L186.645 24.104L190.037 17.64H192.389V29H190.181ZM204.553 26.072C204.553 26.552 204.457 26.9733 204.265 27.336C204.073 27.6987 203.806 28.0027 203.465 28.248C203.134 28.4933 202.745 28.68 202.297 28.808C201.86 28.936 201.39 29 200.889 29H195.401V17.64H201.481C201.876 17.64 202.233 17.7253 202.553 17.896C202.873 18.0667 203.145 18.2907 203.369 18.568C203.593 18.8347 203.764 19.144 203.881 19.496C204.009 19.8373 204.073 20.184 204.073 20.536C204.073 21.0907 203.934 21.6133 203.657 22.104C203.38 22.584 202.974 22.9413 202.441 23.176C203.092 23.368 203.604 23.7147 203.977 24.216C204.361 24.7067 204.553 25.3253 204.553 26.072ZM202.329 25.656C202.329 25.4533 202.292 25.2613 202.217 25.08C202.153 24.888 202.062 24.7227 201.945 24.584C201.828 24.4453 201.689 24.3387 201.529 24.264C201.369 24.1787 201.193 24.136 201.001 24.136H197.609V27.128H200.889C201.092 27.128 201.278 27.0907 201.449 27.016C201.63 26.9413 201.785 26.84 201.913 26.712C202.041 26.5733 202.142 26.4133 202.217 26.232C202.292 26.0507 202.329 25.8587 202.329 25.656ZM197.609 19.528V22.392H200.553C200.926 22.392 201.241 22.264 201.497 22.008C201.764 21.752 201.897 21.4 201.897 20.952C201.897 20.5147 201.774 20.168 201.529 19.912C201.294 19.656 201.001 19.528 200.649 19.528H197.609ZM214.804 27.064V29H206.916V17.64H214.66V19.576H209.124V22.312H213.908V24.104H209.124V27.064H214.804ZM217.165 29V17.64H222.189C222.712 17.64 223.192 17.752 223.629 17.976C224.077 18.1893 224.461 18.4773 224.781 18.84C225.101 19.192 225.352 19.5973 225.533 20.056C225.715 20.504 225.805 20.9573 225.805 21.416C225.805 22.152 225.619 22.824 225.245 23.432C224.883 24.0293 224.387 24.4613 223.757 24.728L226.349 29H223.869L221.549 25.192H219.373V29H217.165ZM219.373 23.256H222.141C222.344 23.256 222.531 23.208 222.701 23.112C222.883 23.016 223.037 22.888 223.165 22.728C223.293 22.5573 223.395 22.36 223.469 22.136C223.544 21.912 223.581 21.672 223.581 21.416C223.581 21.1493 223.539 20.904 223.453 20.68C223.368 20.456 223.251 20.264 223.101 20.104C222.963 19.9333 222.797 19.8053 222.605 19.72C222.424 19.624 222.237 19.576 222.045 19.576H219.373V23.256ZM235.214 20.616C235.139 20.5413 235.001 20.44 234.798 20.312C234.606 20.184 234.366 20.0613 234.078 19.944C233.801 19.816 233.497 19.7093 233.166 19.624C232.835 19.5387 232.499 19.496 232.158 19.496C231.55 19.496 231.097 19.608 230.798 19.832C230.499 20.056 230.35 20.3707 230.35 20.776C230.35 21.0107 230.403 21.208 230.51 21.368C230.627 21.5173 230.793 21.6507 231.006 21.768C231.219 21.8853 231.486 21.992 231.806 22.088C232.137 22.184 232.515 22.2853 232.942 22.392C233.497 22.5413 233.998 22.7013 234.446 22.872C234.905 23.0427 235.289 23.256 235.598 23.512C235.918 23.768 236.163 24.0773 236.334 24.44C236.505 24.792 236.59 25.2293 236.59 25.752C236.59 26.36 236.473 26.8827 236.238 27.32C236.014 27.7467 235.705 28.0933 235.31 28.36C234.926 28.6267 234.478 28.824 233.966 28.952C233.465 29.0693 232.937 29.128 232.382 29.128C231.529 29.128 230.686 29 229.854 28.744C229.022 28.488 228.275 28.1253 227.614 27.656L228.59 25.752C228.686 25.848 228.857 25.976 229.102 26.136C229.358 26.2853 229.657 26.44 229.998 26.6C230.339 26.7493 230.718 26.8773 231.134 26.984C231.55 27.0907 231.977 27.144 232.414 27.144C233.63 27.144 234.238 26.7547 234.238 25.976C234.238 25.7307 234.169 25.5227 234.03 25.352C233.891 25.1813 233.694 25.032 233.438 24.904C233.182 24.776 232.873 24.6587 232.51 24.552C232.147 24.4453 231.742 24.328 231.294 24.2C230.75 24.0507 230.275 23.8907 229.87 23.72C229.475 23.5387 229.145 23.3307 228.878 23.096C228.611 22.8507 228.409 22.5733 228.27 22.264C228.142 21.944 228.078 21.5653 228.078 21.128C228.078 20.552 228.185 20.04 228.398 19.592C228.611 19.144 228.905 18.7707 229.278 18.472C229.662 18.1733 230.105 17.9493 230.606 17.8C231.107 17.64 231.646 17.56 232.222 17.56C233.022 17.56 233.758 17.688 234.43 17.944C235.102 18.1893 235.689 18.4827 236.19 18.824L235.214 20.616Z" fill="#124B88"/>
</svg>
