<svg width="377" height="48" viewBox="0 0 377 48" fill="none" xmlns="http://www.w3.org/2000/svg">
<path d="M1 4C1 2.34315 2.34315 1 4 1H375.722L364.312 47H4C2.34314 47 1 45.6569 1 44V4Z" stroke="#124B88" stroke-width="2"/>
<path d="M150.416 17.64H152.368L156.688 29H154.416L153.36 26.168H149.392L148.352 29H146.08L150.416 17.64ZM152.96 24.616L151.392 20.152L149.76 24.616H152.96ZM167.726 26.072C167.726 26.552 167.63 26.9733 167.438 27.336C167.246 27.6987 166.979 28.0027 166.638 28.248C166.307 28.4933 165.918 28.68 165.47 28.808C165.033 28.936 164.563 29 164.062 29H158.574V17.64H164.654C165.049 17.64 165.406 17.7253 165.726 17.896C166.046 18.0667 166.318 18.2907 166.542 18.568C166.766 18.8347 166.937 19.144 167.054 19.496C167.182 19.8373 167.246 20.184 167.246 20.536C167.246 21.0907 167.107 21.6133 166.83 22.104C166.553 22.584 166.147 22.9413 165.614 23.176C166.265 23.368 166.777 23.7147 167.15 24.216C167.534 24.7067 167.726 25.3253 167.726 26.072ZM165.502 25.656C165.502 25.4533 165.465 25.2613 165.39 25.08C165.326 24.888 165.235 24.7227 165.118 24.584C165.001 24.4453 164.862 24.3387 164.702 24.264C164.542 24.1787 164.366 24.136 164.174 24.136H160.782V27.128H164.062C164.265 27.128 164.451 27.0907 164.622 27.016C164.803 26.9413 164.958 26.84 165.086 26.712C165.214 26.5733 165.315 26.4133 165.39 26.232C165.465 26.0507 165.502 25.8587 165.502 25.656ZM160.782 19.528V22.392H163.726C164.099 22.392 164.414 22.264 164.67 22.008C164.937 21.752 165.07 21.4 165.07 20.952C165.07 20.5147 164.947 20.168 164.702 19.912C164.467 19.656 164.174 19.528 163.822 19.528H160.782ZM174.937 29.08C174.105 29.08 173.348 28.92 172.665 28.6C171.993 28.2693 171.412 27.8373 170.921 27.304C170.441 26.76 170.068 26.1413 169.801 25.448C169.534 24.7547 169.401 24.0453 169.401 23.32C169.401 22.5627 169.54 21.8373 169.817 21.144C170.105 20.4507 170.494 19.8373 170.985 19.304C171.486 18.7707 172.078 18.3493 172.761 18.04C173.444 17.72 174.185 17.56 174.985 17.56C175.806 17.56 176.553 17.7307 177.225 18.072C177.908 18.4027 178.489 18.84 178.969 19.384C179.449 19.928 179.822 20.5467 180.089 21.24C180.356 21.9333 180.489 22.6373 180.489 23.352C180.489 24.1093 180.35 24.8347 180.073 25.528C179.796 26.2107 179.412 26.8187 178.921 27.352C178.43 27.8747 177.844 28.296 177.161 28.616C176.478 28.9253 175.737 29.08 174.937 29.08ZM171.641 23.32C171.641 23.8107 171.716 24.2853 171.865 24.744C172.014 25.2027 172.228 25.608 172.505 25.96C172.793 26.312 173.14 26.5947 173.545 26.808C173.961 27.0213 174.43 27.128 174.953 27.128C175.486 27.128 175.956 27.0213 176.361 26.808C176.777 26.584 177.124 26.2907 177.401 25.928C177.689 25.5653 177.902 25.16 178.041 24.712C178.19 24.2533 178.265 23.7893 178.265 23.32C178.265 22.8293 178.185 22.3547 178.025 21.896C177.876 21.4373 177.657 21.032 177.369 20.68C177.092 20.328 176.745 20.0507 176.329 19.848C175.924 19.6347 175.465 19.528 174.953 19.528C174.42 19.528 173.945 19.64 173.529 19.864C173.113 20.0773 172.766 20.3653 172.489 20.728C172.212 21.08 171.998 21.4853 171.849 21.944C171.71 22.392 171.641 22.8507 171.641 23.32ZM187.623 27.128C188.145 27.128 188.583 27.0213 188.935 26.808C189.297 26.5947 189.585 26.3173 189.799 25.976C190.023 25.6347 190.177 25.2453 190.263 24.808C190.359 24.36 190.407 23.9013 190.407 23.432V17.64H192.599V23.432C192.599 24.2107 192.503 24.9413 192.311 25.624C192.129 26.3067 191.836 26.904 191.431 27.416C191.036 27.928 190.524 28.3333 189.895 28.632C189.265 28.9307 188.513 29.08 187.639 29.08C186.732 29.08 185.959 28.9253 185.319 28.616C184.689 28.296 184.177 27.88 183.783 27.368C183.388 26.8453 183.1 26.2427 182.919 25.56C182.748 24.8773 182.663 24.168 182.663 23.432V17.64H184.871V23.432C184.871 23.912 184.913 24.376 184.999 24.824C185.095 25.2613 185.249 25.6507 185.463 25.992C185.687 26.3333 185.975 26.6107 186.327 26.824C186.679 27.0267 187.111 27.128 187.623 27.128ZM203.959 19.576H200.327V29H198.135V19.576H194.503V17.64H203.959V19.576ZM214.84 27.128C215.362 27.128 215.8 27.0213 216.152 26.808C216.514 26.5947 216.802 26.3173 217.016 25.976C217.24 25.6347 217.394 25.2453 217.48 24.808C217.576 24.36 217.624 23.9013 217.624 23.432V17.64H219.816V23.432C219.816 24.2107 219.72 24.9413 219.528 25.624C219.346 26.3067 219.053 26.904 218.648 27.416C218.253 27.928 217.741 28.3333 217.112 28.632C216.482 28.9307 215.73 29.08 214.856 29.08C213.949 29.08 213.176 28.9253 212.536 28.616C211.906 28.296 211.394 27.88 211 27.368C210.605 26.8453 210.317 26.2427 210.136 25.56C209.965 24.8773 209.88 24.168 209.88 23.432V17.64H212.088V23.432C212.088 23.912 212.13 24.376 212.216 24.824C212.312 25.2613 212.466 25.6507 212.68 25.992C212.904 26.3333 213.192 26.6107 213.544 26.824C213.896 27.0267 214.328 27.128 214.84 27.128ZM229.448 20.616C229.373 20.5413 229.234 20.44 229.032 20.312C228.84 20.184 228.6 20.0613 228.312 19.944C228.034 19.816 227.73 19.7093 227.4 19.624C227.069 19.5387 226.733 19.496 226.392 19.496C225.784 19.496 225.33 19.608 225.032 19.832C224.733 20.056 224.584 20.3707 224.584 20.776C224.584 21.0107 224.637 21.208 224.744 21.368C224.861 21.5173 225.026 21.6507 225.24 21.768C225.453 21.8853 225.72 21.992 226.04 22.088C226.37 22.184 226.749 22.2853 227.176 22.392C227.73 22.5413 228.232 22.7013 228.68 22.872C229.138 23.0427 229.522 23.256 229.832 23.512C230.152 23.768 230.397 24.0773 230.568 24.44C230.738 24.792 230.824 25.2293 230.824 25.752C230.824 26.36 230.706 26.8827 230.472 27.32C230.248 27.7467 229.938 28.0933 229.544 28.36C229.16 28.6267 228.712 28.824 228.2 28.952C227.698 29.0693 227.17 29.128 226.616 29.128C225.762 29.128 224.92 29 224.088 28.744C223.256 28.488 222.509 28.1253 221.848 27.656L222.824 25.752C222.92 25.848 223.09 25.976 223.336 26.136C223.592 26.2853 223.89 26.44 224.232 26.6C224.573 26.7493 224.952 26.8773 225.368 26.984C225.784 27.0907 226.21 27.144 226.648 27.144C227.864 27.144 228.472 26.7547 228.472 25.976C228.472 25.7307 228.402 25.5227 228.264 25.352C228.125 25.1813 227.928 25.032 227.672 24.904C227.416 24.776 227.106 24.6587 226.744 24.552C226.381 24.4453 225.976 24.328 225.528 24.2C224.984 24.0507 224.509 23.8907 224.104 23.72C223.709 23.5387 223.378 23.3307 223.112 23.096C222.845 22.8507 222.642 22.5733 222.504 22.264C222.376 21.944 222.312 21.5653 222.312 21.128C222.312 20.552 222.418 20.04 222.632 19.592C222.845 19.144 223.138 18.7707 223.512 18.472C223.896 18.1733 224.338 17.9493 224.84 17.8C225.341 17.64 225.88 17.56 226.456 17.56C227.256 17.56 227.992 17.688 228.664 17.944C229.336 18.1893 229.922 18.4827 230.424 18.824L229.448 20.616Z" fill="#124B88"/>
</svg>
